ply
format ascii 1.0
comment VCGLIB generated
element vertex 500
property float x
property float y
property float z
property float nx
property float ny
property float nz
element face 0
property list uchar int vertex_indices
end_header
-0.557234 0.34768 0.0969065 0.9872732 0.06016076 0.1472155 
-0.115237 -1.01414 -0.212936 0.2368587 0.04858355 0.9703286 
-0.520307 0.407676 0.348274 0.905894 -0.02920091 -0.4224966 
0.566105 0.393593 0.149705 -0.9993632 -0.02842593 0.02156353 
-0.0909781 -0.778312 0.231077 0.1729025 0.3400078 -0.9243913 
-0.0825888 0.262193 0.710834 0.1455652 0.03791146 -0.9886221 
0.120421 -0.667509 0.308097 -0.04953174 0.5748707 -0.8167438 
-0.561678 0.448891 0.114105 0.9928731 -0.08459342 0.08394586 
-0.174551 -0.924248 -0.18572 0.3969396 -0.004748963 0.9178324 
0.602556 0.0518915 0.191428 -0.9176978 0.3352085 -0.2132277 
0.369975 -0.158417 0.199466 -0.8280455 0.508103 -0.2370065 
0.372744 -0.125684 -0.342906 -0.897347 0.1256535 0.4230598 
0.132359 0.862384 -0.183327 -0.2347142 -0.8797824 0.4133909 
0.323552 -0.101968 0.432821 -0.662216 0.5547541 -0.5037041 
0.122751 -0.24512 0.479484 -0.5088212 0.3813025 -0.7718222 
-0.337176 -0.271881 -0.371643 0.9025332 0.1042762 0.417804 
0.318165 0.795424 -0.12147 -0.5700069 -0.7755646 0.2712781 
-0.281734 -0.177239 0.371197 0.6342005 0.4512234 -0.6278433 
-0.399915 0.741701 0.0771503 0.7157422 -0.6874558 0.1229536 
0.36295 0.570845 0.528065 -0.6104066 -0.3831292 -0.6932646 
-0.51254 0.158102 0.246413 0.9687269 0.1403093 -0.2046499 
-0.438014 -0.213314 0.168329 0.7662435 0.6271089 -0.1400192 
0.176938 0.893238 0.0903565 -0.2393947 -0.9708042 0.01515081 
-0.437336 0.600263 -0.146354 0.8578203 -0.3750993 0.3513473 
-0.343913 0.752828 -0.150696 0.7097485 -0.6667814 0.2272876 
0.0667069 -0.171056 0.547942 -0.01416635 0.5451877 -0.8381943 
0.368683 0.452853 -0.357946 -0.8157582 -0.1543382 0.5574211 
-0.473802 0.468132 -0.128858 0.8839097 -0.1451728 0.4445543 
0.504954 0.575639 -0.0560108 -0.8994647 -0.2878493 0.3287951 
-0.378011 0.569991 -0.295084 0.7864733 -0.2575787 0.5613494 
-0.282415 -0.456529 -0.12874 0.8875473 0.4110552 0.2080709 
-0.162359 -0.570013 0.377345 0.2494392 0.5509923 -0.7963591 
-0.0333882 0.175997 0.699691 -0.02861669 0.1673538 -0.9854816 
0.410585 -0.104539 0.276961 -0.7281876 0.5812864 -0.36311 
0.525076 0.532058 0.326225 -0.8772912 -0.2640889 -0.4007709 
0.353038 0.803527 0.0654891 -0.6126482 -0.789764 0.03057628 
-0.337318 -0.18316 0.289639 0.6683736 0.5503876 -0.5003501 
0.348127 0.638663 -0.310712 -0.7076471 -0.4399173 0.5529091 
0.444672 0.671188 0.324055 -0.7298286 -0.5493557 -0.4068889 
0.397492 0.230703 -0.315487 -0.8635255 0.01222952 0.504157 
0.133226 0.317146 -0.538203 -0.4712081 0.002652677 0.8820181 
0.380759 0.00133606 0.445957 -0.7837372 0.3862296 -0.4863977 
-0.0592967 0.517286 0.647856 0.1577003 -0.3157138 -0.9356577 
0.134605 -0.477787 0.473985 -0.2425907 0.2008831 -0.9491026 
0.195962 -0.167914 0.507384 -0.4402271 0.4851981 -0.7555018 
-0.416503 0.319648 -0.262313 0.8985269 -0.00226899 0.4389127 
0.0857408 -0.567059 -0.423287 -0.2930909 0.9403995 0.1724721 
-0.198785 0.87276 0.200794 0.3234536 -0.9438684 -0.06700911 
-0.557462 0.283231 0.180148 0.9848708 0.172814 0.01284309 
0.12515 0.665469 -0.431409 -0.1159141 -0.5181862 0.8473766 
0.315145 0.4908 0.590012 -0.529035 -0.2770217 -0.8021104 
-0.0097848 -0.969657 0.203823 0.09975495 0.1576596 -0.9824421 
0.0318148 0.900731 -0.103579 -0.04150239 -0.9593175 0.2792626 
0.248816 0.679502 0.542322 -0.4577635 -0.5525813 -0.6964959 
-0.340383 -0.39597 -0.185513 0.8729928 0.4876963 0.005999747 
0.240662 0.777828 -0.263918 -0.489253 -0.7423044 0.4578381 
-0.313102 -0.54663 0.320862 0.7356553 0.1731984 -0.6548387 
0.237756 0.553811 0.609891 -0.3739098 -0.3142988 -0.8725868 
0.356328 -0.340052 -0.259268 -0.9196081 0.3896264 0.05012346 
0.0116283 -0.622004 0.350153 0.01870431 0.7040106 -0.7099432 
0.259026 -0.848165 0.0308016 -0.9208834 0.3847201 -0.06296288 
0.243861 -0.279545 0.342178 -0.827931 -0.0554231 -0.5580846 
-0.138432 0.182938 0.688048 0.2580606 0.1893812 -0.9473855 
-0.197389 -0.913528 0.147585 0.6922888 0.1966299 -0.6943148 
0.00713995 0.201012 -0.633998 0.3399321 -0.4835268 0.8066276 
-0.453346 0.248213 -0.182118 0.8980694 0.0255988 0.4391083 
-0.0705495 -0.327805 -0.623233 0.2758706 -0.004719511 0.9611832 
0.229866 -1.0429 0.00369449 -0.954173 0.2983829 -0.02283988 
-0.0636121 -0.873892 0.202776 0.2152856 0.1840264 -0.959055 
-0.395474 -0.18506 -0.203173 0.9566416 0.2418853 0.1622604 
0.419879 0.730827 0.207581 -0.701077 -0.7102264 -0.06379236 
0.212552 0.86499 -0.0923762 -0.3975401 -0.8873022 0.2337877 
-0.103847 0.902749 0.176229 0.1370846 -0.9856549 -0.09844976 
-0.410232 0.587318 0.421845 0.6650565 -0.3942668 -0.6342346 
-0.335545 0.548256 0.504835 0.5754136 -0.3406155 -0.7435592 
0.256616 0.358659 0.655416 -0.4196081 -0.07186322 -0.9048562 
-0.315784 -0.465726 0.0210658 0.9870666 0.1422296 0.07396175 
0.166179 0.401699 0.682036 -0.2327074 -0.2254563 -0.9460532 
0.232308 0.158487 0.650172 -0.4191864 0.2408111 -0.8753816 
-0.277493 0.7519 -0.260199 0.5696911 -0.6474403 0.5062343 
-0.394742 -0.246008 -0.0666415 0.9519703 0.3061697 0.003572017 
0.413921 -0.189294 -0.116253 -0.9618671 0.272448 -0.02416149 
0.375444 0.415587 0.568163 -0.6102238 -0.1884307 -0.7694939 
0.0033354 -0.412837 -0.638606 -0.09496645 0.1589765 0.9827043 
-0.335152 0.676284 0.430109 0.5745513 -0.512374 -0.6382506 
0.177758 -0.0802084 -0.540217 -0.6523399 -0.08241346 0.7534327 
-0.434695 0.515564 -0.205982 0.8878656 -0.1842151 0.4216155 
0.319958 -0.0995062 -0.428803 -0.7705617 0.03940562 0.6361461 
0.217582 -0.719338 -0.12055 -0.6290143 0.07606419 0.7736636 
0.258711 -0.158437 -0.502153 -0.7076508 -0.01899951 0.7063069 
-0.15909 0.890543 0.0929679 0.2799813 -0.9594672 -0.03214562 
0.049758 0.426419 -0.530425 -0.06743218 -0.1802306 0.9813102 
0.25759 0.199436 -0.451087 -0.5099985 0.0799664 0.8564502 
-0.280934 -0.533636 -0.0521274 0.9253425 0.2626063 0.273458 
0.301704 -0.405367 -0.109363 -0.9050019 0.4067961 0.1244531 
-0.166998 0.723916 -0.366968 0.2555147 -0.6615584 0.7050197 
0.235749 -0.942884 0.00144443 -0.9681761 0.1922882 -0.1601887 
-0.385239 -0.088625 0.34707 0.6713865 0.4634971 -0.5782824 
0.194202 -0.898007 -0.13666 -0.6682033 0.02873232 0.7434237 
0.430574 -0.0858807 -0.0877088 -0.9809207 0.140268 0.1346086 
-0.288534 0.590856 -0.392082 0.5133641 -0.3510307 0.7830931 
-0.469842 0.0246768 0.0311612 0.9453402 0.2751391 0.175016 
-0.390567 0.345218 0.542071 0.7019982 -0.1121987 -0.7032851 
-0.22944 -0.198405 -0.527383 0.7285076 0.05615147 0.6827325 
0.0730978 0.539585 0.648621 -0.07627249 -0.336586 -0.9385588 
0.457064 0.423872 0.484084 -0.780086 -0.167275 -0.602897 
-0.12489 0.894028 -0.0889461 0.1700899 -0.9639359 0.2046877 
-0.0136759 -0.998613 -0.198593 -0.1371006 -0.08733423 0.9866996 
0.347194 -0.396703 0.141365 -0.9889137 -0.1380486 -0.05470172 
-0.0422007 -0.169647 0.543236 0.09407807 0.538403 -0.8374196 
0.361451 -0.224529 -0.335769 -0.9097399 0.07759172 0.4078637 
0.154104 0.452352 -0.516459 -0.2932511 -0.1588356 0.9427486 
-0.402604 0.00544796 0.408268 0.7131658 0.4015169 -0.5746119 
-0.44441 0.186989 0.483163 0.8000669 0.1985667 -0.5660956 
0.559291 0.314564 0.257371 -0.9858006 0.0579719 -0.1575965 
0.101719 -0.556264 -0.548912 -0.4608125 0.634197 0.6208431 
0.302866 -0.194217 0.312133 -0.7887133 0.4167525 -0.4519389 
-0.303221 -0.452423 0.283827 0.8194029 -0.04692876 -0.571294 
-0.0964333 -0.454145 -0.642022 0.4751204 0.3008569 0.8268892 
0.137192 0.746267 -0.360276 -0.1481668 -0.7141747 0.6841061 
0.0728072 0.00687343 -0.673993 -0.6103305 0.062175 0.789703 
-0.0163156 -0.719333 0.257481 0.04533942 0.500233 -0.864703 
0.37051 -0.596089 0.144594 -0.9589057 0.2729315 -0.07751332 
0.194289 -0.618335 -0.142145 -0.6566603 0.2186595 0.7217932 
-0.446942 0.0872851 0.37123 0.8262916 0.2973594 -0.4783511 
0.0782158 0.191594 -0.532848 -0.3568035 -0.2122755 0.9097419 
-0.220167 -0.522743 -0.432254 0.6503502 0.6403559 0.4086428 
0.128468 -0.814695 -0.149813 -0.3611228 0.03063522 0.9320149 
-0.275984 0.400836 0.601761 0.5108309 -0.2315626 -0.8279073 
0.0754951 -0.225256 -0.642046 -0.3092181 -0.04175114 0.9500742 
0.0279219 0.321988 -0.54099 -0.211729 -0.0590702 0.9755417 
0.556529 0.419127 0.253781 -0.9746178 -0.05529705 -0.2169385 
-0.515182 -0.100147 0.173897 0.9218813 0.3279599 0.2063424 
0.0140037 -0.563008 -0.495064 -0.09485447 0.9779848 0.185872 
0.284728 0.447441 -0.447333 -0.5638295 -0.1559158 0.8110405 
0.378309 0.136467 -0.336646 -0.8197988 -0.06586163 0.5688516 
-0.458965 -0.0347955 0.121614 0.958189 0.2860496 0.007032872 
0.232702 -1.01968 -0.130951 -0.7101545 0.09105184 0.6981334 
0.297575 -0.376237 0.260526 -0.8891832 -0.1239426 -0.4404445 
0.412529 0.3891 -0.294634 -0.8515626 -0.06193431 0.5205817 
-0.55061 0.0154633 0.292866 0.9577682 -0.0009068976 -0.28754 
-0.506731 0.18767 -0.0574187 0.9351322 0.1959367 0.295189 
0.358603 -0.616608 0.0406667 -0.9783947 0.1771357 0.1066159 
0.164578 -0.00913227 0.611647 -0.3097179 0.3925029 -0.8660348 
-0.44252 0.710519 0.163266 0.7646375 -0.6422524 -0.05330435 
0.0764115 -0.393607 0.474752 -0.1691523 0.09130066 -0.981352 
0.369332 -0.276743 -0.0378363 -0.8900867 0.4540334 -0.03999449 
-0.0130631 0.917621 0.119398 0.01879659 -0.9986259 -0.04891853 
0.0775318 -0.495903 -0.628686 -0.3758476 0.4556006 0.806949 
-0.148609 0.509345 -0.481818 0.3163581 -0.3109958 0.8962138 
0.451942 0.241667 -0.215683 -0.9087423 0.03340052 0.4160191 
-0.536104 0.236519 0.300845 0.953278 0.2231046 -0.2036796 
0.167896 -1.01799 0.153431 -0.6440276 0.4082923 -0.6469358 
0.186379 0.537638 -0.476361 -0.2904388 -0.3254814 0.8998373 
-0.10077 -0.568205 -0.374875 0.1819881 0.9776735 0.1050476 
-0.109286 0.60815 -0.457893 0.1946906 -0.4211682 0.8858402 
-0.222295 0.0845319 0.616827 0.4749403 0.3029631 -0.8262234 
0.307662 -0.439772 -0.26707 -0.8356473 0.5481626 0.03480256 
-0.00763637 0.911242 0.217777 0.05398495 -0.9958084 -0.07383306 
0.0351428 -0.512911 0.463626 -0.05567746 0.4822998 -0.8742351 
0.044758 0.916672 0.0183513 -0.07907537 -0.993563 0.08111591 
0.0308303 0.870344 -0.197045 -0.01932014 -0.9089937 0.4163619 
-0.336955 -0.451899 0.177431 0.9891202 -0.1073628 -0.1005712 
0.279782 -0.250003 -0.463694 -0.7779641 0.1209188 0.6165634 
-0.0600863 0.276137 -0.529985 0.2445084 -0.04600189 0.9685553 
-0.562259 0.401142 0.201582 0.996977 -0.01794401 -0.07559741 
0.492426 0.301377 -0.14607 -0.9117416 0.03527664 0.4092468 
-0.274733 0.754931 0.419099 0.5116495 -0.6473394 -0.5649482 
-0.337091 -0.225486 0.171414 0.8014461 0.4904145 -0.3423125 
-0.230876 -0.0938725 -0.522943 0.6224602 -0.07638019 0.7789155 
0.271499 -0.799564 -0.0938205 -0.772293 0.1388633 0.6199036 
0.0437074 0.617975 -0.460874 -0.06159427 -0.5006032 0.8634828 
0.534834 0.377509 0.344288 -0.9533659 -0.01845855 -0.3012521 
0.0755067 -0.621691 -0.224095 -0.339837 0.5187317 0.7844924 
-0.289685 -0.764968 0.0886232 0.8566334 0.3748293 -0.354517 
0.0967295 0.902723 0.247434 -0.1035733 -0.9809881 -0.1641189 
-0.111931 -0.20526 0.46626 0.4059847 0.4533832 -0.7934861 
-0.269893 -0.720367 0.179685 0.6069723 0.5728036 -0.5508909 
-0.277548 -0.336965 0.264884 0.8618783 0.1245621 -0.4915792 
-0.150737 -0.271862 -0.580518 0.5706955 0.02162222 0.8208771 
0.32016 -0.423667 -0.364466 -0.8560382 0.3068942 0.4159502 
-0.219346 -0.490947 0.403926 0.6208138 0.04202073 -0.7828311 
0.321746 0.749549 -0.212475 -0.6441106 -0.6594219 0.3876652 
0.299456 -0.701378 -0.0667355 -0.8828975 0.1843662 0.4318578 
-0.387494 0.402852 -0.312091 0.8347762 -0.05423775 0.5479115 
-0.301558 -0.188874 -0.447124 0.7869281 -0.01101197 0.6169465 
0.192202 -0.301238 0.427949 -0.6116726 0.1115417 -0.7832081 
0.562354 0.338014 0.0679989 -0.9936442 -0.01179146 0.1119472 
0.430828 0.605227 0.420494 -0.7450079 -0.4286582 -0.5110922 
0.33795 -0.270568 0.0593178 -0.9059502 0.3422852 -0.2491887 
0.312577 0.579649 -0.384445 -0.6334696 -0.2825103 0.7203501 
-0.385802 0.243652 0.54651 0.7053276 0.1051615 -0.7010379 
-0.508015 0.503813 0.371903 0.8678266 -0.1953426 -0.4568571 
-0.461183 0.611272 -0.0474851 0.8523399 -0.433733 0.2922198 
-0.447538 0.0135649 0.271269 0.8632741 0.3380157 -0.3748376 
0.0922862 -0.105908 -0.594261 -0.5899422 0.0803182 0.8034409 
0.475843 0.139151 -0.110009 -0.9514521 0.1770057 0.2518094 
-0.339751 -0.392705 -0.306407 0.8713576 0.4788898 0.1067731 
-0.170863 0.699881 0.544771 0.350834 -0.5296142 -0.7722852 
0.32989 0.181738 0.604044 -0.5804167 0.213841 -0.7857407 
0.251498 -0.00893664 -0.488368 -0.5801141 -0.09020603 0.8095249 
-0.102426 -0.48263 0.47898 0.3308793 0.0886578 -0.9394991 
-0.189987 -1.01298 0.135946 0.6384809 0.2695011 -0.7209101 
-0.27808 -1.03009 -0.0717709 0.8441851 0.4762063 0.2461281 
0.371714 0.748408 0.329252 -0.6375443 -0.6894413 -0.3438139 
-0.370405 0.313859 -0.360216 0.8522795 -0.06196871 0.5194031 
0.526347 -0.123107 0.0842855 -0.8355763 0.5491985 0.01390215 
-0.428195 -0.0170085 -0.270787 0.9325605 0.06025506 0.3559496 
0.153683 -0.371989 -0.560205 -0.6217052 0.1699811 0.7645842 
-0.196073 0.81448 0.431279 0.3958474 -0.7635269 -0.5102268 
0.151018 0.20664 -0.466832 -0.4254353 -0.04393297 0.9039218 
-0.292423 0.828535 0.0801258 0.5368573 -0.8436698 0.002358889 
-0.0848558 0.803864 0.489179 0.1996632 -0.7488415 -0.6319581 
-0.224719 -0.846546 -0.150372 0.6730497 0.02351153 0.7392234 
0.0142212 0.0622107 0.662062 -0.0003333219 0.3544116 -0.9350895 
-0.216893 -0.631528 -0.122216 0.6778134 0.2050944 0.7060491 
0.369658 0.340205 -0.381123 -0.7010082 0.01991461 0.7128752 
-0.39774 -0.122055 0.240504 0.7022401 0.5678047 -0.4294843 
-0.259579 -0.244656 0.302803 0.7519889 0.4962218 -0.4339085 
-0.408453 0.701045 -0.0698024 0.8027757 -0.5549914 0.2180273 
-0.510068 0.133519 0.140394 0.950491 0.3092534 -0.03048364 
-0.202906 0.401622 -0.483988 0.4477679 -0.1476006 0.8818833 
-0.543644 0.0566562 0.19541 0.9849884 0.07037357 0.1576243 
0.161544 0.296236 0.692032 -0.2757107 0.03006166 -0.9607705 
-0.334569 0.0971729 -0.373374 0.7898523 -0.05833292 0.6105168 
0.525366 0.35283 -0.0547373 -0.9340982 -0.03468676 0.3553272 
0.358185 -0.501692 0.0559086 -0.9632164 -0.03892523 0.265893 
-0.461512 0.664383 0.0488065 0.8001166 -0.561949 0.2098257 
-0.507063 0.28716 -0.0853902 0.925817 0.05293684 0.3742468 
0.522223 0.613265 0.257368 -0.854949 -0.4423186 -0.2709549 
0.17469 0.630982 0.597619 -0.2713116 -0.4538562 -0.8487666 
-0.120822 0.179616 -0.473276 0.5556775 -0.1277042 0.8215316 
-0.402211 0.459687 0.497975 0.6878459 -0.2009866 -0.6974757 
0.464988 -0.0409014 0.0746515 -0.9442835 0.2630895 0.1977688 
0.0754683 0.104591 -0.611906 -0.3675285 -0.6622785 0.6529242 
0.36067 0.0974426 0.529995 -0.6787901 0.3119605 -0.6647741 
0.339845 -0.324937 -0.371037 -0.8978873 0.2031636 0.3905417 
-0.50915 0.278171 0.385988 0.8827641 0.1630355 -0.4406211 
-0.462567 0.355361 0.442669 0.8261034 -0.03259628 -0.562575 
-0.278987 0.456787 -0.427447 0.6226527 -0.1936695 0.7581528 
-0.419395 -0.119701 -0.0712037 0.9619381 0.2684097 0.05129708 
0.212648 -0.852451 0.132064 -0.7776395 0.2822349 -0.561801 
-0.225859 0.271295 0.65996 0.4443058 -0.03798713 -0.8950695 
-0.2063 -0.707594 0.257585 0.3384424 0.6404877 -0.6893709 
-0.403168 0.0961452 0.46192 0.7510576 0.4061879 -0.5205036 
-0.421249 -0.180308 0.012896 0.9185931 0.3945058 0.02349341 
-0.329303 -0.338557 0.105798 0.9277028 0.3416719 -0.1504259 
0.0174113 0.893353 0.314135 -0.02321413 -0.9655969 -0.2590053 
-0.0616206 -0.0652663 0.607227 0.1971544 0.4867209 -0.8510187 
-0.19608 0.531599 0.606023 0.3781734 -0.32655 -0.8662274 
0.507829 0.289814 0.401871 -0.8803575 0.1034673 -0.4628879 
0.254152 0.694174 -0.356066 -0.4364423 -0.596063 0.6739637 
0.136743 0.899019 -0.0333932 -0.1808674 -0.9747708 0.1308011 
-0.0439357 -1.06946 0.196983 0.1821129 0.3816293 -0.9061975 
0.253726 -0.507086 -0.314686 -0.6584216 0.7371895 0.1517652 
0.0340641 -0.30014 0.458886 0.01528522 0.22054 -0.9752582 
-0.477024 0.620024 0.335306 0.7712485 -0.4773937 -0.4210358 
0.52816 0.614736 0.106613 -0.8898553 -0.4468391 0.09215454 
0.478022 0.0337498 0.20195 -0.8930964 0.3920922 -0.2205509 
-0.187271 -0.806292 0.212257 0.4414511 0.3102417 -0.8419448 
-0.210591 -0.528895 -0.20223 0.6378363 0.7408763 0.210398 
-0.312677 0.277433 0.610292 0.5478075 0.01153147 -0.836525 
-0.278797 -0.279233 -0.481445 0.7497675 0.01188986 0.6615945 
-0.428341 -0.0774768 -0.18322 0.9638987 0.2209597 0.1485802 
0.368266 0.685447 0.430342 -0.6440026 -0.5867626 -0.4908873 
0.00999902 0.441951 0.67971 0.08401681 -0.2553094 -0.9632021 
-0.0987989 -0.307865 0.45397 0.4075848 0.1283332 -0.9041047 
0.501355 0.472085 0.401677 -0.891979 -0.1853075 -0.4123526 
-0.352359 0.496501 -0.357008 0.7562565 -0.2105324 0.6194775 
-0.117549 -0.79448 -0.171507 0.219173 -0.03845705 0.9749278 
-0.26812 0.18256 0.630503 0.4460665 0.2022081 -0.8718582 
0.451872 0.488156 -0.19607 -0.8780897 -0.1622667 0.4501422 
-0.25672 -0.964376 -0.000944419 0.9938826 0.08307596 -0.07277264 
0.318702 -0.567201 -0.0367755 -0.8632615 0.12085 0.4900764 
0.281166 -0.906307 -0.0819633 -0.8322302 0.097315 0.545823 
0.162585 -0.0999551 0.572772 -0.4130233 0.5098474 -0.7546307 
0.176362 0.828122 0.420415 -0.2580773 -0.8411018 -0.4753356 
0.478774 0.661924 0.0281535 -0.8089721 -0.5715721 0.137366 
0.016492 0.259407 0.720854 0.01832577 0.0288977 -0.9994144 
0.456651 0.590978 -0.144512 -0.8825907 -0.2697085 0.3850858 
-0.229925 -0.618582 0.317387 0.5459076 0.4805571 -0.6863307 
0.4561 0.10928 0.406283 -0.8248954 0.3037101 -0.476768 
0.463575 0.381797 -0.208453 -0.8918263 -0.03175386 0.4512622 
0.210647 -0.695528 0.278369 -0.446848 0.6498758 -0.6148075 
0.213032 0.28795 -0.477329 -0.4290617 0.1201296 0.8952514 
-0.215927 -0.448702 -0.52415 0.7232763 0.3958527 0.5658373 
-0.363104 -0.312677 -0.241746 0.9425824 0.3042049 0.1378333 
-0.462941 0.350043 -0.176092 0.8870581 0.001731615 0.4616545 
-0.280633 0.342102 -0.462056 0.5852405 -0.1552967 0.7958496 
0.18639 -0.506821 -0.48232 -0.651125 0.6320036 0.4202474 
0.133605 0.781571 0.506636 -0.2353879 -0.6658747 -0.7079573 
-0.215134 0.224883 -0.493235 0.3406884 -0.004694466 0.9401646 
0.372898 0.772832 -0.0382299 -0.6632073 -0.722897 0.1938456 
-0.0743109 -0.698722 -0.20876 0.2327449 0.3462949 0.9087957 
0.344594 -0.281762 0.173166 -0.8847852 0.2993867 -0.3571031 
0.217773 0.620573 -0.432552 -0.3586509 -0.4191549 0.8340735 
0.489586 0.0876994 0.288028 -0.8980863 0.3022194 -0.3195379 
0.518078 0.455614 -0.0712845 -0.9307804 -0.09709021 0.3524507 
-0.372626 -0.337848 -0.0982197 0.9306915 0.3651257 0.02228286 
-0.0783875 -0.888636 -0.182084 0.1256133 0.0007432657 0.992079 
0.234179 -0.344352 -0.49776 -0.6888908 0.1866654 0.7004181 
0.2064 0.0873616 -0.490832 -0.5338628 -0.1709619 0.8281078 
-0.273801 -0.505073 -0.351489 0.6299073 0.7550284 0.1820683 
0.441458 -0.0734054 0.180646 -0.7476667 0.5682295 -0.3436711 
-0.215074 0.858802 -0.120435 0.4169559 -0.8818117 0.2203542 
0.0492227 -0.574109 -0.311002 -0.3643478 0.8416886 0.398511 
0.0739626 0.855585 0.408864 -0.08466598 -0.8856993 -0.4564738 
-0.0517144 0.177284 -0.545586 0.3000749 -0.2612586 0.9174415 
0.440537 -0.20749 -0.0156875 -0.9019513 0.4269402 0.06485358 
0.43558 -0.112195 0.00959313 -0.9612852 0.2354847 0.1431003 
-0.21971 0.0805115 -0.489867 0.4800636 -0.181055 0.8583462 
-0.0389445 0.684748 0.583112 0.05232804 -0.4998536 -0.8645278 
-0.352177 0.750926 0.345293 0.6627614 -0.6462654 -0.3782701 
-0.508942 0.12602 0.0326159 0.9484465 0.2188962 0.2292022 
-0.56119 0.332892 0.273078 0.9717047 0.03623356 -0.2334036 
0.102868 -0.566603 0.403575 -0.09226817 0.5787107 -0.8102965 
-0.396548 -0.112222 -0.295864 0.9255438 0.1954361 0.3243045 
0.539153 0.178936 0.209757 -0.9793079 0.09830115 -0.1768979 
-0.199168 0.629714 -0.420552 0.374396 -0.3958083 0.8385484 
-0.513893 0.636892 0.198596 0.85633 -0.5164093 0.004519479 
-0.210619 -0.33425 -0.527391 0.6314498 0.0420018 0.7742785 
0.0200803 0.762101 -0.355586 0.01494368 -0.7331719 0.6798792 
0.535605 0.232739 -0.0130795 -0.9515291 0.1429546 0.2723167 
-0.0506663 -0.0619753 -0.708905 0.3214059 0.1024305 0.9413853 
-0.397027 0.110042 -0.294444 0.8812877 -0.06175733 0.4685275 
-0.124142 0.599968 0.606532 0.1883665 -0.3627302 -0.9126582 
0.412998 -0.117081 -0.18749 -0.9700623 0.1608082 0.1819888 
-0.0204613 -0.51298 -0.621333 0.2976803 0.5683107 0.7670785 
0.0454723 -0.0462164 -0.762606 -0.6025656 -0.009968244 0.7980071 
0.0769745 -0.340099 -0.616308 -0.3697734 0.01543614 0.9289937 
-0.339636 -0.753048 -0.0420448 0.8643316 0.01297024 0.502755 
0.437455 -0.168558 0.0911213 -0.8147206 0.5320315 -0.2305927 
0.274426 0.740798 0.469065 -0.4750606 -0.6510174 -0.5920252 
-0.256355 0.682824 -0.354191 0.5111834 -0.5608138 0.6512906 
-0.157277 0.303475 -0.528963 0.3031988 0.07445548 0.9500142 
0.157755 -0.924559 0.199983 -0.683426 0.3282262 -0.6520709 
0.410165 0.582723 -0.252538 -0.826877 -0.2996873 0.4758802 
-0.0495146 0.817121 -0.280053 0.01818837 -0.8195502 0.5727186 
-0.17538 0.861462 0.328777 0.2679051 -0.9128575 -0.3080879 
-0.334252 0.673877 -0.286721 0.689881 -0.4828377 0.5393811 
-0.47397 0.0860873 -0.0509131 0.9511823 0.2657357 0.1569614 
0.19665 -0.516071 -0.204242 -0.6138766 0.7064319 0.3522916 
-0.455376 -0.00260561 -0.0958397 0.9681247 0.2180276 0.1232827 
0.079437 -1.02065 0.207056 -0.2387491 0.1097212 -0.9648628 
0.256686 -0.541041 -0.11258 -0.8381398 0.2660455 0.4761738 
0.302765 0.00745992 0.533359 -0.5688599 0.3958858 -0.7208834 
-0.387807 0.00614506 -0.361518 0.886915 0.00131233 0.4619307 
0.135597 -0.978717 -0.166373 -0.4247063 0.1958498 0.8838934 
-0.461052 0.155666 -0.148086 0.9321151 0.1126388 0.3442003 
-0.356723 0.139332 0.546558 0.6254405 0.3235298 -0.7100371 
0.0723804 0.521101 -0.495935 -0.09467708 -0.333593 0.9379509 
0.0412036 0.744955 0.552006 -0.0443154 -0.644697 -0.7631526 
0.22764 0.383405 -0.498367 -0.4402725 -0.04193152 0.8968846 
-0.104625 -0.654654 0.306602 0.171314 0.6234417 -0.7628709 
-0.355083 -0.171368 -0.363037 0.8830005 0.2038871 0.4227768 
-0.0311676 -0.379144 0.469439 0.1123081 0.06515395 -0.9915352 
0.223791 -0.501359 0.434849 -0.3818401 0.3224279 -0.8661631 
-0.357851 -0.689989 0.0627039 0.9885722 0.1475465 0.0309038 
-0.280868 -0.116754 0.45276 0.549643 0.6012207 -0.5800228 
0.0915788 0.91278 0.137075 -0.1638177 -0.9863918 -0.01396079 
-0.152107 -0.564863 -0.28056 0.5242836 0.8094275 0.2644878 
0.0511683 -0.910711 -0.170146 -0.1542068 -0.01775539 0.987879 
-0.0918286 0.397654 -0.539045 0.1812362 -0.1988783 0.9631204 
0.395365 0.676053 -0.18853 -0.7989553 -0.4819762 0.3596795 
0.268311 0.854544 0.147353 -0.457478 -0.8876492 -0.05284651 
-0.335111 -0.562615 0.0264975 0.9388233 -0.004913619 0.3443642 
-0.0285893 0.351101 0.700431 0.097674 -0.1448668 -0.9846184 
0.231841 -0.204291 0.409025 -0.7666284 0.4109214 -0.4933808 
-0.0782061 -0.564078 -0.55774 0.3488873 0.8056622 0.4787338 
-0.277181 -0.853569 0.0273596 0.9260823 0.3207729 -0.1986865 
-0.217083 -0.358118 0.347591 0.6841743 -0.06219037 -0.7266622 
0.506075 0.134843 -0.00728032 -0.9426296 0.1928104 0.2725318 
0.360983 -0.518692 0.206326 -0.9629141 -0.005403643 -0.2697541 
-0.403862 0.745035 0.251135 0.6577943 -0.7082306 -0.2563517 
0.435678 0.0644541 -0.278172 -0.9165528 0.03225439 0.3986107 
-0.0803343 -0.225697 -0.647056 0.3555838 0.2071643 0.9113963 
-0.230783 -1.06067 0.0443721 0.8327633 0.3338515 -0.4416429 
0.546307 -0.0361394 0.219502 -0.7259322 0.561692 -0.3968936 
-0.312981 -0.63788 0.21549 0.8150838 0.346838 -0.4640493 
-0.325223 0.801359 -0.0141474 0.6089798 -0.7895065 0.07630984 
-0.0481403 -0.559571 0.421277 0.1640141 0.5020736 -0.8491299 
0.156806 -0.553691 -0.312354 -0.5082303 0.8339235 0.2151131 
-0.0915969 0.0866909 -0.543486 0.4888191 -0.2261371 0.8425663 
0.325097 0.056531 -0.429964 -0.7070735 -0.04178839 0.7059043 
-0.0855316 0.100098 0.663844 0.1278487 0.3117133 -0.9415358 
0.0458636 0.633378 0.610425 -0.04762742 -0.4140934 -0.9089876 
0.141471 0.806457 -0.279189 -0.2291749 -0.7884173 0.5708564 
0.396703 -0.230724 -0.205697 -0.9612795 0.2228726 0.1620794 
-0.16022 0.013522 -0.530785 0.5405944 -0.3010523 0.7855732 
-0.0461565 -0.126353 -0.629026 0.1778247 0.2804547 0.9432516 
-0.0521561 0.682124 -0.424123 0.1058855 -0.5709108 0.8141555 
-0.269271 0.820534 0.345677 0.4949158 -0.8027653 -0.3326053 
-0.0283194 0.550985 -0.490047 0.06707384 -0.3876424 0.9193664 
-0.0242838 -0.784047 -0.200915 0.06435855 0.2111405 0.9753346 
-0.160333 -0.0212978 0.605877 0.3607984 0.4295299 -0.8278458 
-0.321153 -0.649836 -0.0244048 0.8334825 0.09934843 0.543541 
0.442802 0.00695519 -0.152186 -0.9781801 0.1693036 0.1204163 
-0.223221 0.86489 -0.0222965 0.408138 -0.9051403 0.1189306 
0.317751 -0.74707 0.0298631 -0.9235546 0.3707897 0.09778609 
0.14345 0.113543 0.663969 -0.1921114 0.2723332 -0.9428297 
-0.0862521 0.855392 0.401495 0.1361949 -0.9255794 -0.353205 
0.549315 0.422661 0.0163845 -0.9759176 -0.06010967 0.2096941 
0.232858 0.0619538 0.61449 -0.4737331 0.3349738 -0.8144749 
-0.33589 0.801338 0.191028 0.5402315 -0.8386304 -0.06963495 
-0.338378 -0.00838686 0.482262 0.6639856 0.4313965 -0.6107538 
0.369401 -0.32599 -0.141931 -0.9088101 0.4163319 0.02705587 
0.429461 0.520286 0.470532 -0.718509 -0.3556454 -0.5977133 
0.239345 0.458385 0.644375 -0.3612417 -0.2750659 -0.8909788 
0.458693 0.213013 0.450201 -0.8017924 0.2850263 -0.5252514 
0.286583 -0.736878 0.12705 -0.838668 0.4811445 -0.2552177 
-0.153544 -0.398064 -0.582194 0.5362574 0.1512849 0.8303859 
-0.279603 -0.395693 -0.469349 0.8278248 0.2289863 0.5121245 
0.124984 0.018451 -0.568594 -0.630393 -0.1999086 0.7500942 
0.400105 0.189624 0.529756 -0.7639077 0.2818448 -0.5805243 
-0.396075 0.208371 -0.288233 0.8852178 0.03896996 0.4635415 
0.194959 -0.798233 0.229067 -0.5178522 0.4919026 -0.6999007 
0.3412 0.215895 -0.396409 -0.5675921 0.01525293 0.8231686 
0.27391 -0.627527 0.313211 -0.590057 0.5549058 -0.5864404 
0.364554 0.284939 0.593157 -0.6497728 0.1153907 -0.751319 
-0.157414 0.81004 -0.261669 0.2280897 -0.8167738 0.5299581 
-0.384994 0.664306 -0.202642 0.7946128 -0.4503878 0.4071133 
0.549706 0.505777 0.204198 -0.9907413 -0.1216392 -0.06029558 
0.0147135 0.818702 0.479724 0.02008657 -0.8023943 -0.5964561 
0.077101 -0.801801 0.229428 -0.07697182 0.3899074 -0.9176316 
0.322453 -0.459151 -0.0278265 -0.9684135 0.152864 0.196997 
-0.172985 0.355921 0.66459 0.3294606 -0.1958063 -0.9236426 
0.434977 0.675648 -0.0925877 -0.7805011 -0.5617437 0.2743392 
-0.54478 0.211728 0.0793891 0.9815662 0.147859 0.1211015 
0.296269 -0.462686 0.334836 -0.7890102 -0.01918256 -0.6140805 
0.368082 -0.0203773 -0.385251 -0.8108262 0.04227794 0.5837582 
-0.307091 0.0429419 -0.454444 0.7181066 -0.01226174 0.6958252 
0.313996 0.295803 -0.454707 -0.5852785 0.1070445 0.8037354 
0.321981 0.814171 0.254031 -0.5924986 -0.7936794 -0.1379075 
0.0839301 0.192106 0.695294 -0.1513382 0.1678379 -0.974129 
-0.529615 -0.11167 0.28111 0.7690924 0.5177693 -0.3747155 
0.196542 -0.22382 -0.559589 -0.6108162 -0.004043775 0.7917621 
-0.263042 -0.952045 -0.150042 0.7065365 -0.1591793 0.6895419 
0.446278 0.133694 -0.205827 -0.9376422 0.063548 0.3417436 
-0.4886 0.18061 0.393503 0.8617932 0.231278 -0.4514675 
-0.17345 -0.400289 0.430056 0.5586395 0.04603438 -0.828132 
-0.369119 -0.276641 0.0236283 0.9357158 0.3440199 -0.07801454 
0.442569 -0.0208863 0.317738 -0.7769631 0.4968814 -0.3865714 
-0.129697 -0.547888 -0.468537 0.4527889 0.8071672 0.3787656 
0.284866 -0.553381 0.37779 -0.5719879 0.3837146 -0.7249779 
0.196526 -0.944371 0.0945468 -0.8555769 0.3068346 -0.4169422 
0.291997 -0.274831 0.256414 -0.8902485 0.1733019 -0.4212173 
-0.310209 -0.879911 -0.0840629 0.9104874 -0.05512641 0.4098462 
0.183236 -0.604143 0.350583 -0.2625163 0.5440792 -0.7969084 
0.0209852 0.0968095 -0.699191 -0.02186137 -0.603763 0.796864 
-0.536238 0.283335 0.00954464 0.9742147 0.0985987 0.2029383 
0.0691831 -0.0642719 0.605266 -0.1396201 0.4374428 -0.8883411 
0.264676 0.807946 0.377061 -0.4441645 -0.7616819 -0.4717612 
0.314736 -0.663231 0.193731 -0.8006009 0.5090887 -0.3160172 
-0.548366 0.548874 0.140794 0.931343 -0.3505092 0.09870964 
0.51385 0.173849 0.335277 -0.9306251 0.2493604 -0.267874 
-0.33173 -0.368206 0.00793365 0.9620569 0.2675479 0.05352278 
-0.0537905 0.914242 0.0189845 0.09331566 -0.9937476 0.06130307 
-0.148507 -0.617227 -0.193536 0.6268673 0.4632041 0.6264818 
-0.121623 -0.962843 0.193841 0.3709961 0.3184167 -0.8723375 
-0.513544 0.392624 -0.0759473 0.9228991 -0.02291563 0.3843592 
0.437342 0.288064 0.517944 -0.7834249 0.1311447 -0.607492 
0.261191 -0.456331 -0.437787 -0.6524291 0.5990893 0.4641426 
-0.295558 -0.469663 -0.233286 0.7926375 0.6039379 0.08357629 
-0.513534 0.520159 -0.0305845 0.9039391 -0.2940148 0.310563 
0.0695742 0.341592 0.700808 -0.1089271 -0.06697777 -0.9917907 
0.18243 0.888544 0.194459 -0.2704557 -0.9558819 -0.1146454 
-0.153114 -0.107962 0.549492 0.4340686 0.4998467 -0.7494917 
0.250703 0.255645 0.661782 -0.3593169 0.1187115 -0.9256344 
0.271174 0.85475 0.0424256 -0.5051672 -0.8613855 0.05311361 
-0.251096 -0.0106564 0.551763 0.5424382 0.4388065 -0.7163865 
-0.54953 0.529087 0.252112 0.964482 -0.2160572 -0.1519665 
0.419896 0.732929 0.0914191 -0.6882706 -0.7244202 0.03871445 
-0.376764 -0.564079 0.191938 0.9735773 0.110295 -0.1999557 
0.423182 -0.0370246 -0.259052 -0.9571186 0.1146144 0.2660596 
0.332761 -0.376022 0.0338893 -0.9951665 0.09741916 0.01237843 
-0.0387217 -0.610418 -0.23983 0.2698589 0.5942189 0.7576808 
-0.439456 -0.0829559 0.0301691 0.9505087 0.229957 0.2089331 
-0.0891216 0.888857 0.288981 0.150371 -0.9658321 -0.2110852 
-0.247488 0.630703 0.539922 0.4694032 -0.4595098 -0.753997 
-0.55041 0.43536 0.010671 0.9547602 -0.08513462 0.2849299 
-0.134621 0.452873 0.650331 0.2826362 -0.2447431 -0.9274792 
-0.449213 0.056082 -0.202345 0.9586772 0.01927109 0.2838428 
0.0759946 -0.732099 -0.195924 -0.3501554 0.2664919 0.8979829 
0.523435 0.105134 0.0879359 -0.949347 0.2027811 0.2400419 
-0.519831 0.582549 0.0456785 0.8811055 -0.4272767 0.2027011 
0.561882 0.263413 0.156566 -0.9922719 0.1238757 -0.007162325 
-0.161136 -0.174926 -0.595295 0.5673473 0.005598746 0.8234597 
-0.107804 -0.0361079 -0.601807 0.6475613 -0.1666373 0.74357 
-0.186058 -0.727072 -0.141366 0.5174688 0.03574559 0.8549551 
0.548961 0.514992 0.0675438 -0.9684728 -0.1763387 0.1759687 
0.212275 -0.400382 0.418887 -0.6961476 -0.1491842 -0.7022269 
-0.0922912 0.862318 -0.203472 0.2054629 -0.8803782 0.4274567 
0.204815 0.862333 0.318296 -0.3486456 -0.9023204 -0.2535036 
-0.328129 0.237073 -0.433114 0.7193797 -0.0009565149 0.6946164 
0.553299 -0.00075105 0.10444 -0.9026617 0.2998877 0.3086573 
-0.0550664 0.0755183 -0.634886 0.5808422 -0.3595725 0.7302945 
0.347807 -0.554683 0.297467 -0.8430371 0.1547454 -0.5151138 
0.457858 0.00218784 -0.0210193 -0.9122204 0.1942643 0.3607151 
-0.176707 -0.270272 0.378307 0.6725419 0.3402099 -0.657225 
0.271597 -0.091911 0.517645 -0.5751945 0.4633006 -0.674169 
