ply
format ascii 1.0
element vertex 50
property float x
property float y
property float z
property float nx
property float ny
property float nz
end_header
-0.152945 -0.813124 0.237378 0.0529539 0.296429 -0.953586 
-0.255387 -0.447786 0.0871892 -0.465076 -0.812427 -0.351664 
-0.270748 0.42036 0.00711631 -0.561535 0.827405 0.00896646 
-0.464248 -0.883138 0.0295921 0.464328 0.877904 -0.116981 
0.534273 0.645807 -0.233601 -0.212539 -0.235133 0.94844 
-0.600283 -0.103088 0.206784 -0.521334 -0.0826028 -0.849345 
0.635311 -0.443989 -0.248618 -0.0684608 0.0478985 0.996503 
0.874768 0.478155 0.0343471 -0.864197 -0.477145 -0.159678 
-0.0203024 -0.812189 -0.241586 0.0148979 0.239734 0.970724 
0.711551 0.284684 0.249175 -0.0648928 -0.0332494 -0.997338 
-0.925116 0.342081 0.0775029 0.882623 -0.328906 -0.335854 
-0.812014 0.170478 -0.236541 0.29865 -0.0517091 0.952961 
-0.662652 0.272458 0.247472 -0.0806364 0.0464017 -0.995663 
0.751976 -0.63498 0.0849935 -0.713145 0.597549 -0.366551 
0.989059 0.0983004 0.0536481 -0.968752 -0.0953899 -0.228954 
-0.708243 -0.675748 -0.0982322 0.664497 0.634628 0.394577 
0.51961 0.845233 0.0563046 -0.506083 -0.816127 -0.278957 
0.365487 -0.599877 -0.2455 0.101177 -0.175408 0.979283 
-0.784092 0.61835 0.0133768 0.782132 -0.617874 -0.0806248 
0.449054 -0.220041 0.0126803 0.900727 -0.431277 -0.0518667 
-0.438277 -0.652932 0.247021 0.085056 0.117237 -0.989455 
-0.445856 -0.246051 -0.0676526 -0.83957 -0.464861 0.281117 
0.223679 0.606567 -0.227619 0.131831 0.386891 0.912653 
-0.618374 0.427775 -0.249881 -0.00462549 0.00250612 0.999986 
0.33247 0.522781 0.213242 0.253722 0.401246 -0.880129 
0.0927198 -0.518024 -0.111795 0.157093 -0.872314 0.463022 
-0.999023 0.0124489 0.00743087 0.999192 -0.012456 -0.0382089 
0.227023 0.950237 0.10174 -0.216712 -0.862946 -0.456464 
0.820299 0.225896 -0.228151 -0.364575 -0.0992363 0.925871 
-0.131969 0.964774 0.108568 0.127709 -0.875671 -0.465716 
-0.465599 0.718528 -0.225754 0.215101 -0.347447 0.912695 
0.460194 0.286623 -0.139697 0.679499 0.42032 0.601342 
0.0355582 0.728401 0.249025 -0.010213 0.048113 -0.99879 
-0.0046456 -0.999148 0.0126894 -0.000399354 0.99844 -0.0558357 
0.637003 -0.393158 0.249971 -0.00817452 0.0044221 -0.999957 
-0.100987 0.859039 -0.221543 0.0675429 -0.425439 0.902463 
0.831422 -0.0862866 -0.234397 -0.322869 0.0272691 0.946051 
0.105606 -0.597217 0.204807 0.101917 -0.544723 -0.8324 
-0.510068 0.644839 0.239161 0.201422 -0.246498 -0.947981 
0.0500732 0.498423 0.0199338 0.127654 0.989933 -0.0611256 
0.390286 -0.919973 -0.00572716 -0.38094 0.924562 0.00836334 
-0.859623 -0.474853 0.091031 0.810137 0.452066 -0.373247 
0.954717 -0.280953 0.0462485 -0.938694 0.276061 -0.206503 
-0.43916 -0.60326 -0.249855 -0.00946011 -0.00434764 0.999946 
-0.451125 0.887029 0.0437271 0.443468 -0.874289 -0.197369 
0.591402 6.10348e-11 0.193252 0.618175 0.00745097 -0.786005 
0.783475 -0.0814389 0.24681 -0.14829 0.0172295 -0.988794 
0.472568 -0.722052 0.222626 -0.249449 0.375208 -0.892745 
-0.502545 0.159082 -0.113361 -0.835848 0.267867 0.479172 
-0.892161 -0.275734 -0.168778 0.698621 0.211431 0.683539 
