ply
format ascii 1.0
element vertex 50
property float x
property float y
property float z
property float nx
property float ny
property float nz
end_header
-0.152944996953010559 -0.813124001026153564 0.23737800121307373 -0.0529538877308368683 -0.296428948640823364 0.95358574390411377
-0.255387008190155029 -0.447786003351211548 0.0871891975402832031 0.465075820684432983 0.81242668628692627 0.351663887500762939
-0.270747989416122437 0.420359998941421509 0.00711630983278155327 0.561534762382507324 -0.827404558658599854 -0.00896645523607730865
-0.464248001575469971 -0.883138000965118408 0.0295921005308628082 -0.464327871799468994 -0.877903759479522705 0.116980969905853271
0.534273028373718262 0.645807027816772461 -0.233601003885269165 0.212539136409759521 0.235133141279220581 -0.9484405517578125
-0.600283026695251465 -0.103087998926639557 0.206783995032310486 0.521334171295166016 0.0826028287410736084 0.84934532642364502
0.635311007499694824 -0.443989008665084839 -0.248618006706237793 0.0684608221054077148 -0.0478985197842121124 -0.996503353118896484
0.87476801872253418 0.478154987096786499 0.03434709832072258 0.864196717739105225 0.477144807577133179 0.159677937626838684
-0.0203023999929428101 -0.812188982963562012 -0.241585999727249146 -0.0148979052901268005 -0.239734083414077759 -0.970724344253540039
0.711551010608673096 0.28468400239944458 0.249174997210502625 0.0648928135633468628 0.0332494080066680908 0.997338175773620605
-0.925116002559661865 0.342081010341644287 0.0775028988718986511 -0.882622778415679932 0.32890591025352478 0.335853904485702515
-0.812013983726501465 0.170478001236915588 -0.236541002988815308 -0.298649966716766357 0.0517090931534767151 -0.95296090841293335
-0.662652015686035156 0.272457987070083618 0.247472003102302551 0.0806363970041275024 -0.0464016981422901154 0.995662987232208252
0.75197601318359375 -0.63498002290725708 0.0849934965372085571 0.713144958019256592 -0.597548961639404297 0.366550981998443604
0.989058971405029297 0.0983003973960876465 0.0536480993032455444 0.968752205371856689 0.0953899174928665161 0.228954046964645386
-0.708243012428283691 -0.675747990608215332 -0.0982322022318840027 -0.664497017860412598 -0.634627997875213623 -0.394576996564865112
0.519609987735748291 0.845233023166656494 0.0563046000897884369 0.50608295202255249 0.816126883029937744 0.278956979513168335
0.365487009286880493 -0.599876999855041504 -0.245499998331069946 -0.101177006959915161 0.175408020615577698 -0.979283034801483154
-0.7840920090675354 0.618350028991699219 0.0133768003433942795 -0.782132327556610107 0.617874264717102051 0.0806248337030410767
0.44905400276184082 -0.220041006803512573 0.0126802995800971985 -0.900727391242980957 0.431277215480804443 0.0518667250871658325
-0.438277006149291992 -0.65293198823928833 0.247021004557609558 -0.0850559920072555542 -0.117236986756324768 0.989454865455627441
-0.445856004953384399 -0.246050998568534851 -0.0676525980234146118 0.83956986665725708 0.4648609459400177 -0.281116962432861328
0.223679006099700928 0.606567025184631348 -0.227619007229804993 -0.131831035017967224 -0.386891067028045654 -0.912653207778930664
-0.618373990058898926 0.427774995565414429 -0.249880999326705933 0.00462549086660146713 -0.00250612036325037479 -0.999986171722412109
0.33246999979019165 0.522781014442443848 0.213241994380950928 -0.25372198224067688 -0.401245951652526855 0.880128860473632812
0.0927198007702827454 -0.518024027347564697 -0.111795000731945038 -0.157093062996864319 0.872314274311065674 -0.463022172451019287
-0.999023020267486572 0.0124489003792405128 0.00743087008595466614 -0.999192178249359131 0.0124560017138719559 0.0382089056074619293
0.227023005485534668 0.950236976146697998 0.101740002632141113 0.216712087392807007 0.86294633150100708 0.456464171409606934
0.820299029350280762 0.225896000862121582 -0.228150993585586548 0.364575028419494629 0.0992363095283508301 -0.925871074199676514
-0.13196900486946106 0.964774012565612793 0.108567997813224792 -0.127708956599235535 0.875670731067657471 0.46571582555770874
-0.465599000453948975 0.71852797269821167 -0.225753992795944214 -0.215101003646850586 0.347447007894515991 -0.912694990634918213
0.460193991661071777 0.286623001098632812 -0.13969700038433075 -0.679498970508575439 -0.420320004224777222 -0.60134202241897583
0.0355582013726234436 0.728401005268096924 0.249025002121925354 0.0102129960432648659 -0.0481129810214042664 0.998789668083190918
-0.00464559998363256454 -0.999148011207580566 0.0126894004642963409 0.000399353943066671491 -0.998439908027648926 0.0558356940746307373
0.637003004550933838 -0.393157988786697388 0.249971002340316772 0.00817451812326908112 -0.00442209886386990547 0.999956786632537842
-0.10098700225353241 0.859039008617401123 -0.221542999148368835 -0.0675429105758666992 0.425439029932022095 -0.902463078498840332
0.831421971321105957 -0.086286596953868866 -0.234396994113922119 0.322868913412094116 -0.0272690951824188232 -0.946050763130187988
0.105605997145175934 -0.597217023372650146 0.204806998372077942 -0.101916998624801636 0.544722974300384521 0.832400023937225342
-0.510067999362945557 0.644838988780975342 0.239160999655723572 -0.201422005891799927 0.246498003602027893 0.947980999946594238
0.0500731989741325378 0.498423010110855103 0.0199337992817163467 -0.1276540607213974 -0.989933431148529053 0.0611256249248981476
0.390285998582839966 -0.919973015785217285 -0.00572715979069471359 0.380939990282058716 -0.924561977386474609 -0.00836334004998207092
-0.8596230149269104 -0.474853008985519409 0.091031000018119812 -0.810137391090393066 -0.452066242694854736 0.373247206211090088
0.954716980457305908 -0.280952990055084229 0.0462484993040561676 0.938694238662719727 -0.276061058044433594 0.206503048539161682
-0.439159989356994629 -0.60325998067855835 -0.249854996800422668 0.00946010928601026535 0.00434763962402939796 -0.999945878982543945
-0.451124995946884155 0.887028992176055908 0.0437270998954772949 -0.4434681236743927 0.874289155006408691 0.197369039058685303
0.591401994228363037 6.10348022123119449e-11 0.193251997232437134 -0.618175089359283447 -0.00745097082108259201 0.786005139350891113
0.783474981784820557 -0.081438899040222168 0.246810004115104675 0.148289963603019714 -0.017229495570063591 0.988793790340423584
0.472568005323410034 -0.72205197811126709 0.222626000642776489 0.249449059367179871 -0.375208079814910889 0.892745256423950195
-0.502544999122619629 0.159081995487213135 -0.113361001014709473 0.835847854614257812 -0.267866969108581543 -0.479171931743621826
-0.892161011695861816 -0.275734007358551025 -0.168778002262115479 -0.698621034622192383 -0.211431011557579041 -0.683539032936096191
