ply
format ascii 1.0
element vertex 50
property float x
property float y
property float z
property float nx
property float ny
property float nz
end_header
-0.152944996953010559 -0.813124001026153564 0.23737800121307373 0.693282008171081543 -0.159802734851837158 0.702725470066070557
-0.255387008190155029 -0.447786003351211548 0.0871891975402832031 0.274576544761657715 0.324973165988922119 0.904986262321472168
-0.270747989416122437 0.420359998941421509 0.00711630983278155327 0.83025813102722168 -0.285969585180282593 -0.47842743992805481
-0.464248001575469971 -0.883138000965118408 0.0295921005308628082 0.299877166748046875 -0.950829446315765381 0.0774403735995292664
0.534273028373718262 0.645807027816772461 -0.233601003885269165 -0.0884168818593025208 -0.437706798315048218 -0.894759833812713623
-0.600283026695251465 -0.103087998926639557 0.206783995032310486 0.741067826747894287 -0.126343220472335815 0.659436047077178955
0.635311007499694824 -0.443989008665084839 -0.248618006706237793 -0.648708820343017578 -0.330150693655014038 -0.68569481372833252
0.87476801872253418 0.478154987096786499 0.03434709832072258 0.241782039403915405 0.957204639911651611 0.159062027931213379
-0.0203023999929428101 -0.812188982963562012 -0.241585999727249146 -0.625167787075042725 -0.49461933970451355 -0.603752434253692627
0.711551010608673096 0.28468400239944458 0.249174997210502625 0.336305350065231323 -0.570818483829498291 0.749042689800262451
-0.925116002559661865 0.342081010341644287 0.0775028988718986511 -0.976024925708770752 -0.216142430901527405 -0.025646694004535675
-0.812013983726501465 0.170478001236915588 -0.236541002988815308 -0.45148855447769165 0.759292721748352051 -0.468649834394454956
-0.662652015686035156 0.272457987070083618 0.247472003102302551 -0.0689319446682929993 0.634546816349029541 0.76980435848236084
0.75197601318359375 -0.63498002290725708 0.0849934965372085571 0.691405951976776123 -0.603763997554779053 -0.39677053689956665
0.989058971405029297 0.0983003973960876465 0.0536480993032455444 0.4447040855884552 0.787999093532562256 0.425788402557373047
-0.708243012428283691 -0.675747990608215332 -0.0982322022318840027 0.0524566099047660828 -0.632232785224914551 -0.773000657558441162
0.519609987735748291 0.845233023166656494 0.0563046000897884369 -0.239018246531486511 0.967927157878875732 0.0773774906992912292
0.365487009286880493 -0.599876999855041504 -0.245499998331069946 0.6830025315284729 0.0323555059731006622 -0.729699015617370605
-0.7840920090675354 0.618350028991699219 0.0133768003433942795 -0.730123698711395264 0.135099112987518311 0.66982656717300415
0.44905400276184082 -0.220041006803512573 0.0126802995800971985 -0.942924797534942627 -0.310939222574234009 -0.11920398473739624
-0.438277006149291992 -0.65293198823928833 0.247021004557609558 0.119992516934871674 -0.790289700031280518 0.600869357585906982
-0.445856004953384399 -0.246050998568534851 -0.0676525980234146118 0.973634898662567139 -0.0262051336467266083 0.226601749658584595
0.223679006099700928 0.606567025184631348 -0.227619007229804993 -0.479350358247756958 0.227705970406532288 -0.847568988800048828
-0.618373990058898926 0.427774995565414429 -0.249880999326705933 0.626789689064025879 0.323624253273010254 -0.708803236484527588
0.33246999979019165 0.522781014442443848 0.213241994380950928 -0.477089583873748779 -0.822806835174560547 0.30882754921913147
0.0927198007702827454 -0.518024027347564697 -0.111795000731945038 0.229923173785209656 0.367760151624679565 -0.901048183441162109
-0.999023020267486572 0.0124489003792405128 0.00743087008595466614 -0.745116055011749268 -0.447185665369033813 -0.494800031185150146
0.227023005485534668 0.950236976146697998 0.101740002632141113 0.149132698774337769 0.940852165222167969 -0.304231137037277222
0.820299029350280762 0.225896000862121582 -0.228150993585586548 -0.576060652732849121 0.100621700286865234 -0.811190128326416016
-0.13196900486946106 0.964774012565612793 0.108567997813224792 -0.529693543910980225 0.830041885375976562 -0.174514159560203552
-0.465599000453948975 0.71852797269821167 -0.225753992795944214 -0.758761882781982422 0.353480666875839233 -0.547112226486206055
0.460193991661071777 0.286623001098632812 -0.13969700038433075 -0.0272903181612491608 -0.170569449663162231 -0.984967648983001709
0.0355582013726234436 0.728401005268096924 0.249025002121925354 0.378219544887542725 0.562186121940612793 0.73545682430267334
-0.00464559998363256454 -0.999148011207580566 0.0126894004642963409 -0.640958428382873535 -0.722898542881011963 -0.258050322532653809
0.637003004550933838 -0.393157988786697388 0.249971002340316772 -0.385413169860839844 0.586208224296569824 0.712612569332122803
-0.10098700225353241 0.859039008617401123 -0.221542999148368835 0.662923216819763184 0.149853304028511047 -0.733537197113037109
0.831421971321105957 -0.086286596953868866 -0.234396994113922119 -0.202465653419494629 -0.84430992603302002 -0.496133476495742798
0.105605997145175934 -0.597217023372650146 0.204806998372077942 -0.630676865577697754 0.0485623888671398163 0.77452462911605835
-0.510067999362945557 0.644838988780975342 0.239160999655723572 0.285004705190658569 -0.366446971893310547 0.885713815689086914
0.0500731989741325378 0.498423010110855103 0.0199337992817163467 0.405937701463699341 -0.794418096542358398 -0.451790302991867065
0.390285998582839966 -0.919973015785217285 -0.00572715979069471359 0.459782063961029053 -0.569199025630950928 -0.681625187397003174
-0.8596230149269104 -0.474853008985519409 0.091031000018119812 -0.0654151886701583862 -0.838747322559356689 0.540577232837677002
0.954716980457305908 -0.280952990055084229 0.0462484993040561676 0.374891787767410278 -0.852549314498901367 0.364164561033248901
-0.439159989356994629 -0.60325998067855835 -0.249854996800422668 -0.549392580986022949 0.452407300472259521 -0.702492296695709229
-0.451124995946884155 0.887028992176055908 0.0437270998954772949 0.164529681205749512 0.947640717029571533 -0.273691534996032715
0.591401994228363037 6.10348022123119449e-11 0.193251997232437134 0.295375585556030273 -0.767789185047149658 0.568553447723388672
0.783474981784820557 -0.081438899040222168 0.246810004115104675 -0.625150382518768311 -0.40182766318321228 0.669119954109191895
0.472568005323410034 -0.72205197811126709 0.222626000642776489 0.418310612440109253 0.264843791723251343 0.868834853172302246
-0.502544999122619629 0.159081995487213135 -0.113361001014709473 0.0440816208720207214 -0.781482696533203125 -0.622367739677429199
-0.892161011695861816 -0.275734007358551025 -0.168778002262115479 -0.967935442924499512 -0.120061472058296204 -0.220649465918540955
