ply
format ascii 1.0
element vertex 152
property float x
property float y
property float z
property float nx
property float ny
property float nz
end_header
0 13.9778 0 3.17112e-08 -0.0427131 -0.999087 
-0.19509 13.7092 0 0.0929443 -0.030907 -0.995191 
-0.382683 12.9138 0 0.19593 -0.0342807 -0.980019 
-0.55557 11.6221 0 0.349506 -0.0403012 -0.936067 
-0.707107 9.88382 0 0.586083 -0.0295431 -0.809713 
-0.83147 7.76566 0 0.849277 -0.0685389 -0.523479 
-0.92388 5.34908 0 0.971201 0.0754517 -0.225997 
-0.980785 2.72694 0 0.948191 -0.315465 0.0376365 
-1 0 0 0.000146973 0.575021 0.818138 
-0.980785 -2.72694 0 -0.948184 -0.315485 0.037645 
-0.92388 -5.34908 0 -0.971199 0.0754608 -0.226003 
-0.83147 -7.76566 0 -0.84927 -0.0685412 -0.523491 
-0.707107 -9.88382 0 -0.586071 -0.0295412 -0.809721 
-0.55557 -11.6221 0 -0.349497 -0.0403009 -0.93607 
-0.382683 -12.9138 0 -0.195919 -0.0342787 -0.980021 
-0.19509 -13.7092 0 -0.0929658 -0.030914 -0.995189 
0 -13.9778 0 4.05462e-08 -0.0426491 -0.99909 
0.19509 -13.7092 0 0.0929613 -0.0309126 -0.99519 
0.382683 -12.9138 0 0.195919 -0.0342789 -0.980021 
0.55557 -11.6221 0 0.349497 -0.0403009 -0.93607 
0.707107 -9.88382 0 0.586071 -0.0295412 -0.809721 
0.83147 -7.76566 0 0.84927 -0.0685412 -0.523491 
0.92388 -5.34908 0 0.971199 0.0754608 -0.226003 
0.980785 -2.72694 0 0.948184 -0.315485 0.0376449 
1 0 0 -0.000146961 0.575021 0.818138 
0.980785 2.72694 0 -0.948191 -0.315465 0.0376365 
0.92388 5.34908 0 -0.971201 0.0754517 -0.225997 
0.83147 7.76566 0 -0.849277 -0.0685389 -0.523479 
0.707107 9.88382 0 -0.586083 -0.0295431 -0.809713 
0.55557 11.6221 0 -0.349506 -0.0403012 -0.936067 
0.382683 12.9138 0 -0.19593 -0.0342807 -0.980019 
0.19509 13.7092 0 -0.092944 -0.0309069 -0.995192 
0 11.8031 -7.4878 -4.79037e-06 -0.558364 -0.829596 
-0.19509 11.5763 -7.34393 0.0820754 -0.558943 -0.825134 
-0.382683 10.9046 -6.91783 0.187921 -0.552894 -0.811785 
-0.55557 9.81389 -6.22588 0.353481 -0.532585 -0.769028 
-0.707107 8.34603 -5.29467 0.625789 -0.452913 -0.635026 
-0.83147 6.55743 -4.16 0.909836 -0.265325 -0.319065 
-0.92388 4.51684 -2.86546 0.994451 -0.0656755 -0.0821864 
-0.980785 2.30267 -1.4608 0.998946 -0.0354565 0.0291442 
-0.980785 -2.30267 1.4608 -0.998946 -0.0354546 0.0291556 
-0.92388 -4.51684 2.86546 -0.99445 -0.0656753 -0.0821907 
-0.83147 -6.55743 4.16 -0.909829 -0.265333 -0.319076 
-0.707107 -8.34603 5.29467 -0.625773 -0.452919 -0.635038 
-0.55557 -9.81389 6.22588 -0.353467 -0.532586 -0.769034 
-0.382683 -10.9046 6.91783 -0.187911 -0.552888 -0.811791 
-0.19509 -11.5763 7.34393 -0.0820699 -0.55891 -0.825157 
0 -11.8031 7.4878 -2.28905e-06 -0.55835 -0.829606 
0.19509 -11.5763 7.34393 0.0820716 -0.558925 -0.825147 
0.382683 -10.9046 6.91783 0.187912 -0.55289 -0.811789 
0.55557 -9.81389 6.22588 0.353467 -0.532586 -0.769034 
0.707107 -8.34603 5.29467 0.625773 -0.452919 -0.635038 
0.83147 -6.55743 4.16 0.909829 -0.265333 -0.319076 
0.92388 -4.51684 2.86546 0.99445 -0.0656753 -0.0821907 
0.980785 -2.30267 1.4608 0.998946 -0.0354546 0.0291556 
0.980785 2.30267 -1.4608 -0.998946 -0.0354565 0.0291441 
0.92388 4.51684 -2.86546 -0.994451 -0.0656755 -0.0821864 
0.83147 6.55743 -4.16 -0.909836 -0.265324 -0.319065 
0.707107 8.34603 -5.29467 -0.625789 -0.452913 -0.635026 
0.55557 9.81389 -6.22588 -0.353481 -0.532585 -0.769029 
0.382683 10.9046 -6.91783 -0.18792 -0.552889 -0.811788 
0.19509 11.5763 -7.34393 -0.0820718 -0.558912 -0.825155 
0 2.99437 -13.6533 -2.82999e-06 -0.978417 -0.20664 
-0.19509 2.93684 -13.391 0.0368198 -0.979113 -0.199956 
-0.382683 2.76644 -12.614 0.0882866 -0.976159 -0.198291 
-0.55557 2.48973 -11.3523 0.165733 -0.966221 -0.197358 
-0.707107 2.11734 -9.65436 0.305225 -0.936844 -0.170768 
-0.83147 1.66359 -7.58538 0.587368 -0.787134 -0.188202 
-0.92388 1.1459 -5.2249 0.900521 -0.427816 0.0776859 
-0.980785 0.584173 -2.66363 0.939177 0.118515 -0.322336 
-0.980785 -0.584173 2.66363 -0.93917 0.118521 -0.322355 
-0.92388 -1.1459 5.2249 -0.900515 -0.427829 0.0776933 
-0.83147 -1.66359 7.58538 -0.587353 -0.787143 -0.188208 
-0.707107 -2.11734 9.65436 -0.30521 -0.936848 -0.170769 
-0.55557 -2.48973 11.3523 -0.165727 -0.966221 -0.19736 
-0.382683 -2.76644 12.614 -0.0882751 -0.976159 -0.198296 
-0.19509 -2.93684 13.391 -0.0368419 -0.979113 -0.199951 
0 -2.99437 13.6533 1.18264e-05 -0.978418 -0.206635 
0.19509 -2.93684 13.391 0.0367246 -0.97912 -0.199938 
0.382683 -2.76644 12.614 0.0882933 -0.976162 -0.198273 
0.55557 -2.48973 11.3523 0.165727 -0.966222 -0.197358 
0.707107 -2.11734 9.65436 0.30521 -0.936848 -0.170769 
0.83147 -1.66359 7.58538 0.587353 -0.787143 -0.188208 
0.92388 -1.1459 5.2249 0.900515 -0.427829 0.0776932 
0.980785 -0.584173 2.66363 0.93917 0.118521 -0.322355 
0.980785 0.584173 -2.66363 -0.939177 0.118515 -0.322336 
0.92388 1.1459 -5.2249 -0.900521 -0.427816 0.0776859 
0.83147 1.66359 -7.58538 -0.587367 -0.787134 -0.188202 
0.707107 2.11734 -9.65436 -0.305225 -0.936844 -0.170768 
0.55557 2.48973 -11.3523 -0.165733 -0.966221 -0.197357 
0.382683 2.76644 -12.614 -0.0882955 -0.97616 -0.198279 
0.19509 2.93684 -13.391 -0.0367632 -0.979117 -0.199944 
0 7.73821 -11.6404 1.25786e-06 0.816847 0.576854 
-0.19509 7.58952 -11.4168 0.0726702 0.816288 0.573055 
-0.382683 7.14917 -10.7544 0.160887 0.805746 0.56999 
-0.55557 6.43409 -9.67867 0.299392 0.77769 0.552778 
-0.707107 5.47174 -8.23103 0.530344 0.680167 0.506071 
-0.83147 4.29912 -6.46708 0.826646 0.464677 0.317383 
-0.92388 2.96129 -4.4546 0.978827 0.102653 0.177089 
-0.980785 1.50965 -2.27094 0.989933 0.0681792 -0.124032 
-0.980785 -1.50965 2.27094 -0.989932 0.0681869 -0.124038 
-0.92388 -2.96129 4.4546 -0.978825 0.102656 0.177096 
-0.83147 -4.29912 6.46708 -0.826635 0.464691 0.31739 
-0.707107 -5.47174 8.23103 -0.530329 0.680175 0.506076 
-0.55557 -6.43409 9.67867 -0.299381 0.777693 0.552779 
-0.382683 -7.14917 10.7544 -0.160882 0.805749 0.569988 
-0.19509 -7.58952 11.4168 -0.0726694 0.816291 0.573051 
0 -7.73821 11.6404 -3.21869e-07 0.816852 0.576848 
0.19509 -7.58952 11.4168 0.0726704 0.816291 0.573052 
0.382683 -7.14917 10.7544 0.160882 0.805749 0.569988 
0.55557 -6.43409 9.67867 0.299381 0.777693 0.552779 
0.707107 -5.47174 8.23103 0.530329 0.680175 0.506076 
0.83147 -4.29912 6.46708 0.826635 0.464691 0.31739 
0.92388 -2.96129 4.4546 0.978825 0.102656 0.177096 
0.980785 -1.50965 2.27094 0.989932 0.0681869 -0.124038 
0.980785 1.50965 -2.27094 -0.989933 0.0681792 -0.124032 
0.92388 2.96129 -4.4546 -0.978827 0.102653 0.177089 
0.83147 4.29912 -6.46708 -0.826646 0.464677 0.317383 
0.707107 5.47174 -8.23103 -0.530344 0.680168 0.50607 
0.55557 6.43409 -9.67867 -0.299394 0.777689 0.552778 
0.382683 7.14917 -10.7544 -0.160887 0.805747 0.569989 
0.19509 7.58952 -11.4168 -0.0726734 0.816287 0.573057 
0 13.4869 -3.67178 -9.2257e-08 0.231273 0.972889 
-0.19509 13.2278 -3.60123 0.0933131 0.228946 0.968956 
-0.382683 12.4603 -3.39228 0.216878 0.221032 0.950846 
-0.55557 11.214 -3.05297 0.414285 0.194341 0.889156 
-0.707107 9.53671 -2.59634 0.703492 0.147861 0.695152 
-0.83147 7.49294 -2.03993 0.931791 0.0209797 0.362388 
-0.92388 5.16123 -1.40513 0.994121 0.0600246 0.0901116 
-0.980785 2.63117 -0.716329 0.983666 -0.176135 0.0371277 
-0.980785 -2.63117 0.716329 -0.983663 -0.176144 0.037147 
-0.92388 -5.16123 1.40513 -0.994121 0.0600316 0.0901128 
-0.83147 -7.49294 2.03993 -0.931787 0.0209801 0.362399 
-0.707107 -9.53671 2.59634 -0.703479 0.147866 0.695164 
-0.55557 -11.214 3.05297 -0.41427 0.194345 0.889163 
-0.382683 -12.4603 3.39228 -0.216866 0.221035 0.950848 
-0.19509 -13.2278 3.60123 -0.0933022 0.228933 0.96896 
0 -13.4869 3.67178 -4.04542e-08 0.231251 0.972894 
0.19509 -13.2278 3.60123 0.0933016 0.228932 0.968961 
0.382683 -12.4603 3.39228 0.216866 0.221035 0.950848 
0.55557 -11.214 3.05297 0.41427 0.194345 0.889163 
0.707107 -9.53671 2.59634 0.703479 0.147866 0.695164 
0.83147 -7.49294 2.03993 0.931787 0.0209801 0.362399 
0.92388 -5.16123 1.40513 0.994121 0.0600316 0.0901128 
0.980785 -2.63117 0.716329 0.983663 -0.176144 0.037147 
0.980785 2.63117 -0.716329 -0.983666 -0.176135 0.0371277 
0.92388 5.16123 -1.40513 -0.994121 0.0600246 0.0901117 
0.83147 7.49294 -2.03993 -0.931791 0.0209796 0.362387 
0.707107 9.53671 -2.59634 -0.703492 0.147861 0.695152 
0.55557 11.214 -3.05297 -0.414285 0.194341 0.889156 
0.382683 12.4603 -3.39228 -0.216878 0.221033 0.950846 
0.19509 13.2278 -3.60123 -0.0933153 0.228952 0.968955 
