ply
format ascii 1.0
comment VCGLIB generated
element vertex 498
property float x
property float y
property float z
property float nx
property float ny
property float nz
element face 0
property list uchar int vertex_indices
end_header
0.76264 -0.0633837 0.344644 0.7729713 0.15014 0.6164198 
0.193611 -0.418401 -0.570888 0.2076676 -0.74216 -0.6372385 
0.666441 -0.674568 0.614904 0.4331019 -0.5758736 0.693392 
-0.364309 0.690313 -0.0111298 -0.9589405 0.2626937 0.1068886 
0.514075 0.216212 -0.420796 0.8560225 0.2536638 -0.4504223 
0.522644 -0.758745 0.111938 0.2616348 -0.8721427 -0.413418 
0.347873 0.563412 0.324381 0.6423614 -0.004815989 0.7663867 
0.65031 -0.760222 0.516915 0.4092284 -0.7750809 0.4814371 
0.414446 0.938973 -0.021483 0.8759837 0.4662771 -0.1234436 
0.203983 1.09759 0.15885 0.3165503 0.9018872 0.2939311 
-0.0460029 0.498241 0.407583 -0.2077841 -0.01301112 0.9780882 
-0.671127 0.1539 0.0627905 -0.4248906 0.8043481 0.4153217 
0.874364 -0.474038 0.504465 0.8616551 -0.07202766 0.5023571 
-0.785317 -0.0271119 -0.407732 -0.5122851 0.4568929 -0.7271952 
0.299366 -0.600514 0.656304 -0.4464485 -0.6926775 0.5664641 
-0.956294 -0.43608 0.191083 -0.6939963 -0.3563591 0.6256017 
0.336933 -0.630459 -0.190635 0.02730129 -0.9010032 -0.4329526 
0.562332 -0.80803 0.262096 0.2144461 -0.952784 -0.2149782 
-0.305241 0.0662001 -0.630154 -0.3761064 0.2720481 -0.8857391 
0.667981 -0.582024 0.680113 0.425536 -0.3833271 0.8197436 
-0.0997102 0.714544 -0.400161 -0.4203484 0.4809836 -0.7693907 
-0.348106 0.488602 0.135033 -0.825855 0.1903218 0.5307929 
-0.445264 -0.381725 0.292205 0.08743984 -0.391937 0.9158274 
0.482644 -0.0219216 0.517242 0.1381379 0.717536 0.6826859 
-0.41178 0.0351692 -0.588286 -0.4071438 0.3182576 -0.8561227 
-0.177787 0.522105 0.34474 -0.6234817 -0.08279536 0.7774417 
-0.826948 -0.462706 0.256524 -0.4915537 -0.3799891 0.7835709 
0.485334 0.550752 -0.244511 0.9016141 0.3008898 -0.3107366 
0.482416 -0.141188 -0.578477 0.7798894 -0.1356382 -0.6110441 
-0.72039 -0.641467 -0.229748 -0.12028 -0.9261277 -0.3575195 
-0.397271 -0.585281 -0.361339 -0.015439 -0.8793601 -0.4759069 
-0.828043 0.0284058 0.147871 -0.4039414 0.7062643 0.5813967 
0.293089 -0.78416 0.222505 -0.2757246 -0.9523309 -0.1305444 
-0.860579 0.00498684 0.152514 -0.4806161 0.7048188 0.5217651 
0.38306 0.128355 -0.65053 0.6272487 0.2877946 -0.7236943 
-0.265067 0.811375 0.25067 -0.8193436 0.1843647 0.5428497 
0.335716 0.210015 0.366746 -0.101691 0.2415355 0.965049 
0.413662 0.821683 -0.180721 0.7703581 0.433993 -0.4671173 
0.501414 0.0665696 -0.522982 0.8215699 0.1905411 -0.5373239 
0.108092 0.888686 -0.349601 -0.02264543 0.6071059 -0.7942983 
0.177016 -0.478571 -0.494569 0.1700842 -0.7842818 -0.596635 
-0.638271 -0.549855 -0.394946 -0.1540088 -0.7444533 -0.6496696 
-0.089933 0.492081 -0.523733 -0.188698 0.4564229 -0.8695236 
-0.435475 -0.594192 -0.346879 -0.006339967 -0.9137169 -0.4063021 
0.412435 -0.698202 -0.044492 0.1857076 -0.8798923 -0.437381 
-0.617046 -0.630574 -0.275264 -0.05555058 -0.8942458 -0.4441156 
-0.685177 0.115326 0.119779 -0.3789015 0.7643148 0.5217822 
0.0282216 0.497047 0.418663 -0.08351781 -0.1241585 0.9887414 
0.34295 -0.789287 0.192947 -0.173526 -0.9566917 -0.2337301 
-0.244217 0.549533 0.282486 -0.7355664 -0.03167965 0.6767116 
0.112697 -0.404331 -0.608047 0.1268601 -0.7291012 -0.672546 
0.298543 0.323334 0.348115 0.3695837 0.1825239 0.9110944 
0.851782 -0.259777 0.194286 0.9523499 0.2407915 -0.1872143 
0.126405 0.990749 0.35699 0.1290964 0.6600785 0.7400207 
-0.0231572 1.13079 0.0713952 -0.2950062 0.9484674 0.1156762 
-0.0928183 1.02884 -0.173109 -0.4227929 0.7104646 -0.562571 
0.165308 0.905774 0.398905 0.1559281 0.4944136 0.8551268 
0.340884 -0.0736988 0.566734 -0.1679149 0.5910159 0.7889897 
0.307059 -0.092532 0.575166 -0.1679149 0.591016 0.7889897 
0.128078 -0.657099 0.377673 -0.6512343 -0.6479082 0.3951063 
0.810828 -0.124758 0.286691 0.850973 0.5245305 -0.02669917 
0.436107 0.87402 -0.0636166 0.8798094 0.3983506 -0.2593306 
0.657516 -0.0747489 -0.246565 0.9024976 0.1489052 -0.4041353 
-0.236803 -0.54665 -0.421491 0.005764053 -0.8561508 -0.5166939 
-0.868412 -0.629357 -0.151121 -0.5648388 -0.5126517 -0.6466416 
-1.002 -0.168025 -0.299757 -0.7637596 0.2672102 -0.5875969 
-0.799107 -0.640553 -0.190613 -0.2502928 -0.887438 -0.3870496 
0.472047 -0.614018 0.703812 -0.05967665 -0.3971381 0.9158166 
-0.105894 0.118962 -0.698918 -0.297114 0.2754396 -0.9142518 
-0.376289 0.0454936 -0.602213 -0.3926665 0.2560354 -0.8833227 
0.252954 -0.553496 -0.352111 0.1560412 -0.836689 -0.5249788 
0.668999 -0.620086 0.657717 0.4320007 -0.4831312 0.7615508 
-0.00841481 -0.16264 -0.753763 -0.01205549 -0.079574 -0.9967561 
-0.103059 0.841298 -0.324116 -0.4199122 0.512014 -0.7493433 
0.843967 -0.213171 0.222771 0.936901 0.3065256 -0.1681034 
-0.763682 0.159033 -0.199424 -0.9788256 -0.001309617 0.2046919 
-0.958549 -0.584655 -0.0851461 -0.6740726 -0.7295796 0.115498 
-0.0838549 0.359383 -0.596817 -0.2878021 0.412421 -0.8643373 
0.503229 -0.069228 -0.553825 0.8256165 0.02941541 -0.5634645 
-0.252077 0.806519 -0.228695 -0.7089527 0.4426748 -0.549022 
0.266036 -0.591531 0.635601 -0.5941142 -0.431571 0.678804 
0.452451 0.801418 -0.106938 0.9188827 0.3321858 -0.2128547 
-0.787838 -0.465073 0.266032 -0.03317447 0.9276848 0.3718875 
-1.0229 -0.499713 -0.0123431 -0.8269716 -0.535491 0.1713686 
0.619686 -0.00850537 0.45032 0.4310483 0.7235243 0.5391753 
-0.899751 -0.0265485 0.156481 -0.524975 0.6194309 0.5837009 
0.582904 -0.000876692 -0.390124 0.8797923 0.133195 -0.4563164 
-0.0509378 1.12371 -0.0037259 -0.2787932 0.9595983 -0.03801932 
0.0841029 0.50046 0.418436 0.06110752 -0.1442326 0.9876553 
0.0925155 -0.377008 -0.640962 0.07402678 -0.6545743 -0.7523647 
0.178755 0.513715 0.403218 0.2493152 -0.09494696 0.9637567 
0.792553 -0.219283 0.0328537 0.9422172 0.2088389 -0.2619409 
-1.01955 -0.173164 0.1443 -0.8511537 0.2432604 0.4651471 
0.12321 -0.448244 -0.550751 0.125887 -0.765229 -0.6313297 
0.296691 0.870523 -0.291414 0.563484 0.522527 -0.6398839 
-0.523332 0.21698 0.0895014 -0.5640307 0.6241831 0.5406154 
0.120836 -0.313658 0.560439 -0.6503555 0.02984086 0.7590437 
-0.963548 -0.147257 -0.332167 -0.6830211 0.2441908 -0.6883698 
0.607565 -0.813314 0.373196 0.3726781 -0.9208434 -0.1147104 
0.109402 -0.350275 0.547536 -0.6790405 -0.02063387 0.7338108 
0.379861 0.84017 -0.221391 0.7311712 0.462594 -0.5013934 
-0.103197 0.875054 -0.301953 -0.4194076 0.5341363 -0.734027 
-0.208379 0.915305 0.273183 -0.6606295 0.6295085 0.4090083 
-0.777718 0.0611243 0.138994 -0.3714132 0.7283269 0.5758404 
-0.0915395 0.526684 -0.504728 -0.3820672 0.4443129 -0.8103151 
0.637686 -0.394557 0.728764 0.3583322 -0.004862573 0.9335815 
0.309527 1.06432 0.0908464 0.5350646 0.8127989 0.2303559 
0.813711 -0.474616 0.102932 0.8789855 -0.2513011 -0.4052559 
-0.0794292 -0.448132 0.330108 -0.52572 -0.4371276 0.7297519 
-0.24977 0.84727 0.260553 -0.8361626 0.2691487 0.477903 
-0.786497 0.0179429 -0.375772 -0.5102964 0.589219 -0.6264332 
0.466946 -0.176405 -0.587943 0.7535596 -0.1945429 -0.6279339 
-0.55279 -0.00533118 0.278252 -0.1970417 0.5095265 0.8375902 
0.444411 0.840404 -0.08399 0.8880838 0.3652044 -0.2791649 
-0.0966868 1.00071 -0.201674 -0.3604522 0.6917116 -0.625787 
-0.655481 0.139941 0.096854 -0.4326501 0.7745529 0.4613912 
-0.306285 0.591456 0.191964 -0.8657365 0.06417505 0.4963688 
0.0332845 1.10543 0.197501 -0.1276802 0.9037471 0.4085816 
0.512941 -0.779516 0.155963 0.1518842 -0.9236703 -0.3518016 
-0.277508 0.774852 0.239084 -0.8388406 0.1403712 0.525968 
0.511891 0.25131 -0.402712 0.8560803 0.2598768 -0.4467556 
0.316902 0.145251 -0.689929 0.5297576 0.2760417 -0.8019713 
-0.087797 0.445857 -0.549137 -0.3110138 0.425956 -0.8496069 
0.437967 -0.224955 -0.597231 0.6368063 -0.1896496 -0.7473358 
-0.110479 -0.516112 -0.46878 0.03710156 -0.8368285 -0.5462066 
0.749175 -0.17178 -0.0588482 0.9302406 0.1075412 -0.3508382 
-0.053932 0.0352396 -0.737142 -0.2409479 0.16215 -0.9568968 
0.270862 0.535091 0.371582 0.4429607 -0.06659798 0.8940641 
-0.468943 -0.627609 0.0311351 -0.4394604 -0.7921643 0.4234978 
0.517668 0.11022 -0.473939 0.8476784 0.2040711 -0.4896902 
-0.0743695 -0.507341 -0.482278 0.03440702 -0.8118109 -0.582906 
0.0936513 -0.46363 0.496996 -0.7197749 -0.2745095 0.6376274 
0.23536 -0.145058 0.58648 -0.3024863 0.4229016 0.8541992 
-0.37186 0.4249 0.115831 -0.8160294 0.2693006 0.5114424 
-0.388041 0.389063 0.106413 -0.784623 0.3147755 0.5341192 
0.253247 -0.386688 -0.584829 0.2838779 -0.6874496 -0.6684507 
0.322048 0.246577 0.356489 0.3446811 0.2475138 0.9055009 
-0.727973 -0.46554 0.274883 -0.08148861 -0.4783511 0.8743797 
0.793437 -0.0974313 0.310301 0.8413664 0.5364922 0.06541321 
0.476179 0.764157 -0.0591631 0.966136 0.2460046 -0.0778655 
-0.070975 0.16524 -0.693647 -0.2618165 0.3321042 -0.9061782 
0.584794 -0.602955 0.698876 0.2342819 -0.4192944 0.8770999 
0.726418 -0.0379851 0.377404 0.637133 0.4756767 0.6064596 
0.7033 -0.122994 -0.153203 0.921141 0.1619913 -0.3539181 
-0.988783 -0.122048 0.153952 -0.8287555 0.3141464 0.463116 
-0.524023 -0.659376 -0.152242 0.1108231 -0.9884944 -0.1029421 
-1.09555 -0.300753 -0.0722438 -0.9894854 -0.1441828 0.01139727 
0.0338321 -0.478375 -0.521424 0.06067275 -0.7903683 -0.6096203 
-0.323033 0.607038 0.15906 -0.9127258 0.1141115 0.3923139 
-0.32591 0.567341 0.162289 -0.854529 0.1035846 0.5089699 
0.18483 0.849906 0.411118 0.8569828 0.1852852 -0.4808845 
0.439658 0.00789139 0.495341 0.1210536 0.6471178 0.7527181 
0.515138 0.020925 -0.51598 0.8425989 0.1367425 -0.5208922 
0.138668 0.507093 0.411669 0.176576 -0.1271933 0.9760342 
-0.489676 -0.164981 0.334534 -0.1123516 -0.03432305 0.9930755 
-0.783175 -0.06436 -0.430789 -0.5076023 0.3761496 -0.7751461 
-0.0101745 -0.490892 -0.505859 0.04547316 -0.7955338 -0.6042005 
0.422856 0.0352428 0.471006 0.1455412 0.6041943 0.7834328 
-0.182683 -0.533514 -0.441723 0.0003260577 -0.8101583 -0.586211 
0.113779 0.152015 -0.729315 -0.02490427 0.3145939 -0.9488996 
0.663572 -0.536003 0.700031 0.4136 -0.2751502 0.8678867 
0.225468 0.694165 0.410234 0.430315 -0.001188404 0.9026781 
0.515849 0.181005 -0.438732 0.8486608 0.2382687 -0.4722318 
0.42959 0.616197 0.22916 0.7798067 0.09396832 0.6189276 
-0.471559 -0.602345 -0.333096 -0.006339974 -0.9137168 -0.4063021 
-0.51893 -0.0800979 0.316988 -0.7428905 -0.08082908 0.6645151 
0.445874 -0.727058 0.0209996 0.1316354 -0.9097568 -0.3937192 
0.0688372 1.09504 0.224042 -0.04450781 0.9013954 0.4307036 
-0.741016 0.179301 -0.118319 -0.5911947 0.8001857 0.1009539 
0.47524 0.084143 -0.558261 0.7915225 0.2091674 -0.5742309 
-0.00420597 0.877941 -0.341438 -0.1629996 0.5656121 -0.8084022 
0.437431 0.805088 -0.144978 0.8263755 0.402597 -0.3937249 
0.234976 -0.580931 0.612285 -0.6366802 -0.4131508 0.6511103 
-0.0201637 -0.12155 -0.756134 -0.2022081 -0.06221494 -0.9773644 
0.706861 -0.630814 0.079209 0.5698083 -0.6607884 -0.488546 
-0.451349 0.287839 0.088467 -0.6221517 0.5402616 0.5666082 
0.400007 0.96945 0.000385937 0.8490537 0.5227018 -0.07675021 
0.484413 0.694036 0.0810376 0.9816624 0.1297079 0.1396954 
-0.726551 0.0915628 0.128596 -0.3556414 0.7775905 0.5185289 
-0.742768 -0.303292 -0.502065 -0.4405276 -0.07019405 -0.8949907 
0.596488 -0.722177 0.0911577 0.4026592 -0.7998148 -0.4451539 
0.431883 -0.614764 0.699789 -0.1077544 -0.4694494 0.8763596 
0.653979 -0.0127152 0.429634 0.4939706 0.7127035 0.4980431 
-0.491282 -0.651066 -0.0515362 0.1466947 -0.9852054 0.0886069 
0.140212 -0.267692 0.57393 -0.5035306 0.04150374 0.8629799 
0.0414476 -0.490204 0.422345 -0.6537521 -0.4083157 0.6370924 
0.53237 -0.609647 0.703968 0.08679191 -0.4926421 0.8658932 
-0.0376383 1.12946 0.0338122 -0.2498776 0.967684 0.03389437 
0.786917 -0.524851 0.0912211 0.8266031 -0.3427243 -0.4463938 
0.274592 0.431204 0.359357 0.3593981 0.02687905 0.9327972 
-0.215187 0.822362 -0.255832 -0.6539896 0.459281 -0.6011311 
0.272322 -0.115451 0.581965 -0.2636182 0.50498 0.8218885 
0.549762 -0.164031 0.659696 0.08122541 0.6167346 0.7829694 
0.00829322 1.12163 0.144976 -0.1357295 0.964664 0.2258339 
-1.04872 -0.426241 0.035961 -0.9076926 -0.336169 0.2511666 
-0.849758 -0.09902 -0.404185 -0.5390159 0.3646643 -0.759264 
-0.347166 -0.42904 0.259784 -0.07095958 -0.5666066 0.8209274 
-1.07165 -0.22291 -0.209817 -0.3767541 0.8540758 0.3586238 
0.499203 -0.0827676 0.585766 0.08610921 0.7056234 0.7033355 
-0.093795 0.575653 -0.477782 -0.3832586 0.4563534 -0.8030282 
0.902438 -0.391538 0.359031 0.999855 0.00571069 -0.01604661 
-1.05069 -0.264342 0.115405 -0.9077455 0.002275514 0.4195151 
-0.760541 -0.226596 -0.493003 -0.4738736 0.05888978 -0.8786215 
0.233602 0.654997 0.404723 0.3778764 -0.0583794 0.9240137 
-0.708323 0.177335 -0.0258158 -0.4974372 0.8368863 0.228424 
-0.361406 0.667605 0.0343009 -0.9641236 0.1954702 0.1796028 
-0.782804 0.0917774 -0.307211 -0.5298635 0.6652772 -0.5259763 
0.147679 -0.541648 0.529577 -0.7337214 -0.3740399 0.5672277 
-0.251739 0.0815683 -0.650793 -0.3723219 0.3025688 -0.8773987 
-0.54122 -0.654517 -0.1979 0.07056582 -0.9797449 -0.1874045 
-0.815703 -0.0869362 -0.42148 -0.5186774 0.3721331 -0.7697342 
0.476527 0.633989 -0.199832 0.9275146 0.2897701 -0.2361145 
0.47725 0.675793 0.116419 0.9653418 0.157599 0.2080334 
0.357998 0.157983 0.38851 0.2066657 0.4793288 0.8529556 
-0.60635 -0.595553 -0.338982 -0.1066109 -0.8341931 -0.5410693 
0.5087 0.295049 -0.37994 0.8439666 0.2750816 -0.4604895 
-0.123007 1.0002 0.272369 -0.4657229 0.6852342 0.5599608 
0.505112 0.338699 -0.357017 0.8602337 0.2738839 -0.4300995 
0.267608 0.469241 0.367025 0.3683593 -0.02017389 0.9294646 
-0.900939 -0.618665 -0.129947 -0.3742291 0.4390398 -0.8168211 
0.869365 -0.315796 0.217649 0.9711371 0.1059015 -0.2137232 
-0.933017 -0.132811 -0.354212 -0.6452485 0.322093 -0.6927556 
0.205806 -0.569143 0.587063 -0.6742531 -0.3459541 0.6524558 
-0.359513 -0.576311 -0.375548 0.02107157 -0.9046658 -0.4256003 
-0.33762 0.623191 0.125278 -0.9127258 0.1141115 0.3923138 
0.069689 -0.467084 -0.533574 0.08617164 -0.7810288 -0.6185211 
-0.509357 -0.610483 -0.318463 -0.04699416 -0.8930919 -0.447413 
0.841738 -0.398637 0.127383 0.9139262 -0.1187396 -0.3881232 
-1.05365 -0.204435 -0.240816 -0.1324454 0.8831432 0.450018 
0.0179804 0.141821 -0.723692 -0.1354816 0.3039633 -0.9430011 
-0.295786 -0.425693 0.260602 -0.132583 -0.5614683 0.8168078 
-0.101641 0.773302 -0.365866 -0.4202762 0.496118 -0.7597597 
0.520422 -0.115401 0.617778 0.09498317 0.691783 0.7158314 
-0.102717 0.90792 -0.278828 -0.418622 0.5653707 -0.710712 
-0.677599 -0.0428117 -0.48281 -0.4871329 0.3418613 -0.803637 
0.566392 -0.008604 0.479012 0.3089193 0.7363884 0.6019143 
-0.884943 -0.11245 -0.384599 -0.5672324 0.312621 -0.7619157 
0.830261 -0.434776 0.114755 0.8868598 -0.1927217 -0.4199264 
-1.09096 -0.319839 -0.0371202 -0.9883416 -0.1090565 0.1062439 
-0.097244 0.653293 -0.434755 -0.4334141 0.4542449 -0.7783405 
-0.763324 -0.642199 -0.209001 -0.1933599 -0.8940163 -0.4041617 
-0.639645 0.123958 0.129864 -0.3791433 0.7219217 0.5788605 
-1.03922 -0.390409 0.0974113 -0.864996 -0.2697689 0.4230919 
-0.213255 0.535118 0.31474 -0.6896704 -0.06513931 0.7211877 
-0.482879 0.0145267 -0.560464 -0.4442069 0.3406467 -0.8286374 
0.151538 -0.697641 0.343907 -0.6059312 -0.7118669 0.3550959 
-0.722138 0.181095 -0.0626078 -0.5141648 0.8367537 0.1883559 
-1.09641 -0.281305 -0.107527 -0.9914735 -0.1152633 -0.0607835 
0.216345 0.521401 0.392368 0.3766006 -0.06194124 0.9243026 
-0.11388 -0.439883 0.310583 -0.4455875 -0.4739527 0.7594871 
0.453228 0.640143 0.184383 0.7357116 0.3595731 0.5739649 
-0.450244 -0.345099 0.306622 0.07430097 -0.287932 0.9547641 
0.390557 -0.61337 0.69174 -0.165858 -0.4635088 0.8704313 
0.238933 -0.768033 0.260112 -0.373072 -0.9261941 -0.05460568 
0.53791 -0.795615 0.208495 0.1664679 -0.9323391 -0.3209864 
0.466715 0.657764 0.15098 0.7435155 0.4861894 0.4591347 
0.421934 0.112938 -0.617457 0.6821843 0.2678137 -0.6803679 
0.0761482 1.06419 0.278614 -0.04386565 0.818481 0.5728565 
0.269783 -0.569201 -0.319937 0.1866116 -0.8275892 -0.5294075 
-0.272951 -0.555437 -0.40798 0.03223862 -0.8946376 -0.4456278 
0.671501 -0.665413 0.0802626 0.5458688 -0.6998214 -0.4607357 
-0.589073 0.171049 0.0995504 -0.4759389 0.6537402 0.5883077 
0.00364274 -0.199694 -0.747919 0.8293001 0.1923448 -0.5246568 
-0.230927 0.882208 0.268226 -0.6157991 0.2181193 0.7571099 
-0.187557 -0.428268 0.279732 -0.2511855 -0.5484126 0.7975898 
0.470869 -0.747771 0.070521 0.1371887 -0.9138215 -0.3822428 
-0.359226 0.716354 -0.0622364 -0.8924387 0.4451958 0.07317121 
-0.712671 -0.398804 -0.490439 -0.9035464 -0.2884665 0.3168454 
0.578138 -0.813301 0.298638 0.324688 -0.9290108 -0.1775295 
0.320165 -0.615248 -0.222982 0.7501131 -0.35945 -0.555091 
-0.447317 -0.576076 0.133784 0.08820983 -0.8016587 0.591238 
-0.622272 -0.573892 -0.367787 -0.1205547 -0.8042288 -0.5819644 
-0.0782347 0.254691 -0.652388 -0.272578 0.3877282 -0.8805498 
0.720529 -0.141265 -0.117858 0.9221171 0.23749 -0.3054482 
0.210789 -0.512916 -0.431889 0.1855659 -0.8075392 -0.5598623 
0.012481 -0.478262 0.396881 -0.6172612 -0.4197961 0.6654021 
-0.946889 -0.0713541 0.157933 -0.8296196 0.5478092 0.1078725 
-0.545617 -0.617818 -0.304194 -0.05000531 -0.8933706 -0.4465294 
-1.05511 -0.391694 0.0558541 -0.9217077 -0.2198199 0.3195845 
-0.149984 -0.433151 0.293582 -0.3673175 -0.4834372 0.7945857 
-0.533449 -0.0457457 0.302174 -0.2234855 0.3943361 0.8913772 
-0.587152 -0.456436 0.277243 0.100972 -0.5592552 0.8228234 
0.150853 0.941 0.385762 0.06875361 0.5145949 0.8546725 
-0.308972 0.774023 -0.170851 -0.7966639 0.3885527 -0.4629831 
-0.53617 -0.000975965 -0.539552 -0.4594538 0.3944102 -0.7958285 
-0.647481 -0.461742 0.278774 0.02843483 -0.5052786 0.8624877 
-0.171359 0.838019 -0.281775 -0.5520044 0.4797746 -0.681988 
0.395652 -0.683381 -0.0771402 0.1215006 -0.8962288 -0.4266281 
0.0321669 1.08548 0.237435 -0.08384984 0.8647271 0.4951931 
0.623292 -0.804636 0.418832 -0.9373837 -0.1182322 0.3276172 
-0.133966 0.849506 -0.300198 -0.4647526 0.5090256 -0.7244985 
-0.677362 -0.480293 -0.45281 -0.2154443 -0.621682 -0.7530573 
-0.752291 -0.26488 -0.499315 -0.4684313 -0.01606889 -0.8833538 
0.596379 -0.261364 0.712913 0.885349 0.2166336 -0.4113721 
0.066682 0.147912 -0.728191 -0.07696761 0.3105803 -0.9474259 
-0.684354 -0.639003 -0.246266 -0.09107265 -0.9242019 -0.3708865 
0.490679 0.495148 -0.274089 0.9253396 0.2544067 -0.2811123 
0.703594 -0.574286 0.662917 0.5191153 -0.3544914 0.7777243 
0.241144 0.615986 0.397822 0.3831353 -0.08635149 0.9196471 
-0.0259039 -0.464334 0.366561 -0.5552653 -0.394304 0.7322601 
-0.505139 -0.65783 -0.0967034 0.1413795 -0.9892062 -0.03851014 
0.0851853 -0.510431 0.464768 -0.6886368 -0.3952298 0.6079249 
-0.296607 0.701002 0.212674 -0.890526 0.07998232 0.4478461 
-0.100899 0.95086 -0.245589 -0.4172105 0.6006461 -0.6820261 
0.739332 -0.593064 0.0813578 0.7370886 -0.6398397 -0.2174987 
0.763223 -0.549599 0.626245 0.6007733 -0.3217789 0.7317989 
0.17806 -0.556539 0.560563 -0.7001266 -0.3363917 0.6298122 
0.616884 -0.0334928 -0.326601 0.8918375 0.1482898 -0.4273591 
-0.0854337 0.393969 -0.577753 -0.2902054 0.4173802 -0.8611472 
-0.478737 -0.6402 -0.00691902 -0.03666625 -0.9693404 0.2429705 
-0.785279 0.0645028 -0.335731 -0.523582 0.6182464 -0.5862026 
-0.0903941 1.02347 0.26762 -0.3865432 0.7701946 0.507331 
0.593282 -0.815258 0.335706 0.324688 -0.9290108 -0.1775295 
0.517092 0.145654 -0.45648 0.8484161 0.2251084 -0.4790788 
-0.441438 -0.417527 0.275114 0.09814689 -0.5070224 0.8563268 
0.823465 -0.516343 0.574164 0.7316805 -0.3204789 0.601612 
0.501856 0.375286 -0.337683 0.8380253 0.2945127 -0.4593211 
-1.08297 -0.338473 -0.00235529 -0.9659045 -0.1606434 0.2030325 
-0.215856 0.0915308 -0.664016 -0.3624594 0.3025647 -0.8815202 
0.646464 -0.433802 0.724838 0.3728356 -0.07305469 0.9250171 
-0.931224 -0.603799 -0.107857 -0.6168427 -0.778313 0.1171916 
-0.00776025 1.12809 0.108607 -0.251597 0.9491594 0.1891968 
0.299828 -0.356924 -0.593299 0.3887907 -0.6490561 -0.6538869 
0.660061 -0.721639 0.567349 0.3632001 -0.7084296 0.6051556 
-1.00081 -0.537981 -0.0417482 -0.7909608 -0.6059496 0.08488963 
0.205636 -0.750285 0.287315 0.236964 -0.6645485 0.7086772 
0.560137 0.0196508 -0.430287 0.8736609 0.1541063 -0.4614845 
-0.0800242 1.08129 -0.105714 -0.7036826 0.6609758 -0.2606566 
0.35265 0.852106 -0.248278 0.6720766 0.4939609 -0.5516482 
-1.05849 -0.338073 0.0835034 -0.8989011 -0.1749666 0.4017009 
-0.661943 -0.509813 -0.431623 -0.2212219 -0.6628851 -0.7152931 
0.488539 0.718423 0.0330981 0.9796028 0.1961858 0.04346826 
0.184548 0.154983 -0.725222 0.1238821 0.2791206 -0.9522316 
-0.0434314 0.871378 -0.333006 -0.2534805 0.5553464 -0.7920468 
0.853601 -0.329797 0.156837 0.9520618 0.01643594 -0.3054641 
0.642109 -0.779933 0.482989 0.3019397 -0.83351 0.4627025 
0.654006 -0.472794 0.717947 0.3265167 -0.1419105 0.9344776 
-0.440319 -0.536552 0.184927 0.0844394 -0.7529991 0.6525814 
-0.256442 -0.424889 0.26441 -0.1674327 -0.5128588 0.841987 
0.429158 -0.712757 -0.0118247 0.1875668 -0.8808927 -0.4345651 
-0.0565867 1.04444 0.261171 -0.3022477 0.7725009 0.55847 
0.486814 -0.770456 0.125292 0.1427816 -0.9177027 -0.3707225 
0.56181 -0.741594 0.0997458 0.3189442 -0.8471252 -0.4250335 
0.451619 0.0980765 -0.586614 0.7501143 0.2320944 -0.619242 
-0.723148 -0.0568464 -0.463522 -0.5055827 0.3768496 -0.7761254 
-0.0679946 0.12623 -0.708559 -0.2171898 0.258111 -0.9413859 
0.351148 0.137827 -0.671925 0.575229 0.2393541 -0.7821901 
-0.577443 -0.628267 -0.282263 -0.02835439 -0.9171584 -0.3975132 
-0.0471494 -0.00280452 -0.745333 -0.2362926 0.1131104 -0.9650761 
0.633338 -0.0499434 -0.294655 0.895402 0.1454922 -0.4208175 
0.11391 -0.620961 0.404135 -0.6635622 -0.6077205 0.436304 
0.263154 1.08457 0.123453 0.3990208 0.894541 0.2014421 
0.115367 -0.52539 0.495853 -0.7337213 -0.37404 0.5672277 
0.158628 -0.434122 -0.561316 0.1741572 -0.7442113 -0.6448401 
-0.179586 0.101151 -0.676559 -0.3262989 0.2688177 -0.9062374 
-0.559397 -0.644088 -0.242001 0.04334799 -0.9719506 -0.2311561 
-0.0301864 0.134215 -0.716377 -0.1878318 0.2959725 -0.9365466 
0.0489569 0.884485 -0.348192 -0.1122514 0.5895354 -0.7999048 
0.581671 -0.226615 0.698819 0.04850317 0.457791 0.8877358 
-0.583411 -0.0147952 -0.520882 -0.4644466 0.3469057 -0.8148286 
-0.277403 0.569362 0.239222 -0.8028574 0.01276033 0.5960346 
0.0675883 -0.338768 -0.678628 0.06849495 -0.5638565 -0.8230276 
0.480354 0.599317 -0.218521 0.9011039 0.3037284 -0.3094526 
0.474482 -0.0456179 0.547902 0.08674864 0.7041086 0.7047735 
-0.447349 0.0248415 -0.574365 -0.4311912 0.3409591 -0.8353569 
-0.0685109 1.10538 -0.0604736 -0.9421869 -0.1007695 0.3195771 
0.103659 -0.582823 0.429527 -0.6853178 -0.5302065 0.49922 
0.227662 -0.529395 -0.400125 0.1895255 -0.8121148 -0.5518602 
0.200764 0.795913 0.415486 0.4139086 0.09947513 0.9048671 
-1.05638 -0.301348 0.100265 -0.9208136 -0.1077362 0.3748271 
0.303388 -0.600011 -0.255329 0.2920133 -0.7877553 -0.5423743 
0.223608 0.154589 -0.719288 0.1762746 0.238449 -0.9550232 
0.381654 0.109503 0.41612 0.2067354 0.5603823 0.8020176 
0.0450967 -0.298204 -0.708565 0.02105271 -0.5269032 -0.8496646 
0.412743 -0.257569 -0.600641 -0.2160622 0.2719247 -0.9377495 
0.465707 0.720043 -0.152802 0.9255165 0.3008673 -0.2299955 
-0.555573 0.192959 0.0937061 -0.5227268 0.66636 0.5317153 
0.68756 -0.10632 -0.185456 0.9058544 0.1144602 -0.4078317 
0.316563 0.550233 0.346877 0.5603315 -0.03166714 0.8276629 
0.531595 0.0436516 -0.477505 0.8633944 0.1618551 -0.477863 
0.309607 0.284464 0.350235 0.3331564 0.2093864 0.9193281 
-0.918465 -0.447908 0.217526 -0.5916799 -0.4604469 0.6617429 
0.566014 -0.194188 0.680764 0.1602765 0.5569021 0.8149672 
0.375598 -0.0573654 0.556515 -0.1250461 0.6229035 0.7722402 
-0.0957389 0.61882 -0.453924 -0.4334083 0.4515818 -0.7798918 
0.341727 -0.325702 -0.598758 0.4485121 -0.5755724 -0.6837788 
0.611574 -0.303165 0.723541 0.3471344 0.1388062 0.9274862 
0.224059 0.884357 -0.327399 -0.006770677 0.9686086 0.248499 
0.375771 0.578009 0.298674 0.7202493 0.02861994 0.6931247 
0.096163 -0.422142 0.517251 -0.7115725 -0.1798484 0.6792049 
0.216633 0.733404 0.414007 0.4222314 0.04534489 0.9053532 
0.494339 -0.105431 -0.567003 0.7797754 -0.06943046 -0.6221974 
-0.834291 -0.636434 -0.171322 -0.2696898 -0.9201899 -0.2837572 
0.438619 -0.0341101 0.534638 0.04026138 0.6918221 0.7209448 
-0.336144 0.527909 0.148206 -0.8406861 0.1476709 0.5209991 
0.286569 -0.584662 -0.287712 0.1646229 -0.8435484 -0.5112001 
-0.115248 0.506689 0.382681 -0.4530425 0.03030562 0.8909736 
-0.280031 0.792171 -0.203489 -0.7514489 0.4047628 -0.5210484 
-0.074389 0.203092 -0.677051 -0.2281546 0.3585647 -0.9051943 
-0.437953 -0.502319 0.218594 0.1043784 -0.7192693 0.6868455 
-0.456322 -0.307814 0.318391 0.05702452 -0.247086 0.9673142 
0.261901 0.152376 -0.710168 0.1310221 -0.6990215 -0.7029952 
-0.778426 -0.115355 -0.457155 -0.4992523 0.2956856 -0.8144429 
-0.454068 -0.597752 0.0973498 0.08604837 -0.8406429 0.5347106 
0.623546 -0.341346 0.728415 0.4411944 0.09774979 0.892072 
0.484348 0.74652 -0.0231822 0.9727017 0.22955 -0.03403344 
-1.09177 -0.258077 -0.148914 -0.9969229 -0.006296976 -0.07813524 
-0.731976 -0.341432 -0.500951 -0.6018982 -0.2529445 -0.7574547 
0.352102 -0.609782 0.680114 -0.2491296 0.005560183 0.9684542 
0.260169 0.878718 -0.311967 0.4864292 0.6342534 -0.6009238 
0.819517 -0.250239 0.0924316 0.9515276 0.1380455 -0.2748432 
0.472441 0.668498 -0.181099 0.9275146 0.2897701 -0.2361145 
0.497186 0.42572 -0.310942 0.8016288 0.3286333 -0.4993911 
0.511531 -0.0169885 -0.532584 0.8354881 0.08348897 -0.5431291 
-0.142916 0.110319 -0.688238 -0.326299 0.2688177 -0.9062374 
-0.308972 -0.56416 -0.394504 0.004360443 -0.8729908 -0.4877171 
0.46057 0.754632 -0.133511 0.8918338 0.347158 -0.2900235 
-0.47682 -0.21181 0.334765 -0.01748233 -0.06202083 0.9979218 
-0.087749 1.05487 -0.142907 -0.4221295 0.7418339 -0.5210462 
0.20593 -0.173586 0.587496 -0.2080314 0.2524242 0.9449894 
0.889918 -0.453157 0.468783 0.2821696 0.7876438 0.5477202 
-0.146596 -0.524803 -0.45524 0.02432686 -0.8273075 -0.5612223 
0.105565 1.10012 0.208453 0.04630851 0.8958051 0.4420281 
0.447303 -0.77999 0.141508 0.01938472 -0.9467999 -0.3212385 
-0.3321 0.754807 -0.135407 -0.24095 0.90865 0.3410254 
0.0975959 -0.547281 0.451304 -0.7024946 -0.4832535 0.5224629 
0.600087 -0.0171223 -0.358452 0.8853085 0.127737 -0.4471154 
0.893867 -0.361021 0.302701 0.9891056 0.1180282 -0.08797429 
0.250215 0.566468 0.387787 0.4480584 -0.09548277 0.8888907 
0.382522 0.997852 0.0227449 0.7675592 0.6296476 -0.1199872 
-0.352397 0.645362 0.0795228 -0.9553282 0.1565371 0.2506877 
0.400445 0.59351 0.270786 0.7202494 0.02861996 0.6931247 
0.141893 1.10169 0.191356 0.1511305 0.9079307 0.3909239 
-0.583786 0.0494197 0.232052 -0.2368664 0.5844174 0.7761126 
0.174268 -0.72431 0.317758 -0.3905387 -0.8171329 0.4239967 
0.840608 -0.275992 0.141825 0.953447 0.1352803 -0.2695146 
0.426269 0.907007 -0.0427916 0.8962878 0.4126796 -0.1623696 
-0.467486 -0.251472 0.330496 0.02728572 -0.1368445 0.9902167 
-0.427472 0.320151 0.0923899 -0.09215622 -0.06798261 0.9934212 
-0.618788 -0.0252136 -0.506769 -0.4783772 0.3867244 -0.7884159 
-0.406471 0.354029 0.0984905 -0.7846228 0.3147754 0.5341195 
-0.308504 0.645572 0.191654 -0.872828 0.03774977 0.4865656 
-0.864963 -0.458421 0.243695 -0.5472497 -0.3859412 0.7426757 
-0.623694 0.105688 0.161411 -0.3259032 0.7098799 0.6243858 
-0.102477 0.807151 -0.345415 -0.420276 0.4961181 -0.7597598 
0.901594 -0.423916 0.417469 0.9918434 -0.1260607 -0.0188531 
-0.599686 0.0736424 0.205321 -0.2488013 0.6138047 0.7492275 
0.172299 -0.214512 0.58432 0.06491256 -0.1928381 0.9790812 
-0.478029 -0.443914 0.269189 0.09814695 -0.5070223 0.8563268 
0.102023 1.03049 0.321715 0.0888776 0.7300791 0.6775584 
-0.527018 -0.449772 0.273237 0.1302321 -0.504471 0.8535506 
-0.686419 0.165499 0.0279103 -0.4553432 0.8072419 0.3755305 
-0.503717 -0.121094 0.328584 -0.68454 -0.09498654 0.7227604 
0.62306 -0.596181 0.691742 0.3229689 -0.4060416 0.8548809 
0.829561 -0.165409 0.255415 0.8820214 0.466242 -0.06823961 
0.356218 -0.647937 -0.153425 0.198931 -0.8506575 -0.4866296 
0.159163 -0.459427 -0.527042 0.1700842 -0.7842818 -0.596635 
-0.0217994 1.06311 0.25312 -0.2135614 0.8162165 0.5368261 
0.371579 -0.300093 -0.601019 0.4485122 -0.5755724 -0.6837786 
-0.287794 0.738012 0.226281 -0.8815346 0.1128511 0.4584336 
-0.486125 0.249865 0.0871509 -0.6050982 0.577141 0.5484201 
0.767206 -0.191251 -0.0212268 0.9376584 0.1653963 -0.3056808 
0.193906 -0.496011 -0.463397 0.2145923 -0.7873347 -0.5779743 
-0.347144 0.737716 -0.103236 -0.6286109 0.7502844 0.2047479 
0.0169319 -0.235561 -0.738164 0.1456735 -0.3591101 -0.9218564 
-1.0413 -0.227454 0.128673 -0.8638869 0.06058879 0.5000286 
0.633175 -0.697108 0.0844249 0.4358407 -0.768512 -0.468436 
-0.080748 0.296833 -0.630652 -0.2746621 0.3977771 -0.8754051 
-0.403562 -0.43499 0.26301 0.02590207 -0.5124722 0.8583131 
0.762932 -0.561655 0.0849871 0.8560168 -0.492218 -0.1579768 
-0.752659 0.172462 -0.157178 -0.8190979 0.5569311 0.1375007 
-0.698124 -0.435086 -0.477061 -0.4469516 -0.541348 -0.7121634 
-0.0598403 0.0729155 -0.72699 -0.2464336 0.2168742 -0.9445825 
-0.778842 0.116368 -0.27652 -0.5076129 0.7067783 -0.4927409 
-0.168567 0.960589 0.275565 -0.6224443 0.6645303 0.4134763 
0.282918 0.389451 0.352613 0.4114892 0.06785985 0.9088848 
0.792534 -0.534676 0.603177 0.6683428 -0.2888691 0.6854725 
-0.438075 -0.468368 0.24489 0.06145176 -0.5654848 0.8224663 
0.390886 -0.787998 0.167763 -0.07108571 -0.9568197 -0.281856 
0.167236 0.888763 -0.342815 0.1067571 0.6121229 -0.7835231 
-1.03149 -0.186912 -0.269545 -0.1276366 0.8825675 0.4525301 
-1.07171 -0.356573 0.0318812 -0.9217076 -0.21982 0.3195845 
0.530814 -0.0125077 0.496167 0.2256501 0.7316983 0.6431948 
0.855731 -0.492298 0.534993 0.8273159 -0.1342421 0.5454609 
-0.340768 0.05585 -0.616191 -0.3829531 0.2230073 -0.8964456 
-1.03931 -0.459488 0.0152225 -0.8499136 -0.4815879 0.2138226 
-1.0061 -0.41298 0.142654 -0.7523039 -0.3337321 0.5680333 
0.378842 -0.668359 -0.109711 0.1206983 -0.8869849 -0.4457464 
-0.770753 -0.170163 -0.478096 -0.4702576 0.1196868 -0.8743758 
-0.771515 0.142061 -0.235271 -0.9224083 0.3813083 -0.0613761 
0.883937 -0.340081 0.263508 0.9818326 0.0829723 -0.1706473 
-0.687735 -0.464182 0.277807 -0.0138985 -0.5760637 0.8172867 
0.697084 -0.0243148 0.400342 0.5633643 0.6518038 0.5077131 
0.856839 -0.297657 0.18318 0.959515 0.1260532 -0.2518762 
0.493939 0.460463 -0.292503 0.8923117 0.2818617 -0.35261 
0.346044 1.0384 0.0603307 0.04011596 0.7425231 -0.6686181 
-0.0317466 -0.0753208 -0.754657 -0.2274732 0.05433404 -0.9722674 
0.405412 0.0653835 0.446899 0.1660086 0.5665886 0.807105 
