ply
format ascii 1.0
comment VCGLIB generated
element vertex 499
property float x
property float y
property float z
property float nx
property float ny
property float nz
element face 0
property list uchar int vertex_indices
end_header
0.204188 0.981237 -0.0938497 1 0 0 
-0.204188 -0.661902 -0.244413 1 0 0 
-0.816751 0.584098 -0.0869659 -0.6296087 0.7022927 -0.3322318 
-0.816751 0.42586 -0.201729 -0.2261551 0.3320249 -0.9157584 
0.204188 0.470789 -0.0362993 1 0 0 
0.816751 -4.09978e-05 -0.250017 -0.3218029 0.002805624 -0.9468026 
-0.561516 0.343477 -0.231487 0.02743392 -0.1509823 -0.9881557 
-0.561516 0.20142 0.191076 0.1773705 -0.188134 0.9659945 
0.561516 -0.506916 0.254825 0.2189238 -0.05932917 0.9739366 
-0.816751 -0.342966 -0.225096 -0.1046874 -0.2489543 -0.9628408 
-0.204188 0.884754 -0.210676 1 0 0 
-0.816751 -0.47561 0.180478 -0.3928829 -0.4748003 0.7875326 
-0.816751 0.0889649 -0.248493 0.2898862 0.02614891 -0.9567038 
0.561516 -0.0430554 -0.15548 -0.2602125 0.05973726 -0.9637017 
0.561516 -0.246993 0.205198 -0.1392039 0.2026571 0.9693051 
-0.561516 -0.0367703 -0.155064 0.2704534 0.07401333 -0.9598839 
-0.561516 0.810995 0.126325 -0.6549456 0.680772 0.3280182 
0.816751 -0.59894 0.0578923 0.7153479 -0.6545128 0.2447249 
0.561516 0.463758 0.252245 0.1476508 -0.02868289 0.9886236 
0.816751 0.0283684 0.249601 -0.3243735 0.01018352 0.9458743 
-0.204188 -0.988944 -0.0728202 1 0 0 
-0.561516 0.578196 0.251307 -0.2843252 0.2008969 0.9374431 
-0.816751 -0.483781 -0.175839 -0.4587227 -0.5138947 -0.7249041 
0.561516 0.68509 0.225171 0.4076174 0.4374657 0.8015434 
-0.204188 -0.959058 0.136489 1 0 0 
0.204188 0.820948 -0.241371 1 0 0 
0.816751 0.247717 -0.23934 -0.06815919 0.08708142 -0.9938667 
0.204188 0.537278 0.169382 1 0 0 
-0.561516 0.699068 -0.218446 -0.457337 0.4658641 -0.7575049 
0.204188 0.477984 -0.0682932 1 0 0 
0.204188 0.90142 0.198642 1 0 0 
0.561516 0.733582 0.198978 0.492156 0.5529202 0.6723554 
0.561516 0.300096 -0.219888 -0.08041313 -0.1786651 -0.9806184 
0.561516 -0.844831 0.0558676 0.9287323 -0.3599315 0.0889132 
0.204188 -0.735645 0.254698 1 0 0 
-0.561516 0.548435 -0.254215 -0.2675422 0.1626991 -0.9497106 
-0.561516 0.773361 -0.168424 -0.66131 0.5773007 -0.4789499 
-0.561516 -0.317062 0.225097 0.04776955 0.167681 0.9846833 
-0.561516 -0.706739 -0.214795 -0.463203 -0.4493821 -0.763871 
0.816751 0.562508 -0.117092 0.6206743 0.6584159 -0.425737 
-0.816751 -0.055496 -0.248939 0.3130298 -0.01179048 -0.9496701 
-0.561516 0.0917499 0.162869 0.2452331 -0.1157579 0.9625284 
0.204188 -0.769122 0.25293 1 0 0 
0.204188 0.998728 -0.0232382 1 0 0 
-0.816751 0.162421 0.246008 0.2173706 0.07206347 0.9734254 
-0.561516 -0.402536 -0.244244 -0.07112803 0.1148848 -0.9908291 
0.561516 -0.522419 -0.255132 0.2095851 -0.07710091 -0.9747459 
-0.561516 -0.590396 -0.25033 -0.3376294 -0.2184587 -0.9155775 
-0.816751 0.0546601 0.249343 0.316597 0.01700826 0.9484076 
0.816751 -0.478334 -0.178932 0.451233 -0.4859851 -0.7484701 
0.816751 0.328566 -0.227458 0.04015118 0.186953 -0.981548 
0.204188 0.926626 0.176648 1 0 0 
0.561516 0.198308 -0.190157 -0.1666038 -0.1835742 -0.9687846 
-0.204188 -0.801895 0.24709 0.08008581 -0.2222852 0.971687 
-0.816751 0.244437 0.239596 0.079312 0.09361686 0.9924442 
0.816751 0.538695 0.140513 0.509889 0.6831829 0.5227566 
-0.204188 -0.979709 0.0980212 1 0 0 
-0.561516 0.832504 0.089256 -0.7797554 0.5863058 0.2196068 
-0.561516 0.0552632 0.156294 0.2606286 -0.06875277 0.9629879 
0.204188 -0.957652 -0.138827 1 0 0 
0.561516 0.078482 -0.160479 -0.2570128 -0.06926595 -0.9639225 
-0.561516 -0.68425 0.225521 -0.4372567 -0.474864 0.7637478 
0.204188 -0.545364 0.177211 1 0 0 
-0.561516 -0.118264 0.168209 0.2378213 0.1131014 0.9647017 
0.204188 -0.630983 0.233734 1 0 0 
0.204188 -0.878304 0.214905 1 0 0 
0.816751 -0.361787 0.220268 0.0955398 -0.2281194 0.9689343 
0.561516 0.0651817 0.158259 -0.2649328 -0.06970142 0.9617444 
-0.561516 0.846833 -0.047586 -0.7872858 0.6058393 -0.1146299 
0.561516 0.804835 -0.134161 0.6812915 0.6180774 -0.3922018 
0.816751 -0.277078 -0.235806 -0.006158629 -0.1409753 -0.989994 
0.561516 0.663263 -0.232419 0.4477522 0.4069291 -0.7961951 
0.204188 -0.512223 -0.138817 1 0 0 
0.816751 0.609514 -0.011751 0.8664968 0.4906415 -0.09194767 
-0.816751 0.393605 -0.211586 -0.1991489 0.3260882 -0.9241245 
0.816751 -0.577989 -0.0976742 0.6890807 -0.6218476 -0.3721201 
-0.204188 -0.898192 -0.2015 1 0 0 
0.204188 -0.880266 -0.213523 1 0 0 
0.204188 -0.761657 -0.253648 1 0 0 
-0.561516 0.697307 0.219057 -0.4320953 0.4803239 0.7632711 
0.204188 0.467933 -0.00356714 1 0 0 
-0.561516 -0.848223 0.0405022 -0.8339806 -0.545885 0.08053639 
-0.204188 0.639181 -0.237031 0.6237386 -0.2826675 -0.7287312 
0.204188 -0.671683 -0.246885 1 0 0 
0.204188 0.738399 -0.254768 1 0 0 
-0.561516 0.824102 -0.105633 -0.7481614 0.6228789 -0.2286407 
-0.561516 -0.506916 0.254825 -0.1999543 -0.04777092 0.97864 
-0.816751 -0.0907362 0.248649 0.2854562 -0.03140246 0.9578772 
-0.816751 -0.584277 -0.0871925 -0.6717567 -0.6607961 -0.3348007 
-0.561516 0.0337732 -0.155244 0.2674376 -0.03246471 -0.9630282 
0.816751 -0.381345 -0.215249 0.1784995 -0.3050095 -0.9354716 
-0.204188 -0.960489 -0.13387 1 0 0 
0.204188 0.851714 -0.229411 1 0 0 
0.204188 -0.510521 0.135674 1 0 0 
-0.816751 -0.433368 -0.199289 -0.2858989 -0.3782354 -0.8804544 
0.204188 -0.810386 0.244492 1 0 0 
0.561516 0.699021 -0.218195 0.4856687 0.5025116 -0.7152677 
-0.816751 -0.407637 0.207621 -0.2406563 -0.3398525 0.9091671 
-0.561516 -0.843938 -0.0589053 -0.6861166 -0.6982958 -0.2040268 
-0.816751 0.498571 -0.167108 -0.4636165 0.6020612 -0.6500632 
-0.561516 -0.208922 0.193673 0.1871518 0.191255 0.963533 
0.816751 -0.045089 -0.249462 -0.3013179 -0.007393107 -0.9534951 
-0.204188 -0.658627 0.243458 0.6416644 0.2218514 0.7341994 
-0.561516 -0.623148 -0.244244 -0.3640718 -0.2587633 -0.894703 
0.561516 -0.559913 0.253638 0.301466 -0.1305486 0.9444973 
0.561516 -0.117172 0.169652 -0.2380843 0.1167188 0.9642057 
0.204188 -0.703216 0.252579 1 0 0 
-0.561516 0.544492 0.25415 -0.2686922 0.1634775 0.9492521 
-0.561516 0.804778 -0.134731 -0.7013011 0.6137587 -0.3625975 
0.561516 0.247899 -0.204722 -0.1261897 -0.1877775 -0.9740717 
0.816751 -0.547621 0.132035 0.5597914 -0.6062509 0.5648835 
0.816751 -0.510926 0.16009 0.4947523 -0.5505542 0.6723915 
-0.561516 -0.828979 0.0976742 -0.6699638 -0.6820779 0.2931179 
0.204188 0.992947 -0.0574643 1 0 0 
0.204188 0.587274 -0.21051 0.6375756 0.4303013 0.6390135 
-0.816751 -0.172153 0.24542 0.1631462 -0.07199944 0.9839712 
-0.561516 -0.546379 -0.254341 -0.2555156 -0.133738 -0.9575103 
0.204188 0.472159 0.0443288 1 0 0 
0.204188 -0.999413 -0.0125737 1 0 0 
0.204188 -0.569329 -0.198017 1 0 0 
0.816751 -0.47561 0.180478 0.3574479 -0.5234401 0.7734607 
0.561516 -0.402536 0.244244 0.06102009 0.08352278 0.9946359 
0.816751 0.449623 -0.192274 0.3149512 0.443126 -0.8393123 
-0.204188 0.578879 0.205326 1 0 0 
-0.816751 0.602633 0.0453969 -0.7454787 0.6318649 0.2121514 
0.561516 0.496704 0.254399 0.2142803 0.04266674 0.9758399 
-0.561516 0.167428 -0.181257 0.216094 -0.1756562 -0.9604417 
-0.204188 -0.509835 -0.134629 1 0 0 
-0.204188 -0.477638 0.0664131 1 0 0 
-0.816751 -0.560033 -0.120317 -0.5714721 -0.6666037 -0.4786013 
-0.816751 -0.610564 2.0232e-08 -0.7975371 -0.6032605 0.003367638 
0.561516 -0.331725 -0.228666 0.002945259 0.1545366 -0.9879827 
0.561516 -0.476041 -0.2534 0.1395411 0.002495007 -0.9902132 
-0.561516 0.729015 -0.202071 -0.4934221 0.5472237 -0.6760776 
-0.204188 0.526155 -0.157201 1 0 0 
-0.816751 -0.5886 0.0799865 -0.6547449 -0.6605403 0.3674177 
0.204188 -0.93216 -0.170598 1 0 0 
0.561516 0.507545 -0.254368 0.2511426 0.0863681 -0.9640892 
0.561516 0.60923 0.246815 0.3481084 0.2029251 0.9152279 
0.561516 -0.799648 0.1418 0.6104047 -0.6642081 0.4315481 
-0.204188 -0.926708 0.176648 0.6145464 0.5839042 -0.5304608 
-0.204188 0.475121 0.0572605 1 0 0 
-0.561516 -0.317062 -0.225096 0.02030961 0.1653225 -0.9860305 
-0.561516 -0.513118 -0.25503 -0.2434435 -0.0618251 -0.9679427 
-0.561516 -0.797587 -0.144036 -0.6301882 -0.6178615 -0.4702233 
0.561516 0.76889 0.172674 0.6751755 0.5693879 0.4689728 
0.561516 0.594916 -0.249111 0.2940472 0.1920924 -0.9362888 
0.816751 -0.0833429 0.248379 -0.293566 -0.02987307 0.9554719 
-0.561516 -0.852329 2.0232e-08 -0.7060704 -0.7060525 0.05435641 
0.816751 -0.0804838 -0.249026 -0.2995155 -0.02099949 -0.9538603 
-0.561516 0.851362 -0.0140389 -0.8021145 0.5971273 0.007165949 
0.561516 -0.208158 0.193561 -0.1810993 0.1956135 0.9638146 
0.204188 0.673239 0.247278 1 0 0 
0.204188 0.925561 -0.17726 1 0 0 
0.561516 -0.685366 0.225097 0.4492801 -0.4414275 0.7767169 
0.561516 0.85156 0.0109404 0.928869 0.3701787 0.01304374 
-0.204188 0.998552 0.0263729 1 0 0 
-0.561516 -0.282764 -0.215654 0.07745931 0.189272 -0.9788648 
-0.816751 0.0940717 0.248523 0.2638034 0.03056855 0.964092 
0.816751 0.263869 0.237391 -0.06710549 0.1274329 0.9895746 
-0.204188 0.731232 -0.254949 1 0 0 
0.816751 0.585389 -0.0845164 0.6800454 0.6481834 -0.3426318 
0.204188 0.707798 0.253478 1 0 0 
-0.816751 0.393857 0.210646 -0.2293051 0.3331005 0.9145837 
-0.561516 0.290446 0.217084 0.06374959 -0.1938334 0.978961 
-0.561516 -0.828979 -0.0976742 -0.6641485 -0.667426 -0.3368224 
-0.204188 -0.70788 0.253478 0.6439736 0.1200488 0.7555702 
0.561516 -0.840409 -0.0710808 0.9290721 -0.3584557 -0.09129383 
-0.561516 -0.737099 -0.197299 -0.4950786 -0.5457335 -0.6760712 
-0.816751 0.51868 0.153917 -0.5113631 0.5888982 0.6258647 
-0.816751 -0.208025 0.242802 0.0974232 -0.1015951 0.9900441 
0.204188 -0.90876 -0.193131 1 0 0 
0.561516 -0.00925837 -0.153241 -0.2699433 0.03801709 -0.9621254 
-0.561516 -0.0837426 0.161919 0.2420537 0.09313025 0.965783 
0.561516 0.843962 -0.0584156 0.9104844 0.3930669 -0.1285167 
0.561516 -0.626327 0.2434 0.3407692 -0.2617192 0.9029837 
-0.561516 0.746925 0.190078 -0.5034101 0.5586905 0.6591232 
-0.204188 -0.541809 0.174255 0.7725227 0.4200229 0.4762242 
-0.204188 -0.469551 0.0294173 1 0 0 
0.816751 -0.237558 0.239701 -0.07306146 -0.09484489 0.9928074 
-0.816751 -0.226337 -0.240806 0.1022399 -0.1009248 -0.9896268 
0.561516 0.472265 -0.252738 0.1636242 0.01389304 -0.9864249 
0.204188 -0.983588 0.087864 1 0 0 
0.204188 -0.495329 -0.110217 1 0 0 
0.561516 -0.826019 -0.102706 0.9253712 -0.3475348 -0.1513533 
-0.816751 -0.439555 0.197298 -0.3022546 -0.4003164 0.8650947 
-0.561516 0.486618 0.253803 -0.1866366 -0.002584871 0.9824256 
-0.204188 0.484157 -0.0857027 1 0 0 
-0.816751 -0.128328 0.247266 0.2177884 -0.05017571 0.9747055 
-0.816751 -0.191453 -0.244244 0.1655706 -0.06732461 -0.9838973 
-0.816751 -0.602342 -0.0497942 -0.7887112 -0.5850684 -0.188758 
-0.561516 -0.772728 -0.169343 -0.5624775 -0.5751268 -0.5940104 
0.816751 -0.191453 0.244244 -0.1408238 -0.06461018 0.9879242 
-0.816751 -0.261222 -0.237369 0.07718857 -0.09688072 -0.9922984 
0.561516 0.823423 0.106807 0.9279878 0.3535085 0.1177731 
0.816751 -0.244485 -0.239628 -0.0737481 -0.1377297 -0.9877205 
-0.816751 -0.508291 0.161919 -0.4697652 -0.5455943 0.6940083 
0.816751 0.214911 -0.241905 -0.1307617 0.08486453 -0.987775 
-0.816751 -0.125781 -0.247269 0.2434654 -0.04295084 -0.9689581 
0.204188 0.999331 0.0125733 1 0 0 
0.204188 -0.474742 0.055481 1 0 0 
0.816751 -0.342966 -0.225096 0.08908045 -0.2403962 -0.9665787 
-0.816751 0.472584 0.18079 -0.4134651 0.4448829 0.7944342 
0.204188 0.703134 -0.252579 1 0 0 
-0.561516 -0.623148 0.244244 -0.3521208 -0.2765064 0.8941786 
-0.816751 0.263869 -0.237391 0.04974661 0.1158133 -0.9920245 
0.816751 -0.0377213 0.249297 -0.3217772 -0.005913016 0.946797 
-0.561516 -0.361052 -0.235806 0.01667131 0.136169 -0.9905453 
0.204188 0.495817 0.111336 1 0 0 
0.561516 -0.0837426 0.161919 -0.2583132 0.1167994 0.9589746 
-0.204188 -0.489257 0.0982847 1 0 0 
-0.816751 0.0518203 -0.249354 0.317985 0.01100849 -0.9480318 
-0.204188 0.961788 -0.131813 1 0 0 
-0.561516 -0.170375 0.181889 0.1829779 0.1746196 0.967485 
0.561516 -0.771798 0.170168 0.6782235 -0.5882209 0.4404647 
-0.816751 -0.0185642 -0.249683 0.3299188 7.50348e-05 -0.9440094 
-0.204188 -0.999103 -0.0180134 1 0 0 
0.204188 0.509753 -0.134629 1 0 0 
0.561516 -0.590396 -0.25033 0.3037305 -0.1960678 -0.9323654 
-0.561516 -0.280254 0.214776 0.09983031 0.1874887 0.9771806 
0.204188 0.561046 0.191684 1 0 0 
0.561516 0.75623 -0.18258 0.6448677 0.5678394 -0.5115702 
0.204188 0.965845 -0.125338 1 0 0 
-0.816751 -0.0201517 0.249769 0.3215826 -0.00421498 0.9468722 
0.816751 -0.416327 -0.204863 0.1844772 -0.3762177 -0.9079804 
-0.561516 0.232546 0.200262 0.1580434 -0.2002981 0.9669038 
-0.561516 0.420522 -0.246944 -0.1019167 -0.06374656 -0.9927484 
0.816751 -0.545776 -0.134502 0.5975854 -0.5876647 -0.5454742 
0.561516 -0.440141 0.249862 0.1417481 0.06126294 0.9880052 
0.561516 0.727565 -0.202499 0.5194536 0.4882677 -0.7012578 
0.204188 -0.925644 0.17726 1 0 0 
0.561516 -0.170286 0.182347 -0.2123032 0.1781486 0.9608281 
-0.561516 0.323771 0.226279 0.009459039 -0.1790111 0.9838017 
-0.204188 0.910921 -0.191071 1 0 0 
0.816751 -0.607819 -0.0277701 0.8453414 -0.510576 -0.1571944 
0.816751 0.563669 0.115254 0.5746714 0.6525454 0.4939002 
-0.816751 0.220837 -0.24168 0.08755864 0.08872928 -0.9922 
0.204188 0.834392 0.236537 1 0 0 
-0.204188 0.995207 -0.0482812 1 0 0 
0.816751 0.605353 0.0373582 0.7839194 0.5972155 0.1697176 
0.204188 0.620169 0.228899 1 0 0 
-0.204188 0.55875 -0.189911 1 0 0 
-0.204188 0.978967 0.0998355 1 0 0 
-0.204188 -0.475572 -0.058684 1 0 0 
-0.816751 -0.308454 -0.230706 -0.01826304 -0.1938595 -0.9808593 
0.816751 0.534281 -0.143824 0.5750274 0.6143264 -0.5403209 
0.561516 -0.0461647 0.156435 -0.2704805 0.07384866 0.9598889 
0.561516 -0.706145 -0.215081 0.4737521 -0.5119529 -0.7165635 
-0.561516 0.431216 0.248434 -0.1181995 -0.0688993 0.9905967 
-0.204188 -0.617535 0.227738 0.7027736 0.3074902 0.6415288 
-0.561516 -0.475638 -0.253393 -0.1586441 0.006052911 -0.9873173 
-0.204188 0.820948 0.241371 1 0 0 
-0.816751 0.195227 0.243443 0.1599925 0.09755449 0.9822859 
-0.204188 0.999205 -0.0153474 1 0 0 
0.816751 -0.609019 0.0187628 0.8585865 -0.5033129 0.09749636 
0.816751 0.132894 -0.247095 -0.2489621 0.03844582 -0.9677499 
-0.561516 0.375158 -0.238596 -0.03469479 -0.1149595 -0.9927641 
0.561516 -0.473148 0.253157 0.1448587 0.006256069 0.9894326 
0.204188 0.995207 0.0482812 1 0 0 
0.816751 0.145873 0.24648 -0.2349551 0.0417497 0.9711092 
-0.204188 0.980802 -0.0955506 1 0 0 
-0.204188 0.992403 0.0595119 1 0 0 
0.204188 -0.846141 0.231722 1 0 0 
0.816751 0.398545 -0.209303 0.2311871 0.3115836 -0.921666 
-0.816751 0.590097 0.0756427 -0.7145126 0.6177007 0.3285081 
0.816751 0.584098 0.0869659 0.6736376 0.6880478 0.2698196 
-0.816751 0.609514 0.011751 -0.8498139 0.5144478 0.1147166 
0.561516 -0.676256 -0.228326 0.4402081 -0.4164483 -0.7954795 
-0.816751 0.57238 0.103763 -0.6364827 0.6519815 0.41208 
0.816751 -0.11593 0.247723 -0.2589165 -0.04493883 0.9648538 
0.204188 -0.849662 -0.230287 1 0 0 
-0.561516 0.394944 0.24203 -0.04855507 -0.1217369 0.9913741 
0.561516 0.135213 0.172781 -0.2247248 -0.1591566 0.9613365 
0.204188 0.480393 0.0762662 1 0 0 
-0.561516 0.628426 -0.242546 -0.3565883 0.2913651 -0.8876661 
-0.204188 0.763682 -0.253414 0.4946953 0.04027043 -0.868133 
0.816751 0.438648 0.197614 0.3252257 0.405252 0.8543999 
-0.816751 -0.374334 0.217048 -0.1628729 -0.2778569 0.9467143 
0.561516 -0.851076 0.02189 0.9366227 -0.3496264 0.02234423 
0.561516 -0.300177 -0.219888 -0.04822136 0.1775688 -0.9829262 
-0.561516 0.6602 -0.233931 -0.3827104 0.3374746 -0.8600254 
-0.204188 0.528779 0.159768 1 0 0 
-0.204188 0.621955 0.229448 1 0 0 
-0.204188 0.942982 -0.1585 1 0 0 
0.816751 0.59995 -0.0532879 0.7046345 0.6710622 -0.2305773 
0.816751 -0.00513446 0.249953 -0.3269052 -0.002266853 0.9450545 
-0.561516 0.111195 -0.167066 0.242549 -0.1250969 -0.9620399 
0.204188 0.670731 -0.246618 1 0 0 
0.204188 -0.543937 -0.176212 1 0 0 
0.561516 0.244952 0.204341 -0.160065 -0.2085817 0.9648175 
0.561516 0.629723 -0.241867 0.3806117 0.2773007 -0.8821785 
-0.561516 -0.242443 -0.203827 0.1262127 0.2001354 -0.9716049 
0.204188 0.801813 0.24709 1 0 0 
-0.561516 -0.248322 0.205244 0.09668791 0.1939597 0.9762331 
-0.204188 0.659006 0.243717 1 0 0 
0.561516 0.341528 -0.231073 -0.02457073 -0.1547904 -0.9876418 
0.561516 0.147488 -0.175887 -0.2038219 -0.1286069 -0.9705241 
0.816751 -0.150258 0.246141 -0.1975547 -0.03939926 0.9794998 
-0.561516 -0.0215482 0.154055 0.2685568 0.03138204 0.9627525 
-0.204188 -0.510681 0.136361 1 0 0 
-0.204188 -0.976479 -0.104961 1 0 0 
0.816751 -0.447875 -0.193418 0.2855932 -0.4466208 -0.8479189 
0.816751 -0.204711 -0.24309 -0.1386534 -0.1025787 -0.9850141 
0.816751 0.172263 -0.245239 -0.1954792 0.05939406 -0.9789077 
-0.204188 0.508037 0.132017 1 0 0 
0.816751 0.302523 0.231734 0.00517606 0.1657618 0.9861523 
-0.204188 -0.799742 -0.247613 1 0 0 
0.816751 -0.168936 -0.245616 -0.196054 -0.07537958 -0.9776916 
0.204188 0.516145 0.14407 1 0 0 
0.816751 0.0968056 -0.248423 -0.2869874 0.0253845 -0.957598 
-0.204188 -0.534942 -0.167113 1 0 0 
-0.561516 -0.799648 0.1418 -0.6324086 -0.6588152 0.407458 
0.816751 -0.396248 0.211225 0.2045552 -0.2925605 0.9341122 
0.816751 0.360875 0.220444 0.1567975 0.2610228 0.9525133 
0.816751 0.113274 0.247755 -0.2533711 0.04451848 0.9663442 
0.561516 0.529941 0.254881 0.2142803 0.04266679 0.9758399 
-0.816751 0.0149672 -0.249742 0.329903 -0.001424938 -0.9440138 
0.204188 -0.468138 -0.0102875 1 0 0 
-0.816751 -0.33835 0.226032 -0.08488596 -0.2233374 0.971038 
-0.816751 -0.532447 -0.145154 -0.5800959 -0.5931799 -0.558235 
-0.204188 0.84958 -0.230287 1 0 0 
-0.561516 -0.714862 0.210562 -0.4702564 -0.519397 0.7135023 
-0.204188 0.684705 -0.250027 0.5887661 -0.1906698 -0.7854932 
-0.204188 -0.76288 -0.253425 1 0 0 
-0.816751 -0.283206 0.234829 0.02090049 -0.1754376 0.9842687 
-0.816751 0.564775 -0.113902 -0.6451697 0.6328276 -0.4281185 
-0.561516 -0.437007 0.249394 -0.1306401 0.08618707 0.9876766 
-0.561516 0.50265 -0.254686 -0.1900651 0.07061764 -0.9792285 
0.561516 0.823482 -0.106608 0.7116914 0.6459688 -0.2760791 
-0.561516 -0.676238 -0.228309 -0.4368032 -0.4102076 -0.8005827 
-0.561516 0.016225 0.153708 0.2733241 -0.01939132 0.9617265 
-0.561516 0.645344 0.238331 -0.3752216 0.3590777 0.8545595 
0.204188 -0.596806 -0.216732 1 0 0 
-0.561516 0.583578 -0.251071 -0.3412831 0.1953154 -0.9194443 
-0.561516 -0.351626 0.233511 -0.008653702 0.1387203 0.9902938 
0.561516 0.643283 0.238726 0.3840397 0.3494898 0.8546171 
0.204188 0.886923 -0.20904 1 0 0 
0.561516 0.276236 0.21355 -0.1101161 -0.2035994 0.9728421 
-0.204188 0.473772 -0.0532756 1 0 0 
0.816751 0.360569 -0.220181 0.136894 0.2489868 -0.9587834 
0.204188 -0.993847 0.0543929 1 0 0 
-0.561516 0.843962 0.0584165 -0.8007305 0.5902747 0.1020121 
-0.816751 -0.545776 0.134503 -0.5988644 -0.6258024 0.4997327 
0.204188 0.545282 -0.17721 1 0 0 
-0.816751 0.280057 0.234587 0.005864137 0.1350862 0.9908165 
-0.561516 -0.443274 -0.25033 -0.07328023 0.06903531 -0.9949192 
-0.816751 0.122884 -0.247463 0.2464464 0.04328386 -0.9681894 
-0.816751 0.302523 -0.231734 -0.03212612 0.1606874 -0.9864824 
0.204188 -0.472898 -0.0479738 1 0 0 
-0.204188 0.468258 -0.0130203 1 0 0 
-0.816751 0.128246 0.247266 0.2219108 0.04991404 0.9737887 
-0.204188 0.586922 -0.210413 0.683396 -0.4317203 -0.5887168 
0.561516 0.428942 0.248103 0.148172 -0.08894628 0.9849536 
-0.561516 -0.163974 -0.180478 0.1949492 0.1620121 -0.9673402 
-0.204188 -0.582802 0.207706 0.7334462 0.3771875 0.5654964 
0.204188 -0.967481 0.122901 1 0 0 
0.561516 0.205497 0.192558 -0.1559876 -0.2017701 0.9669316 
0.204188 -0.639263 -0.237031 1 0 0 
-0.816751 0.545694 0.134504 -0.5849544 0.6098816 0.5346708 
0.561516 -0.848995 -0.0360291 0.7541286 -0.6453837 -0.1215324 
-0.561516 0.248058 -0.20528 0.1447142 -0.1879151 -0.9714658 
-0.561516 0.0786384 -0.160682 0.25723 -0.08217786 -0.9628497 
0.204188 0.591123 0.213122 1 0 0 
-0.204188 -0.901502 0.198642 1 0 0 
-0.204188 0.925562 0.17726 1 0 0 
0.816751 -0.439554 0.197298 0.273765 -0.4478972 0.8511409 
-0.204188 0.960407 0.13387 1 0 0 
0.561516 -0.556526 -0.254005 0.2246724 -0.1135259 -0.9677987 
0.204188 -0.670812 0.246618 1 0 0 
0.204188 0.772161 -0.252683 1 0 0 
-0.561516 -0.556526 0.254005 -0.2673228 -0.1312744 0.9546233 
-0.816751 0.361039 0.220047 -0.1449955 0.2822403 0.9483231 
0.561516 0.375152 -0.238418 0.03706847 -0.1198924 -0.9920947 
0.561516 -0.43309 -0.248809 0.1310523 0.05989153 -0.9895648 
-0.816751 -0.0570213 0.249315 0.3011189 -0.01625506 0.9534481 
0.561516 -0.170374 -0.181889 -0.1880244 0.1625712 -0.9686162 
-0.561516 -0.131882 -0.173055 0.2227789 0.1619388 -0.9613248 
-0.816751 0.465422 -0.185193 -0.3856511 0.4591651 -0.8002754 
0.561516 0.804778 0.134731 0.7055777 0.6049098 0.3691129 
0.204188 -0.987158 -0.0781232 1 0 0 
-0.816751 -0.393154 -0.212219 -0.1937693 -0.3098888 -0.9308182 
0.561516 -0.313944 0.224238 -0.04037482 0.1835688 0.9821774 
0.816751 -0.277078 0.235806 -0.06168118 -0.1288126 0.9897488 
0.561516 0.167428 0.181257 -0.1924573 -0.1857391 0.9635669 
0.561516 0.307823 0.222363 -0.05441638 -0.1885833 0.9805484 
0.816751 -0.309327 -0.230662 0.002542156 -0.1846945 -0.9827927 
-0.204188 -0.838871 0.234803 0.9610256 -0.09165173 0.2608252 
0.561516 -0.623148 -0.244244 0.3524131 -0.3221311 -0.8786561 
0.816751 -0.327278 0.227646 0.04058317 -0.1643156 0.9855726 
0.561516 0.577104 0.251774 0.2932019 0.2063625 0.9335133 
0.561516 -0.714584 0.210727 0.4996853 -0.4770607 0.7229992 
-0.204188 -0.468015 -0.00356714 1 0 0 
0.561516 -0.137854 -0.173467 -0.2190918 0.1298631 -0.9670235 
0.561516 0.433904 -0.248748 0.13511 -0.06196169 -0.9888914 
0.816751 0.0652215 0.249213 -0.3025893 0.008846415 0.95308 
0.204188 0.492912 -0.105434 1 0 0 
0.816751 -0.129695 -0.247216 -0.2495209 -0.05341743 -0.966895 
0.561516 0.0259845 -0.154355 -0.2678524 -0.0154737 -0.9633358 
-0.561516 0.790159 0.151667 -0.6054369 0.6458847 0.4650584 
0.204188 -0.995741 -0.0452046 1 0 0 
-0.204188 0.738399 0.254768 1 0 0 
0.561516 -0.830144 0.0950538 0.7407928 -0.6377543 0.21094 
0.816751 0.393605 0.211586 0.2400064 0.326633 0.9141706 
-0.204188 -0.87048 -0.219431 1 0 0 
-0.204188 -0.768398 0.252901 0.6890317 -0.08261678 0.7200068 
-0.561516 0.210094 -0.193915 0.1644411 -0.1861714 -0.9686586 
0.816751 0.214783 0.242151 -0.1325718 0.09493855 0.9866161 
0.816751 0.283291 -0.234111 -0.05266356 0.1324091 -0.9897952 
0.204188 -0.998986 0.0201033 1 0 0 
-0.816751 0.359086 -0.220898 -0.181558 0.2613915 -0.9480038 
-0.816751 0.188403 -0.244206 0.186203 0.08870303 -0.978499 
-0.816751 0.155725 -0.246059 0.2189739 0.06297786 -0.9736962 
0.204188 -0.469035 0.0235361 1 0 0 
0.204188 0.960734 0.133566 1 0 0 
-0.204188 -0.999035 0.0208948 1 0 0 
-0.204188 0.488553 0.0969044 1 0 0 
-0.561516 0.167036 0.181032 0.1924852 -0.1833641 0.9640161 
-0.816751 -0.602342 0.0497932 -0.7686663 -0.5895941 0.2480542 
-0.816751 0.436521 0.198426 -0.2346427 0.3970169 0.8873109 
-0.204188 -0.630983 -0.233734 1 0 0 
-0.561516 -0.590396 0.25033 -0.335274 -0.2229927 0.91535 
0.816751 -0.579561 0.0950538 0.6826894 -0.6378663 0.3564573 
0.561516 0.0212098 0.154038 -0.2740353 -0.02122732 0.9614854 
-0.816751 -0.569011 0.108995 -0.5863917 -0.7052231 0.3985038 
-0.561516 -0.074349 -0.160548 0.2587914 0.07348286 -0.9631341 
0.561516 0.393328 0.242296 0.07732636 -0.1316973 0.9882694 
-0.816751 0.605352 -0.0373582 -0.8354532 0.5262782 -0.1582699 
-0.561516 -0.402536 0.244244 -0.06941453 0.08715035 0.9937738 
0.204188 -0.811747 -0.244189 1 0 0 
0.816751 0.0482247 -0.249422 -0.3110557 0.01558628 -0.9502639 
-0.561516 0.610352 0.246252 -0.3563317 0.2762975 0.8925735 
-0.204188 -0.568661 -0.197318 1 0 0 
0.204188 -0.48173 -0.0794116 1 0 0 
-0.204188 -0.86884 0.220642 1 0 0 
0.561516 -0.267153 -0.211224 -0.09500508 0.1896691 -0.9772409 
0.561516 0.357599 0.234774 0.009939267 -0.1644603 0.9863336 
0.204188 -0.711228 -0.253688 1 0 0 
-0.561516 -0.205002 -0.192627 0.1643469 0.1989134 -0.9661385 
0.816751 0.178457 0.244979 -0.1872487 0.06518577 0.9801474 
0.561516 0.8509 -0.0235489 0.924705 0.3770205 -0.05268946 
-0.204188 0.772161 0.252683 1 0 0 
0.561516 -0.279646 0.214795 -0.05922042 0.1965987 0.978694 
-0.816751 -0.158617 -0.245757 0.1889288 -0.06663144 -0.9797276 
-0.561516 -0.76715 0.174292 -0.5064285 -0.6044544 0.6149513 
-0.204188 -0.992604 0.058963 1 0 0 
-0.561516 -0.00133799 -0.154437 0.2726848 0.02443115 -0.9617932 
-0.204188 0.553388 0.185064 1 0 0 
-0.561516 0.462241 -0.252101 -0.1761909 -0.003761228 -0.9843488 
0.816751 -0.598515 -0.0589053 0.7627741 -0.602059 -0.2360101 
-0.204188 -0.727137 -0.254488 -0.2259201 -0.0119 0.9740731 
0.561516 -0.0128961 0.154642 -0.2757815 0.02677552 0.9608474 
0.561516 -0.375234 -0.238418 0.02004326 0.1512403 -0.9882938 
-0.816751 -0.2478 0.23934 0.09024271 -0.1332947 0.9869594 
0.561516 0.78254 -0.15935 0.6448674 0.5678396 -0.5115705 
-0.561516 -0.474144 0.253211 -0.1330356 0.03175634 0.9906024 
0.561516 -0.217817 -0.196393 -0.137031 0.1898712 -0.9721993 
-0.816751 -0.0924277 -0.248196 0.286078 -0.02444133 -0.9578946 
0.204188 -0.973834 -0.110374 1 0 0 
-0.561516 0.310636 -0.223139 0.04490184 -0.1542335 -0.9870136 
-0.204188 0.851714 0.229411 1 0 0 
0.204188 0.863964 0.223053 1 0 0 
-0.561516 0.8509 0.023549 -0.9567558 0.2898361 0.02476845 
0.816751 0.473158 0.181106 0.4043635 0.4818364 0.7773828 
0.561516 -0.804986 -0.13464 0.7253278 -0.6072923 -0.3241847 
-0.204188 -0.601627 -0.219323 1 0 0 
0.204188 0.947302 -0.152552 1 0 0 
-0.204188 0.696846 0.251764 1 0 0 
0.561516 0.102188 0.164922 -0.2481363 -0.1177157 0.9615464 
0.204188 0.620166 -0.228591 0.6013866 0.3522092 0.7171352 
0.561516 -0.781095 -0.161919 0.6884204 -0.5822926 -0.4324497 
0.561516 0.844581 0.0564482 0.9285313 0.366714 0.05788277 
-0.816751 0.538696 -0.140514 -0.5269798 0.6566682 -0.5395176 
0.816751 -0.508291 -0.161919 0.4628488 -0.5616874 -0.6857684 
-0.816751 0.0160476 0.249819 0.3252422 0.006187637 0.9456105 
-0.561516 0.131199 0.1716 0.2224645 -0.1561393 0.9623566 
0.561516 0.561475 -0.253504 0.2940473 0.1920924 -0.9362888 
-0.816751 0.318865 0.228883 -0.07183222 0.1800003 0.9810404 
0.204188 -0.591553 0.213103 0.6286907 -0.4513852 -0.6332453 
-0.204188 -0.693784 -0.251356 1 0 0 
0.204188 0.741348 0.254711 1 0 0 
-0.561516 0.356812 0.234412 0.01198966 -0.1561941 0.9876536 
-0.204188 -0.489724 -0.0990371 1 0 0 
-0.204188 0.813306 -0.243705 1 0 0 
0.561516 -0.734598 -0.198791 0.5214534 -0.5429003 -0.65829 
0.204188 -0.949422 0.149981 1 0 0 
0.204188 -0.492994 0.105434 1 0 0 
0.816751 0.481194 -0.176483 0.4200921 0.5096704 -0.7508387 
0.204188 0.979627 0.0980212 1 0 0 
0.561516 -0.742228 0.193561 0.5312562 -0.5553435 0.6398128 
-0.204188 0.90039 0.199596 1 0 0 
0.561516 -0.105513 -0.165448 -0.2450529 0.1297643 -0.9607863 
-0.204188 -0.937197 -0.165408 1 0 0 
0.561516 -0.361052 0.235806 -0.002056418 0.1352296 0.9908122 
0.816751 0.508382 0.161155 0.4586421 0.6196562 0.6369251 
0.561516 0.111652 -0.166456 -0.2374146 -0.113609 -0.9647421 
0.561516 -0.593671 0.249721 0.3153687 -0.2173996 0.9237316 
-0.204188 0.468494 0.0203453 1 0 0 
-0.204188 0.499801 -0.119167 1 0 0 
-0.204188 -0.839074 -0.234611 1 0 0 
