ply
format ascii 1.0
comment VCGLIB generated
element vertex 500
property float x
property float y
property float z
property float nx
property float ny
property float nz
element face 0
property list uchar int vertex_indices
end_header
0.126954 -0.840187 0.244178 0.5060962 -0.1195395 0.8541527 
-0.186373 0.757533 -0.20427 -0.7552963 0.5432548 -0.3666086 
0.224529 -0.00582487 -0.210191 0.3387056 -0.7019248 -0.6265622 
0.443367 0.918956 -0.0697667 -0.5407587 -0.09012195 -0.8363361 
0.227388 -0.517975 -0.126838 0.6153557 0.0417942 -0.7871408 
-0.216689 0.48945 0.368961 -0.7954833 -0.1197166 0.5940322 
-0.370553 0.664544 -0.135669 0.2485552 0.8677428 -0.4303983 
-0.266955 -0.982884 0.222716 -0.2048279 -0.8676296 0.4530611 
0.174125 0.122447 -0.389417 0.1786523 -0.6511425 -0.7376292 
-0.457111 -0.300668 -0.158905 -0.3713099 0.878713 0.2999877 
-0.318333 0.0351977 -0.456299 -0.4384506 0.7472336 -0.4994028 
-0.101774 -0.308603 -0.093574 0.1299962 0.9722821 0.1943416 
0.286828 0.911107 0.0276132 -0.2056819 0.8857575 -0.4160873 
-0.372219 -0.887191 -0.211278 -0.5718566 -0.7695228 -0.2842793 
-0.0709133 0.163675 0.495386 -0.541989 -0.154558 0.8260507 
0.372181 0.228168 -0.340461 0.5563143 -0.4526852 -0.6968433 
0.0578482 -0.719575 0.238952 -0.1124952 -0.1185352 0.9865568 
-0.176044 0.177788 -0.348979 -0.1739017 -0.1138935 -0.9781547 
0.504333 0.507372 -0.0826482 0.8640842 -0.1299189 -0.4862916 
-0.659545 0.726997 -0.116433 0.004290919 0.77409 -0.633061 
-0.161147 -0.0910087 0.345961 -0.6753936 -0.6536269 0.34149 
-0.160655 -0.290035 -0.217739 0.242623 0.9634969 -0.1131713 
0.00201327 -0.033025 -0.338048 -0.1919686 -0.5972679 -0.7787292 
-0.0521167 -0.0954848 0.00493316 -0.7131195 -0.701003 0.007452422 
-0.498443 0.252006 -0.0247533 -0.889842 -0.4474172 -0.08943852 
-0.476334 0.605299 -0.273134 -0.3340169 0.3224474 -0.8856977 
0.170146 -0.574196 -0.11531 0.8166704 -0.01601888 -0.5768821 
0.0770226 -0.341107 -0.117052 0.2977172 0.8207816 -0.4875264 
-0.448526 -0.885618 -0.236311 -0.4885404 -0.6755922 -0.5521806 
-0.164985 -0.957145 -0.0534862 0.05931966 -0.9928818 0.1032806 
-0.467357 -0.148188 -0.339838 -0.2631802 0.3232712 0.908973 
-0.302916 -0.745576 0.171941 -0.4135537 0.01020075 0.9104226 
-0.397516 -0.959604 -0.222001 -0.3727571 -0.885374 -0.2777863 
-0.521014 -0.173783 -0.393545 -0.7291201 0.3821806 0.5677341 
0.149092 0.54661 0.540258 0.1135559 0.4005498 0.9092111 
0.427101 0.584772 0.401256 0.3821651 0.4737467 0.7934192 
0.0593134 -0.559845 0.310143 0.02640072 -0.4320631 0.9014569 
-0.625075 -0.637354 -0.00816657 -0.6816888 -0.668256 0.2978832 
0.0353473 -0.94457 0.290136 -0.1390256 -0.4100063 0.9014249 
0.586085 0.225618 0.174467 0.9623603 -0.1604175 0.219383 
-0.113379 -0.0272404 0.147207 -0.3359221 -0.9418288 -0.01071414 
0.512662 0.428727 -0.281129 0.7802244 -0.01729842 -0.6252605 
-0.451792 -0.226178 -0.345153 0.7043277 0.6580596 0.266233 
-0.466911 0.359797 -0.168713 -0.7743943 -0.3174233 -0.547317 
0.0256656 0.424078 0.481046 -0.2547248 -0.3172377 0.9134963 
0.0870345 0.521855 -0.376191 -0.03056355 0.3987141 -0.9165659 
0.122519 -0.815206 0.315147 0.4155698 0.098667 0.9041939 
-0.528956 0.0539238 -0.216468 -0.6671553 -0.5326108 0.520797 
-0.119419 0.418898 0.42467 -0.6269968 -0.02070547 0.7787466 
-0.00925412 -0.557408 0.36935 -0.4266616 -0.2844017 0.8585311 
0.361654 -0.590019 0.0706686 0.8268526 -0.5587573 -0.06407027 
-0.0132087 0.309496 0.696021 -0.4716495 0.1407601 0.8704789 
0.2247 -0.0703904 0.402375 0.3434964 -0.7188312 0.6043939 
-0.405076 -0.920409 0.124832 -0.817113 -0.4352581 0.3779906 
-0.291121 -0.647645 0.165204 -0.2547554 0.0178175 0.9668413 
0.321609 0.842837 0.259958 0.3122891 0.3797247 0.8707954 
0.292226 -0.333474 0.322611 0.6182687 0.3746587 0.6909232 
-0.197406 0.73334 -0.00267482 -0.3249085 0.9136913 -0.2441369 
-0.213089 -0.134967 0.295487 -0.7698735 -0.4850786 0.4147212 
0.156516 -0.0961237 -0.0946708 0.2999601 -0.7427405 -0.5986322 
-0.00822445 -0.635112 -0.4293 0.7515679 -0.1647533 -0.6387504 
-0.309502 0.0543317 -0.309646 -0.6674942 -0.7268206 0.1618129 
-0.356443 0.50151 0.0729745 -0.7125397 0.4568825 0.5324901 
-0.0808332 -0.873443 -0.472934 0.4853168 -0.6293433 -0.6069552 
-0.0579122 -0.775754 0.24878 -0.1970241 0.09128577 0.9761395 
-0.123914 0.665136 -0.323322 -0.689162 0.3616295 -0.6279171 
0.0272108 0.824127 0.267975 -0.09167609 0.9588213 0.2688072 
0.0195637 0.807248 0.08286 -0.09357726 0.9821292 0.1632963 
0.584033 0.214237 -0.0179465 0.8944204 -0.2190458 -0.3899114 
-0.133888 -0.321781 0.0444405 -0.1319495 0.9717761 0.1955519 
-0.56486 0.456389 -0.0662046 -0.9306082 -0.3532333 -0.09588824 
-0.0910208 0.234748 0.521929 -0.6115994 -0.2929003 0.7349527 
-0.458803 -0.867191 0.0183202 -0.8208818 -0.5424279 0.1786759 
-0.510506 0.398013 -0.121503 -0.966302 -0.2356374 -0.1036125 
-0.397829 -0.271422 -0.0179716 -0.295103 0.8373879 0.460104 
0.0202407 -0.485765 -0.457713 0.8496461 0.2264187 -0.4762732 
-0.411145 -0.856183 0.00423546 -0.8234248 -0.5591304 0.09666873 
-0.403349 0.0986212 -0.240545 -0.1257872 -0.93421 -0.3338102 
0.0631038 -0.410023 -0.369977 0.6715971 0.5363484 -0.5111631 
0.464855 0.466401 0.413836 0.4580992 0.2327697 0.8578832 
0.155949 -0.556524 -0.194443 0.710607 -0.03279833 -0.7028244 
-0.571204 0.585766 -0.143678 -0.9415383 0.05409765 -0.3325344 
-0.304782 0.170433 0.194473 -0.797415 -0.6010118 -0.05398189 
-0.330243 -0.893867 -0.0598715 -0.720354 -0.691967 -0.04766428 
-0.429042 0.219202 -0.171072 -0.8300132 -0.5572321 -0.02388698 
0.353013 0.808683 0.232203 0.1360745 0.7441488 0.6540079 
-0.14472 -0.33752 0.195201 -0.3154534 0.8067076 0.499712 
0.418261 0.0155446 -0.0190924 0.646664 -0.7296718 -0.2222716 
-0.195122 0.666641 -0.18166 -0.6382981 0.5879741 -0.4968521 
0.553973 0.356963 -0.110566 0.8992668 -0.1922428 -0.3928892 
0.149825 0.755084 -0.264321 0.1121293 0.6691952 -0.734578 
-0.348203 0.428095 -0.328159 -0.4162805 0.2711915 -0.8678513 
0.319868 -0.177874 0.192368 0.9603944 0.2338153 0.1515682 
0.034479 -0.730374 0.330379 -0.1203457 -0.3122002 0.942363 
-0.178195 0.549403 0.476301 -0.4938987 -0.08230239 0.8656156 
0.365925 0.8922 -0.0445759 -0.2489032 0.9685283 0.0004142761 
0.166217 0.764874 -0.199887 -0.07048427 0.8422679 -0.5344313 
-0.523917 -0.795949 -0.183993 -0.8446839 -0.5349575 0.01815789 
0.611109 0.636467 0.151958 0.8916841 -0.02017399 0.4522084 
-0.439954 -0.460978 0.177094 -0.5773809 0.4480132 0.68258 
-0.027364 0.536418 -0.409783 -0.1274246 0.06058609 -0.9899961 
-0.169468 -0.954866 -0.250876 0.05902417 -0.896346 -0.4394088 
-0.163691 -0.639192 0.215153 -0.4300882 0.02302657 0.9024932 
0.171672 -0.892824 -0.331504 0.4241165 -0.2891248 -0.8582145 
-0.317943 -0.425043 -0.569617 -0.2515013 0.1654625 -0.9536086 
0.004382 -0.0789893 0.480668 -0.294118 -0.6313824 0.7175312 
0.382713 1.01073 0.164038 -0.4152962 0.8159877 0.4021108 
0.0176146 -0.930333 -0.0497367 -0.0215361 -0.9917349 0.1264838 
0.35168 0.73398 -0.19368 0.4004883 0.9141588 0.06263344 
0.335938 -0.819508 -0.198284 0.7180327 -0.01857407 -0.6957614 
-0.0701844 -0.924844 -0.0126401 -0.01031504 -0.9978982 0.06397556 
0.108441 -0.280234 0.369388 -0.3977861 0.4039704 0.8237562 
-0.245481 0.621915 0.385715 -0.731678 0.1727574 0.6593955 
0.130673 -0.690324 -0.27053 0.610365 0.1597504 -0.7758444 
-0.0508269 -0.116548 -0.179114 0.8785581 -0.30633 -0.3664664 
-0.0539746 -0.940532 0.27993 -0.1893126 -0.5426794 0.8183275 
0.345335 0.182939 0.6005 0.3506866 -0.2379032 0.905771 
0.360802 -0.0961095 0.322365 0.5803725 -0.7197555 0.3809459 
-0.144343 0.540607 -0.417438 -0.3259068 0.0903829 -0.9410715 
-0.186677 -0.798633 0.295876 -0.2601616 0.0781669 0.9623959 
0.236923 -0.293909 -0.0877304 0.3945132 0.1228825 -0.9106367 
-0.00134964 -0.196898 0.264418 -0.6663434 0.3834063 0.6395202 
0.634862 0.687111 0.0988467 0.9913551 0.1309458 0.008258612 
-0.180447 -0.0907499 -0.044587 -0.3561159 -0.895679 0.2663468 
-0.21394 0.758419 0.27747 -0.5563346 0.7465743 0.3648543 
-0.104539 0.149803 -0.338358 -0.3746979 -0.4249407 -0.8240309 
-0.157211 0.0185744 0.475867 -0.5159362 -0.3379844 0.7871318 
-0.0474007 0.828147 -0.158575 -0.5334666 0.8126078 -0.2346957 
-0.0826835 0.0639203 0.497497 -0.5612651 -0.3711669 0.739741 
-0.252298 0.20131 0.35373 -0.6457893 -0.008234099 0.7634714 
-0.335134 -0.395771 -0.453633 -0.1832004 0.380567 -0.9064251 
-0.235349 0.332168 0.365921 -0.722778 0.04536364 0.6895898 
0.31363 0.797801 -0.313654 0.1029158 0.8285874 -0.5503193 
-0.434517 -0.318984 -0.467859 0.1869593 0.5677413 -0.8016958 
0.196023 -0.0693529 -0.257756 0.3642456 -0.7130119 -0.5991153 
0.528704 0.378092 0.357113 0.8260047 0.113509 0.5521159 
-0.0975918 0.637698 -0.371715 -0.6329248 0.3247682 -0.7028029 
0.276666 -0.216151 0.08585 0.966735 -0.2538682 0.03121597 
-0.351964 0.145956 -0.29172 0.4442834 -0.3615238 -0.8197029 
-0.498752 -0.123405 -0.416466 -0.860928 0.3950273 0.3205563 
0.0343838 -0.260929 -0.0978616 0.5804759 0.8142398 0.007837689 
-0.352553 -0.411805 0.121532 -0.1765491 0.8281096 0.5320385 
0.636737 0.635411 0.0257375 0.9409437 -0.1701645 -0.2926927 
-0.109813 0.876085 -0.13486 -0.6117058 0.7733305 -0.1666614 
0.357491 0.725358 -0.186754 0.5806046 0.4211948 -0.6967736 
0.156331 0.815282 0.342241 0.2649592 0.8398467 0.473766 
-0.289441 0.14576 0.0211553 -0.8792561 -0.460012 0.1236843 
0.480024 0.885637 0.144623 -0.4449574 0.03958225 -0.8946766 
0.0324932 -0.429792 0.424665 -0.4566108 0.1515115 0.8766703 
0.626905 0.691918 -0.0785193 0.9776645 0.1718132 -0.1210467 
-0.506383 0.390905 0.0960332 -0.7641451 -0.1211273 0.6335696 
-0.380448 0.552786 0.0583941 -0.4051751 0.5381833 0.739048 
0.463876 0.541463 0.139037 0.8369163 0.5130497 0.19066 
-0.388153 0.00446688 -0.357837 -0.3641131 0.8950315 -0.2575662 
-0.476369 0.173919 -0.316819 -0.3276378 0.6855222 -0.6501637 
-0.117494 -0.591183 0.243111 -0.5400702 -0.1138451 0.8338847 
0.389398 0.466198 -0.253096 0.5266722 0.4304496 -0.7330276 
-0.487434 -0.0328829 -0.42178 -0.7942601 0.4334479 0.4257625 
-0.287512 0.115541 0.182935 -0.9830999 -0.182387 -0.01579423 
0.487975 0.768053 -0.246986 0.4505652 0.1109544 -0.8858218 
-0.083194 -0.0123525 0.372144 -0.4086677 -0.5291028 0.7436673 
-0.304635 0.770975 0.116115 -0.3648922 0.9298326 0.04759202 
-0.311513 -0.372569 -0.473779 -0.1832004 0.380567 -0.9064251 
0.352205 -0.866575 -0.022475 0.9577863 -0.03182594 0.2857144 
0.269953 -0.60403 0.273053 0.3560792 -0.7503118 0.5569919 
0.27751 0.57288 -0.26321 0.4593593 0.5128183 -0.725263 
-0.0532449 -0.135664 0.0993969 -0.6736047 -0.7389442 -0.0147707 
-0.106907 -0.894905 0.0862621 0.315703 -0.9396436 0.1319151 
-0.400027 -0.4185 0.0910483 -0.2450218 0.7812637 0.5741005 
0.350364 0.238198 -0.395946 0.3776754 -0.3642913 -0.8512656 
0.0521726 -0.252858 0.236404 -0.7586076 0.2490336 0.6020771 
-0.252815 0.358196 0.303615 -0.615526 0.1264335 0.777909 
-0.0941306 0.0996507 -0.322005 -0.4295977 -0.3960711 -0.8115255 
0.107664 -0.538172 0.412882 0.003763137 -0.4783436 0.8781647 
-0.497362 0.227281 -0.000931471 -0.8483922 -0.5156275 0.1198284 
0.283321 0.714071 -0.342126 0.09811012 0.6258677 -0.7737339 
0.0805108 -0.650854 -0.193801 0.5860137 0.1328955 -0.7993289 
-0.316257 0.0933022 -0.290591 0.9304317 -0.2269014 -0.2877716 
0.0715794 -0.934987 -0.264002 0.4700491 -0.7690223 -0.4331957 
-0.488052 0.742372 -0.0765606 -0.2628534 0.6978038 0.6663167 
-0.274496 -0.0775287 0.11072 -0.695022 -0.7186309 0.0226733 
-0.345057 -0.983403 -0.130304 -0.3429281 -0.939324 -0.008419581 
-0.012618 0.0612774 0.499707 -0.4012449 -0.4425564 0.8019641 
0.122417 0.883251 0.035553 -0.1133526 0.9887232 0.09786519 
-0.504542 0.526831 -0.202611 -0.3199055 0.01609041 -0.9473128 
-0.0639071 -0.343921 0.234009 -0.6021313 0.5415422 0.58666 
0.217299 -0.00357565 -0.221308 0.3387056 -0.7019248 -0.6265622 
0.113274 0.242713 0.558519 0.5278605 -0.09642357 0.8438399 
0.19913 0.858014 -0.149669 0.1145104 0.8746908 -0.4709602 
0.062226 0.827515 0.24513 -0.1262745 0.9271941 0.3526556 
0.222298 0.036464 0.494051 0.2412074 -0.6680644 0.703924 
-0.51199 -0.151946 -0.44324 -0.7848337 0.311574 0.5356845 
0.319384 0.580286 0.480991 0.4795041 0.08816799 0.8730993 
0.126776 0.417207 0.637036 0.453104 0.2157858 0.864947 
-0.339199 -0.242783 -0.18509 0.008568054 0.9965161 0.08295958 
0.187731 -0.664616 0.263673 0.2724119 -0.3953675 0.877198 
-0.324674 0.536951 0.221154 -0.8434477 0.1686261 0.5100601 
0.162827 -0.333092 0.396533 0.2380159 0.3236037 0.915767 
-0.0977914 -0.752842 -0.500838 0.2281452 -0.3561593 -0.9061459 
0.399868 0.355997 0.447919 0.3771891 0.0242449 0.9258189 
0.471943 0.0367786 0.000986503 0.8052871 -0.5865853 -0.08619902 
0.230547 0.668955 0.392974 0.3417673 0.6933017 0.6344509 
-0.344637 0.163028 0.306961 -0.7765374 -0.0585601 0.627344 
0.176867 -0.336704 -0.020663 0.4242289 0.2389994 -0.8734467 
0.0971401 0.681326 0.431903 0.3324237 0.5852266 0.7395974 
0.340704 -0.260152 0.102091 0.9831029 0.1826461 -0.01221292 
0.00739748 0.653279 -0.416527 0.137116 0.346497 -0.9279758 
-0.0632893 -0.466548 -0.504016 0.2785347 0.1531497 -0.9481369 
0.306559 -0.452194 0.332403 0.7158614 0.02424235 0.6978215 
0.468724 0.71441 -0.131439 0.5071383 -0.2664202 -0.819653 
0.631569 0.374398 0.0757289 0.9959188 -0.0463432 -0.07744841 
-0.514098 0.736226 -0.173092 0.1940221 0.7086226 -0.6783874 
0.0926294 0.2188 0.657336 0.3188539 -0.185854 0.9294033 
0.276471 -0.336616 0.353876 0.5020393 0.2567162 0.8258652 
0.141689 0.00449069 0.54772 0.1019479 -0.6315539 0.7686002 
0.606609 0.264198 0.0857946 0.965527 -0.2450505 0.08779444 
0.267398 0.824133 -0.26183 0.1733187 0.9165425 -0.360431 
0.472753 0.515178 -0.286289 0.7153506 0.289608 -0.6359252 
0.0394965 0.858004 -0.200641 0.05804227 0.8373184 -0.5436259 
-0.389047 0.241975 0.27232 -0.8905776 -0.07433299 0.4487163 
0.484056 0.257967 0.281263 0.8921057 -0.2527363 0.3745288 
-0.322076 0.551081 -0.293591 0.05061455 0.5229366 -0.8508675 
0.373334 -0.0107702 -0.155197 0.4103718 -0.8264369 -0.3854829 
-0.403294 0.375242 0.209379 -0.7972485 0.1737792 0.5780965 
-0.521435 -0.345061 -0.0954728 -0.7182429 0.5953733 0.3600802 
0.23651 -0.215369 0.214824 0.7314523 0.5796672 0.3591148 
0.486409 0.0643436 0.387887 0.6371375 -0.5054552 0.5818684 
0.701142 0.641488 -0.181078 0.7826625 -0.00625064 -0.6224151 
0.312264 -0.124433 0.0761213 0.8169566 -0.5732393 0.06307697 
0.0862632 0.90069 -0.0315794 -0.09396586 0.9953074 -0.02310051 
-0.438154 0.180806 -0.124034 -0.9404707 -0.236057 -0.244524 
-0.436604 -0.030839 -0.328491 -0.6003454 0.6462961 -0.4710486 
0.168183 -0.437657 -0.240594 0.8193147 0.1017215 -0.5642484 
-0.617516 -0.272528 -0.389892 -0.896437 0.3027143 0.3236735 
-0.520383 -0.260735 -0.2402 -0.8563087 0.49351 0.152261 
0.308575 0.699745 0.23912 0.3233283 0.6695453 0.6687062 
0.345669 0.227966 0.498523 0.5930311 0.276833 0.7560937 
0.485216 0.120082 -0.189564 0.7951529 -0.4912479 -0.3555382 
-0.470448 0.464014 0.0515431 -0.2970364 -0.648842 0.7005522 
-0.582475 -0.592167 -0.0464726 -0.8792228 -0.4255338 0.2142156 
-0.268174 0.327445 -0.29404 -0.2493518 -0.01098783 -0.9683507 
0.40501 -0.540756 0.237449 0.8938078 -0.247399 0.3740339 
0.44682 0.317218 -0.082702 0.7730672 -0.04259852 -0.6328922 
-0.100716 0.437123 0.416021 -0.6269967 -0.02070549 0.7787467 
0.0418865 0.551688 -0.365652 0.05333398 0.5509173 -0.832854 
-0.150697 -0.262442 -0.242295 0.05243118 0.9188473 -0.3911146 
0.222852 0.234573 -0.486187 0.2665788 -0.289727 -0.9192355 
0.599704 1.03011 0.141027 -0.3055595 0.522342 -0.7961107 
0.447899 0.979508 0.050242 -0.3094493 0.9339852 -0.1786418 
0.240714 -0.218169 -0.00144766 0.7407559 0.1201191 -0.6609479 
-0.50406 -0.675299 -0.187119 -0.8669189 -0.2808875 -0.4117692 
0.0111334 0.628592 0.540064 -0.1445977 0.1094559 0.983418 
-0.340692 -0.559993 -0.463948 -0.6236589 -0.1675398 -0.7635313 
-0.45568 0.282621 0.105763 -0.8018435 -0.337526 0.4930753 
0.0102947 0.176189 -0.423298 -0.3185592 -0.3297548 -0.8886967 
-0.308077 0.460578 0.279278 -0.8636514 0.0587892 0.5006496 
0.462337 0.248295 -0.195992 0.9282584 -0.1409681 -0.3441867 
0.580585 0.735172 0.0926018 0.7986146 0.5825145 0.1512998 
0.127071 0.12311 0.601798 0.2067425 -0.2805836 0.9372995 
0.352425 0.162654 0.457877 0.7797529 -0.2272024 0.5834078 
-0.0105986 -0.818212 -0.288449 0.6357538 -0.3770071 -0.6735598 
-0.314347 -0.00211165 0.029104 -0.8313846 -0.5065656 0.2284537 
0.437336 -0.436852 0.0268911 0.9273708 0.01170826 -0.3739602 
-0.0620198 -0.336046 -0.394699 0.6979576 0.6966575 -0.1659021 
0.231832 -0.833599 0.0414585 0.4722561 -0.7973318 0.3758141 
-0.267752 0.0118453 -0.32928 -0.4893574 -0.8347542 0.2524179 
0.27947 0.414348 0.408053 0.3706462 0.1187768 0.9211479 
0.0759933 -0.0716621 -0.251383 0.117784 -0.8886547 -0.4431927 
-0.58845 -0.38315 -0.318904 -0.9885134 -0.07946148 0.1285586 
-0.0465746 -0.235573 0.0799157 -0.9641311 0.1332778 -0.2295398 
-0.00547765 -0.347178 0.291447 -0.6879905 0.4551209 0.5652734 
-0.114194 -0.221061 -0.187677 0.08325478 0.9965281 0.0006960987 
0.576291 0.418646 -0.132921 0.9282563 -0.1783849 -0.3263727 
0.360153 -0.874966 -0.0266501 0.9577862 -0.03182595 0.2857144 
-0.529162 -0.560245 -0.356018 -0.7669535 -0.2963337 -0.5691825 
0.195768 -0.800171 0.146682 0.8308006 -0.2527568 0.4958673 
-0.278054 -0.358389 0.0305417 -0.1446272 0.7788635 0.6102907 
-0.0846331 -0.995818 -0.218516 0.05447797 -0.9766468 -0.2078298 
0.597696 0.828718 0.00857321 0.9992656 0.03121237 0.02223133 
-0.0678684 -0.595173 -0.462738 0.4768976 -0.0297651 -0.8784548 
0.118567 -0.182862 0.284109 -0.5053419 0.4121439 0.7581338 
0.0132277 -0.817164 -0.34961 0.6263041 0.02472904 -0.7791865 
-0.354227 0.0331422 -0.228762 -0.2545361 0.8655937 -0.4312298 
0.0176435 -0.412711 -0.255979 0.6891355 0.6065587 -0.3964577 
-0.0613522 0.683037 0.466577 -0.511888 0.4578258 0.7268881 
-0.197766 0.123222 0.385749 -0.5786124 -0.1795001 0.7956051 
0.569272 0.195455 0.0979388 0.9245036 -0.3534889 0.1426143 
-0.342494 -0.244229 -0.347731 0.5774846 0.7103975 -0.402302 
-0.38183 0.11328 -0.37277 -0.3425445 0.2576841 -0.9034723 
0.222075 0.346313 0.616251 0.3898874 0.2588556 0.8837316 
0.54691 0.331645 0.452271 0.7267573 0.01261938 0.6867784 
-0.281715 0.0700225 -0.201847 -0.2649833 -0.9189855 0.2919754 
-0.0623059 -0.901013 0.264563 -0.3377154 -0.7190297 0.6074082 
-0.480727 0.555247 0.105078 -0.4764479 0.3813714 0.7921826 
0.53094 0.757142 -0.135877 0.588584 0.0231273 -0.8081052 
-0.303793 0.0457685 -0.0182066 -0.9117984 -0.3957841 -0.109447 
-0.419262 -0.654779 -0.351766 -0.6795782 -0.4920165 -0.5441446 
0.456326 0.187015 -0.290015 0.5365471 -0.5944613 -0.5989433 
0.317057 0.752559 0.323568 0.5668898 0.5704777 0.594299 
0.551765 0.438076 0.297283 0.8813303 0.3330433 0.3351704 
0.461191 0.111636 0.256689 0.8101574 -0.4469759 0.3792858 
-0.442233 -0.584796 0.202692 -0.1022227 0.1052226 0.9891809 
-0.261614 -0.925775 -0.180987 -0.2009492 -0.9776983 -0.06103667 
0.0169604 -0.28627 -0.137271 0.5246235 0.3776256 -0.7630001 
0.347203 0.397052 -0.393382 0.5682898 0.08079074 -0.8188527 
-0.267877 0.378609 -0.306316 -0.2196933 0.2913196 -0.9310573 
0.283974 -0.957653 -0.147629 0.4220905 -0.8805382 -0.2156207 
0.311272 -0.578589 0.111608 0.6249801 -0.7700152 -0.128361 
-0.245937 -0.496984 -0.490057 -0.007993299 0.1948564 -0.9807992 
0.069265 -0.959807 -0.0513203 -0.02530867 -0.9965743 -0.07873485 
0.358754 -0.610092 -0.0149266 0.687268 -0.2344682 -0.6875226 
-0.00191527 -0.103506 0.153165 -0.6403117 -0.7680896 0.006278952 
0.0779493 -0.642722 -0.27742 0.8519588 -0.1966487 -0.4852788 
0.635773 0.861449 -0.0750698 0.953925 0.1136775 -0.2776774 
-0.233824 -0.863141 0.253677 -0.4317753 0.06663298 0.8995166 
0.489853 0.624604 -0.186245 0.7989048 0.2980946 -0.5223895 
0.116118 0.0727791 0.580527 -0.03684987 -0.5628918 0.8257087 
-0.488111 -0.742101 -0.184084 -0.783906 -0.4846884 -0.3880317 
-0.505507 0.463293 -0.216719 -0.6437384 -0.06514736 -0.7624675 
0.369436 0.0632946 -0.217033 0.2718457 -0.6207121 -0.7354023 
0.302278 -0.647417 -0.122763 0.6862834 0.3630653 -0.630237 
0.286011 0.60034 0.389103 0.654708 0.3865383 0.6495734 
0.203313 0.348622 0.48872 0.3407326 0.3433933 0.8752042 
0.555924 0.841156 0.110445 0.01242973 0.06597561 -0.9977438 
0.119922 0.366782 -0.494769 -0.1556429 0.172099 -0.9727061 
0.344181 0.0187378 0.378486 0.5796494 -0.6201217 0.5286357 
-0.064969 -0.472408 0.315963 -0.6345887 0.0942888 0.7670768 
-0.0608314 0.833598 0.162413 -0.214733 0.9528518 0.2143903 
0.266865 0.115535 0.580893 0.2496928 -0.6105933 0.7515513 
-0.330525 0.581579 -0.187821 0.009831819 0.6058459 -0.7955213 
-0.192948 0.576084 -0.208941 -0.6572428 0.5194253 -0.5461037 
-0.115962 0.831075 0.106727 -0.2850302 0.9534617 0.09832969 
-0.319619 -0.698196 -0.475264 -0.4680453 -0.1975683 -0.8613364 
-0.137508 0.743248 -0.243493 -0.695156 0.4905175 -0.5255005 
-0.00531659 -0.502676 -0.419262 0.8979194 0.1685202 -0.4066223 
-0.0390407 0.890342 -0.135386 -0.2796343 0.9361143 -0.213295 
0.447572 -0.0162472 -0.00702043 0.6900699 -0.7106295 -0.137147 
0.583693 0.413054 0.256884 0.9219139 0.1183605 0.3688709 
0.314629 -0.369073 -0.0252222 0.4451821 0.3342937 -0.8306989 
-0.438482 -0.784095 -0.00347951 -0.9204724 -0.2985119 0.2522324 
0.545853 0.118669 -0.0818168 0.9071552 -0.2518392 -0.337115 
-0.245881 -0.855891 -0.434613 -0.3767914 -0.7160347 -0.5876415 
0.479685 0.0211606 0.283127 0.7413702 -0.4931307 0.455184 
0.00550093 -0.668194 0.304634 -0.06355511 -0.349528 0.9347679 
0.150307 0.481712 -0.483405 -0.1153988 0.3170314 -0.9413683 
0.567931 0.576837 -0.0229802 0.840573 -0.5358297 -0.0795214 
0.469256 0.616294 -0.251433 0.237075 0.2718674 -0.9326755 
-0.0891043 0.766144 0.281633 -0.2107305 0.9173344 0.3377725 
-0.0652703 0.331208 -0.399715 -0.4697812 -0.08485546 -0.8786952 
-0.415797 -0.691963 -0.387862 -0.6185987 -0.4031711 -0.6743802 
-0.243729 -0.355942 0.0968453 -0.333511 0.8205234 0.4642324 
-0.302549 -0.329928 -0.40127 0.240074 0.7230771 -0.6477067 
-0.444153 0.660758 -0.0247735 -0.3511654 0.7361974 0.5785294 
0.222176 0.929639 0.01974 0.010511 0.9975129 0.06969555 
0.136862 0.101727 0.588211 0.2067425 -0.2805836 0.9372995 
0.0768858 -0.994755 0.186794 0.4904188 -0.7987814 0.348479 
0.246242 -0.792273 -0.182247 0.7180327 -0.01857403 -0.6957614 
-0.210201 -0.915061 -0.337194 0.03619998 -0.9231924 -0.3826294 
0.339076 0.496394 0.457871 0.3261419 0.01292991 0.9452325 
0.235085 -0.352006 0.403018 0.5020393 0.2567162 0.8258652 
-0.618148 -0.624482 -0.103584 -0.8807014 -0.4332622 0.1914391 
0.524976 0.941362 0.11195 0.01740961 0.6709655 -0.7412843 
0.591205 0.0495065 0.230867 0.9554748 -0.2774411 0.1004709 
0.179177 0.567055 0.529164 0.2634963 0.6915858 0.6725168 
0.393554 0.67537 0.184529 0.7082564 0.4902128 0.5080003 
-0.117148 -0.30691 -0.332985 0.3448812 0.9009346 -0.2633891 
0.317352 0.150895 0.606398 0.3606011 -0.3921018 0.8462996 
0.275409 -0.8894 0.125874 0.7078683 -0.4783287 0.5197347 
0.437374 -0.00318735 0.123233 0.7147325 -0.6906336 -0.1103753 
-0.109534 -0.723055 0.218607 -0.1796372 0.1195374 0.9764432 
0.158688 0.837591 0.15787 -0.17649 0.9749317 0.1354974 
-0.422599 -0.69768 0.186882 -0.650916 -0.2505558 0.7166102 
0.0763037 -0.152774 0.350841 0.2806896 -0.7382108 0.6133989 
-0.30411 0.585764 0.242491 -0.8903904 0.2446702 0.3838508 
-0.100166 -0.304655 -0.482858 0.1965638 0.4877191 -0.8505838 
-0.141657 -0.126947 0.163978 -0.4060277 -0.9037077 -0.135845 
-0.379899 -0.453196 0.151963 -0.5894952 0.685542 0.4272326 
-0.433422 -0.323085 0.00360373 -0.3960626 0.7840612 0.4778938 
0.0689309 -0.961164 -0.197838 0.0864541 -0.953729 -0.2879699 
-0.355499 0.147249 -0.0868469 -0.5734432 -0.7790909 0.2533382 
0.309931 0.660731 0.462753 0.3594496 0.5333403 0.765731 
-0.223126 -0.454227 0.182202 -0.3992499 0.2561491 0.8803335 
-0.0593745 -0.432804 0.269218 -0.7206389 0.2202525 0.6573952 
-0.210866 0.110865 -0.174861 -0.1807251 -0.9759884 0.1215941 
-0.0327206 0.473213 -0.448401 -0.1872549 -0.01876849 -0.9821321 
-0.228767 0.77724 0.200505 -0.4459383 0.886598 0.1228134 
-0.335827 0.089697 -0.132566 -0.5832877 -0.8079047 0.08405595 
0.0298829 0.770607 0.494528 0.05096965 0.821462 0.5679808 
-0.362621 0.111162 0.322529 -0.9203626 -0.03711936 0.3893005 
0.418161 0.112771 -0.300047 0.5067527 -0.5640219 -0.6519824 
0.0549844 -0.0851383 0.461683 -0.2243098 -0.711805 0.6655967 
-0.391803 0.740237 -0.00906936 -0.2657411 0.9615812 0.06887211 
0.083905 -0.68062 -0.313805 0.8528966 -0.2905302 -0.4337738 
0.398567 -0.48711 -0.0118355 0.75579 -0.1340925 -0.6409374 
0.265094 -0.096191 0.308886 0.3238197 -0.699237 0.6373447 
0.416635 0.834109 0.0679959 -0.1333047 0.9251266 0.3554866 
0.551435 0.468615 -0.204709 0.8871353 0.1870311 -0.4219129 
0.261301 0.48141 -0.449219 0.4768682 0.2567955 -0.8406264 
0.285205 0.871185 0.116016 -0.1108364 0.9551926 0.2744492 
-0.516801 -0.358963 -0.165431 -0.8949609 0.2900917 0.3389569 
0.36583 0.0445798 0.539757 0.4647361 -0.5562239 0.6889378 
0.014744 0.189849 0.614632 -0.4408675 -0.5209008 0.730957 
-0.356375 -0.724959 -0.353189 -0.7410549 -0.3879989 -0.5479913 
0.0629062 0.284342 -0.470086 -0.2054867 -0.1575307 -0.9658982 
0.492596 0.286735 -0.324235 0.7780524 -0.02172201 -0.6278238 
0.0806748 -0.918308 0.345123 -0.1390256 -0.4100063 0.9014249 
-0.222595 0.708559 0.264184 -0.6981025 0.6172752 0.3628006 
-0.104852 0.391655 -0.3757 -0.372446 -0.124636 -0.9196466 
0.599692 0.499899 0.170034 0.887518 0.09224328 0.4514452 
-0.226413 0.289745 -0.368561 -0.2821257 -0.01676029 -0.9592311 
-0.297174 0.693458 0.0695532 -0.6240639 0.3953629 0.6739677 
0.159554 -0.924584 0.0295182 0.5555989 -0.8309352 -0.02926939 
-0.462285 -0.352837 -0.0246705 -0.443968 0.7375079 0.5088953 
-0.24503 -0.269747 -0.0115449 0.04188317 0.6473186 0.761068 
0.617065 0.435376 0.250525 0.9064378 -0.07437969 0.4157382 
0.343337 -0.330488 0.281312 0.8305256 0.3256253 0.45188 
-0.579729 0.435866 0.0100839 -0.9535121 -0.2074523 0.2185823 
-0.423255 -0.270012 -0.310977 0.4224422 0.8708448 0.25134 
-0.134892 0.281996 0.442246 -0.7383694 0.02562137 0.6739096 
-0.00620755 -0.938052 -0.127969 0.05997752 -0.9970927 0.04700005 
0.284357 -0.476444 0.359143 0.8311191 -0.1292822 0.5408577 
-0.0973582 -0.815822 -0.360051 0.3684628 -0.632957 -0.6808823 
0.510634 0.940034 -0.111179 -0.08977174 0.7463204 -0.6595051 
0.219608 -0.457399 -0.0323176 0.484049 0.2250801 -0.8455977 
-0.161837 0.425099 0.523499 -0.6269969 -0.02070551 0.7787466 
-0.286729 -0.403202 0.208763 -0.3533419 0.8575199 0.3739107 
-0.455413 -0.702805 0.119699 -0.551406 -0.4137959 0.7243787 
-0.515467 -0.74451 -0.242058 -0.7437996 -0.3422582 -0.5741267 
0.551891 0.0256352 0.243734 0.8392303 -0.5408807 0.05603986 
-0.578651 -0.247532 -0.495147 0.2705317 0.06400464 -0.9605811 
0.00827671 -0.144311 -0.0533276 -0.7418845 -0.03025302 -0.6698449 
-0.119907 0.379457 -0.355663 -0.372446 -0.1246359 -0.9196466 
-0.3033 -0.21753 -0.163064 -0.07335566 0.9965625 0.03849923 
0.0239878 -0.595055 -0.495774 0.7154168 -0.1054239 -0.6906986 
0.151291 0.540209 0.533453 0.1135559 0.4005498 0.9092112 
0.291128 -0.127502 -0.0129927 0.5938265 -0.3718545 -0.7135085 
0.25718 0.576353 -0.43408 0.01455084 0.414361 -0.9099962 
-0.0530875 0.887951 0.0166553 -0.2437934 0.9573833 0.154861 
0.0854863 -0.00673974 -0.259397 0.329235 -0.7301058 -0.5987905 
0.0785997 0.648519 0.500111 0.3548138 0.5979398 0.7187316 
-0.279875 0.233281 -0.343202 -0.2302533 0.06339645 -0.9710635 
0.249336 -0.497613 0.373971 0.5220093 -0.2993519 0.7986832 
-0.592444 0.586254 0.00381077 -0.8356636 0.02168855 0.5488133 
-0.608883 -0.306753 -0.456568 -0.5400632 -0.2566877 -0.8015256 
0.11588 0.630041 -0.325963 0.08598198 0.5725734 -0.8153324 
-0.209142 -0.988154 0.198994 -0.2048281 -0.8676295 0.4530614 
-0.315337 0.698463 0.0300651 -0.4982331 0.8649116 -0.06075919 
-0.262268 0.695558 -0.129632 -0.6559376 0.6050699 -0.451261 
0.157573 -0.1874 0.313035 -0.5053418 0.4121436 0.7581342 
0.337436 -0.341798 0.260355 0.8305256 0.3256253 0.45188 
-0.255651 -0.985231 0.0420453 -0.05382406 -0.9985292 -0.006516268 
0.682097 0.608793 0.124851 0.7836991 -0.5025617 -0.3650309 
0.136497 -0.908326 -0.140048 0.1359597 -0.7267126 -0.6733527 
0.560285 0.202277 0.380662 0.9611499 -0.1326592 0.2420587 
-0.423687 -0.497032 -0.472632 -0.4452316 -0.08327534 -0.8915346 
0.271736 -0.675672 0.0123995 0.9437755 -0.1370622 -0.3008352 
-0.269311 0.532512 -0.194664 0.07770918 0.470426 -0.8790112 
0.623059 0.977307 -0.132515 0.1603971 0.8889385 -0.4290234 
-0.336531 -0.99586 0.00274488 -0.4288486 -0.902351 -0.04302826 
-0.522671 -0.398849 -0.415064 -0.5969223 -0.2221782 -0.770922 
0.172154 -0.608299 0.28213 0.1979076 -0.6241397 0.7558323 
0.0182931 -0.354736 0.164634 -0.753607 0.4737645 0.4556573 
0.662544 0.958427 0.0673495 0.7439463 0.6346142 0.2093053 
-0.558756 -0.389651 -0.331574 -0.9857948 -0.1216953 0.1157537 
-0.331858 0.416866 0.247663 -0.7811356 0.2528079 0.5708899 
-0.549228 0.551633 0.105757 -0.4105923 0.279177 0.8680289 
-0.557058 -0.546543 -0.402352 -0.7669534 -0.2963337 -0.5691826 
-0.0582224 -0.30557 -0.0578167 -0.1308581 0.9901506 -0.04978005 
0.597516 0.868259 -0.154353 0.6046927 0.05457763 -0.7945867 
-0.126602 -0.0128373 -0.251497 -0.2806955 -0.6151322 -0.7367649 
-0.481039 -0.421358 -0.418326 -0.4416389 -0.1822742 -0.8784823 
-0.335126 -0.775195 -0.483182 -0.4407069 -0.3809662 -0.812799 
-0.14485 0.78722 0.0530419 -0.4012372 0.8948012 -0.1958051 
0.124717 -0.987647 -0.0386344 0.08497094 -0.9550729 0.2839289 
-0.355196 -0.867527 0.0829644 -0.6527504 -0.5255576 0.5456245 
0.436803 -0.0214185 -0.121933 0.6287059 -0.7041355 -0.3300336 
-0.594194 -0.467313 -0.23875 -0.9648053 0.2312379 -0.1252186 
-0.00822442 0.827011 -0.308226 -0.02095691 0.7423095 -0.6697295 
-0.596996 0.755682 -0.0596564 -0.1434136 0.7801353 0.6089512 
0.356314 0.622527 -0.407065 0.6736024 0.1757879 -0.7178847 
0.495887 0.684844 0.303677 0.5789573 0.6533679 0.4877692 
-0.329899 0.260645 0.108496 -0.7086837 -0.4986512 0.4991136 
0.331382 -0.257158 -0.0136298 0.5589553 0.2910077 -0.7764558 
0.163415 0.821166 -0.0276732 -0.3030145 0.9401331 -0.1559874 
-0.27475 0.0428544 0.269322 -0.8666129 -0.3300879 0.3741979 
-0.534108 -0.216924 -0.267716 -0.4299311 0.7147959 0.5515671 
-0.102529 0.296164 -0.364005 -0.4378045 -0.0183495 -0.8988829 
0.256 0.0993796 -0.270014 0.3063619 -0.613711 -0.7276683 
0.0139936 -0.982254 0.162874 0.01169436 -0.999694 0.02180047 
0.218897 0.392765 -0.445899 0.2080654 0.1083745 -0.9720924 
-0.016104 0.209829 -0.462309 -0.4341139 -0.197751 -0.8788855 
0.0382469 0.599497 0.583225 -0.1445977 0.1094559 0.983418 
-0.435495 -0.598787 0.0810552 -0.7658763 -0.07950889 0.6380532 
-0.129698 -0.642873 -0.535564 0.09874159 0.05303471 -0.9936989 
-0.526207 0.404282 -0.204224 -0.7552787 -0.2570857 -0.6028774 
0.260325 -0.542972 0.342251 0.4054043 -0.4749626 0.7810621 
0.138843 -0.752188 -0.200117 0.6615248 0.07327662 -0.7463348 
0.198886 0.176348 0.587727 0.02735382 -0.4194055 0.9073868 
0.463593 0.637513 0.322035 0.7155887 0.6363459 0.2880913 
0.0637734 0.104935 -0.404014 -0.1508513 -0.5381043 -0.8292693 
