ply
format ascii 1.0
comment VCGLIB generated
element vertex 800
property float x
property float y
property float z
property float nx
property float ny
property float nz
element face 0
property list uchar int vertex_indices
end_header
0.403648 -0.22932 -0.405098 -0.8399656 0.5364462 0.08175137 
0.0892313 -0.247988 0.812297 -0.03473593 0.7705564 -0.6364246 
0.392518 0.150135 -0.634628 -0.908122 0.1711893 0.3821109 
0.438341 0.272 -0.7042 -0.8781716 0.07501151 0.4724278 
0.419291 0.117091 0.172153 -0.9756576 0.2178343 -0.02530723 
0.425155 -0.159833 -0.407467 -0.8968531 0.4418019 0.02158033 
-0.241083 0.0724834 0.869093 0.4870248 0.4081676 -0.7721438 
0.368054 -0.292641 -0.392575 -0.3221999 0.9465818 0.01304213 
0.509256 0.229082 -0.501489 -0.9685715 0.214814 0.125396 
-0.430292 0.18644 0.774633 0.8874432 0.2990502 -0.3507328 
-0.115882 0.280715 -0.864469 0.1713144 0.01302968 0.9851303 
0.353498 -0.128719 0.52262 -0.832742 0.5374992 -0.1327987 
0.140674 0.101772 0.919691 -0.1799581 0.4760168 -0.860827 
-0.419354 -0.179242 -0.466817 0.8766035 0.4803792 0.02832179 
-0.157011 -0.287971 -0.810678 0.1809996 0.8981895 0.400618 
-0.114662 0.202856 -0.902716 0.182327 0.06880224 0.9808277 
-0.464248 0.113152 -0.420119 0.9785722 0.2058993 -0.00143054 
0.0424475 0.131717 0.94815 -0.02392839 0.4860601 -0.8735978 
0.431821 -0.128801 -0.29696 -0.9683446 0.2446412 -0.04959245 
-0.4062 0.0344098 -0.274451 0.9777276 0.2066201 0.03683577 
-0.394709 0.140231 0.705829 0.8994808 0.318386 -0.2992737 
-0.302578 -0.185452 -0.539005 0.6276449 0.7738659 0.0848143 
-0.452486 0.0183452 0.112869 0.984291 0.1761658 0.01170188 
0.175956 -0.227589 0.140672 -0.05623244 0.9983965 -0.006501026 
0.241131 -0.214592 0.238152 -0.1713751 0.9852021 0.002699657 
-0.413422 0.0795875 -0.343644 0.9798604 0.1988546 -0.01818319 
-0.0177272 -0.213796 -0.710749 -0.04899367 0.9814975 0.185101 
0.0690964 0.278738 -0.860903 -0.1423705 -0.008974628 0.9897728 
-0.214781 -0.00391205 0.906534 0.3460062 0.4448566 -0.8260644 
-0.00364498 -0.234283 -0.343732 -0.00197754 0.9999918 0.003529259 
-0.447632 -0.0219572 -0.22831 0.9860827 0.1662509 0.001294554 
-0.393475 -0.251764 0.16434 0.7234462 0.6864154 0.07388908 
0.45245 0.0175986 -0.392076 -0.9800547 0.1985133 -0.009241284 
-0.496047 0.19906 0.580754 0.9690473 0.2302171 -0.08914894 
-0.355083 -0.12126 0.543063 0.8867553 0.4486851 -0.1111163 
-0.0776714 -0.233761 -0.180487 0.04119444 0.999151 -0.0005636355 
-0.302386 0.127039 0.855882 0.6446334 0.4374455 -0.6269683 
0.036946 -0.195838 0.678061 -0.0376595 0.9921113 -0.1195703 
0.381112 -0.273783 0.305755 -0.6983875 0.7135045 -0.05626998 
0.141486 -0.230919 0.35311 -0.08601162 0.995935 -0.02675075 
0.44324 -0.0516117 -0.45457 -0.9745324 0.2196851 0.04500115 
0.270796 -0.0312719 -0.81376 -0.5563198 0.114054 0.8231038 
-0.0988375 -0.233185 -0.422038 0.09451579 0.9954214 0.0142465 
0.064246 -0.234007 0.0728179 -0.04278385 0.9990668 -0.005915754 
0.357584 0.16234 0.809961 -0.7958597 0.3284802 -0.5086337 
-0.347847 -0.145885 -0.0294974 0.8766064 0.4758594 -0.07154764 
0.419549 -0.176219 -0.483983 -0.9066146 0.3968933 0.1432682 
-0.383821 -0.0696633 -0.432699 0.9500148 0.3104518 -0.03303919 
-0.354049 -0.136721 -0.263946 0.8910777 0.4398428 0.1118873 
-0.00731095 -0.234248 0.383498 0.02255517 0.9991083 -0.0356942 
0.0445416 -0.0134788 -0.885685 -0.02645583 0.01248178 0.9995721 
0.412722 0.0746695 0.326679 -0.9843561 0.1700633 -0.04606045 
-0.423025 0.142262 0.182972 0.9731282 0.2301776 0.006305604 
-0.400602 -0.234911 0.405724 0.7576305 0.6497245 -0.062082 
-0.243229 -0.21354 0.424157 0.136513 0.9903072 0.02561247 
0.1788 -0.131711 0.757589 -0.2994285 0.7110543 -0.6361953 
0.386139 -0.0627903 -0.141555 -0.9701095 0.2421793 0.01539178 
-0.309375 -0.0778535 0.724706 0.6592102 0.439433 -0.6101971 
-0.0838006 -0.29544 -0.82442 0.1205255 0.7899354 0.6012286 
0.306766 -0.185878 -0.385847 -0.4188198 0.9078737 0.01885279 
0.375872 0.0680797 0.711549 -0.8723175 0.2902282 -0.3934842 
0.239182 0.153493 0.911077 -0.3955339 0.4640116 -0.7926198 
0.061963 -0.234031 -0.241019 -0.05179011 0.9986526 0.003296352 
0.00654496 -0.233273 0.452767 0.001262258 0.9974386 -0.07151693 
0.427144 0.0307139 0.681642 -0.9272276 0.257175 -0.2722313 
0.449241 -0.00877315 0.173344 -0.9946536 0.1029514 0.008068071 
0.331535 -0.0666547 0.807999 -0.6496993 0.3803308 -0.6582092 
-0.188935 0.118333 -0.856248 0.3563619 0.05523674 0.9327139 
-0.207118 -0.198326 0.625913 0.1237754 0.9847383 -0.1223527 
-0.0645532 -0.0467314 0.921764 0.110783 0.4735934 -0.8737485 
0.429283 0.184984 0.0592323 -0.9661937 0.2574441 0.01387028 
-0.412737 -0.0752412 0.661178 0.8953674 0.2777928 -0.3480637 
0.469814 0.279904 0.688971 -0.9463146 0.2228276 -0.2341724 
-0.101248 -0.221452 -0.663027 0.09944156 0.9902608 0.09744206 
0.251635 -0.0337017 0.878052 -0.4292882 0.4099008 -0.8047938 
-0.185033 -0.226283 -0.229259 0.09372684 0.9955817 -0.005694784 
0.423505 -0.166504 0.178927 -0.9213173 0.3876907 -0.0295009 
-0.0182282 -0.227273 -0.64115 0.06664682 0.9974788 0.02437953 
0.512527 0.201752 -0.374152 -0.9720755 0.2322784 0.03340533 
-0.340894 -0.0167908 -0.686699 0.7772944 0.2462035 0.5789623 
0.150105 -0.230239 0.25481 -0.0295256 0.999559 0.003168068 
-0.335671 -0.28807 0.624365 0.5179176 0.8146422 -0.2609972 
0.421748 0.133487 -0.120861 -0.9708585 0.2383003 0.02543295 
-0.344803 -0.15011 0.0445843 0.8317772 0.5501672 -0.07391101 
-0.33476 0.227436 0.876786 0.6531773 0.4603556 -0.6011922 
-0.110719 -0.120615 0.884212 0.1312088 0.4014423 -0.9064372 
-0.276972 -0.190686 0.563622 0.3007215 0.940599 -0.1576074 
-0.246177 -0.213123 -0.0892555 0.1745721 0.9823046 -0.06784107 
0.446774 0.265139 0.137745 -0.967608 0.2523283 -0.008080773 
-0.472843 0.280404 0.315118 0.9562638 0.2919167 0.01855515 
0.391708 -0.0421525 0.330625 -0.9617448 0.2521541 -0.1070765 
-0.431322 -0.131317 -0.111338 0.9573128 0.2890458 0.002215776 
0.0548727 -0.233231 -0.546695 -0.06548365 0.9938624 0.08915986 
0.193926 0.251246 -0.8826 -0.2763306 0.04834006 0.9598461 
-0.389604 -0.0499244 -0.284954 0.968764 0.2479598 0.003518841 
-0.00372286 -0.151578 -0.881224 0.01710808 0.2934213 0.9558302 
-0.447135 -0.0259724 -0.0161461 0.9873745 0.1583688 0.0033112 
-0.269393 -0.0344061 -0.757216 0.6076706 0.127721 0.7838519 
-0.251978 -0.211371 0.191265 0.2145316 0.9743595 -0.06782282 
0.241419 -0.100061 0.854582 -0.4451219 0.3748646 -0.81323 
0.0381448 -0.16274 -0.798928 -0.1235945 0.6105045 0.7823099 
-0.512515 0.201431 -0.226913 0.9644702 0.2641156 -0.006336148 
0.435616 -0.10778 0.0937711 -0.9720416 0.2347542 -0.005057469 
0.420183 0.123143 -0.319955 -0.9750535 0.2215729 0.01326832 
-0.361122 -0.29643 -0.521059 0.3742254 0.9202354 0.1145518 
-0.409778 0.0574691 0.421233 0.981241 0.1909548 -0.02650314 
-0.10211 0.280781 1.04984 0.08879821 0.5060589 -0.8579157 
-0.413606 -0.173171 0.546199 0.9201382 0.3888649 -0.04615039 
0.217225 -0.205756 -0.651538 -0.1708009 0.9786509 0.1143217 
-0.467192 0.134868 -0.125909 0.9834125 0.1809717 0.01221263 
0.428057 0.186058 0.780397 -0.888842 0.2960003 -0.3497769 
-0.188996 -0.0893404 -0.794016 0.4313398 0.1713416 0.8857697 
0.429852 0.189075 -0.403411 -0.9683576 0.2474384 0.0325265 
-0.348063 -0.145712 0.331054 0.9012663 0.4120218 0.1340042 
-0.424991 -0.160299 0.149061 0.9204414 0.389973 -0.02662008 
0.297684 -0.159205 -0.780715 -0.5896763 0.2644864 0.7631048 
0.421862 0.145556 -0.47895 -0.9785005 0.1660342 0.1223495 
0.148225 -0.207203 0.831033 -0.190441 0.5630763 -0.8041625 
-0.24998 -0.212023 0.326958 0.1993513 0.9794892 0.02932678 
-0.0181877 0.162875 0.964718 0.01179934 0.5418389 -0.8403995 
-0.320376 -0.175701 -0.196841 0.6518829 0.7566605 0.05013702 
-0.450194 0.132414 0.657972 0.9550358 0.2369415 -0.1782282 
0.33155 -0.0106619 0.746072 -0.752652 0.3891326 -0.5311223 
-0.307024 0.0452003 0.877516 0.5393466 0.3870419 -0.7478662 
-0.386249 -0.00245887 0.766793 0.7684896 0.2876453 -0.5715628 
0.405894 -0.100119 -0.646531 -0.9225425 0.228429 0.3110235 
0.297029 0.254741 1.01345 -0.4291467 0.4438044 -0.7866834 
-0.433026 0.211399 0.323863 0.9751033 0.221736 0.002613249 
0.103473 0.191127 -0.83379 -0.1888019 0.07560313 0.9791007 
0.0595429 0.0497128 -0.839754 -0.1044362 0.01278976 0.9944493 
0.180451 0.120412 -0.812269 -0.3241574 0.04095561 0.9451162 
0.486268 0.226955 0.737455 -0.9369805 0.2101388 -0.2791223 
-0.47355 0.183643 -0.433054 0.9768329 0.2127351 0.02326626 
-0.0168771 -0.150077 0.759298 -0.0292027 0.7960638 -0.6045077 
-0.370038 -0.0289282 -0.621619 0.9126668 0.2344904 0.3347442 
-0.433805 0.200412 0.875277 0.7726214 0.3909559 -0.5002097 
0.284661 -0.176187 -0.647428 -0.6668497 0.7062926 0.2376177 
-0.327701 -0.169144 0.113786 0.7095411 0.7026318 0.05347986 
0.0389985 0.265686 1.08 -0.07169897 0.4959488 -0.8653867 
-0.409151 0.0525165 -0.0451199 0.9902521 0.1392628 0.002592313 
0.477222 0.281153 0.283754 -0.9392832 0.3424205 -0.02225569 
-0.104591 -0.108443 -0.816902 0.1945803 0.2925045 0.9362584 
0.392583 -0.241769 0.511696 -0.7971078 0.5916008 -0.1209446 
-0.0222856 -0.234283 -0.114309 0.01712709 0.99985 0.002590991 
-0.0445646 -0.148333 -0.808767 0.08643828 0.5450748 0.8339196 
0.450157 0.207833 0.844615 -0.8396877 0.2223854 -0.4954486 
0.374978 -0.0627554 -0.57259 -0.9354711 0.2813002 0.2139257 
0.163325 -0.204545 -0.700803 -0.06450283 0.9411488 0.3317807 
-0.485882 0.20274 -0.624625 0.9458282 0.1166279 0.3029968 
-0.282097 0.28064 -0.814608 0.4819536 -0.011975 0.8761149 
-0.0682184 0.196999 1.05301 0.09414575 0.4862051 -0.8687584 
0.166378 -0.22863 0.0664888 -0.04862064 0.9984313 -0.02776662 
0.394116 0.200042 -0.731431 -0.76057 0.1047735 0.6407462 
0.457131 0.0560592 0.202942 -0.97912 0.201645 -0.02575891 
-0.407441 0.0417756 0.167948 0.9860969 0.1658793 -0.009844584 
0.413028 0.0766903 -0.0775024 -0.9718376 0.2293695 0.05405069 
0.285901 -0.197851 0.371895 -0.4065922 0.9085078 -0.09641818 
0.434625 0.222272 -0.139157 -0.9622067 0.2722691 0.00528329 
0.312934 -0.179998 -0.504973 -0.6564023 0.7524886 0.05382259 
-0.457176 0.0565182 -0.210783 0.9834024 0.1795919 -0.02581456 
0.43293 -0.0822049 0.546107 -0.9722134 0.2255983 -0.06250258 
0.203871 -0.223137 0.394449 -0.1000043 0.9929051 -0.06433258 
-0.421141 0.129732 -0.248838 0.9708189 0.2393553 -0.0148249 
-0.235465 -0.0494935 -0.832506 0.4579266 0.08161099 0.8852361 
-0.51108 0.223732 0.508768 0.9662165 0.24621 -0.07620003 
0.0849471 -0.233607 0.00118961 -0.06381004 0.9979119 -0.01000934 
-0.348928 -0.144166 -0.415879 0.8958826 0.4430286 0.03346798 
0.450508 0.00264534 0.341284 -0.9875681 0.1512157 -0.04293071 
-0.471862 0.169384 0.00864128 0.9817679 0.1893656 -0.01650465 
-0.255104 -0.210276 -0.163346 0.25693 0.9664299 0.0003452152 
0.0148031 -0.0459511 0.924718 0.03981107 0.4378306 -0.8981756 
0.0214887 -0.234284 0.185909 -0.02394588 0.9997119 0.001675081 
0.446617 -0.0299011 0.264331 -0.9888638 0.1450893 -0.03312725 
-0.479702 0.28088 -0.108136 0.9658607 0.2584121 -0.01833843 
0.379613 -0.0831919 -0.308868 -0.9216346 0.3878096 -0.01391166 
-0.0434066 0.236937 1.00071 0.052474 0.5020166 -0.8632647 
0.282921 0.127405 -0.813879 -0.5370373 0.04570758 0.8423193 
-0.411945 -0.206353 0.249376 0.8783686 0.4776652 0.01745632 
0.367367 -0.293593 -0.188443 -0.3407537 0.9390354 0.04582153 
0.373435 -0.130055 -0.702804 -0.8167771 0.2816448 0.5035389 
-0.42454 -0.162309 -0.379017 0.9294699 0.3680628 0.02480797 
-0.347266 -0.0498911 -0.751216 0.7405657 0.1645299 0.6515308 
0.378227 -0.0874532 0.276963 -0.9231029 0.3842095 -0.01625561 
-0.0130497 -0.234284 0.10694 0.01671764 0.9998603 -0.0001819003 
-0.438215 0.243471 0.0905772 0.9736166 0.2281775 0.002387568 
-0.405848 0.032018 0.349734 0.9896015 0.1296379 0.06231375 
-0.261573 0.090519 -0.7728 0.5175801 0.1152324 0.8478398 
-0.398455 -0.234898 -0.509256 0.8734477 0.4793138 0.08571786 
0.244855 0.0432183 0.851374 -0.4812996 0.4406836 -0.757726 
-0.0260289 -0.0234476 0.865786 -0.02743125 0.4826045 -0.8754088 
0.376609 -0.280847 -0.11371 -0.4198753 0.9071628 0.02757542 
0.373117 -0.097549 0.45946 -0.9170483 0.397598 -0.03063269 
0.512558 0.230397 0.133465 -0.9676079 0.2523283 -0.008080767 
0.055092 -0.215866 -0.699791 -0.1809146 0.9685758 0.1706775 
-0.472433 0.280333 -0.331834 0.97109 0.2376086 0.02294715 
0.366815 0.254851 0.852538 -0.7686666 0.3487141 -0.5362371 
0.385013 -0.0663479 -0.409897 -0.9325043 0.3604875 0.02201157 
-0.191723 -0.153702 0.848872 0.3341006 0.3938234 -0.8563178 
0.25321 -0.210954 -0.0906433 -0.1326107 0.9911655 -0.002330727 
0.263648 -0.287677 0.714922 -0.3839095 0.8544577 -0.3500223 
0.0514515 -0.249907 -0.854932 -0.1680937 0.6767911 0.7167276 
-0.10126 -0.233098 0.265372 0.0931977 0.995629 -0.006084694 
0.0770351 0.0486635 0.960042 -0.1044056 0.4572153 -0.8832064 
0.066894 -0.174021 -0.873455 -0.1056319 0.2957686 0.9494013 
-0.332477 0.280765 0.947004 0.5872365 0.4032628 -0.7018066 
0.176426 -0.227522 -0.00301392 -0.1110559 0.9937225 -0.01350072 
-0.00615696 -0.234283 -0.416109 0.003313874 0.999974 0.006418718 
0.202929 -0.27418 0.761946 -0.2554323 0.8779075 -0.4050097 
0.00503456 -0.271022 0.797221 -0.02877305 0.9078787 -0.4182445 
0.242558 -0.160587 0.689953 -0.4402643 0.802554 -0.4025847 
0.326152 0.0695023 0.800988 -0.7456067 0.3666708 -0.5564381 
-0.341894 -0.148822 0.755782 0.6517872 0.4281039 -0.6260195 
0.283228 0.202699 -0.765872 -0.5591171 0.08245844 0.8249781 
0.369978 -0.103319 -0.488194 -0.9031965 0.4209388 0.08394387 
0.42003 0.122019 0.02972 -0.9793055 0.2001351 0.03011381 
0.247768 -0.212674 0.312892 -0.1157397 0.9932243 -0.01048219 
-0.389674 -0.0498328 -0.0595356 0.9758886 0.2096729 -0.06065262 
0.416563 -0.192363 -0.212856 -0.9434475 0.3309202 0.01996895 
-0.365315 -0.295803 0.246507 0.2413179 0.9704461 -0.0002452321 
-0.38986 -0.259181 0.0832972 0.6932823 0.7194442 -0.04195064 
0.42461 -0.057933 0.627161 -0.9358078 0.2791948 -0.2152071 
-0.230024 -0.190691 -0.818838 0.4879753 0.3657033 0.7925536 
0.50092 0.273468 0.363914 -0.9665219 0.2565688 -0.002808222 
-0.0796875 -0.195903 -0.750524 0.07270365 0.930692 0.3585061 
0.340632 -0.155165 -0.303979 -0.7562439 0.648363 0.08786759 
0.395236 -0.236268 -0.540358 -0.790481 0.5892361 0.1671545 
0.212632 -0.169569 -0.831868 -0.4118562 0.3430985 0.8441906 
0.510236 0.254503 0.199518 -0.9485033 0.3142842 -0.03958552 
-0.173118 -0.227897 0.327273 0.08561773 0.9963194 -0.004166446 
0.318304 0.049279 -0.785702 -0.6300904 0.09340259 0.770884 
0.103992 -0.0996892 0.804392 -0.1050671 0.7151326 -0.6910473 
-0.449708 0.277608 0.653934 0.9442138 0.2810777 -0.1716263 
0.0936626 -0.233374 -0.0717498 -0.09806488 0.9951721 -0.003980807 
-0.04615 -0.225208 -0.864107 0.1433335 0.4873641 0.8613546 
-0.342205 -0.240909 -0.699319 0.681214 0.5398364 0.4944939 
-0.345811 -0.293009 -0.618944 0.4416396 0.8766614 0.1908386 
0.51256 0.204164 -0.131531 -0.9622067 0.2722691 0.005283297 
0.423648 0.146207 0.34089 -0.9688745 0.2467529 0.01987874 
0.0992878 0.280091 1.04137 -0.134499 0.4608275 -0.8772389 
0.25209 -0.211347 -0.00481551 -0.09197357 0.9955724 -0.0194042 
-0.385366 -0.266815 -0.145296 0.7284823 0.6838297 0.04111678 
-0.326208 -0.109009 -0.66787 0.7947733 0.3755245 0.4767776 
-0.409608 -0.21362 -0.190881 0.8651803 0.5001481 -0.03626262 
0.378543 -0.277512 0.383123 -0.6385705 0.760851 -0.1154715 
0.261499 -0.185813 0.615918 -0.3171528 0.9310434 -0.1804778 
0.407772 0.0435762 0.146844 -0.9885751 0.1504582 -0.009031832 
-0.42264 0.142253 0.450018 0.978459 0.2051468 -0.023082 
0.356722 -0.294347 -0.569772 -0.5631024 0.8208773 0.09526872 
0.482488 0.280421 -0.442902 -0.9822706 0.1695165 0.08005399 
0.120657 -0.232243 -0.151729 -0.1028257 0.9946995 0.0002061578 
-0.336283 -0.0848169 0.794767 0.6784446 0.3241594 -0.6592675 
0.451158 0.049594 -0.527158 -0.9729099 0.1498456 0.1760473 
0.455964 0.280951 -0.610864 -0.9178013 0.2142226 0.3342897 
-0.438802 -0.0845796 0.409416 0.9710847 0.2366139 -0.03175468 
0.266054 -0.205427 0.458868 -0.291699 0.9422201 -0.164721 
-0.365813 -0.295327 -0.211886 0.3706234 0.9227735 -0.1054861 
-0.380823 -0.0482192 0.567102 0.9578904 0.2528212 -0.1361156 
-0.295082 -0.143642 0.667897 0.6338798 0.6477884 -0.4225714 
0.355528 -0.205881 -0.700911 -0.7849576 0.4335008 0.4426271 
-0.394072 -0.0312696 -0.359377 0.9583774 0.2789975 0.06060733 
-0.27363 -0.281341 -0.747957 0.4620687 0.7765771 0.4282765 
-0.411294 -0.208655 -0.105745 0.9372143 0.3481114 -0.02116562 
0.0903092 -0.233492 -0.431042 -0.08883393 0.9959174 0.01603555 
-0.0865705 -0.0721125 0.828437 0.08624782 0.5388628 -0.8379667 
-0.378009 -0.0163609 0.629786 0.9205718 0.2594013 -0.2919907 
-0.254862 0.207153 1.03661 0.3524642 0.4662534 -0.8114042 
0.416797 -0.191554 -0.0683474 -0.946903 0.3182082 0.04602257 
0.463376 0.279901 0.604152 -0.9648074 0.215566 -0.1505919 
0.41525 -0.134075 0.597788 -0.9005409 0.3466918 -0.2623563 
0.454342 0.0331323 -0.0366344 -0.9729243 0.2305455 -0.01634585 
0.44754 0.170668 0.70714 -0.9315298 0.2619806 -0.252227 
-0.419172 -0.112995 0.601383 0.9468268 0.2813422 -0.1560949 
-0.457177 0.0565566 0.0312433 0.9855543 0.1665339 0.03080906 
-0.438347 0.280125 0.761707 0.8703073 0.3929234 -0.2969451 
0.213591 0.0914415 0.947648 -0.3274417 0.4740496 -0.8173487 
0.0901937 0.197532 1.05905 -0.07591517 0.5115301 -0.8559053 
-0.43561 0.229437 0.0172949 0.9682438 0.2488488 -0.02404693 
-0.265097 -0.246803 0.755601 0.4270607 0.7523059 -0.5016523 
-0.307935 0.0460232 0.807121 0.668393 0.3510293 -0.6557661 
-0.426444 0.184691 -0.496109 0.9810568 0.1744349 0.08426195 
-0.254216 -0.210588 -0.238273 0.2268761 0.9736003 0.02509125 
0.250936 -0.0272554 0.807704 -0.4782998 0.5055618 -0.7180784 
-0.155502 -0.0586764 0.825703 0.2744966 0.5293784 -0.8027516 
0.4493 -0.00852624 -0.234381 -0.9902653 0.1378517 0.01927767 
0.124088 -0.0413316 -0.872736 -0.17557 0.09254414 0.9801075 
0.177291 -0.227398 -0.0987408 -0.08783801 0.9961306 0.002884883 
-0.49224 0.199129 -0.54846 0.9712774 0.1524899 0.1826665 
-0.400266 0.254345 -0.6527 0.8769039 0.1304407 0.4626282 
-0.512515 0.222148 0.262447 0.9680364 0.250787 -0.003382902 
-0.388919 0.251912 0.806315 0.7868908 0.4444205 -0.4281276 
0.499816 0.219855 0.659924 -0.9581469 0.227142 -0.174244 
0.510076 0.205225 0.53374 -0.9762511 0.2131805 -0.03857446 
0.106407 0.117514 -0.827017 -0.1793109 0.05674075 0.9821548 
-0.0623849 -0.234026 0.201417 0.05019828 0.9987316 -0.003920284 
-0.450122 0.00566506 0.446468 0.9937611 0.0917271 -0.06344417 
8.42617e-05 0.264343 -0.907798 -0.009934862 0.04031929 0.9991375 
-0.47334 0.280582 0.47005 0.9480489 0.3169086 -0.02779024 
0.261536 -0.208025 -0.434664 -0.1849388 0.9821378 -0.03468411 
-0.299654 -0.190382 -0.389267 0.532943 0.8417715 -0.08597948 
0.471909 0.169462 0.193718 -0.9730513 0.2294339 -0.02304978 
-0.401029 0.0473624 0.570222 0.9734037 0.2055666 -0.1011325 
-0.0404362 0.201785 -0.91138 0.03996728 -0.00650894 0.9991798 
0.512539 0.19926 0.367708 -0.9674096 0.2531425 0.006144438 
0.466063 0.125963 -0.0663234 -0.9737125 0.2265071 0.02405311 
0.419117 0.11818 0.443342 -0.9651905 0.261521 0.003757562 
-0.37606 -0.164456 -0.685833 0.8666714 0.3138494 0.3877876 
-0.418641 0.268628 0.889395 0.7514901 0.4150885 -0.5128005 
0.364727 -0.29651 0.239081 -0.3142508 0.9484431 0.04125641 
0.401402 -0.0327243 0.71986 -0.8485956 0.2870935 -0.4443679 
-0.0659451 -0.214911 0.838815 0.007920916 0.7004598 -0.7136478 
-0.269832 -0.137563 -0.720079 0.7253588 0.3638982 0.5843223 
-0.457715 0.0709102 0.476064 0.9712999 0.2225851 -0.08385935 
-0.17603 -0.150445 -0.850061 0.3779075 0.2407498 0.8939942 
-0.37806 -0.278787 -0.0755641 0.6231899 0.7818088 -0.02023659 
0.00240803 -0.234284 0.269351 -0.007966906 0.9999315 -0.008576489 
0.299207 -0.0931506 -0.715286 -0.681604 0.3212411 0.6574345 
-0.330306 0.219341 0.994092 0.5448994 0.4000379 -0.7369222 
-0.189402 0.00444026 -0.805458 0.3854393 0.06504193 0.9204381 
-0.416614 0.0999987 -0.172759 0.9727111 0.2289644 -0.03752903 
-0.166477 -0.220588 -0.838839 0.2912666 0.4319851 0.8535531 
0.364547 0.163807 0.879843 -0.7086782 0.3753684 -0.5973892 
-0.368949 -0.108356 0.433528 0.9316965 0.3630856 -0.01051637 
-0.0934019 -0.0167435 -0.879359 0.1770615 0.05353091 0.982743 
-0.42925 0.185048 0.242787 0.9762954 0.2164255 -0.002731887 
-0.271696 0.222756 -0.773974 0.4861568 0.06983452 0.8710768 
0.343916 -0.282069 -0.648504 -0.7250001 0.6271591 0.2846865 
-0.138401 0.0637281 -0.824361 0.2397815 0.07563936 0.9678758 
0.322998 0.280725 -0.789606 -0.5934942 0.04400348 0.8036345 
0.501031 0.273404 -0.374487 -0.9795107 0.198884 0.03168648 
-0.391623 -0.0423761 0.197323 0.9645618 0.2638543 0.001228033 
-0.00332843 0.209628 1.08626 -0.001366448 0.5121947 -0.8588684 
-0.509539 0.25725 -0.27601 0.9664593 0.256446 -0.0138564 
0.0782201 -0.23348 0.415707 -0.05839732 0.9974535 -0.04094233 
-0.429925 -0.137932 0.0536425 0.9560812 0.2901168 -0.04172723 
0.445004 -0.0433697 -0.0643759 -0.9803327 0.1973187 0.003642757 
0.445158 -0.0422012 -0.315053 -0.9855429 0.1683415 0.01914349 
0.0112196 -0.234283 -0.0524146 -0.02886373 0.9995782 -0.003220626 
-0.233974 -0.216647 -0.394312 0.1609916 0.9869031 -0.01019774 
0.402883 -0.231201 0.0699195 -0.886638 0.460068 -0.04701562 
-0.437431 -0.0962701 -0.0259769 0.9559916 0.2923045 0.0252643 
-0.0178356 -0.234283 -0.270874 0.00936614 0.9999555 -0.00110524 
0.0900717 -0.213148 0.618397 -0.0372639 0.998945 -0.0268391 
0.342869 0.113354 -0.770501 -0.7078747 0.1538987 0.6893683 
0.36032 -0.126558 -0.173748 -0.8526527 0.5223363 0.01217413 
0.479263 0.280948 -0.147155 -0.9584252 0.2852725 0.006394339 
-0.178135 0.0556522 0.943679 0.2266546 0.474508 -0.8505704 
-0.0935442 -0.164844 -0.870585 0.2156208 0.2939419 0.9311852 
-0.383708 0.225721 0.946984 0.6537603 0.4603796 -0.6005399 
0.399629 -0.00431335 -0.105172 -0.9812635 0.1926393 -0.003501019 
0.437126 0.238198 0.327143 -0.95789 0.2870711 0.006074484 
-0.315672 -0.179448 -0.0825853 0.6983656 0.7135933 0.05540857 
-0.246528 -0.129594 0.728124 0.4268691 0.6453791 -0.6334577 
-0.388839 -0.0530413 -0.141487 0.9725909 0.2245317 -0.06043596 
-0.00599248 -0.177346 0.864167 0.03101117 0.4587822 -0.8880074 
-0.354268 -0.294108 0.545487 0.2915972 0.954603 -0.06086298 
-0.0966536 -0.220393 0.58157 0.04744795 0.9946112 -0.0921809 
0.430116 0.190908 0.402583 -0.9694088 0.245409 0.004606408 
0.000590101 -0.234283 0.0258483 -0.01581657 0.9998726 -0.002167678 
-0.438515 -0.089499 -0.3211 0.9606011 0.2768248 0.02477345 
-0.198895 -0.0832744 0.879181 0.3264555 0.4189943 -0.8472724 
0.143927 -0.0855711 -0.812435 -0.2731117 0.3003154 0.9139041 
-0.360362 0.175325 0.812734 0.739845 0.444327 -0.5051762 
0.426197 -0.155184 0.254546 -0.9555404 0.287082 -0.06728045 
-0.0889124 0.127256 -0.82699 0.1349805 0.07116558 0.9882893 
-0.0703125 -0.233797 -0.498469 0.08243671 0.9950262 0.05592027 
-0.328897 0.202951 -0.822724 0.5320836 0.1270975 0.8370981 
-0.364705 0.0893358 0.752543 0.8273755 0.2989443 -0.4754809 
0.202734 0.0429872 -0.849623 -0.2991484 0.02433598 0.9538962 
0.354515 -0.192722 0.709071 -0.7539737 0.4495209 -0.4790141 
-0.455059 0.0645455 -0.503686 0.9690999 0.2369756 0.0684688 
0.444876 0.0178103 0.570235 -0.9683517 0.2386583 -0.07305644 
0.0242021 -0.234258 -0.479437 -0.03599596 0.9988401 0.03198058 
0.245739 -0.213265 -0.362294 -0.2278191 0.9720895 0.05604167 
-0.404011 -0.2277 0.320489 0.9029139 0.4287529 0.03029023 
-0.188303 -0.225815 0.246948 0.07424263 0.997044 0.01978415 
0.0457 0.163468 1.01354 -0.03612687 0.5430098 -0.8389489 
-0.407898 -0.208685 0.484643 0.9123321 0.4057641 -0.05482439 
0.431143 -0.128077 0.426074 -0.9548202 0.2807719 -0.09739436 
0.421596 -0.155528 0.510866 -0.9302878 0.3460189 -0.1218009 
-0.294896 -0.0393528 0.849953 0.5383169 0.368464 -0.7579243 
-0.40384 0.101755 -0.69871 0.8179525 0.1342296 0.559407 
-0.386631 -0.132799 0.693379 0.8214085 0.3856818 -0.4201638 
0.149178 -0.00237656 -0.819915 -0.1935488 0.0348312 0.9804721 
-0.404943 0.0317693 -0.458744 0.9707364 0.2316468 0.06332982 
-0.166149 -0.22865 0.0966454 0.08086074 0.9967052 0.006343276 
-0.397643 0.0855769 0.64382 0.929507 0.2660636 -0.2553958 
-0.414752 -0.172717 -0.549778 0.9098093 0.3850445 0.1548802 
-0.48079 0.19902 0.661187 0.9506547 0.2603678 -0.1687134 
0.492166 0.278447 0.0849516 -0.9627594 0.2703594 -0.000290567 
0.42035 0.12422 -0.23361 -0.971878 0.2323332 -0.03839891 
0.420201 0.123125 0.262178 -0.9750927 0.2193025 -0.03317717 
-0.337209 0.18662 -0.722576 0.6984273 0.04929755 0.7139812 
-0.167481 -0.172578 -0.757798 0.4115447 0.5550312 0.7228909 
-0.486677 0.279896 -0.185702 0.9636624 0.2671053 0.003099634 
-0.300467 -0.189979 0.281807 0.4371748 0.8983766 0.04239919 
0.421501 -0.174845 0.109206 -0.937768 0.3472599 0.001301508 
0.366006 -0.29513 0.167897 -0.3739571 0.9263064 0.04596316 
0.353969 -0.137026 0.387182 -0.8910804 0.4502269 -0.0571959 
0.32321 -0.173508 0.15512 -0.5878081 0.806675 0.06129584 
-0.0223628 -0.23327 -0.553114 0.02247608 0.9949742 0.09757659 
0.406685 -0.221537 0.239473 -0.8693379 0.4942129 -0.002277258 
-0.40565 -0.127371 -0.634057 0.8908184 0.2942423 0.346214 
0.437448 -0.0964394 -0.370944 -0.9574842 0.2884638 0.00357381 
0.132539 -0.230479 -0.542934 -0.1124905 0.9895113 0.09062718 
0.340417 -0.0593378 0.694826 -0.7649573 0.4243025 -0.4845696 
-0.512508 0.211002 0.348407 0.9806406 0.195813 0.001169755 
-0.307672 -0.185349 0.377866 0.5576643 0.8296813 -0.02528924 
-0.170363 -0.0472928 -0.859392 0.3258615 0.08443497 0.9416396 
0.427512 0.17943 0.483546 -0.9722689 0.2336799 -0.009323235 
0.127505 0.0681384 -0.873031 -0.1852221 0.02894117 0.9822704 
0.388124 -0.194378 0.634445 -0.8560496 0.4185044 -0.3033698 
-0.141727 0.245923 0.992192 0.201628 0.543381 -0.814913 
0.40354 0.0177692 0.0475059 -0.9918825 0.1231205 -0.03178863 
-0.34023 -0.134662 -0.745677 0.7073723 0.3471639 0.6157122 
-0.426137 0.179495 0.522092 0.9748221 0.2111426 -0.07169884 
-0.0633078 -0.234016 0.332579 0.07343166 0.9972273 -0.01206463 
0.210864 -0.221949 -0.28826 -0.1594683 0.9871929 -0.004480646 
-0.373032 0.108654 0.841554 0.7509032 0.4143921 -0.5142213 
0.0528706 -0.234127 -0.13037 -0.04280774 0.9990806 -0.002349593 
0.383795 -0.268493 -0.460885 -0.6113036 0.7910792 0.02239766 
-0.450965 0.00600193 0.210487 0.9866955 0.1601063 -0.02824677 
-0.288866 -0.209606 -0.774207 0.5205145 0.4728318 0.7109815 
-0.424557 0.235693 -0.566802 0.9592367 0.1574759 0.2346617 
-0.2987 -0.175621 -0.614904 0.7427183 0.6089979 0.2783723 
-0.446719 -0.0279184 0.364273 0.9810725 0.1936226 -0.002696143 
0.00799862 -0.0759783 -0.886562 -0.03729327 0.1356458 0.9900553 
-0.435921 -0.105703 -0.236944 0.9688174 0.238231 0.06811023 
-0.449988 -0.0016535 0.298937 0.9867343 0.1620089 0.01041604 
-0.173253 -0.227255 0.43279 0.08012619 0.9965417 -0.0220086 
0.437953 0.242056 -0.21482 -0.9673802 0.2532104 0.007759608 
0.379478 -0.00438342 0.636883 -0.9432868 0.2380197 -0.2314232 
0.25424 -0.297377 -0.749462 -0.291267 0.876932 0.3823009 
-0.223563 0.280528 1.01168 0.2882633 0.4884982 -0.8235738 
0.00171984 0.0501441 -0.887688 -0.03802605 0.03384133 0.9987035 
0.467079 0.187441 0.592726 -0.9600824 0.2458984 -0.1333262 
0.440743 0.252543 -0.315642 -0.9696886 0.2439597 0.01370145 
0.364413 -0.296924 -0.270501 -0.3470858 0.9345529 0.07837284 
-0.0256514 -0.210619 0.632561 -0.02177895 0.9983854 -0.0524634 
-0.335195 0.0859439 -0.712458 0.7357106 0.1489488 0.6607148 
0.188135 -0.212556 0.578142 -0.08837873 0.9960822 0.003092401 
0.430247 0.19171 -0.068655 -0.9676009 0.2524595 0.003578715 
-0.51096 0.230173 -0.473551 0.9759776 0.1997424 0.08701 
-0.0383826 0.00641956 -0.841642 0.04174662 0.06091851 0.9972693 
0.380404 0.0797715 -0.639955 -0.8694516 0.1548171 0.4691327 
-0.0123577 -0.285081 -0.838994 0.04354212 0.8742673 0.4834882 
0.220799 -0.214931 0.512543 -0.1607759 0.9833825 -0.08432121 
0.454104 0.0311941 -0.137637 -0.9851521 0.1715723 -0.006185231 
-0.21932 0.144316 0.91576 0.3591086 0.5002503 -0.7879027 
0.293307 -0.187914 -0.572561 -0.4846913 0.8597412 0.1609947 
0.512559 0.221678 0.264098 -0.9560819 0.2905249 -0.03876542 
-0.437296 0.239187 -0.382601 0.9687175 0.2481342 0.003979882 
0.187355 -0.165328 -0.755348 -0.3619659 0.5823572 0.7279016 
-0.348878 -0.127906 -0.574709 0.8794316 0.4498368 0.1557142 
-0.15235 -0.211554 0.827332 0.2469651 0.5790382 -0.7769961 
-0.0493014 0.240843 -0.841646 0.09311355 0.02825633 0.9952545 
-0.431717 -0.12829 0.302521 0.969906 0.2418661 0.02798396 
-0.137987 0.197643 -0.826182 0.2878796 0.04597883 0.9565622 
-0.425743 0.160797 -0.380986 0.9797384 0.1990569 0.02211461 
0.434504 -0.11405 -0.0840198 -0.9819022 0.1861791 0.03472175 
0.369911 -0.107639 0.141062 -0.9323845 0.3461011 0.1042742 
0.141416 -0.0488191 0.835797 -0.1962096 0.4926561 -0.847816 
0.471894 0.169314 -0.256452 -0.9774018 0.2096368 -0.02716663 
-0.459148 0.241171 0.824132 0.8544407 0.3567342 -0.3777191 
-0.418699 0.113513 0.00712958 0.9753201 0.2206224 0.00874653 
0.0580063 -0.234073 0.339039 -0.04459655 0.9988576 -0.01716833 
-0.473864 0.28058 0.141205 0.9710293 0.2389577 0.001207823 
-0.241679 -0.191687 -0.671584 0.4653246 0.8178937 0.3384123 
0.111682 -0.190923 0.684713 -0.08591434 0.9727628 -0.2152938 
0.409094 0.0520333 -0.250815 -0.9875472 0.1563866 -0.01713987 
0.414017 -0.20075 -0.291326 -0.9305475 0.3652248 -0.02631079 
-0.394758 -0.0705497 -0.680781 0.8749531 0.2183957 0.4321578 
-0.432846 -0.122937 -0.0927816 0.9657597 0.2473152 -0.07837992 
0.0219613 0.109458 -0.826988 -0.05060126 0.01380666 0.9986235 
0.074375 -0.227716 -0.628566 -0.0185205 0.9993048 0.0323575 
0.0720355 -0.0891523 -0.828686 -0.1479486 0.3397895 0.9287919 
0.389395 -0.189977 -0.640153 -0.8364853 0.457466 0.3016908 
0.105617 0.109467 0.98276 -0.1914614 0.4589855 -0.8675684 
-0.512509 0.234223 0.0997543 0.968874 0.2473847 0.009155486 
0.413288 0.125539 0.584199 -0.9727125 0.231104 -0.02052844 
-0.0139594 0.123424 -0.88738 -0.01585305 0.02064642 0.9996612 
-0.387815 -0.233732 0.570736 0.6980334 0.7009091 -0.1465463 
-0.417794 0.11745 -0.475117 0.9700528 0.2408996 0.0310642 
0.33217 -0.125119 -0.637885 -0.8415624 0.4665459 0.2722275 
0.244253 0.184833 0.97677 -0.3433371 0.4675626 -0.8145581 
-0.181538 -0.111304 0.776726 0.2700595 0.5961049 -0.7561262 
-0.425049 0.156016 0.368172 0.981277 0.192105 -0.01382365 
-0.43317 0.00237201 -0.600001 0.9510762 0.2114849 0.2252292 
-0.420327 -0.179085 -0.256922 0.931258 0.3607878 0.05089986 
0.16832 0.145389 0.986432 -0.2219686 0.4751791 -0.851431 
0.0875035 -0.233552 -0.35882 -0.07745678 0.9969765 0.006197983 
-0.454817 0.037367 -0.387315 0.9874278 0.1439727 0.06525507 
-0.512296 0.237006 -0.386907 0.970236 0.240319 0.02981667 
0.434751 -0.091135 -0.512191 -0.9429336 0.3116127 0.1173619 
0.365627 -0.116633 0.0489031 -0.8920885 0.4466433 -0.06846771 
0.447429 0.0986865 -0.588066 -0.9596588 0.1647429 0.2278481 
-0.175345 -0.227646 -0.455814 0.1101517 0.9938098 0.01444949 
0.0597724 -0.15311 0.753354 0.002293906 0.7437016 -0.6685078 
-0.375359 -0.0945998 0.0108235 0.9064113 0.419477 -0.04957391 
-0.399176 0.0352714 -0.542333 0.959377 0.2202747 0.1762808 
-0.429031 -0.141877 0.220516 0.9392333 0.3404731 0.04380633 
-0.366627 -0.294069 0.37426 0.3813462 0.922509 0.05960006 
-0.448053 -0.0185539 -0.309197 0.9857368 0.1681536 -0.006881723 
0.0951806 -0.121939 0.885895 -0.1453537 0.4517659 -0.8802159 
0.186728 -0.226047 -0.445713 -0.09649396 0.995082 -0.02237812 
-0.383171 0.0596664 -0.625624 0.9132111 0.1224136 0.388665 
0.51256 0.218304 0.0470813 -0.9680845 0.250466 0.008895655 
-0.0879644 -0.233541 0.130869 0.1111346 0.993804 -0.001668721 
0.459972 0.0867071 -0.465897 -0.9744359 0.1900374 0.1198351 
-0.300015 -0.190214 -0.00263422 0.3587964 0.9320284 0.05087429 
0.115174 -0.232546 -0.29323 -0.1194725 0.9928103 0.007350089 
0.404828 0.0345342 0.48268 -0.9817816 0.1868347 0.03460773 
-0.22704 -0.218323 0.036003 0.1587211 0.9868565 -0.0303634 
-0.437728 0.0257076 0.629033 0.9540129 0.2285995 -0.1939116 
0.37751 0.0144254 -0.723573 -0.8088775 0.1586159 0.5661786 
0.450773 0.00384265 0.0976039 -0.9948545 0.09901462 -0.02146483 
-0.436832 -0.0918083 -0.474122 0.9495042 0.3132523 0.01774516 
-0.0935938 0.193147 0.973865 0.1015509 0.5267945 -0.8439046 
-0.341893 0.162718 0.902931 0.6931567 0.4671781 -0.5488884 
-0.192698 0.204698 -0.884183 0.3379914 0.08365691 0.9374238 
-0.358947 0.0270027 -0.747155 0.7478595 0.1654748 0.642903 
0.0107022 -0.234283 -0.189515 -0.0155652 0.9998678 0.004714698 
0.465401 0.120928 -0.176961 -0.9704525 0.2398557 0.02629136 
0.191362 0.197158 1.03127 -0.2240762 0.4597788 -0.8592982 
0.368939 -0.288383 0.454666 -0.3173972 0.9390286 -0.1322282 
-0.156897 -0.229649 -0.379172 0.06688058 0.997496 0.02299317 
-0.205623 -0.222914 -0.296235 0.06916299 0.9975823 0.006787237 
0.479769 0.280549 0.533739 -0.9630452 0.2646891 -0.04983509 
-0.438243 0.23777 -0.722442 0.7981838 -0.00699418 0.6023734 
0.239593 -0.0881099 0.771282 -0.5116659 0.5460598 -0.6633375 
-0.387246 0.206053 -0.778719 0.6984273 0.04929754 0.7139812 
0.241903 -0.213683 -0.507544 -0.174683 0.9826041 0.06304853 
0.389014 -0.052442 -0.239446 -0.9409842 0.338104 0.0153099 
0.512558 0.201599 -0.304004 -0.9767901 0.2140701 -0.007422026 
0.103905 -0.0405278 0.91981 -0.1995615 0.4665329 -0.8616973 
0.458008 0.0629147 -0.336877 -0.990849 0.1338431 0.01744249 
0.42272 -0.169931 0.0166922 -0.9647448 0.2631563 -0.004038964 
0.406541 0.0359405 0.249894 -0.9861574 0.1648551 -0.01779012 
0.249565 -0.212159 -0.222615 -0.2111975 0.9771892 0.02229404 
0.167417 -0.133889 0.865889 -0.2814323 0.4608124 -0.8416935 
-0.163747 -0.181153 0.692051 0.2414124 0.9090996 -0.3394968 
-0.447238 -0.0251452 -0.108319 0.9914871 0.130174 -0.002850153 
-0.445907 -0.0129033 -0.500453 0.9813944 0.1702246 0.08881722 
0.325915 -0.170801 -0.114775 -0.717015 0.692197 0.08217651 
-0.469736 0.280855 -0.524379 0.9636749 0.1799489 0.1973554 
-0.407506 0.0100023 -0.673804 0.847869 0.1777279 0.4995308 
0.51256 0.199378 -0.0355635 -0.9708352 0.2391102 0.01747472 
0.0928178 -0.233404 0.203954 -0.1028989 0.9946843 0.003867204 
0.347169 -0.134957 -0.560842 -0.8542411 0.5061507 0.1186746 
-0.45967 0.28055 -0.609431 0.9274369 0.1758298 0.3300679 
0.212774 -0.217722 -0.574938 -0.02985 0.9940277 0.1049664 
-0.512515 0.223824 -0.143373 0.9566068 0.2886313 -0.03994271 
-0.465122 0.119126 -0.310135 0.9769202 0.2118122 0.02761435 
0.402573 0.221702 0.925036 -0.7033571 0.2921789 -0.6480126 
-0.174943 -0.217102 0.562416 0.01371332 0.9996861 -0.02096861 
-0.425716 0.0719848 0.714597 0.8898706 0.2992901 -0.3443191 
0.400874 -0.120388 0.665706 -0.8671247 0.3509068 -0.3534957 
-0.331968 0.130546 -0.781017 0.6036044 0.1052623 0.7903047 
0.406992 0.0391135 0.398622 -0.9827406 0.1834877 -0.02352086 
-0.404402 0.0233 -0.16159 0.9949162 0.09979028 0.01355287 
-0.133869 -0.228206 0.497673 0.02478574 0.9963474 -0.08171684 
0.23816 0.0373201 -0.783522 -0.4665965 0.1150778 0.8769521 
-0.383795 -0.0749896 0.734095 0.8538342 0.2612218 -0.4502559 
-0.403872 -0.228684 -0.307064 0.8834537 0.4628526 0.07264316 
0.442239 0.269507 -0.542533 -0.9497011 0.2025865 0.2388022 
-0.0859882 -0.233583 -0.345288 0.08697598 0.9961742 0.008488855 
0.442698 0.258225 0.448434 -0.9535437 0.3002641 -0.02441075 
0.403223 0.106281 0.79177 -0.8267547 0.3610887 -0.4313835 
0.441852 0.102547 0.674216 -0.9334327 0.2953496 -0.203647 
0.281559 0.096027 0.916974 -0.4980444 0.4297668 -0.7531615 
-0.412669 -0.204594 0.0200338 0.8339064 0.5442808 -0.0914258 
0.407234 -0.220489 -0.135897 -0.8621125 0.5000345 0.08202185 
0.364453 -0.296883 -0.043985 -0.3373966 0.9411182 0.02144985 
0.316562 -0.266364 -0.71519 -0.6638108 0.6263807 0.4086594 
0.471864 0.16919 0.289444 -0.9714502 0.2310974 -0.05365256 
-0.194295 -0.28057 0.758819 0.1600917 0.907082 -0.3893238 
0.43487 -0.11204 -0.212733 -0.9669224 0.2476644 0.06102088 
-0.300519 -0.188646 0.463933 0.3799956 0.9249007 -0.0127309 
-0.365063 -0.296158 0.0284387 0.3230384 0.9443337 0.06229003 
-0.25802 -0.117497 -0.814904 0.5423491 0.2614404 0.79844 
0.267532 -0.101312 -0.810848 -0.5243015 0.2722151 0.80685 
0.393515 0.0241992 0.766927 -0.793036 0.3455976 -0.5016537 
-0.402305 -0.232537 -0.401067 0.8925647 0.4209564 0.1616295 
-0.393706 -0.0332824 0.111249 0.9716825 0.2361423 0.00836535 
-0.259123 0.163518 -0.828206 0.3838943 0.04132068 0.9224521 
0.440045 -0.0228436 -0.547255 -0.9727338 0.173986 0.1533553 
0.335532 0.241884 -0.730717 -0.7248955 0.1334002 0.6758186 
0.482881 0.280437 -0.0728872 -0.9772839 0.2114843 0.01380674 
0.439825 0.250181 0.219437 -0.9592198 0.2821861 -0.01638219 
0.431413 -0.130046 0.320354 -0.9553617 0.2940645 -0.02846532 
-0.0914402 -0.201627 0.659047 0.04861417 0.9927292 -0.1101153 
-0.419019 0.115579 0.116646 0.9809049 0.1942548 0.009530433 
-0.0808847 -0.233692 -0.0583381 0.08579641 0.996296 0.005771821 
0.286597 -0.111699 0.716685 -0.7113171 0.4456198 -0.5435541 
-0.443374 0.0791271 -0.595074 0.9406561 0.1866052 0.2834514 
0.41926 0.117386 -0.40986 -0.9858227 0.1615108 0.04547346 
-0.476567 0.281051 0.385139 0.9733661 0.2284303 -0.01944622 
0.14338 -0.190732 -0.854077 -0.3196118 0.3360735 0.8859475 
0.37022 -0.259691 0.586542 -0.6362924 0.7324194 -0.2422681 
0.0858595 0.201757 -0.907088 -0.0964971 0.03549127 0.9947003 
-0.417991 0.00248371 0.694923 0.908337 0.2934077 -0.2980535 
-0.446358 -0.0315747 -0.417741 0.9881266 0.1525999 0.01786363 
0.512159 0.238286 0.427192 -0.9700007 0.2411878 -0.03045174 
-0.130575 -0.267325 0.789168 0.1092199 0.8394321 -0.5323766 
-0.401648 0.0205604 0.501027 0.9871854 0.14797 -0.05974959 
0.428461 0.179248 0.130792 -0.9704587 0.2374717 -0.04262856 
0.392323 -0.0396371 0.11299 -0.9589906 0.283012 -0.01553202 
-0.286783 -0.197346 -0.316359 0.3959567 0.917927 -0.02506712 
-0.463176 0.105222 0.399133 0.9782124 0.2074309 -0.008538395 
-0.0671417 -0.23357 0.42528 0.06993796 0.9960174 -0.05530009 
0.36211 -0.104983 0.754063 -0.7418092 0.3710814 -0.5585855 
0.121233 -0.294092 0.76239 -0.1309665 0.9730042 -0.1900283 
-0.135348 0.00698572 0.870683 0.2664342 0.4841981 -0.8334057 
-0.387211 -0.207192 -0.630426 0.8771966 0.4156733 0.2402958 
-0.429041 0.188291 -0.67234 0.8655394 0.1239813 0.4852528 
-0.456993 0.0550416 -0.0979827 0.981261 0.1893089 0.03590451 
-0.419436 0.118348 0.286276 0.9747652 0.2218417 0.02488007 
-0.442484 -0.0197582 0.541856 0.9885303 0.1357515 -0.06617608 
-0.471565 0.167229 0.100671 0.9809303 0.1931659 0.02150762 
-0.43308 0.211777 -0.131904 0.967716 0.2502631 -0.02990082 
0.316734 -0.17861 -0.193538 -0.4625909 0.8864674 -0.01360935 
-0.28295 0.169357 0.950166 0.4534391 0.474921 -0.7542168 
0.0871964 -0.225659 0.548575 -0.03983041 0.9938216 -0.1035964 
0.391141 0.260313 -0.770829 -0.7248957 0.1334002 0.6758186 
-0.505628 0.199062 0.163799 0.9843329 0.1763156 0.001290693 
0.396183 0.0643301 0.628283 -0.959462 0.2202855 -0.1758043 
0.243063 -0.214034 0.0777374 -0.135537 0.9903582 -0.02864251 
0.251123 0.256612 0.959571 -0.3855969 0.4702346 -0.7938478 
-0.281338 0.104316 0.920806 0.4879826 0.5175636 -0.702852 
-0.44787 0.266606 -0.242965 0.9640948 0.2646141 -0.02237474 
0.40023 -0.23769 0.146335 -0.9273037 0.3743048 -0.001956824 
0.30443 0.168006 0.935686 -0.5184637 0.396843 -0.7574372 
0.344575 -0.0494669 -0.754085 -0.7980494 0.1471113 0.5843589 
0.322395 -0.174286 0.315358 -0.6555548 0.7508229 0.0807023 
0.343187 -0.152195 -0.342107 -0.7744787 0.6273038 -0.08168616 
0.0197864 -0.22238 0.578558 0.03918558 0.9978541 -0.05245676 
-0.0671439 0.110046 0.987542 0.1073742 0.4541807 -0.8844154 
-0.458115 0.0644878 0.253432 0.9815127 0.1913353 0.004859187 
0.468506 0.279647 -0.00273852 -0.9644952 0.263889 0.01056897 
0.456811 0.203198 -0.691652 -0.8820077 0.1393144 0.4501711 
0.423801 0.28094 0.81793 -0.8450441 0.294074 -0.4465657 
-0.0314647 0.1734 -0.82699 -0.003370045 -0.004764896 0.999983 
-0.387842 -0.056732 -0.21334 0.9821527 0.1804875 0.05291843 
0.402067 0.00928689 -0.179658 -0.982428 0.1866168 -0.003095536 
0.391629 -0.0425251 0.221601 -0.9774596 0.2046898 -0.05171844 
0.206807 -0.222702 -0.162927 -0.07666954 0.9970522 -0.002956469 
0.252065 0.28107 -0.82402 -0.451685 0.08208451 0.8883934 
0.096186 0.186373 0.970128 -0.1265658 0.4959881 -0.8590559 
-0.506509 0.199052 -0.32187 0.9736492 0.2280506 0.000434571 
0.391682 -0.255627 -0.330079 -0.6680457 0.7440719 -0.008483772 
0.324849 -0.171866 -0.0122752 -0.6503916 0.7594854 0.01314342 
0.355485 0.131177 -0.694884 -0.7860403 0.1639139 0.5960478 
0.151456 -0.230132 -0.229444 -0.06267181 0.9979541 0.01265046 
0.421071 -0.119573 -0.580335 -0.9521114 0.2292592 0.202297 
0.184738 -0.191169 0.660138 -0.1780562 0.9742713 -0.1381719 
-0.361714 -0.120197 -0.493481 0.9067938 0.4092258 0.1012887 
-0.337304 -0.126917 0.610707 0.8523105 0.4723553 -0.2246046 
-0.238569 -0.00161179 0.82983 0.4590982 0.3818921 -0.8021142 
0.0650032 -0.18783 0.855434 -0.03710281 0.5486351 -0.8352383 
-0.379019 -0.0851843 0.348818 0.9303484 0.3653511 0.0311532 
0.25824 -0.151335 -0.719782 -0.6798722 0.3584911 0.6397328 
-0.485763 0.228009 0.739691 0.9317079 0.2459068 -0.2673018 
0.423368 0.198534 -0.543589 -0.9711991 0.1585449 0.1778648 
0.425505 0.00192685 -0.627012 -0.9374275 0.1553264 0.3116141 
0.351124 0.222679 0.977858 -0.5370888 0.3920846 -0.7468636 
-0.422703 0.201408 0.614225 0.9562301 0.2523623 -0.1481127 
0.257025 0.191473 -0.830477 -0.4860725 0.04062865 0.8729736 
-0.0698184 -0.233929 0.0184852 0.05050623 0.9987203 0.002608874 
0.282132 -0.199711 -0.290541 -0.3044949 0.9515445 -0.04296522 
-0.429735 0.188434 -0.299126 0.9701046 0.2426849 -0.0011253 
-0.006839 0.0673701 0.916733 -0.0261316 0.4597078 -0.8876857 
0.411906 -0.206148 0.331946 -0.9348714 0.3505774 -0.05577706 
-0.369562 -0.290506 -0.31905 0.2344646 0.9708518 -0.04973189 
-0.441287 -0.0704276 0.153926 0.9764445 0.213855 -0.02867303 
0.315363 -0.155648 0.778984 -0.6379642 0.4744839 -0.6065202 
0.340193 0.0924129 0.870479 -0.6266096 0.3839811 -0.6781732 
0.438726 -0.0881518 0.190735 -0.9736832 0.2277156 -0.009304717 
-0.175194 0.198559 1.05888 0.2449348 0.449358 -0.8591183 
0.49931 0.239657 -0.57378 -0.9670308 0.1397684 0.212876 
-0.0328121 -0.115463 0.894311 0.03458344 0.4067526 -0.9128835 
0.328729 -0.115487 0.654234 -0.7026879 0.5950797 -0.3900127 
0.230345 0.267098 1.0409 -0.2837783 0.4339414 -0.8550818 
0.428119 -0.146804 -0.151858 -0.9765308 0.2152123 0.008434827 
0.18018 0.00422155 0.921574 -0.2666542 0.4307603 -0.8621724 
0.452118 0.195048 -0.614977 -0.9424077 0.1202131 0.312116 
-0.504666 0.268201 0.0134539 0.9658123 0.2592358 -0.00192075 
-0.23956 -0.214712 -0.484412 0.2516053 0.9662874 -0.05462136 
-0.512515 0.215074 -0.0360874 0.9685345 0.2486761 -0.01005506 
-0.28947 -0.292176 0.687094 0.3363487 0.8970144 -0.2867659 
0.368933 -0.0788527 0.579556 -0.9384165 0.2927414 -0.1835127 
-0.0627826 -0.284648 0.780658 0.059306 0.9514311 -0.3020956 
0.447582 -0.014071 0.453564 -0.9906862 0.1320865 -0.03307743 
-0.0918471 0.0786903 0.916682 0.1641913 0.4413972 -0.8821619 
0.397885 0.231608 -0.646859 -0.8774272 0.07940957 0.4730916 
0.206775 -0.0812858 -0.844243 -0.351945 0.1427596 0.9250699 
0.167525 0.267868 1.00277 -0.2549431 0.4504029 -0.8556526 
0.458029 0.0792901 0.500777 -0.9698837 0.243322 -0.01095874 
-0.0385112 -0.227736 0.538848 0.01307726 0.994114 -0.1075475 
-0.14167 0.114168 0.978404 0.1983548 0.4985983 -0.8438336 
-0.383664 -0.0570272 -0.518802 0.9323776 0.3113116 0.1837308 
-0.430484 -0.122604 0.479804 0.9598519 0.2587346 -0.1083545 
0.312839 -0.181766 0.0730949 -0.5114127 0.8592573 -0.01157251 
-0.444163 -0.0494011 0.0510446 0.9700298 0.24279 -0.009761546 
0.356791 -0.13228 -0.39135 -0.8962528 0.4434706 -0.008047997 
-0.433213 0.213244 0.421669 0.9683607 0.2482594 -0.02539354 
-0.373284 -0.223079 0.640523 0.7571065 0.5777843 -0.3048854 
-0.168782 -0.205167 -0.695605 0.2610776 0.9449263 0.197365 
-0.253123 -0.0673258 0.779314 0.3877476 0.4536072 -0.8024291 
-0.0108896 -0.0851957 0.823431 0.01057878 0.4821288 -0.8760365 
0.395234 -0.0265576 -0.00745588 -0.9644502 0.2642078 0.005476242 
0.31602 0.25751 0.915138 -0.5742855 0.4311666 -0.6959106 
-0.152423 -0.227085 -0.578404 0.06375132 0.9940817 0.08796218 
-0.371374 -0.104318 0.166168 0.91988 0.3921616 -0.005473788 
0.389055 -0.0518855 0.408141 -0.9498501 0.3119417 -0.02184425 
-0.473589 0.280581 -0.428963 0.9774472 0.2060873 0.04609732 
-0.320537 -0.175711 0.186955 0.5937352 0.8041635 -0.02827756 
-0.110468 0.0046368 0.937324 0.1153364 0.4042892 -0.90733 
0.389989 -0.0367182 0.506346 -0.9691997 0.2365517 -0.06852199 
-0.122106 -0.232161 -0.120957 0.09991378 0.994996 -0.0005067522 
0.457578 0.0594554 0.03137 -0.979268 0.2025469 -0.002990511 
-0.428541 -0.087197 -0.567102 0.945813 0.2754178 0.1719964 
-0.186694 0.168086 0.991513 0.2733927 0.4458841 -0.8523167 
0.102663 -0.29128 -0.824119 -0.1512863 0.8700058 0.4692574 
-0.475732 0.281052 0.540267 0.9638991 0.2581974 -0.06505922 
0.358922 -0.129004 -0.0665826 -0.9471953 0.3206459 -0.002729028 
0.175981 0.183434 -0.861531 -0.2891206 0.04241594 0.9563525 
0.119464 -0.125997 -0.869687 -0.2479139 0.2612211 0.9329 
-0.227504 0.218153 0.949315 0.3784209 0.4746579 -0.7946682 
0.486537 0.279921 -0.256334 -0.9597818 0.2802674 0.01640112 
0.403571 0.01822 -0.316193 -0.9785251 0.2059828 0.007729227 
-0.401462 0.00583916 0.0368758 0.9830284 0.1833659 0.005677189 
0.439086 -0.0861856 -0.00330548 -0.9708838 0.2355504 0.04359507 
-0.256856 -0.112229 0.841187 0.3914022 0.4236463 -0.8169016 
0.322587 -0.174128 0.227717 -0.5918728 0.8043973 -0.05129844 
0.186117 -0.293463 -0.794548 -0.2508911 0.7871098 0.563482 
0.421783 0.26993 0.742149 -0.9209647 0.2595206 -0.2906428 
-0.218027 0.280103 -0.847553 0.3726714 0.00894221 0.9279203 
0.341246 0.00701653 0.831085 -0.6780511 0.3819053 -0.6280087 
-0.151147 -0.230153 0.0198299 0.1271307 0.9918859 -0.0003543934 
-0.204853 0.213793 -0.80544 0.3360852 0.1192726 0.9342488 
0.227835 -0.190197 0.815246 -0.4376876 0.5373762 -0.720872 
-0.394887 -0.0270755 0.414761 0.9706054 0.2406698 0.001818346 
0.399985 -0.238393 -0.016608 -0.8698936 0.492524 -0.02655911 
-0.358244 -0.130221 0.259095 0.9175444 0.3972809 0.01674054 
-0.294275 0.025704 -0.801552 0.6284911 0.1204707 0.7684307 
0.352447 -0.0417574 -0.658092 -0.8795786 0.1930741 0.4348149 
0.330333 -0.165391 0.459308 -0.7011736 0.7128339 -0.01494658 
0.424619 0.236549 0.647498 -0.9509575 0.2526337 -0.1784828 
-0.409839 0.220709 0.712845 0.9048457 0.3213384 -0.2792774 
-0.162386 -0.229056 -0.0589356 0.1173409 0.992824 0.02305883 
0.342876 0.211595 -0.81404 -0.5807807 0.06322218 0.8116013 
0.146561 -0.227833 0.488 -0.0458504 0.993903 -0.1002729 
-0.414043 0.120271 0.567202 0.9684055 0.2197981 -0.1178116 
-0.483772 0.280305 0.221191 0.9717306 0.2355466 -0.01603898 
0.395564 0.0504958 -0.577373 -0.9608546 0.1604042 0.2258961 
-0.421308 0.130807 -0.0727019 0.9742672 0.2235934 -0.02845069 
0.33975 -0.254293 0.671919 -0.6268837 0.6958625 -0.3504171 
0.266186 -0.232501 0.766446 -0.4201754 0.6315899 -0.6515725 
-0.391401 -0.04324 0.272247 0.960135 0.2784544 -0.02457263 
0.398989 0.00320843 -0.487586 -0.9766914 0.1888707 0.1019893 
-0.358377 -0.129771 -0.139525 0.8952973 0.4445007 0.02935587 
-0.343598 -0.151575 -0.335238 0.8313493 0.5517016 0.0669617 
0.284069 -0.190104 0.544406 -0.482556 0.8749614 -0.03977944 
-0.436636 0.236108 0.189504 0.9776504 0.2098252 -0.01315611 
-0.429148 -0.141689 -0.172912 0.9518069 0.3051976 -0.03029988 
0.0685936 -0.0357019 0.855299 -0.1434373 0.48288 -0.8638592 
-0.0323291 0.278496 1.06736 0.04420864 0.5466219 -0.8362117 
0.170396 -0.228195 -0.348447 -0.08892155 0.9957796 0.02271488 
0.463188 0.103906 0.0970852 -0.9683954 0.2487127 -0.01877161 
-0.36623 -0.292038 0.455951 0.4703819 0.8821962 -0.02169974 
0.122187 0.0340448 0.888294 -0.1480274 0.4606625 -0.8751445 
-0.247104 -0.188185 0.807252 0.4254467 0.4553014 -0.7821097 
0.408069 -0.213613 0.444729 -0.8831803 0.4631959 -0.07377139 
0.246703 -0.212982 0.157804 -0.1561736 0.9877256 0.002819294 
-0.453118 0.14961 -0.591248 0.9531482 0.192017 0.2337478 
0.434303 0.229158 -0.470456 -0.9685715 0.2148141 0.125396 
-0.0408938 -0.0644304 -0.836886 0.1174981 0.205666 0.971543 
-0.307264 -0.0178389 0.770202 0.7013108 0.3200128 -0.636989 
-0.0861717 0.0585152 -0.880993 0.152874 0.05207488 0.9868727 
-0.424834 -0.159076 0.39406 0.9168477 0.393166 0.06935947 
-0.230154 -0.212783 0.512039 0.02770052 0.9976387 -0.06284689 
-0.304135 -0.187086 -0.468754 0.4400423 0.8907332 0.1138296 
-0.365875 -0.295238 -0.413684 0.331549 0.9420763 0.05067161 
0.0307578 0.236699 1.00128 -0.06239723 0.5193059 -0.8523074 
-0.0985615 -0.233195 -0.261035 0.0907346 0.9958686 -0.00361604 
-0.241951 -0.209588 -0.577747 0.1933175 0.9803166 0.04009606 
-0.0854662 -0.132482 0.77557 0.09231727 0.6628553 -0.7430345 
-0.512382 0.211407 0.423184 0.9685676 0.2484728 -0.01175671 
-0.337529 0.270812 -0.743288 0.6972182 -0.04845196 0.7152198 
0.153166 0.245067 -0.823653 -0.266102 0.05079097 0.9626058 
0.0643916 0.129102 -0.884008 -0.1485246 0.03735261 0.9882031 
0.364875 -0.296412 0.0374495 -0.1657348 0.9846832 -0.05413878 
-0.432506 0.207765 -0.0603955 0.962825 0.2697974 -0.01331646 
0.278204 -0.226935 -0.776531 -0.5989262 0.4621016 0.6540256 
-0.456971 0.274972 -0.0382662 0.958945 0.2834139 -0.0100515 
-0.430958 0.196967 -0.223818 0.9726011 0.2321447 -0.01248984 
-0.132635 -0.23158 0.199234 0.07710299 0.9970145 0.004152952 
-0.34182 -0.214157 0.710313 0.7085096 0.431492 -0.5584164 
0.11247 -0.18903 -0.755699 -0.1341449 0.8007605 0.5837703 
-0.24456 -0.213589 0.110152 0.2007936 0.9790599 0.0335224 
0.512462 0.23553 -0.194652 -0.9672939 0.2523546 0.02568493 
