ply
format ascii 1.0
element vertex 800
property float x
property float y
property float z
property float nx
property float ny
property float nz
end_header
0.403648 -0.22932 -0.405098 0.923188 -0.384153 -0.0122583 
0.0892313 -0.247988 0.812297 0.0996824 -0.630613 0.769669 
0.392518 0.150135 -0.634628 -0.865471 0.161559 0.474193 
0.438341 0.272 -0.7042 0.572655 0.70956 -0.410598 
0.419291 0.117091 0.172153 -0.983025 0.183468 0.00143015 
0.425155 -0.159833 -0.407467 0.973336 -0.229012 -0.013092 
-0.241083 0.0724834 0.869093 0.418153 0.39637 -0.817336 
0.368054 -0.292641 -0.392575 0.811198 -0.58477 0.00131347 
0.509256 0.229082 -0.501489 0.979146 -0.158289 -0.127348 
-0.430292 0.18644 0.774633 -0.658758 -0.740495 0.133057 
-0.115882 0.280715 -0.864469 0.0914416 0.889913 0.44687 
0.353498 -0.128719 0.52262 -0.847438 0.521157 -0.101217 
0.140674 0.101772 0.919691 -0.183177 0.435749 -0.881232 
-0.419354 -0.179242 -0.466817 -0.964995 -0.260345 -0.0316954 
-0.157011 -0.287971 -0.810678 -0.277176 -0.519546 -0.808236 
-0.114662 0.202856 -0.902716 -0.147262 -0.294542 -0.944224 
-0.464248 0.113152 -0.420119 -0.998782 -0.0243974 -0.0428814 
0.0424475 0.131717 0.94815 -0.0665541 0.486713 -0.871023 
0.431821 -0.128801 -0.29696 0.980768 -0.194978 0.00881646 
-0.4062 0.0344098 -0.274451 0.985144 0.170998 -0.0158286 
-0.394709 0.140231 0.705829 0.956801 0.262504 -0.124995 
-0.302578 -0.185452 -0.539005 0.557864 0.827044 0.0691718 
-0.452486 0.0183452 0.112869 -0.9928 -0.117192 -0.0247955 
0.175956 -0.227589 0.140672 -0.129243 0.991613 0.000780307 
0.241131 -0.214592 0.238152 -0.267707 0.963499 -0.00139697 
-0.413422 0.0795875 -0.343644 0.988619 0.14757 0.0292546 
-0.0177272 -0.213796 -0.710749 0.00884796 0.964465 0.264061 
0.0690964 0.278738 -0.860903 -0.0893554 0.787392 0.609943 
-0.214781 -0.00391205 0.906534 -0.325202 -0.368584 0.870856 
-0.00364498 -0.234283 -0.343732 0.000706254 1 0.000479096 
-0.447632 -0.0219572 -0.22831 -0.99461 -0.103643 -0.00304517 
-0.393475 -0.251764 0.16434 -0.893302 -0.449262 0.0132754 
0.45245 0.0175986 -0.392076 0.992742 -0.119865 -0.0097425 
-0.496047 0.19906 0.580754 -0.895937 -0.423998 0.132374 
-0.355083 -0.12126 0.543063 0.860005 0.496597 -0.117399 
-0.0776714 -0.233761 -0.180487 0.019389 0.999812 -0.000202376 
-0.302386 0.127039 0.855882 0.619927 0.376046 -0.688679 
0.036946 -0.195838 0.678061 -0.00384918 0.930171 -0.367108 
0.381112 -0.273783 0.305755 0.855033 -0.518505 -0.0084154 
0.141486 -0.230919 0.35311 -0.0764862 0.99707 -0.000897771 
0.44324 -0.0516117 -0.45457 0.992255 -0.120632 -0.0296389 
0.270796 -0.0312719 -0.81376 0.526318 -0.0480965 -0.848926 
-0.0988375 -0.233185 -0.422038 0.0321733 0.999481 -0.00161076 
0.064246 -0.234007 0.0728179 -0.0124826 0.999921 0.00123807 
0.357584 0.16234 0.809961 -0.796415 0.21753 -0.564273 
-0.347847 -0.145885 -0.0294974 0.805884 0.592068 -0.00259302 
0.419549 -0.176219 -0.483983 0.965695 -0.257264 -0.0353338 
-0.383821 -0.0696633 -0.432699 0.957636 0.287569 0.0154053 
-0.354049 -0.136721 -0.263946 0.832536 0.553961 0.00335409 
-0.00731095 -0.234248 0.383498 0.000485995 0.999989 -0.00469029 
0.0445416 -0.0134788 -0.885685 0.113086 -0.0114674 -0.993519 
0.412722 0.0746695 0.326679 -0.986718 0.162413 0.00322817 
-0.423025 0.142262 0.182972 0.993299 0.106986 0.0437108 
-0.400602 -0.234911 0.405724 -0.91612 -0.400639 0.0146071 
-0.243229 -0.21354 0.424157 0.271577 0.962286 -0.0158927 
0.1788 -0.131711 0.757589 -0.215082 0.713031 -0.667328 
0.386139 -0.0627903 -0.141555 -0.960326 0.278875 -0.00134422 
-0.309375 -0.0778535 0.724706 0.675878 0.474534 -0.563921 
-0.0838006 -0.29544 -0.82442 -0.148199 -0.546046 -0.824543 
0.306766 -0.185878 -0.385847 -0.561339 0.827571 0.00505793 
0.375872 0.0680797 0.711549 -0.915758 0.237813 -0.323779 
0.239182 0.153493 0.911077 -0.461003 0.427019 -0.777902 
0.061963 -0.234031 -0.241019 -0.0126105 0.99992 -0.000232756 
0.00654496 -0.233273 0.452767 -0.000316486 0.999635 -0.0270284 
0.427144 0.0307139 0.681642 0.941346 -0.192519 0.277137 
0.449241 -0.00877315 0.173344 0.992751 -0.120193 -0.00013067 
0.331535 -0.0666547 0.807999 0.664659 -0.301941 0.683417 
-0.188935 0.118333 -0.856248 -0.484355 -0.0929947 -0.869915 
-0.207118 -0.198326 0.625913 0.194886 0.943044 -0.269606 
-0.0645532 -0.0467314 0.921764 -0.083464 -0.379559 0.921395 
0.429283 0.184984 0.0592323 -0.99692 0.0784253 0.00023236 
-0.412737 -0.0752412 0.661178 -0.938242 -0.203334 0.279923 
0.469814 0.279904 0.688971 -0.0142233 0.999159 -0.0384593 
-0.101248 -0.221452 -0.663027 0.0650753 0.982964 0.171892 
0.251635 -0.0337017 0.878052 0.406141 -0.362976 0.838629 
-0.185033 -0.226283 -0.229259 0.142117 0.989848 0.00166557 
0.423505 -0.166504 0.178927 0.971906 -0.235297 0.00586443 
-0.0182282 -0.227273 -0.64115 0.00401008 0.992154 0.124957 
0.512527 0.201752 -0.374152 0.933325 -0.356071 -0.0460299 
-0.340894 -0.0167908 -0.686699 0.818735 0.138592 0.557195 
0.150105 -0.230239 0.25481 -0.0881405 0.996108 -0.000560218 
-0.335671 -0.28807 0.624365 -0.7028 -0.637767 0.315159 
0.421748 0.133487 -0.120861 -0.990417 0.135713 0.0256292 
-0.344803 -0.15011 0.0445843 0.785689 0.618609 0.00385767 
-0.33476 0.227436 0.876786 0.702965 0.430946 -0.565797 
-0.110719 -0.120615 0.884212 -0.14409 -0.411858 0.899784 
-0.276972 -0.190686 0.563622 0.422087 0.893519 -0.15319 
-0.246177 -0.213123 -0.0892555 0.284384 0.958684 0.00714183 
0.446774 0.265139 0.137745 -0.777086 0.629394 0.000780516 
-0.472843 0.280404 0.315118 0.475431 0.879305 -0.0280888 
0.391708 -0.0421525 0.330625 -0.9732 0.229946 0.0025944 
-0.431322 -0.131317 -0.111338 -0.98098 -0.193991 0.00671306 
0.0548727 -0.233231 -0.546695 -0.0115109 0.999587 0.0263202 
0.193926 0.251246 -0.8826 0.369607 -0.0757905 -0.926092 
-0.389604 -0.0499244 -0.284954 0.970708 0.240261 0.000360872 
-0.00372286 -0.151578 -0.881224 0.00667157 -0.109446 -0.99397 
-0.447135 -0.0259724 -0.0161461 -0.990262 -0.139169 -0.00369995 
-0.269393 -0.0344061 -0.757216 0.595521 0.0924416 0.798003 
-0.251978 -0.211371 0.191265 0.30245 0.95316 0.00320787 
0.241419 -0.100061 0.854582 0.387127 -0.370504 0.84431 
0.0381448 -0.16274 -0.798928 -0.0591936 0.644971 0.761911 
-0.512515 0.201431 -0.226913 -0.941211 -0.337018 0.0232608 
0.435616 -0.10778 0.0937711 0.984977 -0.172643 -0.00390992 
0.420183 0.123143 -0.319955 -0.990275 0.136409 0.0273617 
-0.361122 -0.29643 -0.521059 -0.796465 -0.600401 -0.0718453 
-0.409778 0.0574691 0.421233 0.987295 0.156183 -0.0292501 
-0.10211 0.280781 1.04984 0.0877364 0.963851 -0.251583 
-0.413606 -0.173171 0.546199 -0.956184 -0.270016 0.113151 
0.217225 -0.205756 -0.651538 -0.260633 0.940441 0.21827 
-0.467192 0.134868 -0.125909 -0.951965 -0.306199 -0.00215824 
0.428057 0.186058 0.780397 0.676439 -0.736497 0.0015231 
-0.188996 -0.0893404 -0.794016 0.400447 0.207074 0.892616 
0.429852 0.189075 -0.403411 -0.99592 0.0890977 -0.0143351 
-0.348063 -0.145712 0.331054 0.804956 0.593317 0.00463745 
-0.424991 -0.160299 0.149061 -0.973993 -0.226555 -0.00336771 
0.297684 -0.159205 -0.780715 0.614575 -0.155562 -0.773368 
0.421862 0.145556 -0.47895 -0.985359 0.167744 0.0304887 
0.148225 -0.207203 0.831033 0.192951 -0.526881 0.827748 
-0.24998 -0.212023 0.326958 0.29795 0.954577 -0.00292673 
-0.0181877 0.162875 0.964718 0.0346888 0.450553 -0.892075 
-0.320376 -0.175701 -0.196841 0.639383 0.768885 0.00229436 
-0.450194 0.132414 0.657972 -0.950634 -0.246281 0.188785 
0.33155 -0.0106619 0.746072 -0.760671 0.36147 -0.539184 
-0.307024 0.0452003 0.877516 -0.579998 -0.32865 0.74538 
-0.386249 -0.00245887 0.766793 -0.843282 -0.254531 0.473381 
0.405894 -0.100119 -0.646531 0.929447 -0.141608 -0.340698 
0.297029 0.254741 1.01345 0.325086 -0.116307 0.938505 
-0.433026 0.211399 0.323863 0.983088 0.183129 -0.00138361 
0.103473 0.191127 -0.83379 -0.108672 0.014803 0.993967 
0.0595429 0.0497128 -0.839754 -0.0447198 -0.136032 0.989695 
0.180451 0.120412 -0.812269 -0.279816 0.0961999 0.955222 
0.486268 0.226955 0.737455 0.813485 -0.504245 0.289792 
-0.47355 0.183643 -0.433054 -0.851251 -0.523733 -0.0328013 
-0.0168771 -0.150077 0.759298 0.0109411 0.7895 -0.613653 
-0.370038 -0.0289282 -0.621619 0.928554 0.191873 0.317761 
-0.433805 0.200412 0.875277 -0.776006 -0.517794 0.360145 
0.284661 -0.176187 -0.647428 -0.570107 0.768078 0.291608 
-0.327701 -0.169144 0.113786 0.683112 0.730305 0.00342132 
0.0389985 0.265686 1.08 0.0854177 0.769441 0.63298 
-0.409151 0.0525165 -0.0451199 0.990087 0.140396 -0.00398128 
0.477222 0.281153 0.283754 -0.194458 0.980841 0.0117176 
-0.104591 -0.108443 -0.816902 0.222441 0.300444 0.927498 
0.392583 -0.241769 0.511696 0.898225 -0.431162 0.0853904 
-0.0222856 -0.234283 -0.114309 0.00288667 0.999996 3.81277e-05 
-0.0445646 -0.148333 -0.808767 0.0818681 0.547167 0.83301 
0.450157 0.207833 0.844615 0.742139 -0.631491 0.224607 
0.374978 -0.0627554 -0.57259 -0.951013 0.258094 0.170183 
0.163325 -0.204545 -0.700803 -0.189397 0.93012 0.314653 
-0.485882 0.20274 -0.624625 -0.741688 -0.577428 -0.341287 
-0.282097 0.28064 -0.814608 0.24599 0.931225 0.268904 
-0.0682184 0.196999 1.05301 -0.0832042 -0.805186 0.587156 
0.166378 -0.22863 0.0664888 -0.112562 0.993645 0.000261012 
0.394116 0.200042 -0.731431 0.47457 -0.532048 -0.701219 
0.457131 0.0560592 0.202942 0.995348 -0.0958266 -0.00995468 
-0.407441 0.0417756 0.167948 0.98537 0.17033 -0.00580029 
0.413028 0.0766903 -0.0775024 -0.984473 0.175347 -0.00814422 
0.285901 -0.197851 0.371895 -0.450122 0.892967 -0.000770578 
0.434625 0.222272 -0.139157 -0.973939 0.225089 0.0278969 
0.312934 -0.179998 -0.504973 -0.609732 0.791996 0.0311399 
-0.457176 0.0565182 -0.210783 -0.98685 -0.161614 -0.00271511 
0.43293 -0.0822049 0.546107 0.981565 -0.160599 0.103623 
0.203871 -0.223137 0.394449 -0.174376 0.984669 -0.00444053 
-0.421141 0.129732 -0.248838 0.985279 0.170733 0.00873942 
-0.235465 -0.0494935 -0.832506 -0.45166 -0.0579858 -0.890304 
-0.51108 0.223732 0.508768 -0.942115 -0.331387 0.0510162 
0.0849471 -0.233607 0.00118961 -0.0227745 0.999741 -2.21193e-05 
-0.348928 -0.144166 -0.415879 0.808202 0.588856 0.00760934 
0.450508 0.00264534 0.341284 0.986323 -0.163338 -0.0220848 
-0.471862 0.169384 0.00864128 -0.840158 -0.464805 0.279448 
-0.255104 -0.210276 -0.163346 0.316364 0.948632 -0.00336316 
0.0148031 -0.0459511 0.924718 0.0197218 -0.385457 0.922515 
0.0214887 -0.234284 0.185909 -0.00258349 0.999996 -0.00071687 
0.446617 -0.0299011 0.264331 0.99311 -0.116484 0.0127696 
-0.479702 0.28088 -0.108136 0.0918309 0.993421 -0.0684238 
0.379613 -0.0831919 -0.308868 -0.946409 0.322971 0.000222483 
-0.0434066 0.236937 1.00071 0.0341865 0.518351 -0.854484 
0.282921 0.127405 -0.813879 0.355892 -0.00819311 -0.934491 
-0.411945 -0.206353 0.249376 -0.944843 -0.327511 -0.00297798 
0.367367 -0.293593 -0.188443 0.810154 -0.586136 -0.00975074 
0.373435 -0.130055 -0.702804 0.841243 -0.161105 -0.516096 
-0.42454 -0.162309 -0.379017 -0.974807 -0.223041 0.00209892 
-0.347266 -0.0498911 -0.751216 -0.727789 -0.0899081 -0.679883 
0.378227 -0.0874532 0.276963 -0.941392 0.337315 0.000499282 
-0.0130497 -0.234284 0.10694 0.00166939 0.999999 0.000313519 
-0.438215 0.243471 0.0905772 0.917033 0.39486 -0.055999 
-0.405848 0.032018 0.349734 0.982667 0.184335 0.0196531 
-0.261573 0.090519 -0.7728 0.544209 0.0596045 0.836829 
-0.398455 -0.234898 -0.509256 -0.914935 -0.397988 -0.0670811 
0.244855 0.0432183 0.851374 -0.430376 0.388106 -0.814954 
-0.0260289 -0.0234476 0.865786 0.0278036 0.52977 -0.847685 
0.376609 -0.280847 -0.11371 0.836606 -0.547789 0.0041133 
0.373117 -0.097549 0.45946 -0.926697 0.374744 -0.0282946 
0.512558 0.230397 0.133465 0.981669 -0.171872 0.0823762 
0.055092 -0.215866 -0.699791 -0.0266257 0.971532 0.235406 
-0.472433 0.280333 -0.331834 0.261077 0.965315 0.00232094 
0.366815 0.254851 0.852538 -0.669719 0.620258 -0.408358 
0.385013 -0.0663479 -0.409897 -0.9606 0.277874 0.00587536 
-0.191723 -0.153702 0.848872 -0.283376 -0.434005 0.855183 
0.25321 -0.210954 -0.0906433 -0.310582 0.950539 -0.00386266 
0.263648 -0.287677 0.714922 0.425096 -0.695186 0.579663 
0.0514515 -0.249907 -0.854932 0.100831 -0.389006 -0.9157 
-0.10126 -0.233098 0.265372 0.0355474 0.999368 0.000179315 
0.0770351 0.0486635 0.960042 0.0987547 -0.384247 0.917934 
0.066894 -0.174021 -0.873455 0.137199 -0.151075 -0.978955 
-0.332477 0.280765 0.947004 0.185586 0.929512 -0.318692 
0.176426 -0.227522 -0.00301392 -0.127657 0.991817 -0.00180226 
-0.00615696 -0.234283 -0.416109 0.000999065 0.999999 -0.000963234 
0.202929 -0.27418 0.761946 0.260044 -0.677252 0.688264 
0.00503456 -0.271022 0.797221 -0.00209549 -0.686223 0.727388 
0.242558 -0.160587 0.689953 -0.340645 0.802089 -0.490524 
0.326152 0.0695023 0.800988 -0.729395 0.302764 -0.613447 
-0.341894 -0.148822 0.755782 -0.715582 -0.348534 0.605365 
0.283228 0.202699 -0.765872 -0.483726 0.00437137 0.875209 
0.369978 -0.103319 -0.488194 -0.919163 0.39161 0.0422142 
0.42003 0.122019 0.02972 -0.982864 0.18369 -0.0153873 
0.247768 -0.212674 0.312892 -0.288935 0.957346 0.00211117 
-0.389674 -0.0498328 -0.0595356 0.968542 0.248848 0.00106855 
0.416563 -0.192363 -0.212856 0.958605 -0.284633 -0.00783145 
-0.365315 -0.295803 0.246507 -0.811286 -0.584609 0.00690103 
-0.38986 -0.259181 0.0832972 -0.878349 -0.477768 -0.015486 
0.42461 -0.057933 0.627161 0.961742 -0.181242 0.205435 
-0.230024 -0.190691 -0.818838 -0.465452 -0.200237 -0.862125 
0.50092 0.273468 0.363914 0.570062 0.814999 0.103949 
-0.0796875 -0.195903 -0.750524 0.0875698 0.879238 0.468266 
0.340632 -0.155165 -0.303979 -0.761079 0.648644 -0.00440225 
0.395236 -0.236268 -0.540358 0.908764 -0.403346 -0.107051 
0.212632 -0.169569 -0.831868 0.421796 -0.144003 -0.895182 
0.510236 0.254503 0.199518 0.978337 0.200791 -0.050402 
-0.173118 -0.227897 0.327273 0.122174 0.992508 0.00128224 
0.318304 0.049279 -0.785702 0.628496 -0.0863417 -0.773005 
0.103992 -0.0996892 0.804392 -0.109028 0.644968 -0.756392 
-0.449708 0.277608 0.653934 0.681303 0.719071 -0.136977 
0.0936626 -0.233374 -0.0717498 -0.0285208 0.999593 0.000292984 
-0.04615 -0.225208 -0.864107 -0.103682 -0.307748 -0.945802 
-0.342205 -0.240909 -0.699319 -0.778732 -0.388999 -0.492196 
-0.345811 -0.293009 -0.618944 -0.776613 -0.584302 -0.235506 
0.51256 0.204164 -0.131531 0.878102 -0.46009 -0.131351 
0.423648 0.146207 0.34089 -0.992993 0.117985 0.00661429 
0.0992878 0.280091 1.04137 -0.0974669 0.980601 -0.170065 
0.25209 -0.211347 -0.00481551 -0.305176 0.952296 0.000683496 
-0.385366 -0.266815 -0.145296 -0.868667 -0.495357 -0.00622062 
-0.326208 -0.109009 -0.66787 0.814051 0.371963 0.446054 
-0.409608 -0.21362 -0.190881 -0.940563 -0.339589 -0.00443082 
0.378543 -0.277512 0.383123 0.84933 -0.527619 0.0160068 
0.261499 -0.185813 0.615918 -0.372928 0.888895 -0.266064 
0.407772 0.0435762 0.146844 -0.988079 0.153786 -0.00708596 
-0.42264 0.142253 0.450018 0.990055 0.140682 0.000842909 
0.356722 -0.294347 -0.569772 0.795006 -0.589313 -0.143787 
0.482488 0.280421 -0.442902 0.0427204 0.999065 -0.00660125 
0.120657 -0.232243 -0.151729 -0.0529078 0.998599 0.000272079 
-0.336283 -0.0848169 0.794767 -0.680433 -0.313387 0.66242 
0.451158 0.049594 -0.527158 0.991645 -0.114147 -0.0600806 
0.455964 0.280951 -0.610864 -0.0244678 0.998253 -0.0537739 
-0.438802 -0.0845796 0.409416 -0.988825 -0.148333 0.0149112 
0.266054 -0.205427 0.458868 -0.354351 0.934287 -0.0392821 
-0.365813 -0.295327 -0.211886 -0.810455 -0.585719 -0.00980959 
-0.380823 -0.0482192 0.567102 0.955847 0.263593 -0.129905 
-0.295082 -0.143642 0.667897 0.574632 0.6957 -0.431046 
0.355528 -0.205881 -0.700911 0.818351 -0.277761 -0.50314 
-0.394072 -0.0312696 -0.359377 0.976709 0.214567 -0.000253658 
-0.27363 -0.281341 -0.747957 -0.572936 -0.50727 -0.643756 
-0.411294 -0.208655 -0.105745 -0.945107 -0.326758 0.00137269 
0.0903092 -0.233492 -0.431042 -0.026432 0.99965 -0.000900472 
-0.0865705 -0.0721125 0.828437 0.0907692 0.591026 -0.801529 
-0.378009 -0.0163609 0.629786 0.941489 0.240354 -0.236281 
-0.254862 0.207153 1.03661 -0.314344 -0.811492 0.492614 
0.416797 -0.191554 -0.0683474 0.958586 -0.2848 -0.00132148 
0.463376 0.279901 0.604152 -0.390144 0.920468 0.0229449 
0.41525 -0.134075 0.597788 0.955308 -0.225962 0.190599 
0.454342 0.0331323 -0.0366344 0.99666 -0.0816246 -0.00241692 
0.44754 0.170668 0.70714 0.717749 -0.576479 0.390523 
-0.419172 -0.112995 0.601383 -0.961459 -0.2003 0.18835 
-0.457177 0.0565566 0.0312433 -0.995436 -0.0682384 0.0667199 
-0.438347 0.280125 0.761707 0.365222 0.930666 -0.0217826 
0.213591 0.0914415 0.947648 0.29541 -0.288941 0.910629 
0.0901937 0.197532 1.05905 0.0687846 -0.753873 0.65341 
-0.43561 0.229437 0.0172949 0.97482 0.220235 0.0349722 
-0.265097 -0.246803 0.755601 -0.438384 -0.586418 0.681127 
-0.307935 0.0460232 0.807121 0.657609 0.363355 -0.659943 
-0.426444 0.184691 -0.496109 0.990183 0.0738341 0.118684 
-0.254216 -0.210588 -0.238273 0.315807 0.948822 0.0015156 
0.250936 -0.0272554 0.807704 -0.442784 0.483484 -0.755106 
-0.155502 -0.0586764 0.825703 0.209962 0.554176 -0.805484 
0.4493 -0.00852624 -0.234381 0.992951 -0.117776 -0.0133068 
0.124088 -0.0413316 -0.872736 0.199372 -0.00483544 -0.979912 
0.177291 -0.227398 -0.0987408 -0.128219 0.991744 0.00180717 
-0.49224 0.199129 -0.54846 -0.833715 -0.550593 -0.0420421 
-0.400266 0.254345 -0.6527 0.747032 0.510313 0.426055 
-0.512515 0.222148 0.262447 -0.961776 -0.273287 0.0173525 
-0.388919 0.251912 0.806315 0.766234 0.55545 -0.323049 
0.499816 0.219855 0.659924 0.848865 -0.528201 0.020799 
0.510076 0.205225 0.53374 0.864658 -0.459718 0.202549 
0.106407 0.117514 -0.827017 -0.103278 0.0355049 0.994019 
-0.0623849 -0.234026 0.201417 0.0128945 0.999917 -0.000331018 
-0.450122 0.00566506 0.446468 -0.993657 -0.110357 0.0215953 
8.42617e-05 0.264343 -0.907798 -0.079761 0.557606 -0.826265 
-0.47334 0.280582 0.47005 0.519118 0.854685 0.00558572 
0.261536 -0.208025 -0.434664 -0.342541 0.939497 0.00336166 
-0.299654 -0.190382 -0.389267 0.524264 0.851555 0.00137883 
0.471909 0.169462 0.193718 0.868056 -0.477863 0.134632 
-0.401029 0.0473624 0.570222 0.978098 0.184026 -0.097261 
-0.0404362 0.201785 -0.91138 -0.0655513 -0.247316 -0.966715 
0.512539 0.19926 0.367708 0.935822 -0.349004 -0.0493279 
0.466063 0.125963 -0.0663234 0.935656 -0.352228 0.0220058 
0.419117 0.11818 0.443342 -0.982503 0.185414 -0.0176014 
-0.37606 -0.164456 -0.685833 -0.864732 -0.206481 -0.457825 
-0.418641 0.268628 0.889395 -0.537767 0.789556 0.295647 
0.364727 -0.29651 0.239081 0.802503 -0.596601 -0.00757236 
0.401402 -0.0327243 0.71986 0.907319 -0.191427 0.374336 
-0.0659451 -0.214911 0.838815 -0.0707725 -0.554753 0.828999 
-0.269832 -0.137563 -0.720079 0.605667 0.500507 0.618595 
-0.457715 0.0709102 0.476064 -0.986054 -0.164913 -0.0224084 
-0.17603 -0.150445 -0.850061 -0.343011 -0.132038 -0.930005 
-0.37806 -0.278787 -0.0755641 -0.84817 -0.529641 0.00940549 
0.00240803 -0.234284 0.269351 -0.000177666 1 0.000272179 
0.299207 -0.0931506 -0.715286 -0.711017 0.241506 0.660401 
-0.330306 0.219341 0.994092 -0.49168 -0.703707 0.512881 
-0.189402 0.00444026 -0.805458 0.392856 0.0872909 0.915448 
-0.416614 0.0999987 -0.172759 0.98543 0.170015 0.00476725 
-0.166477 -0.220588 -0.838839 -0.312122 -0.280253 -0.907765 
0.364547 0.163807 0.879843 0.476306 -0.609915 0.633353 
-0.368949 -0.108356 0.433528 0.907459 0.41966 -0.0200827 
-0.0934019 -0.0167435 -0.879359 -0.204522 0.0109919 -0.9788 
-0.42925 0.185048 0.242787 0.994187 0.106741 0.0140811 
-0.271696 0.222756 -0.773974 0.490988 0.195104 0.849038 
0.343916 -0.282069 -0.648504 0.779678 -0.542108 -0.313403 
-0.138401 0.0637281 -0.824361 0.21108 -0.0635627 0.9754 
0.322998 0.280725 -0.789606 -0.0975036 0.994754 0.0309404 
0.501031 0.273404 -0.374487 0.54263 0.839897 0.0112139 
-0.391623 -0.0423761 0.197323 0.975161 0.221496 0.000471241 
-0.00332843 0.209628 1.08626 -0.0188568 -0.690708 0.722888 
-0.509539 0.25725 -0.27601 -0.896218 0.443421 0.0130759 
0.0782201 -0.23348 0.415707 -0.019501 0.999751 -0.0108738 
-0.429925 -0.137932 0.0536425 -0.981677 -0.189879 0.0160182 
0.445004 -0.0433697 -0.0643759 0.989514 -0.144313 0.00600626 
0.445158 -0.0422012 -0.315053 0.992591 -0.12142 -0.00448318 
0.0112196 -0.234283 -0.0524146 -0.00160127 0.999999 -0.000320858 
-0.233974 -0.216647 -0.394312 0.247476 0.968891 0.00221922 
0.402883 -0.231201 0.0699195 0.920842 -0.389936 0.000434608 
-0.437431 -0.0962701 -0.0259769 -0.988651 -0.150211 -0.00224568 
-0.0178356 -0.234283 -0.270874 0.00240352 0.999997 -0.000118641 
0.0900717 -0.213148 0.618397 -0.0371483 0.973185 -0.227004 
0.342869 0.113354 -0.770501 0.705948 -0.0392182 -0.707177 
0.36032 -0.126558 -0.173748 -0.870164 0.492749 0.00362604 
0.479263 0.280948 -0.147155 -0.229666 0.973259 -0.00448241 
-0.178135 0.0556522 0.943679 -0.261582 -0.357683 0.896459 
-0.0935442 -0.164844 -0.870585 -0.189077 -0.168278 -0.967436 
-0.383708 0.225721 0.946984 -0.607302 -0.478423 0.634268 
0.399629 -0.00431335 -0.105172 -0.984124 0.177374 -0.00624812 
0.437126 0.238198 0.327143 -0.946084 0.323153 0.0222859 
-0.315672 -0.179448 -0.0825853 0.614319 0.789052 0.00294104 
-0.246528 -0.129594 0.728124 0.380919 0.685987 -0.619938 
-0.388839 -0.0530413 -0.141487 0.967876 0.251392 -0.00434835 
-0.00599248 -0.177346 0.864167 -0.00326795 -0.483111 0.875553 
-0.354268 -0.294108 0.545487 -0.768653 -0.622585 0.146837 
-0.0966536 -0.220393 0.58157 0.0394381 0.984931 -0.168393 
0.430116 0.190908 0.402583 -0.99715 0.0751486 -0.00669754 
0.000590101 -0.234283 0.0258483 -0.000555213 1 -4.31511e-05 
-0.438515 -0.089499 -0.3211 -0.986066 -0.166344 -0.00195583 
-0.198895 -0.0832744 0.879181 -0.301942 -0.375788 0.876136 
0.143927 -0.0855711 -0.812435 -0.315265 0.196272 0.928485 
-0.360362 0.175325 0.812734 0.783046 0.189376 -0.592432 
0.426197 -0.155184 0.254546 0.973558 -0.228436 -0.00165782 
-0.0889124 0.127256 -0.82699 0.0456735 -0.0182783 0.998789 
-0.0703125 -0.233797 -0.498469 0.0155074 0.999854 0.00719392 
-0.328897 0.202951 -0.822724 -0.420668 -0.471774 -0.774898 
-0.364705 0.0893358 0.752543 0.850155 0.368213 -0.376372 
0.202734 0.0429872 -0.849623 0.37594 -0.0027264 -0.92664 
0.354515 -0.192722 0.709071 0.770339 -0.396822 0.499109 
-0.455059 0.0645455 -0.503686 -0.988726 -0.114698 -0.096253 
0.444876 0.0178103 0.570235 0.988073 -0.137618 0.0690922 
0.0242021 -0.234258 -0.479437 -0.0025226 0.999993 0.00286825 
0.245739 -0.213265 -0.362294 -0.282476 0.959273 0.00159255 
-0.404011 -0.2277 0.320489 -0.921726 -0.387835 -0.00246024 
-0.188303 -0.225815 0.246948 0.144411 0.989517 0.00140262 
0.0457 0.163468 1.01354 0.0430515 -0.706931 0.705971 
-0.407898 -0.208685 0.484643 -0.940709 -0.333987 0.0593239 
0.431143 -0.128077 0.426074 0.979751 -0.199724 0.0141123 
0.421596 -0.155528 0.510866 0.969522 -0.233419 0.074447 
-0.294896 -0.0393528 0.849953 -0.53839 -0.332311 0.774407 
-0.40384 0.101755 -0.69871 -0.901688 0.0429943 -0.430244 
-0.386631 -0.132799 0.693379 -0.881069 -0.265884 0.391183 
0.149178 -0.00237656 -0.819915 -0.321561 0.0385107 0.946105 
-0.404943 0.0317693 -0.458744 0.990346 0.136811 0.0223227 
-0.166149 -0.22865 0.0966454 0.112596 0.99364 0.00128093 
-0.397643 0.0855769 0.64382 0.957304 0.17974 -0.226411 
-0.414752 -0.172717 -0.549778 -0.96084 -0.246527 -0.126532 
-0.48079 0.19902 0.661187 -0.831852 -0.537325 0.138939 
0.492166 0.278447 0.0849516 0.381865 0.924183 0.00808321 
0.42035 0.12422 -0.23361 -0.984533 0.165583 -0.0572385 
0.420201 0.123125 0.262178 -0.981499 0.191438 -0.00334889 
-0.337209 0.18662 -0.722576 0.675272 0.0243507 0.737166 
-0.167481 -0.172578 -0.757798 0.289414 0.718235 0.632755 
-0.486677 0.279896 -0.185702 -0.202171 0.978978 0.0270129 
-0.300467 -0.189979 0.281807 0.528532 0.848909 -0.00270093 
0.421501 -0.174845 0.109206 0.967591 -0.252523 -0.000851607 
0.366006 -0.29513 0.167897 0.803049 -0.595871 0.00704578 
0.353969 -0.137026 0.387182 -0.834197 0.551438 -0.00560361 
0.32321 -0.173508 0.15512 -0.654844 0.755764 0.000549245 
-0.0223628 -0.23327 -0.553114 0.00329861 0.999604 0.0279543 
0.406685 -0.221537 0.239473 0.932622 -0.36084 0.00342462 
-0.40565 -0.127371 -0.634057 -0.935581 -0.164663 -0.312368 
0.437448 -0.0964394 -0.370944 0.987799 -0.155667 0.00458449 
0.132539 -0.230479 -0.542934 -0.074126 0.996737 0.0319544 
0.340417 -0.0593378 0.694826 -0.811335 0.385609 -0.439364 
-0.512508 0.211002 0.348407 -0.918521 -0.394105 -0.0316263 
-0.307672 -0.185349 0.377866 0.5639 0.825842 0.0013169 
-0.170363 -0.0472928 -0.859392 -0.300595 -0.0331645 -0.953175 
0.427512 0.17943 0.483546 -0.998896 0.0393071 -0.0257269 
0.127505 0.0681384 -0.873031 0.200068 -0.0198626 -0.979581 
0.388124 -0.194378 0.634445 0.896344 -0.341451 0.282805 
-0.141727 0.245923 0.992192 0.180198 0.608882 -0.772523 
0.40354 0.0177692 0.0475059 -0.989822 0.142179 0.00614158 
-0.34023 -0.134662 -0.745677 -0.73772 -0.125197 -0.663396 
-0.426137 0.179495 0.522092 0.988111 0.147522 -0.0432815 
-0.0633078 -0.234016 0.332579 0.0124025 0.999922 0.00121224 
0.210864 -0.221949 -0.28826 -0.19162 0.981469 -0.000247615 
-0.373032 0.108654 0.841554 -0.755626 -0.369804 0.540624 
0.0528706 -0.234127 -0.13037 -0.00973355 0.999953 -2.81011e-05 
0.383795 -0.268493 -0.460885 0.864578 -0.50229 -0.0144804 
-0.450965 0.00600193 0.210487 -0.993762 -0.106492 0.0330978 
-0.288866 -0.209606 -0.774207 -0.605941 -0.271842 -0.747621 
-0.424557 0.235693 -0.566802 0.884537 0.399494 0.24083 
-0.2987 -0.175621 -0.614904 0.604976 0.767643 0.211489 
-0.446719 -0.0279184 0.364273 -0.992003 -0.126153 0.00385819 
0.00799862 -0.0759783 -0.886562 0.0466444 -0.045648 -0.997868 
-0.435921 -0.105703 -0.236944 -0.983679 -0.179884 -0.00414577 
-0.449988 -0.0016535 0.298937 -0.995166 -0.0970489 -0.0150352 
-0.173253 -0.227255 0.43279 0.126521 0.991689 -0.0233377 
0.437953 0.242056 -0.21482 -0.923135 0.378918 0.0651385 
0.379478 -0.00438342 0.636883 -0.945702 0.244808 -0.213816 
0.25424 -0.297377 -0.749462 0.505354 -0.580173 -0.638762 
-0.223563 0.280528 1.01168 0.174242 0.875182 -0.451327 
0.00171984 0.0501441 -0.887688 0.00545116 0.056109 -0.99841 
0.467079 0.187441 0.592726 0.701898 -0.683753 0.199552 
0.440743 0.252543 -0.315642 -0.862279 0.504889 -0.0395141 
0.364413 -0.296924 -0.270501 0.80123 -0.598339 0.00449798 
-0.0256514 -0.210619 0.632561 0.00382249 0.965871 -0.258996 
-0.335195 0.0859439 -0.712458 0.773729 0.0899321 0.627101 
0.188135 -0.212556 0.578142 -0.143494 0.975342 -0.167683 
0.430247 0.19171 -0.068655 -0.990373 0.138409 -0.00191736 
-0.51096 0.230173 -0.473551 -0.900922 -0.429244 0.063944 
-0.0383826 0.00641956 -0.841642 0.0745775 -0.0416084 0.996347 
0.380404 0.0797715 -0.639955 -0.90012 0.11096 0.421275 
-0.0123577 -0.285081 -0.838994 -0.0333033 -0.517994 -0.854736 
0.220799 -0.214931 0.512543 -0.211347 0.973584 -0.0864051 
0.454104 0.0311941 -0.137637 0.996811 -0.0798022 0.000516877 
-0.21932 0.144316 0.91576 0.391584 0.441359 -0.807381 
0.293307 -0.187914 -0.572561 -0.532943 0.838794 0.111338 
0.512559 0.221678 0.264098 0.879437 -0.464632 -0.103479 
-0.437296 0.239187 -0.382601 0.944107 0.329526 -0.00860631 
0.187355 -0.165328 -0.755348 -0.346979 0.662492 0.663859 
-0.348878 -0.127906 -0.574709 0.861071 0.481656 0.162988 
-0.15235 -0.211554 0.827332 -0.200202 -0.53296 0.822115 
-0.0493014 0.240843 -0.841646 0.00956374 0.381691 0.92424 
-0.431717 -0.12829 0.302521 -0.981706 -0.190381 -0.00275342 
-0.137987 0.197643 -0.826182 0.188741 0.0784729 0.978887 
-0.425743 0.160797 -0.380986 0.991355 0.13053 -0.0132998 
0.434504 -0.11405 -0.0840198 0.985188 -0.171044 0.0121548 
0.369911 -0.107639 0.141062 -0.912301 0.409518 0.00141132 
0.141416 -0.0488191 0.835797 -0.177867 0.544678 -0.819566 
0.471894 0.169314 -0.256452 0.834685 -0.518478 0.185694 
-0.459148 0.241171 0.824132 -0.957527 -0.0444775 0.284894 
-0.418699 0.113513 0.00712958 0.977596 0.201248 0.0616889 
0.0580063 -0.234073 0.339039 -0.0112922 0.999936 -0.000257709 
-0.473864 0.28058 0.141205 0.322559 0.946148 0.0275464 
-0.241679 -0.191687 -0.671584 0.389592 0.861493 0.32565 
0.111682 -0.190923 0.684713 -0.0700174 0.914651 -0.398133 
0.409094 0.0520333 -0.250815 -0.986624 0.162034 -0.0178435 
0.414017 -0.20075 -0.291326 0.952446 -0.304344 0.0148991 
-0.394758 -0.0705497 -0.680781 -0.88351 -0.113866 -0.454361 
-0.432846 -0.122937 -0.0927816 -0.982574 -0.185842 0.00340062 
0.0219613 0.109458 -0.826988 0.040123 -0.123618 0.991518 
0.074375 -0.227716 -0.628566 -0.02818 0.993361 0.111533 
0.0720355 -0.0891523 -0.828686 -0.146251 0.213672 0.965896 
0.389395 -0.189977 -0.640153 0.90727 -0.267264 -0.3247 
0.105617 0.109467 0.98276 0.105613 -0.407772 0.906955 
-0.512509 0.234223 0.0997543 -0.951387 -0.264974 -0.157008 
0.413288 0.125539 0.584199 -0.957119 0.257224 -0.133267 
-0.0139594 0.123424 -0.88738 0.0191527 -0.156761 -0.987451 
-0.387815 -0.233732 0.570736 -0.888231 -0.426653 0.170333 
-0.417794 0.11745 -0.475117 0.975523 0.217075 0.0351302 
0.33217 -0.125119 -0.637885 -0.825552 0.461766 0.324402 
0.244253 0.184833 0.97677 0.338469 -0.689336 0.640511 
-0.181538 -0.111304 0.776726 0.240698 0.655263 -0.716027 
-0.425049 0.156016 0.368172 0.99173 0.12631 -0.0227333 
-0.43317 0.00237201 -0.600001 -0.961245 -0.139082 -0.238042 
-0.420327 -0.179085 -0.256922 -0.965793 -0.259227 0.0066995 
0.16832 0.145389 0.986432 0.337893 -0.567173 0.751095 
0.0875035 -0.233552 -0.35882 -0.0252159 0.999682 -5.27186e-05 
-0.454817 0.037367 -0.387315 -0.989885 -0.140359 0.0206562 
-0.512296 0.237006 -0.386907 -0.967035 -0.244309 -0.0718002 
0.434751 -0.091135 -0.512191 0.986322 -0.142416 -0.0829848 
0.365627 -0.116633 0.0489031 -0.891837 0.452357 -0.00039344 
0.447429 0.0986865 -0.588066 0.983858 0.0355167 -0.175391 
-0.175345 -0.227646 -0.455814 0.128059 0.991763 0.0024706 
0.0597724 -0.15311 0.753354 -0.0393912 0.794507 -0.605976 
-0.375359 -0.0945998 0.0108235 0.930382 0.366577 0.00336964 
-0.399176 0.0352714 -0.542333 0.982111 0.12184 0.143575 
-0.429031 -0.141877 0.220516 -0.978011 -0.208549 0.00128709 
-0.366627 -0.294069 0.37426 -0.809391 -0.587263 0.00305401 
-0.448053 -0.0185539 -0.309197 -0.994434 -0.105327 -0.00276459 
0.0951806 -0.121939 0.885895 0.117722 -0.417488 0.901025 
0.186728 -0.226047 -0.445713 -0.146765 0.989168 0.00267384 
-0.383171 0.0596664 -0.625624 0.937791 0.105791 0.330691 
0.51256 0.218304 0.0470813 0.959947 -0.275533 0.0508251 
-0.0879644 -0.233541 0.130869 0.0251025 0.999685 -1.13813e-06 
0.459972 0.0867071 -0.465897 0.96559 -0.248714 -0.07601 
-0.300015 -0.190214 -0.00263422 0.526843 0.849959 -0.00257468 
0.115174 -0.232546 -0.29323 -0.0472575 0.998883 3.23647e-05 
0.404828 0.0345342 0.48268 -0.988702 0.145106 -0.0375766 
-0.22704 -0.218323 0.036003 0.228607 0.9735 -0.0061103 
-0.437728 0.0257076 0.629033 -0.969096 -0.149601 0.196146 
0.37751 0.0144254 -0.723573 0.765422 -0.103308 -0.635183 
0.450773 0.00384265 0.0976039 0.995751 -0.0918498 0.00659232 
-0.436832 -0.0918083 -0.474122 -0.987895 -0.149709 -0.0406168 
-0.0935938 0.193147 0.973865 0.169766 0.437202 -0.883195 
-0.341893 0.162718 0.902931 -0.37023 -0.58545 0.721234 
-0.192698 0.204698 -0.884183 -0.315178 -0.398275 -0.861417 
-0.358947 0.0270027 -0.747155 -0.70717 -0.0789478 -0.702622 
0.0107022 -0.234283 -0.189515 -0.000936523 1 0.000107293 
0.465401 0.120928 -0.176961 0.976494 -0.196484 -0.0886179 
0.191362 0.197158 1.03127 0.355607 -0.693085 0.627038 
0.368939 -0.288383 0.454666 0.818781 -0.572636 0.041052 
-0.156897 -0.229649 -0.379172 0.0961663 0.995365 -7.76153e-05 
-0.205623 -0.222914 -0.296235 0.179777 0.983704 -0.00271628 
0.479769 0.280549 0.533739 -0.0191413 0.997491 -0.068157 
-0.438243 0.23777 -0.722442 -0.822273 -0.324165 -0.467744 
0.239593 -0.0881099 0.771282 -0.395932 0.571892 -0.718455 
-0.387246 0.206053 -0.778719 -0.692278 -0.413062 -0.591719 
0.241903 -0.213683 -0.507544 -0.274151 0.961457 0.021013 
0.389014 -0.052442 -0.239446 -0.96701 0.254732 0.00197316 
0.512558 0.201599 -0.304004 0.874412 -0.457134 0.162578 
0.103905 -0.0405278 0.91981 0.137271 -0.377087 0.915949 
0.458008 0.0629147 -0.336877 0.98248 -0.184542 0.0260106 
0.42272 -0.169931 0.0166922 0.970423 -0.241377 -0.00410405 
0.406541 0.0359405 0.249894 -0.989139 0.146743 0.00844919 
0.249565 -0.212159 -0.222615 -0.298097 0.95453 0.00340482 
0.167417 -0.133889 0.865889 0.23985 -0.415258 0.877515 
-0.163747 -0.181153 0.692051 0.14582 0.883412 -0.44533 
-0.447238 -0.0251452 -0.108319 -0.993671 -0.111791 0.0110026 
-0.445907 -0.0129033 -0.500453 -0.990217 -0.12258 -0.0666662 
0.325915 -0.170801 -0.114775 -0.675058 0.737754 -0.00410397 
-0.469736 0.280855 -0.524379 0.416211 0.909242 -0.00681696 
-0.407506 0.0100023 -0.673804 -0.894425 -0.11306 -0.432691 
0.51256 0.199378 -0.0355635 0.875469 -0.481567 0.0405804 
0.0928178 -0.233404 0.203954 -0.0278957 0.99961 -0.00136728 
0.347169 -0.134957 -0.560842 -0.841252 0.523455 0.135244 
-0.45967 0.28055 -0.609431 0.235274 0.965945 0.107688 
0.212774 -0.217722 -0.574938 -0.206851 0.975646 0.0729892 
-0.512515 0.223824 -0.143373 -0.964712 -0.262298 0.0230388 
-0.465122 0.119126 -0.310135 -0.951632 -0.30328 -0.0491625 
0.402573 0.221702 0.925036 0.594978 -0.610645 0.522603 
-0.174943 -0.217102 0.562416 0.128838 0.980855 -0.14603 
-0.425716 0.0719848 0.714597 -0.943678 -0.167984 0.285049 
0.400874 -0.120388 0.665706 0.924187 -0.234488 0.301487 
-0.331968 0.130546 -0.781017 -0.535425 -0.240573 -0.809595 
0.406992 0.0391135 0.398622 -0.987442 0.157961 -0.00250972 
-0.404402 0.0233 -0.16159 0.987323 0.158719 0.000984449 
-0.133869 -0.228206 0.497673 0.0726234 0.994866 -0.0704797 
0.23816 0.0373201 -0.783522 -0.525362 0.0325991 0.850254 
-0.383795 -0.0749896 0.734095 -0.859527 -0.238599 0.451978 
-0.403872 -0.228684 -0.307064 -0.92087 -0.389823 0.00602948 
0.442239 0.269507 -0.542533 -0.716277 0.681065 0.151981 
-0.0859882 -0.233583 -0.345288 0.0243093 0.999704 0.000651575 
0.442698 0.258225 0.448434 -0.826987 0.561683 -0.0245882 
0.403223 0.106281 0.79177 0.955609 -0.104663 0.275423 
0.441852 0.102547 0.674216 0.951632 -0.086178 0.294907 
0.281559 0.096027 0.916974 0.535365 -0.256545 0.804717 
-0.412669 -0.204594 0.0200338 -0.944627 -0.328143 -0.00128706 
0.407234 -0.220489 -0.135897 0.934733 -0.355349 0.0013483 
0.364453 -0.296883 -0.043985 0.797387 -0.603432 0.00663442 
0.316562 -0.266364 -0.71519 0.693597 -0.474423 -0.542076 
0.471864 0.16919 0.289444 0.834507 -0.508715 -0.211678 
-0.194295 -0.28057 0.758819 -0.249916 -0.687507 0.681819 
0.43487 -0.11204 -0.212733 0.982088 -0.188213 -0.00889435 
-0.300519 -0.188646 0.463933 0.525541 0.849782 -0.0409466 
-0.365063 -0.296158 0.0284387 -0.809346 -0.587289 -0.00709466 
-0.25802 -0.117497 -0.814904 -0.516405 -0.0934805 -0.851227 
0.267532 -0.101312 -0.810848 0.524283 -0.0882074 -0.846963 
0.393515 0.0241992 0.766927 0.866439 -0.251506 0.43131 
-0.402305 -0.232537 -0.401067 -0.917081 -0.398677 -0.00424392 
-0.393706 -0.0332824 0.111249 0.97756 0.210659 0.000388374 
-0.259123 0.163518 -0.828206 -0.369387 -0.425778 -0.825994 
0.440045 -0.0228436 -0.547255 0.982701 -0.122502 -0.138892 
0.335532 0.241884 -0.730717 -0.675283 0.186015 0.713716 
0.482881 0.280437 -0.0728872 -0.195123 0.980539 -0.0216678 
0.439825 0.250181 0.219437 -0.894745 0.445682 0.0282821 
0.431413 -0.130046 0.320354 0.978936 -0.204025 0.00757374 
-0.0914402 -0.201627 0.659047 0.0375115 0.945489 -0.323486 
-0.419019 0.115579 0.116646 0.988966 0.135284 -0.0603683 
-0.0808847 -0.233692 -0.0583381 0.0222427 0.999752 0.000741978 
0.286597 -0.111699 0.716685 -0.552348 0.597773 -0.581016 
-0.443374 0.0791271 -0.595074 -0.96965 -0.00748856 -0.244381 
0.41926 0.117386 -0.40986 -0.983099 0.182018 0.0196366 
-0.476567 0.281051 0.385139 0.465188 0.885095 0.0143804 
0.14338 -0.190732 -0.854077 0.27467 -0.190647 -0.942449 
0.37022 -0.259691 0.586542 0.832054 -0.512224 0.212867 
0.0858595 0.201757 -0.907088 0.185668 -0.332519 -0.92464 
-0.417991 0.00248371 0.694923 -0.938624 -0.18651 0.290171 
-0.446358 -0.0315747 -0.417741 -0.993383 -0.114039 -0.0136394 
0.512159 0.238286 0.427192 0.982126 0.185431 0.032305 
-0.130575 -0.267325 0.789168 -0.139125 -0.668368 0.730704 
-0.401648 0.0205604 0.501027 0.985669 0.162052 -0.0468629 
0.428461 0.179248 0.130792 -0.998508 0.0456509 -0.0299637 
0.392323 -0.0396371 0.11299 -0.973936 0.226655 -0.00873924 
-0.286783 -0.197346 -0.316359 0.457974 0.888943 -0.00629133 
-0.463176 0.105222 0.399133 -0.961097 -0.275997 0.0108697 
-0.0671417 -0.23357 0.42528 0.0126547 0.999798 -0.015633 
0.36211 -0.104983 0.754063 0.776631 -0.295336 0.556435 
0.121233 -0.294092 0.76239 0.121119 -0.738334 0.663471 
-0.135348 0.00698572 0.870683 0.189124 0.472178 -0.860976 
-0.387211 -0.207192 -0.630426 -0.905784 -0.307759 -0.291273 
-0.429041 0.188291 -0.67234 -0.628282 -0.607212 -0.48637 
-0.456993 0.0550416 -0.0979827 -0.993911 -0.101773 -0.042227 
-0.419436 0.118348 0.286276 0.984852 0.172981 0.0119956 
-0.442484 -0.0197582 0.541856 -0.9857 -0.154526 0.0672053 
-0.471565 0.167229 0.100671 -0.846876 -0.438083 -0.30147 
-0.43308 0.211777 -0.131904 0.990224 0.1387 0.0147951 
0.316734 -0.17861 -0.193538 -0.62157 0.783312 0.00856645 
-0.28295 0.169357 0.950166 -0.470382 -0.659201 0.586681 
0.0871964 -0.225659 0.548575 -0.0343002 0.991464 -0.125791 
0.391141 0.260313 -0.770829 0.748713 0.231424 -0.621186 
-0.505628 0.199062 0.163799 -0.895807 -0.435794 -0.0872536 
0.396183 0.0643301 0.628283 -0.973492 0.148688 -0.173798 
0.243063 -0.214034 0.0777374 -0.273737 0.961804 -0.000756405 
0.251123 0.256612 0.959571 -0.365245 0.577836 -0.729864 
-0.281338 0.104316 0.920806 -0.542412 -0.243448 0.804066 
-0.44787 0.266606 -0.242965 0.765061 0.643842 -0.0122442 
0.40023 -0.23769 0.146335 0.911671 -0.41092 2.39279e-05 
0.30443 0.168006 0.935686 0.418178 -0.625239 0.658941 
0.344575 -0.0494669 -0.754085 0.713057 -0.0443675 -0.699701 
0.322395 -0.174286 0.315358 -0.648222 0.761435 -0.00503311 
0.343187 -0.152195 -0.342107 -0.778369 0.627803 0.00204063 
0.0197864 -0.22238 0.578558 -0.00327762 0.986067 -0.166318 
-0.0671439 0.110046 0.987542 -0.0551375 -0.433763 0.899338 
-0.458115 0.0644878 0.253432 -0.976413 -0.215888 0.00316192 
0.468506 0.279647 -0.00273852 -0.434097 0.9005 -0.0256914 
0.456811 0.203198 -0.691652 0.803947 -0.379482 -0.45789 
0.423801 0.28094 0.81793 -0.278327 0.954132 -0.110302 
-0.0314647 0.1734 -0.82699 -0.0303344 0.0835434 0.996042 
-0.387842 -0.056732 -0.21334 0.966878 0.25521 0.00386166 
0.402067 0.00928689 -0.179658 -0.986434 0.164156 -0.000725971 
0.391629 -0.0425251 0.221601 -0.971696 0.236234 -0.000430966 
0.206807 -0.222702 -0.162927 -0.180619 0.983553 0.000971246 
0.252065 0.28107 -0.82402 0.0147526 0.987258 0.158444 
0.096186 0.186373 0.970128 -0.168845 0.401932 -0.899968 
-0.506509 0.199052 -0.32187 -0.901359 -0.421434 -0.0997288 
0.391682 -0.255627 -0.330079 0.880406 -0.474187 0.0056108 
0.324849 -0.171866 -0.0122752 -0.667049 0.74501 0.00231642 
0.355485 0.131177 -0.694884 -0.796227 0.22586 0.561258 
0.151456 -0.230132 -0.229444 -0.0888448 0.996045 -0.000586537 
0.421071 -0.119573 -0.580335 0.967661 -0.165053 -0.190759 
0.184738 -0.191169 0.660138 -0.16551 0.919897 -0.355523 
-0.361714 -0.120197 -0.493481 0.887591 0.458444 0.0448531 
-0.337304 -0.126917 0.610707 0.795172 0.555609 -0.242901 
-0.238569 -0.00161179 0.82983 0.402762 0.464768 -0.788526 
0.0650032 -0.18783 0.855434 0.0729128 -0.49546 0.865565 
-0.379019 -0.0851843 0.348818 0.942945 0.332883 -0.00658179 
0.25824 -0.151335 -0.719782 -0.544682 0.578063 0.607589 
-0.485763 0.228009 0.739691 -0.842029 -0.470875 0.263181 
0.423368 0.198534 -0.543589 -0.996054 -0.0226987 0.0857987 
0.425505 0.00192685 -0.627012 0.946686 -0.145966 -0.287192 
0.351124 0.222679 0.977858 0.412112 -0.613533 0.673603 
-0.422703 0.201408 0.614225 0.972301 0.196649 -0.126332 
0.257025 0.191473 -0.830477 0.194505 -0.453014 -0.870026 
-0.0698184 -0.233929 0.0184852 0.0156269 0.999878 7.26122e-05 
0.282132 -0.199711 -0.290541 -0.432626 0.901558 -0.00531641 
-0.429735 0.188434 -0.299126 0.99609 0.0876623 0.0109852 
-0.006839 0.0673701 0.916733 -0.0186302 0.453498 -0.891062 
0.411906 -0.206148 0.331946 0.949134 -0.314868 -0.00140957 
-0.369562 -0.290506 -0.31905 -0.818793 -0.574076 0.00386929 
-0.441287 -0.0704276 0.153926 -0.988966 -0.147561 -0.0130984 
0.315363 -0.155648 0.778984 0.618522 -0.385735 0.684572 
0.340193 0.0924129 0.870479 0.643508 -0.196019 0.739915 
0.438726 -0.0881518 0.190735 0.987643 -0.156712 -0.00187112 
-0.175194 0.198559 1.05888 -0.113966 -0.850104 0.514135 
0.49931 0.239657 -0.57378 0.945291 -0.199299 -0.258273 
-0.0328121 -0.115463 0.894311 -0.037436 -0.413067 0.909931 
0.328729 -0.115487 0.654234 -0.755191 0.545706 -0.363168 
0.230345 0.267098 1.0409 0.369697 0.308675 0.876381 
0.428119 -0.146804 -0.151858 0.976269 -0.216561 0.000896217 
0.18018 0.00422155 0.921574 0.255803 -0.389638 0.88473 
0.452118 0.195048 -0.614977 0.741889 -0.670339 -0.0156695 
-0.504666 0.268201 0.0134539 -0.827182 0.552404 0.10305 
-0.23956 -0.214712 -0.484412 0.266546 0.96372 0.0140274 
-0.512515 0.215074 -0.0360874 -0.917118 -0.385884 0.0999421 
-0.28947 -0.292176 0.687094 -0.520302 -0.691281 0.501414 
0.368933 -0.0788527 0.579556 -0.924762 0.344827 -0.160965 
-0.0627826 -0.284648 0.780658 -0.0543692 -0.713913 0.69812 
0.447582 -0.014071 0.453564 0.989947 -0.135319 0.0411443 
-0.0918471 0.0786903 0.916682 0.160903 0.408423 -0.898499 
0.397885 0.231608 -0.646859 -0.879376 0.186613 0.438033 
0.206775 -0.0812858 -0.844243 0.411955 -0.0634324 -0.908994 
0.167525 0.267868 1.00277 -0.217634 0.740048 -0.636369 
0.458029 0.0792901 0.500777 0.971366 -0.194745 0.136096 
-0.0385112 -0.227736 0.538848 0.00931444 0.993839 -0.11044 
-0.14167 0.114168 0.978404 -0.302082 -0.368819 0.879044 
-0.383664 -0.0570272 -0.518802 0.960715 0.264611 0.0837117 
-0.430484 -0.122604 0.479804 -0.982912 -0.176482 0.0523254 
0.312839 -0.181766 0.0730949 -0.593368 0.804931 0.000640979 
-0.444163 -0.0494011 0.0510446 -0.98979 -0.14252 -0.00209919 
0.356791 -0.13228 -0.39135 -0.851196 0.524831 0.0042234 
-0.433213 0.213244 0.421669 0.974564 0.224111 -0.000393736 
-0.373284 -0.223079 0.640523 -0.843255 -0.431133 0.321006 
-0.168782 -0.205167 -0.695605 0.190188 0.932811 0.306092 
-0.253123 -0.0673258 0.779314 0.434398 0.530455 -0.727953 
-0.0108896 -0.0851957 0.823431 0.0139829 0.618504 -0.785657 
0.395234 -0.0265576 -0.00745588 -0.979455 0.201034 0.015908 
0.31602 0.25751 0.915138 -0.522567 0.600123 -0.60562 
-0.152423 -0.227085 -0.578404 0.102924 0.992771 0.0617381 
-0.371374 -0.104318 0.166168 0.916041 0.401081 -0.00184662 
0.389055 -0.0518855 0.408141 -0.967778 0.251453 -0.0133456 
-0.473589 0.280581 -0.428963 0.361574 0.932028 0.0242401 
-0.320537 -0.175711 0.186955 0.641458 0.767156 -0.00151943 
-0.110468 0.0046368 0.937324 -0.13911 -0.38065 0.914196 
0.389989 -0.0367182 0.506346 -0.970153 0.234218 -0.0628042 
-0.122106 -0.232161 -0.120957 0.0538874 0.998546 -0.00111209 
0.457578 0.0594554 0.03137 0.990738 -0.135777 0.00196022 
-0.428541 -0.087197 -0.567102 -0.975031 -0.137577 -0.174317 
-0.186694 0.168086 0.991513 -0.259534 -0.774474 0.576915 
0.102663 -0.29128 -0.824119 0.188273 -0.535739 -0.823126 
-0.475732 0.281052 0.540267 0.42957 0.902782 -0.0213079 
0.358922 -0.129004 -0.0665826 -0.863631 0.504124 0.000818578 
0.175981 0.183434 -0.861531 0.443894 -0.343737 -0.827528 
0.119464 -0.125997 -0.869687 0.228291 -0.105374 -0.967874 
-0.227504 0.218153 0.949315 0.373516 0.460427 -0.80529 
0.486537 0.279921 -0.256334 0.134591 0.990678 0.0210271 
0.403571 0.01822 -0.316193 -0.98571 0.166693 0.0242616 
-0.401462 0.00583916 0.0368758 0.985719 0.168387 0.00206027 
0.439086 -0.0861856 -0.00330548 0.986421 -0.16389 -0.01061 
-0.256856 -0.112229 0.841187 -0.435186 -0.37608 0.818032 
0.322587 -0.174128 0.227717 -0.649385 0.76046 0.000684784 
0.186117 -0.293463 -0.794548 0.352805 -0.550792 -0.756411 
0.421783 0.26993 0.742149 -0.6178 0.767696 -0.170194 
-0.218027 0.280103 -0.847553 0.0717463 0.966235 0.247473 
0.341246 0.00701653 0.831085 0.675351 -0.325571 0.661743 
-0.151147 -0.230153 0.0198299 0.0889227 0.996038 -0.00115582 
-0.204853 0.213793 -0.80544 0.404026 0.140857 0.903838 
0.227835 -0.190197 0.815246 0.355121 -0.477336 0.803765 
-0.394887 -0.0270755 0.414761 0.978393 0.206729 -0.00334763 
0.399985 -0.238393 -0.016608 0.909528 -0.41564 -0.00150874 
-0.358244 -0.130221 0.259095 0.852379 0.522924 -0.00121447 
-0.294275 0.025704 -0.801552 -0.567257 -0.0116764 -0.823458 
0.352447 -0.0417574 -0.658092 -0.871716 0.161195 0.462739 
0.330333 -0.165391 0.459308 -0.704506 0.708977 -0.0319777 
0.424619 0.236549 0.647498 -0.911997 0.372426 -0.171933 
-0.409839 0.220709 0.712845 0.950637 0.19609 -0.240494 
-0.162386 -0.229056 -0.0589356 0.102986 0.99468 0.00221807 
0.342876 0.211595 -0.81404 0.564222 -0.37075 -0.737698 
0.146561 -0.227833 0.488 -0.088248 0.994069 -0.0635496 
-0.414043 0.120271 0.567202 0.984474 0.157491 -0.077503 
-0.483772 0.280305 0.221191 0.128907 0.991565 0.0134706 
0.395564 0.0504958 -0.577373 -0.975613 0.122378 0.182217 
-0.421308 0.130807 -0.0727019 0.987088 0.160176 0.000195552 
0.33975 -0.254293 0.671919 0.716875 -0.546685 0.432696 
0.266186 -0.232501 0.766446 0.451602 -0.547538 0.704456 
-0.391401 -0.04324 0.272247 0.977999 0.20854 -0.005337 
0.398989 0.00320843 -0.487586 -0.984498 0.164826 0.0599682 
-0.358377 -0.129771 -0.139525 0.858584 0.512658 -0.00401538 
-0.343598 -0.151575 -0.335238 0.775219 0.631674 -0.00483453 
0.284069 -0.190104 0.544406 -0.455221 0.881607 -0.124668 
-0.436636 0.236108 0.189504 0.941021 0.33501 0.047403 
-0.429148 -0.141689 -0.172912 -0.978175 -0.207611 -0.0084703 
0.0685936 -0.0357019 0.855299 -0.0787358 0.532881 -0.842519 
-0.0323291 0.278496 1.06736 0.0720313 0.994113 0.0809393 
0.170396 -0.228195 -0.348447 -0.117885 0.993027 -0.000417081 
0.463188 0.103906 0.0970852 0.976004 -0.213014 0.0451739 
-0.36623 -0.292038 0.455951 -0.807467 -0.588217 0.0446948 
0.122187 0.0340448 0.888294 -0.160979 0.467595 -0.869161 
-0.247104 -0.188185 0.807252 -0.400442 -0.466445 0.788717 
0.408069 -0.213613 0.444729 0.938828 -0.343117 0.0295329 
0.246703 -0.212982 0.157804 -0.28584 0.958277 0.000902604 
-0.453118 0.14961 -0.591248 -0.85775 -0.442762 -0.261204 
0.434303 0.229158 -0.470456 -0.975538 0.213994 0.0503159 
-0.0408938 -0.0644304 -0.836886 0.0789013 0.140721 0.9869 
-0.307264 -0.0178389 0.770202 0.670893 0.398071 -0.625654 
-0.0861717 0.0585152 -0.880993 -0.122343 -0.0355777 -0.99185 
-0.424834 -0.159076 0.39406 -0.972671 -0.232005 0.00918215 
-0.230154 -0.212783 0.512039 0.234837 0.968439 -0.0835313 
-0.304135 -0.187086 -0.468754 0.55183 0.833904 0.00941653 
-0.365875 -0.295238 -0.413684 -0.805934 -0.591977 -0.00574826 
0.0307578 0.236699 1.00128 -0.0485513 0.528078 -0.847807 
-0.0985615 -0.233195 -0.261035 0.0332633 0.999447 5.00739e-05 
-0.241951 -0.209588 -0.577747 0.296973 0.951333 0.0822908 
-0.0854662 -0.132482 0.77557 0.073616 0.73045 -0.678987 
-0.512382 0.211407 0.423184 -0.911517 -0.409468 0.0383657 
-0.337529 0.270812 -0.743288 0.60123 0.549999 0.579676 
0.153166 0.245067 -0.823653 -0.317107 0.233642 0.91916 
0.0643916 0.129102 -0.884008 0.0888985 -0.167094 -0.981925 
0.364875 -0.296412 0.0374495 0.798923 -0.601413 -0.00497549 
-0.432506 0.207765 -0.0603955 0.991694 0.124912 -0.0306529 
0.278204 -0.226935 -0.776531 0.581034 -0.317829 -0.749255 
-0.456971 0.274972 -0.0382662 0.658596 0.752046 -0.026055 
-0.430958 0.196967 -0.223818 0.997897 0.0646996 0.00383944 
-0.132635 -0.23158 0.199234 0.065485 0.997853 -0.00123695 
-0.34182 -0.214157 0.710313 -0.725308 -0.455965 0.515775 
0.11247 -0.18903 -0.755699 -0.154715 0.830986 0.534345 
-0.24456 -0.213589 0.110152 0.279377 0.960181 0.000603767 
0.512462 0.23553 -0.194652 0.974502 -0.19451 -0.111856 
