ply
format ascii 1.0
element vertex 50
property float x
property float y
property float z
property float nx
property float ny
property float nz
end_header
-0.152944996953010559 -0.813124001026153564 0.23737800121307373 -0.4225044846534729 -0.746437788009643555 0.51412123441696167
-0.255387008190155029 -0.447786003351211548 0.0871891975402832031 -0.574978470802307129 0.812393903732299805 0.0970356389880180359
-0.270747989416122437 0.420359998941421509 0.00711630983278155327 -0.0160979721695184708 -0.990139544010162354 0.139156505465507507
-0.464248001575469971 -0.883138000965118408 0.0295921005308628082 0.293212741613388062 -0.798287391662597656 -0.526083230972290039
0.534273028373718262 0.645807027816772461 -0.233601003885269165 0.212539121508598328 0.235133141279220581 -0.9484405517578125
-0.600283026695251465 -0.103087998926639557 0.206783995032310486 0.595106005668640137 0.373442292213439941 0.711610615253448486
0.635311007499694824 -0.443989008665084839 -0.248618006706237793 0.0684608221054077148 -0.047898516058921814 -0.996503293514251709
0.87476801872253418 0.478154987096786499 0.03434709832072258 0.864196658134460449 0.477144777774810791 0.15967792272567749
-0.0203023999929428101 -0.812188982963562012 -0.241585999727249146 0.338509410619735718 -0.38544955849647522 -0.858393847942352295
0.711551010608673096 0.28468400239944458 0.249174997210502625 0.0648928061127662659 0.0332494042813777924 0.997338175773620605
-0.925116002559661865 0.342081010341644287 0.0775028988718986511 -0.98715662956237793 0.107594780623912811 -0.118089519441127777
-0.812013983726501465 0.170478001236915588 -0.236541002988815308 -0.0842560455203056335 -0.5050697922706604 -0.858956038951873779
-0.662652015686035156 0.272457987070083618 0.247472003102302551 -0.541410863399505615 0.161273017525672913 0.825145602226257324
0.75197601318359375 -0.63498002290725708 0.0849934965372085571 0.713144898414611816 -0.597548961639404297 0.366550952196121216
0.989058971405029297 0.0983003973960876465 0.0536480993032455444 0.968752205371856689 0.0953899174928665161 0.228954046964645386
-0.708243012428283691 -0.675747990608215332 -0.0982322022318840027 -0.467614442110061646 -0.661590933799743652 -0.586203157901763916
0.519609987735748291 0.845233023166656494 0.0563046000897884369 0.50608295202255249 0.816126883029937744 0.278956979513168335
0.365487009286880493 -0.599876999855041504 -0.245499998331069946 -0.101177006959915161 0.175408020615577698 -0.979283034801483154
-0.7840920090675354 0.618350028991699219 0.0133768003433942795 0.0544199608266353607 0.853690803050994873 0.517929017543792725
0.44905400276184082 -0.220041006803512573 0.0126802995800971985 -0.900727391242980957 0.431277215480804443 0.0518667213618755341
-0.438277006149291992 -0.65293198823928833 0.247021004557609558 0.491676568984985352 -0.03715495765209198 0.869984865188598633
-0.445856004953384399 -0.246050998568534851 -0.0676525980234146118 0.66994178295135498 0.670985400676727295 0.317736685276031494
0.223679006099700928 0.606567025184631348 -0.227619007229804993 -0.131831035017967224 -0.386891067028045654 -0.912653207778930664
-0.618373990058898926 0.427774995565414429 -0.249880999326705933 0.789583802223205566 -0.104863904416561127 -0.604616403579711914
0.33246999979019165 0.522781014442443848 0.213241994380950928 -0.25372198224067688 -0.401245951652526855 0.880128860473632812
0.0927198007702827454 -0.518024027347564697 -0.111795000731945038 -0.157093062996864319 0.872314274311065674 -0.463022172451019287
-0.999023020267486572 0.0124489003792405128 0.00743087008595466614 -0.269256740808486938 -0.792814433574676514 0.546759665012359619
0.227023005485534668 0.950236976146697998 0.101740002632141113 0.216712087392807007 0.86294633150100708 0.456464171409606934
0.820299029350280762 0.225896000862121582 -0.228150993585586548 0.364575028419494629 0.0992363095283508301 -0.925871074199676514
-0.13196900486946106 0.964774012565612793 0.108567997813224792 0.43009650707244873 0.831704318523406982 -0.351119577884674072
-0.465599000453948975 0.71852797269821167 -0.225753992795944214 -0.00991192925721406937 0.934713244438171387 -0.355264574289321899
0.460193991661071777 0.286623001098632812 -0.13969700038433075 -0.679498970508575439 -0.420320004224777222 -0.60134202241897583
0.0355582013726234436 0.728401005268096924 0.249025002121925354 0.0102129960432648659 -0.0481129847466945648 0.998789668083190918
-0.00464559998363256454 -0.999148011207580566 0.0126894004642963409 0.658941686153411865 -0.590756714344024658 0.465620428323745728
0.637003004550933838 -0.393157988786697388 0.249971002340316772 0.00817451812326908112 -0.00442209886386990547 0.999956786632537842
-0.10098700225353241 0.859039008617401123 -0.221542999148368835 0.0852046608924865723 0.341567397117614746 -0.935987114906311035
0.831421971321105957 -0.086286596953868866 -0.234396994113922119 0.322868913412094116 -0.027269093319773674 -0.946050763130187988
0.105605997145175934 -0.597217023372650146 0.204806998372077942 -0.101916998624801636 0.544722974300384521 0.832400023937225342
-0.510067999362945557 0.644838988780975342 0.239160999655723572 -0.115221284329891205 0.811236023902893066 0.573254048824310303
0.0500731989741325378 0.498423010110855103 0.0199337992817163467 -0.127654045820236206 -0.989933371543884277 0.0611256211996078491
0.390285998582839966 -0.919973015785217285 -0.00572715979069471359 0.380939990282058716 -0.924561917781829834 -0.00836334004998207092
-0.8596230149269104 -0.474853008985519409 0.091031000018119812 -0.978217840194702148 0.204919949173927307 0.0331306345760822296
0.954716980457305908 -0.280952990055084229 0.0462484993040561676 0.938694179058074951 -0.276061058044433594 0.206503048539161682
-0.439159989356994629 -0.60325998067855835 -0.249854996800422668 0.733250081539154053 0.0666137486696243286 -0.676688194274902344
-0.451124995946884155 0.887028992176055908 0.0437270998954772949 0.869643211364746094 0.113938458263874054 -0.480352699756622314
0.591401994228363037 6.10348022123119449e-11 0.193251997232437134 -0.618175089359283447 -0.00745097082108259201 0.786005079746246338
0.783474981784820557 -0.081438899040222168 0.246810004115104675 0.148289963603019714 -0.017229495570063591 0.988793849945068359
0.472568005323410034 -0.72205197811126709 0.222626000642776489 0.249449059367179871 -0.375208079814910889 0.892745256423950195
-0.502544999122619629 0.159081995487213135 -0.113361001014709473 0.975007295608520508 0.10645100474357605 -0.195010170340538025
-0.892161011695861816 -0.275734007358551025 -0.168778002262115479 -0.735214769840240479 -0.320535838603973389 -0.597257077693939209
