ply
format ascii 1.0
element vertex 999
property float x
property float y
property float z
property uchar red
property uchar green
property uchar blue
end_header
-0.895575 -0.325342 0.151808 255 0 0 
0.553327 -0.0182599 0.266694 0 74 0 
-0.595893 0.126304 0.108978 0 73 0 
-0.884964 -0.543185 -0.401089 0 255 0 
0.108784 -0.45312 -0.447115 0 255 0 
-0.250585 -0.298099 0.0213111 0 72 0 
0.501834 -0.259264 -0.460038 0 194 0 
-0.14503 0.279029 0.162558 93 0 0 
0.450291 -0.229495 0.281649 0 124 0 
-0.0214508 -0.275726 -0.0493918 0 0 0 
-0.174006 -0.0727334 0.306087 0 31 0 
0.900182 0.52358 -0.0345028 0 255 0 
-0.138738 0.158829 -0.244758 255 0 0 
-0.794462 -0.23342 0.271983 83 0 0 
-0.537836 -0.144646 -0.258148 0 2 0 
0.0305031 0.367269 0.029654 255 0 0 
-0.567983 -0.245214 -0.201305 0 255 0 
0.284065 -0.124837 -0.270512 255 0 0 
0.0516102 -0.292057 0.0294167 0 189 0 
0.399615 -0.349223 0.421149 198 0 0 
-0.0346226 -0.289456 0.0387773 2 0 0 
-0.94928 -0.509076 0.347843 255 0 0 
0.855748 0.51382 0.0837848 201 0 0 
0.878016 0.504477 -0.0194221 0 255 0 
-0.919526 -0.427093 0.27244 255 0 0 
0.938648 0.557205 0.0517954 0 255 0 
0.285828 -0.100104 0.322474 255 0 0 
0.435729 0.44553 0.317592 162 0 0 
0.226824 0.540648 0.0313971 215 0 0 
0.458788 -0.0378074 0.333881 210 0 0 
-0.390432 0.104914 -0.265842 11 0 0 
-0.54007 -0.185401 0.284309 22 0 0 
0.120936 -0.43952 -0.43065 0 164 0 
-0.556587 -0.026872 0.319194 0 104 0 
0.512386 -0.0570985 -0.286463 49 0 0 
0.518757 0.430559 -0.246736 45 0 0 
-0.697118 0.0776402 0.0519381 0 255 0 
-0.223469 -0.297668 0.0206514 0 85 0 
-0.386705 -0.113739 0.295257 81 0 0 
-0.542157 -0.283145 0.0369006 218 0 0 
0.371359 0.466235 0.326647 0 255 0 
0.331341 -0.428846 0.615576 0 75 0 
-0.919516 -0.358854 -0.184645 255 0 0 
-0.897562 -0.0921405 0.0721994 103 0 0 
0.441962 0.430554 0.341409 0 255 0 
0.343748 0.51169 -0.211112 0 255 0 
0.27436 0.523681 -0.141483 127 0 0 
-0.161777 -0.288774 0.0204247 90 0 0 
0.135128 -0.433286 0.468555 0 63 0 
-0.945115 -0.458329 -0.28875 255 0 0 
0.447108 -0.30839 -0.518571 0 80 0 
0.268474 0.0975303 0.357145 246 0 0 
0.436806 -0.0480018 0.335322 255 0 0 
0.292351 -0.331839 -0.319277 0 208 0 
-0.945694 -0.230429 0.216848 118 0 0 
0.547501 0.736535 0.058654 29 0 0 
0.70545 0.17679 0.0404733 0 137 0 
0.0186039 0.209225 -0.28644 69 0 0 
-0.174261 0.264534 -0.0754549 244 0 0 
0.284218 -0.216308 0.250275 88 0 0 
-0.56377 -0.00585608 0.31014 0 83 0 
-0.102787 0.00862727 -0.286346 143 0 0 
-0.273032 -0.0972669 0.298003 12 0 0 
0.276292 -0.226869 0.271005 0 70 0 
-0.970792 -0.422815 0.261196 93 0 0 
-0.60331 0.126297 0.0791641 0 84 0 
-0.858311 -0.32046 -0.00956183 115 0 0 
-0.1528 0.284477 0.0899727 208 0 0 
-0.891761 -0.384305 0.227236 187 0 0 
0.35874 -0.403759 0.487878 255 0 0 
0.357313 -0.253795 -0.440515 156 0 0 
-0.569916 0.100915 0.212312 0 0 0 
-0.53378 -0.205622 -0.215459 90 0 0 
-0.974158 -0.362123 -0.330426 255 0 0 
-0.166058 0.237137 -0.144403 255 0 0 
-0.251051 0.269968 0.0241145 0 140 0 
0.541076 0.420846 -0.247651 0 49 0 
-0.905012 -0.454053 -0.291864 253 0 0 
-0.590533 -0.140903 -0.262675 0 108 0 
-0.832603 -0.425666 0.301022 0 227 0 
0.576389 0.740742 0.062921 71 0 0 
-0.159785 0.271213 -0.199145 0 255 0 
-0.460518 -0.299541 -0.00441893 0 112 0 
-0.916888 -0.317276 0.140017 255 0 0 
0.196199 -0.338534 -0.343316 0 255 0 
-0.0566585 -0.167606 -0.179432 74 0 0 
-0.527529 -0.270068 0.198131 0 206 0 
0.213717 0.322308 -0.263661 0 92 0 
0.711737 0.270397 0.0890945 0 129 0 
-0.545535 -0.279558 -0.0884701 74 0 0 
-0.535154 -0.222519 -0.198023 103 0 0 
0.29016 -0.373692 0.40432 255 0 0 
0.30356 -0.280649 -0.442067 248 0 0 
0.329908 0.392712 -0.250635 70 0 0 
0.442774 0.383835 0.324337 255 0 0 
-0.599948 -0.305576 -0.00529069 0 207 0 
-0.836463 -0.36779 -0.209426 154 0 0 
0.359326 -0.0787244 0.338297 255 0 0 
0.711625 0.270349 0.0190814 0 38 0 
-0.857563 -0.264852 -0.234457 255 0 0 
0.239598 0.494273 0.231157 46 0 0 
-0.140695 0.210629 0.289178 148 0 0 
0.16995 -0.390712 0.430351 0 31 0 
0.195913 0.54571 0.0992567 0 255 0 
0.255533 -0.214041 -0.248346 0 102 0 
0.464092 -0.141383 0.192943 0 30 0 
-0.0191282 -0.287466 0.0103266 47 0 0 
-0.424563 0.0950603 -0.263284 0 69 0 
0.86213 0.534239 0.146852 0 16 0 
-0.0570022 -0.0186077 0.314535 237 0 0 
-0.820093 -0.403385 -0.290888 0 255 0 
0.0556831 0.229621 -0.287667 0 83 0 
-0.945082 -0.363713 -0.338596 255 0 0 
0.534665 0.55897 -0.200195 0 149 0 
-0.133579 0.18857 0.330269 0 163 0 
0.724819 0.422109 0.0662545 156 0 0 
-0.0834698 0.0476052 0.344243 141 0 0 
0.42454 -0.135686 0.176779 255 0 0 
0.526055 -0.167132 0.37878 0 255 0 
-0.473494 0.0737417 -0.248103 68 0 0 
-0.895668 -0.433777 -0.334551 255 0 0 
0.470097 -0.248791 0.452141 127 0 0 
0.346413 -0.00960477 0.358297 0 160 0 
0.446383 -0.248613 0.307765 0 4 0 
0.368568 -0.15934 0.178729 255 0 0 
-0.134179 0.131775 0.360396 0 203 0 
0.411023 -0.319155 0.409071 255 0 0 
-0.599603 -0.0897857 -0.26874 0 124 0 
0.471034 -0.104528 0.0084596 28 0 0 
-0.149605 0.193384 -0.207599 255 0 0 
0.420119 -0.0235465 -0.291875 98 0 0 
0.275837 -0.428847 -0.592135 112 0 0 
0.331929 -0.435513 0.528395 255 0 0 
0.716654 0.659043 -0.115761 59 0 0 
0.528321 0.476414 0.295134 0 20 0 
0.439613 0.708127 0.0625969 52 0 0 
-0.0448963 -0.0752112 -0.249453 0 0 0 
0.278044 -0.206084 0.197114 48 0 0 
0.255175 -0.436216 -0.58216 247 0 0 
0.44756 -0.179249 0.226205 0 74 0 
0.919913 0.680878 0.124499 0 55 0 
-0.136692 0.170017 -0.283643 0 80 0 
-0.314552 0.132441 -0.275548 0 134 0 
0.754107 0.609132 0.216361 61 0 0 
0.383921 0.245393 0.359842 0 74 0 
-0.479572 0.178925 0.0516519 44 0 0 
-0.984706 -0.32948 0.216365 0 199 0 
0.167637 0.470761 0.03303 255 0 0 
0.893169 0.573325 0.16027 0 61 0 
0.933949 0.703521 0.0147496 0 213 0 
0.781956 0.448813 0.00418719 0 255 0 
-0.102761 -0.0215988 0.319017 138 0 0 
0.365851 -0.406178 0.638675 0 255 0 
0.341979 -0.3911 -0.601309 0 102 0 
0.185435 0.262486 -0.276619 141 0 0 
0.881822 0.502626 0.131954 0 255 0 
-0.133623 0.31631 0.0274411 0 255 0 
-0.151447 -0.0652586 0.309145 0 48 0 
-0.0624645 -0.202255 0.197819 10 0 0 
-0.536075 -0.279173 0.0930993 167 0 0 
-0.921152 -0.109507 0.0719586 93 0 0 
0.370707 -0.390987 0.47123 255 0 0 
-0.198816 -0.0814281 0.302262 0 8 0 
-0.809381 -0.31687 -0.0171484 174 0 0 
0.322585 0.454518 0.289647 255 0 0 
0.219604 0.214816 -0.305838 0 121 0 
-0.596763 0.0854104 0.208745 30 0 0 
0.299556 0.0815899 0.364859 0 11 0 
0.451581 0.48645 -0.223287 132 0 0 
-0.338228 0.127634 -0.276436 0 187 0 
-0.144649 0.271561 0.188419 74 0 0 
0.691021 0.328782 0.22498 0 255 0 
-0.541804 -0.144443 0.310039 0 97 0 
-1.01975 -0.513945 0.382973 0 69 0 
-0.959632 -0.231696 0.196851 120 0 0 
0.295144 0.0137702 0.364582 0 196 0 
-0.846535 -0.337945 0.17691 255 0 0 
0.220707 0.55958 0.0926464 0 100 0 
0.704972 0.607342 0.238077 0 255 0 
0.906515 0.543806 0.0199604 160 0 0 
-0.585785 0.0581151 0.252858 14 0 0 
-0.848316 -0.463041 -0.328358 0 255 0 
0.267992 -0.241951 0.297476 0 246 0 
0.228855 -0.350714 -0.513232 129 0 0 
0.147927 -0.410049 0.453231 3 0 0 
0.884256 0.602196 -0.0916364 0 89 0 
-0.940435 -0.124548 0.073687 74 0 0 
0.700627 0.150513 0.0399942 0 193 0 
0.317611 0.183239 0.36337 27 0 0 
-0.583215 -0.177448 -0.251588 0 168 0 
0.707386 0.324216 0.185874 0 255 0 
-0.622188 -0.00655871 -0.234626 0 45 0 
-1.02787 -0.44799 0.329105 0 14 0 
0.414192 -0.338459 -0.558467 0 98 0 
-0.917957 -0.312946 0.0424424 82 0 0 
-0.00435752 0.198452 -0.286749 121 0 0 
0.226361 0.106104 0.366786 27 0 0 
0.919499 0.564352 0.0380273 244 0 0 
-0.989016 -0.34672 0.23615 0 162 0 
-1.0284 -0.527696 -0.390182 0 255 0 
0.510907 0.45851 0.299295 184 0 0 
0.884286 0.52155 -0.0531042 0 255 0 
0.194473 -0.361803 0.404868 0 247 0 
0.354989 0.427542 -0.253829 0 240 0 
-0.719055 0.0614143 0.0575165 0 255 0 
-0.983488 -0.310244 0.196424 0 217 0 
0.193202 0.517078 0.12925 98 0 0 
0.226221 -0.385122 0.38241 0 255 0 
-0.890406 -0.367545 -0.193545 255 0 0 
-0.765864 -0.325889 0.22896 0 35 0 
-0.979531 -0.401835 0.366747 255 0 0 
0.731553 0.44523 0.0642333 255 0 0 
-0.532651 -0.185382 -0.232089 79 0 0 
0.263008 -0.445183 0.595668 12 0 0 
0.28186 -0.435508 0.607435 0 33 0 
0.0817386 -0.288059 0.0251043 0 200 0 
-0.0331106 -0.018706 0.32606 0 25 0 
0.838217 0.521063 -0.0171961 255 0 0 
0.255819 -0.266585 -0.376319 0 21 0 
0.492469 -0.0431835 -0.285205 144 0 0 
-0.96833 -0.340951 -0.175661 69 0 0 
-0.112484 0.328105 0.02822 0 255 0 
-1.04358 -0.552724 0.399467 0 255 0 
0.236256 0.166881 0.378805 0 240 0 
0.252361 -0.233093 -0.263409 0 255 0 
0.446541 -0.303075 0.538571 0 97 0 
0.841729 0.736199 0.052215 255 0 0 
0.499249 0.442979 -0.253852 0 149 0 
-0.799075 -0.338565 0.192889 126 0 0 
0.444781 -0.119525 0.00889589 29 0 0 
0.414668 0.701356 0.0653717 6 0 0 
0.968617 0.637841 0.0295126 0 255 0 
0.045962 0.0092616 0.343337 0 90 0 
0.887279 0.631203 -0.0838556 31 0 0 
0.721402 0.409655 0.0430216 132 0 0 
-0.501719 0.169038 0.0509762 71 0 0 
-0.110606 0.123594 0.358136 0 43 0 
0.437354 -0.154438 0.184336 0 50 0 
0.257788 -0.0847764 -0.265687 255 0 0 
0.492853 -0.273898 -0.476826 0 222 0 
0.673616 0.761163 0.0629279 58 0 0 
0.470284 -0.110945 0.185459 255 0 0 
0.776053 0.583311 0.206871 110 0 0 
-0.166867 0.277075 -0.0195096 209 0 0 
-0.860836 -0.293585 -0.263092 118 0 0 
0.164798 -0.450976 -0.552629 80 0 0 
-0.0607685 0.366913 0.0677171 0 255 0 
-0.601085 0.0966409 0.187223 0 4 0 
0.345362 -0.420792 0.509787 255 0 0 
0.309721 -0.200423 0.00808618 0 32 0 
0.295362 0.165744 0.364842 50 0 0 
0.201063 -0.175788 -0.223645 0 197 0 
-0.120308 0.189473 -0.299027 0 255 0 
0.700855 0.238253 0.0499109 181 0 0 
-0.27352 0.260229 0.0278906 0 74 0 
0.130991 0.484317 0.0616607 0 255 0 
0.711726 0.6073 -0.129172 158 0 0 
0.257304 0.0521805 0.368605 0 149 0 
0.454537 -0.0219655 -0.286416 142 0 0 
-0.0568954 -0.00331943 -0.290129 0 19 0 
0.235603 -0.272673 -0.293184 0 255 0 
0.38202 -0.251269 -0.445661 187 0 0 
0.291479 -0.404408 -0.589672 50 0 0 
0.276334 0.0300637 0.366261 0 167 0 
-0.949695 -0.297656 0.318621 0 136 0 
0.337386 -0.345631 -0.368919 255 0 0 
-0.62782 0.0406426 -0.187207 36 0 0 
0.636308 0.346351 0.295967 0 235 0 
0.347771 0.208224 0.358456 65 0 0 
-0.986934 -0.281616 0.154611 0 224 0 
0.24291 -0.28939 0.345601 0 255 0 
-0.171362 0.27127 -0.0525378 195 0 0 
0.1558 0.503531 0.0665855 0 255 0 
0.128894 -0.467507 -0.485585 255 0 0 
0.13276 -0.424132 -0.415496 0 114 0 
0.212918 0.545529 -0.0186497 0 255 0 
0.686801 0.517755 0.208231 226 0 0 
-0.917577 -0.368357 -0.343875 255 0 0 
-0.5421 -0.121118 0.319412 0 140 0 
-0.193918 0.294374 0.0241444 0 255 0 
0.471974 0.419316 0.348355 0 255 0 
-0.131742 0.102696 0.372438 0 255 0 
-0.946128 -0.440463 0.271727 254 0 0 
-0.652169 0.103194 0.053201 0 170 0 
-0.14003 -0.292887 0.0702175 0 124 0 
-0.0814292 -0.121148 0.257911 154 0 0 
-0.886779 -0.387877 -0.218608 255 0 0 
0.350849 -0.348119 0.415071 255 0 0 
-0.941574 -0.507917 0.398344 255 0 0 
-0.0312279 0.383382 0.0693151 0 255 0 
-0.089963 0.355717 0.0650216 0 255 0 
-0.631553 0.116553 0.0524971 0 184 0 
0.648785 0.756807 0.0616477 52 0 0 
0.317985 0.50099 -0.167649 255 0 0 
0.696984 0.126447 0.0386846 0 255 0 
0.431647 0.462014 -0.222349 255 0 0 
-0.727624 -0.307559 -0.00902763 119 0 0 
-0.970365 -0.354223 0.349559 135 0 0 
-0.0670768 -0.177199 0.21616 90 0 0 
0.470344 0.503111 -0.218821 70 0 0 
0.495133 0.728145 0.0567638 0 54 0 
-0.876117 -0.316784 0.0421726 154 0 0 
0.427755 -0.151501 -0.168766 255 0 0 
0.207109 0.552597 0.0668903 0 250 0 
0.31419 -0.45523 0.555304 107 0 0 
-0.837687 -0.38801 -0.344941 0 255 0 
0.645117 0.32758 -0.162944 88 0 0 
0.164814 -0.47988 0.518404 47 0 0 
0.24283 0.594516 0.0841311 0 255 0 
0.368372 -0.190902 0.412038 3 0 0 
0.581826 0.375431 0.328814 0 214 0 
0.109966 0.457341 0.0601036 0 162 0 
-0.905068 -0.476024 -0.359061 255 0 0 
0.206002 0.550619 0.041011 0 255 0 
-0.633977 0.0743822 -0.130413 31 0 0 
-0.776318 -0.273556 -0.251606 0 221 0 
0.0815355 0.404869 0.0260771 244 0 0 
0.516995 -0.216399 0.418479 0 255 0 
-0.44068 0.194668 0.0487849 30 0 0 
0.176933 -0.473966 0.538823 74 0 0 
-0.900691 -0.454676 -0.348088 255 0 0 
-0.768522 -0.23366 0.272138 9 0 0 
0.831557 0.503638 0.0299597 255 0 0 
0.755257 0.708294 -0.0688778 225 0 0 
0.465376 -0.287768 -0.347152 255 0 0 
0.831428 0.527035 -0.0396028 255 0 0 
0.343627 0.0302843 0.3356 255 0 0 
-0.976363 -0.378628 0.358423 255 0 0 
-0.0542331 0.322555 0.0303328 255 0 0 
0.397843 -0.348115 -0.573535 0 145 0 
-0.342999 -0.296983 0.0119738 16 0 0 
-0.995179 -0.302904 -0.149871 0 255 0 
-0.834317 -0.445276 -0.319033 0 255 0 
0.63363 0.047427 0.00988774 79 0 0 
0.721051 0.774026 0.0632429 0 137 0 
-0.0838915 0.176555 -0.284267 186 0 0 
-0.0458826 -0.249988 0.136757 92 0 0 
-0.904631 -0.273984 -0.22262 255 0 0 
-0.0291525 -0.278016 0.0840015 33 0 0 
0.330636 -0.00366286 -0.290757 0 69 0 
0.356142 -0.193055 -0.182536 255 0 0 
0.674619 0.331209 0.251064 0 255 0 
-0.11766 0.0405989 0.342996 136 0 0 
-0.169183 0.299624 0.025154 0 241 0 
0.278658 0.535742 -0.167347 0 255 0 
-0.389814 0.213321 0.0422024 53 0 0 
-0.881972 -0.527343 0.384832 0 255 0 
0.275041 0.152285 0.368205 8 0 0 
-0.813666 -0.364057 -0.218448 0 111 0 
0.284156 -0.215456 0.00684255 0 68 0 
0.743569 0.767325 0.0581169 37 0 0 
-0.869921 -0.330641 -0.291466 69 0 0 
0.175908 0.0742563 0.359418 61 0 0 
-0.631662 0.117368 -0.000959612 0 179 0 
0.0540268 0.386462 0.0281376 255 0 0 
0.559948 0.459958 0.265516 255 0 0 
0.865628 0.522652 -0.0690152 0 255 0 
-0.360772 0.22545 0.0386148 26 0 0 
-0.814277 -0.388174 -0.271426 0 255 0 
-0.880889 -0.241848 0.255953 255 0 0 
0.838392 0.649627 0.207912 0 179 0 
0.647466 0.493471 0.233219 39 0 0 
0.261028 0.352001 -0.258211 0 29 0 
-0.564924 0.0885546 0.232452 23 0 0 
-0.982666 -0.294283 0.0433636 0 255 0 
0.10939 0.420569 0.0278874 255 0 0 
-0.800007 -0.358015 0.236377 0 86 0 
0.55367 0.568947 -0.188778 0 26 0 
0.706101 0.274226 -0.0378185 0 82 0 
-0.52285 0.057614 -0.236061 48 0 0 
0.394533 -0.091457 0.365759 0 82 0 
0.403338 0.432414 -0.230283 255 0 0 
-0.0935679 -0.0381617 -0.266553 90 0 0 
0.808278 0.495588 0.0383243 255 0 0 
0.335437 -0.184808 0.01102 0 8 0 
0.706428 0.576034 0.239184 0 255 0 
-1.02078 -0.418765 0.310456 0 14 0 
0.698034 0.281085 -0.0656733 0 61 0 
0.524546 -0.111364 0.337422 0 255 0 
0.213089 0.520891 0.0324917 255 0 0 
0.559112 -0.0564573 -0.238348 0 173 0 
-0.0352802 -0.233955 -0.122017 0 33 0 
0.188347 -0.258399 -4.84112e-05 0 152 0 
-0.906878 -0.52925 -0.412871 0 139 0 
0.892181 0.652884 -0.0743271 39 0 0 
-0.824342 -0.340303 0.185954 255 0 0 
0.509211 -0.117326 -0.161233 55 0 0 
0.525423 -0.130726 0.352309 0 255 0 
0.895028 0.544918 -0.0091445 255 0 0 
-0.998912 -0.277183 0.0482698 0 255 0 
-0.54121 -0.165887 0.299374 0 68 0 
-0.0786189 0.0750018 -0.315622 0 55 0 
0.352581 -0.243288 0.45822 0 0 0 
-0.61719 -0.0336618 -0.252043 0 96 0 
0.265009 -0.320409 -0.48275 255 0 0 
0.41796 -0.377775 0.605237 0 255 0 
-0.528378 0.15876 0.0502246 53 0 0 
0.244971 -0.254321 -0.280334 0 255 0 
0.0202841 -0.292565 0.0321896 0 131 0 
-0.00165259 -0.00891129 0.332391 0 45 0 
-0.329989 -0.105432 0.299069 0 28 0 
-0.624572 0.0187873 -0.21324 0 2 0 
0.899424 0.551359 0.0665151 255 0 0 
-0.89026 -0.465493 -0.307259 28 0 0 
0.525618 -0.283719 -0.359522 0 187 0 
0.845324 0.533717 0.126457 255 0 0 
0.224491 -0.19166 -0.224431 0 181 0 
0.326693 -0.359755 0.412461 255 0 0 
0.352815 -0.426438 0.637363 0 255 0 
-0.132965 0.124136 -0.266107 255 0 0 
0.442319 -0.293257 -0.343603 255 0 0 
-0.357565 -0.110914 0.296324 22 0 0 
0.200879 0.49763 0.0337499 255 0 0 
0.303824 0.462954 0.274121 255 0 0 
-1.00776 -0.317499 -0.204209 0 255 0 
-0.00682796 0.40121 0.0696287 0 255 0 
0.261252 -0.110944 0.317805 255 0 0 
0.357506 -0.0354642 -0.292633 64 0 0 
0.494613 -0.0911595 0.0116518 16 0 0 
-0.515897 -0.297463 -0.0087162 0 117 0 
0.402508 -0.145497 0.178811 255 0 0 
0.367954 0.308987 0.338887 224 0 0 
-0.864324 -0.459347 0.356928 64 0 0 
0.618638 0.0270036 0.0100637 107 0 0 
-0.310001 -0.296437 0.017841 11 0 0 
0.47715 0.455534 -0.255344 0 255 0 
-0.142713 0.239087 0.253333 99 0 0 
-1.00086 -0.178044 0.062535 0 179 0 
0.355677 -0.211122 -0.379206 163 0 0 
-0.278786 -0.297509 0.0237983 0 35 0 
0.80658 0.514474 0.155387 44 0 0 
-0.944913 -0.304159 0.134075 255 0 0 
-0.856307 -0.240288 0.263699 255 0 0 
-0.127265 0.207335 -0.283936 0 255 0 
0.265583 -0.383676 0.391686 19 0 0 
0.175586 -0.368476 -0.367986 0 255 0 
-0.247572 0.146117 -0.274003 0 103 0 
0.236733 -0.101335 -0.260499 213 0 0 
-0.804961 -0.36514 -0.253995 0 255 0 
0.755311 0.580282 -0.117702 225 0 0 
-0.863331 -0.310867 -0.279554 2 0 0 
0.374891 -0.18025 -0.174917 255 0 0 
0.211481 -0.314337 -0.325481 0 255 0 
0.0756392 0.245316 -0.286113 0 179 0 
0.379433 -0.360462 -0.587081 0 171 0 
0.777007 0.761752 0.117219 0 178 0 
-0.680029 -0.303864 -0.00362983 37 0 0 
-0.549612 -0.0536885 0.324801 0 115 0 
0.591333 -0.00267407 0.0130453 209 0 0 
0.944181 0.569011 0.0294505 0 211 0 
0.447709 0.46791 -0.243033 0 130 0 
0.769352 0.746225 0.135431 0 0 0 
0.364309 0.225842 0.356034 75 0 0 
-0.295933 0.251967 0.0302402 0 53 0 
0.0282099 0.428748 0.0732616 0 255 0 
-0.0421382 -0.09414 -0.234706 53 0 0 
0.487423 -0.128314 -0.164259 179 0 0 
0.302427 0.0949678 -0.282473 208 0 0 
-0.158031 0.281514 0.0416937 255 0 0 
-0.983466 -0.424513 0.373434 255 0 0 
-0.991678 -0.446962 0.384137 255 0 0 
0.66772 0.504276 0.216461 191 0 0 
-0.655937 -0.30444 -0.00342114 0 44 0 
-0.048047 -0.0552474 -0.262572 0 17 0 
-0.639678 0.0964624 -0.0419387 77 0 0 
-0.150874 0.283332 0.114056 178 0 0 
0.526085 0.398492 0.348951 0 255 0 
-0.93488 -0.475856 0.315049 255 0 0 
-0.85155 -0.0542505 0.0664479 43 0 0 
-0.0433411 -0.213701 -0.145542 0 61 0 
-0.0346996 -0.26762 0.106962 60 0 0 
0.859641 0.531112 -0.0257145 255 0 0 
0.553675 -0.192725 -0.361451 0 229 0 
0.241039 0.538395 -0.0935263 0 45 0 
0.442905 -0.266056 0.323818 0 23 0 
0.702515 0.362669 0.0641621 219 0 0 
-0.703928 -0.30452 -0.00764384 106 0 0 
0.895171 0.536679 0.142681 0 255 0 
0.936461 0.698318 0.0818922 0 253 0 
-0.605588 0.105608 0.165094 0 48 0 
-0.969521 -0.289783 0.138502 64 0 0 
0.273105 0.573988 0.0262079 255 0 0 
0.766659 0.761514 0.054649 145 0 0 
0.636551 0.611562 -0.164144 0 211 0 
0.353525 -0.325568 -0.348826 255 0 0 
-0.805595 -0.0144098 0.0671711 0 62 0 
-0.147207 0.282311 0.13792 135 0 0 
0.192534 -0.464222 0.557305 97 0 0 
0.254597 -0.207353 0.205999 7 0 0 
0.359612 -0.318004 -0.325554 0 9 0 
0.521462 -0.0853797 0.203618 115 0 0 
-0.542876 -0.270893 -0.121872 45 0 0 
0.158401 0.304368 -0.246562 165 0 0 
-1.0366 -0.567242 0.419421 0 255 0 
0.359592 -0.0316547 0.356406 0 133 0 
-0.535389 -0.210452 0.268141 0 24 0 
0.355074 0.478414 0.310656 0 167 0 
0.515441 -0.242398 0.439542 0 255 0 
-0.861473 -0.465371 0.309177 0 178 0 
0.274326 0.615003 0.0737309 0 155 0 
-0.928988 -0.280426 -0.22063 255 0 0 
0.820517 0.748058 0.0522981 220 0 0 
0.448528 -0.20163 0.250986 0 103 0 
-0.429307 -0.298122 1.77298e-05 0 36 0 
-0.158163 0.217214 -0.176467 255 0 0 
0.415212 0.459579 -0.24187 0 95 0 
0.519608 0.730155 0.0555414 39 0 0 
-0.868486 -0.470534 -0.317367 0 255 0 
-0.57558 0.110652 0.190436 0 18 0 
0.710001 0.271355 0.115329 0 184 0 
-0.789968 -0.342257 -0.234876 0 247 0 
-1.00959 -0.36419 -0.323949 157 0 0 
0.412464 -0.256736 -0.27447 58 0 0 
0.349719 0.405253 -0.245365 152 0 0 
0.485922 -0.289585 0.389214 0 122 0 
0.509227 -0.233419 -0.433183 0 88 0 
-0.584694 0.139178 0.055654 0 109 0 
-0.122908 0.162687 0.344917 0 75 0 
0.818231 0.636118 0.219828 0 255 0 
-0.778663 0.00128578 0.0666727 29 0 0 
-0.784572 -0.34126 0.228627 0 31 0 
0.583656 0.470636 0.261738 234 0 0 
0.91199 0.57099 0.129923 1 0 0 
-0.573509 -0.220952 -0.219942 0 136 0 
-0.861447 -0.485667 0.357449 0 255 0 
0.610141 0.596091 -0.170958 0 90 0 
0.282898 0.129806 -0.286982 233 0 0 
0.809992 0.536464 -0.0571591 255 0 0 
-0.023878 -0.28477 0.0597629 31 0 0 
0.241153 -0.126099 0.31209 221 0 0 
-0.870822 -0.0699755 0.0691536 64 0 0 
0.559605 -0.177493 -0.341292 0 255 0 
0.910445 0.693446 -0.0302055 0 1 0 
-0.826274 -0.410164 0.271941 0 255 0 
0.14559 0.321096 -0.230885 144 0 0 
0.516901 0.541941 -0.198124 100 0 0 
0.82474 0.524194 0.109863 255 0 0 
0.609878 -0.0212384 0.0110345 0 255 0 
-0.546672 -0.284958 0.0130027 208 0 0 
-0.880393 -0.268293 -0.22791 255 0 0 
-0.496314 0.0661358 -0.243576 40 0 0 
-0.579874 0.0424789 0.270568 13 0 0 
-0.769195 -0.327972 0.195397 24 0 0 
-0.489052 -0.298728 -0.00736712 0 128 0 
0.787543 0.486188 0.0462722 255 0 0 
0.447295 -0.368031 0.575442 0 255 0 
0.144811 -0.407186 -0.401379 0 120 0 
-0.529101 -0.253567 0.220217 0 84 0 
0.626189 0.748868 0.0644662 129 0 0 
0.464751 -0.302394 0.395736 89 0 0 
0.413214 -0.258273 0.465077 255 0 0 
-0.168429 0.248176 -0.122457 255 0 0 
0.199573 0.512817 0.152062 156 0 0 
0.947941 0.63618 0.0473436 159 0 0 
0.610482 0.360791 0.317226 0 255 0 
-0.0736193 -0.149028 0.236912 141 0 0 
0.493891 -0.0988503 0.188583 255 0 0 
-1.02568 -0.508173 0.357382 0 36 0 
0.903213 0.577277 0.0628272 255 0 0 
0.863871 0.51436 0.0595174 206 0 0 
0.143062 -0.455039 -0.539182 0 16 0 
-0.0309305 -0.247093 -0.102488 4 0 0 
-0.537739 -0.28136 0.0649596 196 0 0 
0.766626 0.477196 0.0551046 255 0 0 
0.525861 -0.229949 -0.416085 0 87 0 
-0.898695 -0.553846 0.406497 0 255 0 
0.185774 0.521518 0.104747 0 54 0 
0.694902 0.776615 0.0639234 0 254 0 
0.864969 0.726256 0.0526784 255 0 0 
-0.369814 -0.301945 0.00903204 0 100 0 
0.942985 0.70622 0.0370275 0 255 0 
-1.05264 -0.516278 -0.367219 0 255 0 
-0.536486 -0.256641 -0.156938 1 0 0 
0.488723 0.440119 0.304263 255 0 0 
-0.979067 -0.242006 0.165235 32 0 0 
0.192387 -0.445914 -0.558902 255 0 0 
-0.134898 0.223429 -0.26743 0 255 0 
0.776591 0.617655 0.22184 0 148 0 
0.966437 0.612629 0.0325225 0 255 0 
-0.0858505 -0.102043 0.273337 121 0 0 
0.540422 -0.00897308 0.28553 0 18 0 
0.88514 0.525161 0.0983043 0 5 0 
0.488808 -0.332109 0.517066 0 255 0 
0.120213 -0.478709 0.490521 0 255 0 
0.0814851 0.0248806 0.342547 86 0 0 
0.741103 0.693663 -0.0821266 241 0 0 
-0.890569 -0.412643 -0.324067 255 0 0 
-0.952367 -0.513636 -0.394169 255 0 0 
0.914756 0.694883 0.0609776 255 0 0 
0.554355 -0.0576095 0.0145135 0 117 0 
-0.996382 -0.511148 0.388797 255 0 0 
-0.223788 -0.089048 0.299645 1 0 0 
-0.893683 -0.411316 -0.245804 238 0 0 
-0.136947 0.208426 0.314097 0 204 0 
0.431808 -0.298283 0.355766 0 27 0 
-0.531775 -0.236787 0.244465 0 84 0 
0.829872 0.545569 0.181746 0 87 0 
0.298325 0.528155 -0.179385 0 255 0 
0.0805442 0.458139 0.0821317 0 255 0 
0.720606 0.585329 -0.123314 255 0 0 
-0.883246 -0.374357 -0.34623 195 0 0 
0.903372 0.670401 0.149585 11 0 0 
0.198431 0.088121 0.360332 116 0 0 
0.154811 0.0629675 0.357912 21 0 0 
-0.811455 -0.378163 0.244113 0 234 0 
-1.02819 -0.368475 0.324548 0 255 0 
0.310716 0.0527422 0.38381 0 255 0 
-0.0839752 -0.0371952 0.319287 0 52 0 
0.299349 -0.209753 -0.203605 209 0 0 
-0.904286 -0.240823 0.242542 255 0 0 
-0.145315 0.176699 -0.226614 255 0 0 
0.384141 -0.309859 -0.331384 130 0 0 
0.254841 -0.310746 0.430949 255 0 0 
-0.832813 -0.23921 0.268125 242 0 0 
-0.102598 0.0969386 0.356952 43 0 0 
-0.605571 -0.0668887 -0.265035 0 110 0 
0.2841 0.363675 -0.257796 0 18 0 
0.950481 0.707813 0.0603738 0 255 0 
0.80854 0.579001 -0.123973 0 180 0 
0.90084 0.677126 -0.0526599 60 0 0 
0.854044 0.532637 -0.0942837 0 255 0 
0.252899 0.164027 -0.320981 0 255 0 
0.928751 0.675131 0.0601743 255 0 0 
0.399342 0.485168 -0.227601 0 82 0 
-0.0294345 0.330952 0.0305709 255 0 0 
-0.867 -0.332063 0.164965 255 0 0 
0.272564 -0.343279 -0.335191 0 83 0 
0.724335 0.678869 -0.10315 65 0 0 
0.729193 0.285632 0.0342845 0 255 0 
0.3282 -0.0284498 -0.285433 123 0 0 
-0.403741 -0.301134 0.00490941 0 90 0 
0.758402 0.716862 0.166184 129 0 0 
0.581686 -0.0407074 0.0132106 0 253 0 
-0.533831 -0.16446 -0.244894 85 0 0 
0.66467 0.312855 -0.138684 0 5 0 
0.211358 -0.345333 0.385404 0 255 0 
0.391809 0.693781 0.0672863 0 36 0 
0.153128 0.25596 0.336684 66 0 0 
-0.160529 0.167201 -0.283657 0 234 0 
0.382795 -0.000747253 -0.27187 255 0 0 
-0.737125 -0.284966 -0.240859 0 255 0 
0.323425 -0.33108 -0.31773 0 255 0 
0.544135 -0.208739 -0.38365 0 153 0 
0.382311 -0.265497 0.466252 255 0 0 
0.850698 0.518281 0.00349567 255 0 0 
0.930214 0.689752 0.103357 0 153 0 
0.308713 -0.0931794 0.327362 255 0 0 
0.71776 0.214907 0.0431785 0 255 0 
-0.0571308 -0.221418 0.179026 0 0 0 
0.523273 -0.186678 0.396524 0 255 0 
0.111798 -0.465721 -0.468692 0 140 0 
-1.01513 -0.326257 -0.22539 0 255 0 
-1.04421 -0.416779 -0.292184 0 217 0 
-1.04735 -0.436603 -0.305804 0 178 0 
0.496938 -0.0284968 0.330123 0 112 0 
0.602819 0.74348 0.0634605 141 0 0 
0.258741 -0.22864 0.0034176 0 92 0 
-0.583345 0.121019 0.157574 0 51 0 
-0.573208 0.0230128 0.290791 0 46 0 
0.366465 -0.152851 -0.329863 209 0 0 
0.104943 0.257818 -0.274692 0 5 0 
-0.0528383 -0.235505 0.15992 48 0 0 
-0.577822 -0.202015 -0.234488 0 116 0 
-0.876022 -0.354354 -0.302565 245 0 0 
0.25016 -0.196028 -0.23225 101 0 0 
-0.107925 0.174883 -0.28436 72 0 0 
0.262872 0.482691 0.247113 189 0 0 
-0.0291953 0.190687 -0.289586 82 0 0 
0.284321 -0.266349 -0.400505 199 0 0 
0.481687 -0.28517 -0.494892 0 255 0 
0.549076 -0.0570555 0.230395 0 48 0 
-0.917108 -0.407871 0.374432 255 0 0 
-0.5959 -0.114883 -0.267008 0 102 0 
-0.297029 -0.100657 0.299729 0 35 0 
0.282707 -0.301432 -0.462293 255 0 0 
0.831547 0.561386 -0.131978 0 255 0 
-0.162893 0.280034 0.00853465 251 0 0 
0.17974 0.524646 0.0396425 0 255 0 
-0.0725411 0.0524908 -0.30951 0 2 0 
0.922423 0.699118 -0.0100241 0 88 0 
-0.944907 -0.396075 0.369184 255 0 0 
-0.417749 0.202409 0.046426 56 0 0 
-0.945259 -0.351536 -0.178267 255 0 0 
-0.0504601 -0.186491 -0.16529 40 0 0 
0.470546 -0.278691 0.501259 0 201 0 
0.458694 -0.291767 0.520098 0 134 0 
0.655562 0.337534 0.272 0 190 0 
0.375372 -0.171533 0.39926 17 0 0 
-0.153517 0.259614 -0.219635 0 255 0 
0.230705 0.541081 -0.065427 0 63 0 
-0.0748051 -0.10824 -0.223035 87 0 0 
-0.95921 -0.317481 0.331523 0 61 0 
-1.0392 -0.395227 -0.278508 0 255 0 
-0.854774 -0.492021 -0.347756 0 255 0 
0.129967 0.0467194 0.354036 5 0 0 
0.248225 0.552289 0.030242 255 0 0 
-0.961723 -0.141619 0.0716158 35 0 0 
0.656471 0.0929302 0.00664829 155 0 0 
-0.89234 -0.464199 0.30069 174 0 0 
0.324341 0.657644 0.0669864 0 142 0 
0.198809 0.244821 -0.287712 85 0 0 
0.527491 -0.101329 -0.16333 51 0 0 
0.0195176 -0.00162762 0.342527 0 191 0 
0.461845 0.404861 0.322053 255 0 0 
0.355873 -0.17234 0.00935999 6 0 0 
-0.604745 0.106614 0.0469727 255 0 0 
0.709416 0.389109 0.0665101 187 0 0 
-0.0981725 -0.0153617 -0.276239 135 0 0 
-0.636736 0.0834641 -0.102933 53 0 0 
0.330296 -0.282277 0.493112 177 0 0 
0.3814 -0.0350185 -0.294192 86 0 0 
-0.546313 -0.283676 -0.0364594 192 0 0 
-0.998087 -0.366197 0.261588 0 92 0 
-1.01611 -0.205545 0.075791 0 255 0 
0.337705 0.491827 -0.178217 255 0 0 
-0.859304 -0.368662 -0.201674 255 0 0 
-1.02697 -0.220606 0.0562871 0 255 0 
-0.0529578 -0.0257127 -0.279467 0 26 0 
-0.877045 -0.36575 0.205272 179 0 0 
0.315153 -0.301145 0.510811 255 0 0 
0.41493 -0.0583709 0.341353 255 0 0 
0.188094 0.217265 0.35744 8 0 0 
0.371693 -0.0515771 0.35094 33 0 0 
0.688385 0.622817 -0.137424 8 0 0 
-0.994269 -0.501244 -0.387034 255 0 0 
0.269597 0.149734 -0.291174 213 0 0 
0.30923 -0.289739 0.458862 255 0 0 
0.77645 0.553544 0.192954 177 0 0 
0.538137 -0.0714364 0.214439 15 0 0 
0.92164 0.523471 0.0306475 0 255 0 
-0.10941 0.00778537 0.331111 145 0 0 
-1.01023 -0.255776 0.0568744 0 255 0 
-1.01893 -0.421118 -0.270086 0 71 0 
-1.0553 -0.489469 -0.342759 0 255 0 
0.500224 -0.322719 0.498148 0 255 0 
-0.628968 0.0588559 -0.164431 12 0 0 
0.917336 0.531304 -0.00965015 0 255 0 
-1.01416 -0.483501 -0.375463 255 0 0 
0.685815 0.260629 0.142362 207 0 0 
0.172017 0.233122 0.348761 54 0 0 
-0.0665794 -0.133847 -0.203805 107 0 0 
-0.249162 -0.0933835 0.298266 19 0 0 
-0.285747 0.137691 -0.274605 0 95 0 
0.362693 0.681393 0.0647174 0 95 0 
-0.535504 -0.241022 -0.179798 29 0 0 
0.498933 0.407619 0.35299 0 255 0 
0.107605 -0.282054 0.021189 0 178 0 
0.858815 0.575478 0.186901 0 89 0 
0.253676 0.130012 0.371567 0 58 0 
0.887126 0.717093 0.0554341 255 0 0 
0.252442 -0.272372 0.331211 0 255 0 
-0.0202286 -0.283078 -0.0255655 9 0 0 
-0.752387 -0.311052 -0.0126988 130 0 0 
0.408078 -0.245257 -0.449235 145 0 0 
0.695959 0.339797 0.0591357 255 0 0 
0.28393 -0.33473 0.546346 255 0 0 
-0.217592 0.153873 -0.275351 0 156 0 
0.675036 0.265493 0.166712 255 0 0 
0.407861 -0.168027 0.1869 33 0 0 
0.645666 0.0683361 0.00708242 93 0 0 
0.92447 0.572978 0.103263 5 0 0 
-0.0823463 -0.0834195 -0.241315 51 0 0 
0.271732 -0.0658654 -0.270997 247 0 0 
0.779401 0.741353 -0.0374222 27 0 0 
-0.957463 -0.304317 0.0406661 0 111 0 
0.386703 -0.391929 0.627755 0 255 0 
0.21077 -0.249165 0.00164523 0 112 0 
-0.0920695 0.0695959 0.351086 110 0 0 
-0.0919621 0.124368 -0.323173 0 255 0 
0.196262 -0.194255 0.244355 0 102 0 
0.917409 0.523388 0.0564272 0 255 0 
-0.0888447 -0.0590819 -0.255924 62 0 0 
0.305963 -0.200963 0.191031 112 0 0 
-0.92744 -0.515317 -0.401111 255 0 0 
0.366681 -0.178093 -0.34968 187 0 0 
-0.612007 0.120203 0.0201256 11 0 0 
0.39841 -0.275042 -0.293734 78 0 0 
-0.888973 -0.416998 0.377854 255 0 0 
-0.995271 -0.405207 0.260497 0 131 0 
0.109622 0.034583 0.350043 7 0 0 
-0.095367 -0.0564576 0.300965 152 0 0 
0.555896 -0.0394782 0.245722 0 93 0 
-0.913173 -0.485416 -0.322983 144 0 0 
-0.975435 -0.31788 -0.179361 94 0 0 
0.182827 0.526225 0.076374 0 207 0 
-0.926348 -0.237037 0.229808 255 0 0 
-0.866604 -0.516266 -0.366563 0 255 0 
0.470978 0.720098 0.0568633 0 9 0 
-0.750487 0.0188149 0.0674426 97 0 0 
0.710225 0.271641 -0.00510982 0 47 0 
-0.981489 -0.160622 0.0691586 0 18 0 
-0.00133405 0.345652 0.0309453 255 0 0 
0.784455 0.484755 0.161709 0 255 0 
0.718066 0.546098 0.192548 255 0 0 
0.391169 0.454626 0.333916 0 255 0 
0.14929 0.284756 -0.268901 0 82 0 
0.414618 0.356038 0.331293 255 0 0 
0.562098 -0.12339 -0.291073 0 255 0 
0.305911 0.379453 -0.253964 15 0 0 
0.799533 0.577113 0.208469 0 92 0 
0.804941 0.552879 0.196638 0 97 0 
-0.105921 -0.298437 0.0603786 0 235 0 
-0.899362 -0.4293 -0.265561 246 0 0 
-0.957534 -0.2888 -0.22702 94 0 0 
0.23432 0.193043 -0.316021 0 255 0 
-0.156206 0.282146 0.0660559 255 0 0 
0.560182 0.385785 0.33354 0 182 0 
0.297744 0.635709 0.0701446 0 142 0 
0.330928 -0.207614 -0.19442 229 0 0 
0.221033 0.558449 0.120821 0 124 0 
-0.667011 0.0728931 0.0527485 255 0 0 
0.359896 -0.375093 -0.598031 0 189 0 
-0.00368836 -0.291127 0.0343262 0 63 0 
-0.142943 0.239193 -0.247747 0 255 0 
-0.971217 -0.455044 -0.279518 254 0 0 
0.331167 -0.0871386 0.335573 255 0 0 
-0.929412 -0.457177 0.300687 255 0 0 
0.127597 0.272601 -0.272064 0 71 0 
0.386769 0.328436 0.345249 14 0 0 
0.206063 0.508694 0.177852 102 0 0 
0.544336 -0.0926556 -0.178361 0 41 0 
0.372515 0.498127 -0.221623 0 203 0 
-0.542469 -0.087015 0.326291 0 150 0 
-0.16546 0.283077 -0.177468 0 255 0 
-0.59231 0.0736922 0.22915 33 0 0 
-0.41708 -0.11639 0.294336 161 0 0 
0.173308 -0.181755 0.265169 0 247 0 
0.417614 -0.319549 0.385819 99 0 0 
0.714374 0.634905 0.227171 0 142 0 
-0.806521 -0.270666 -0.246872 43 0 0 
-0.936273 -0.280778 0.300935 0 77 0 
-0.0796731 0.326418 0.0542275 85 0 0 
-0.980705 -0.29333 0.178689 0 124 0 
0.303756 -0.262441 -0.415059 193 0 0 
0.887095 0.665725 0.166652 27 0 0 
0.467801 -0.238251 -0.439164 229 0 0 
0.488657 -0.261121 0.472531 0 255 0 
-0.865398 -0.422631 0.375866 0 23 0 
0.414537 -0.300052 -0.335967 234 0 0 
0.217746 -0.199696 0.226288 22 0 0 
0.192631 0.309846 -0.266364 0 125 0 
-0.884125 -0.387812 -0.314922 255 0 0 
0.360796 -0.217034 0.43408 0 16 0 
-0.904926 -0.401921 0.245983 255 0 0 
0.385494 -0.288227 -0.309462 153 0 0 
-0.827282 -0.426181 -0.305631 0 255 0 
0.260974 -0.255407 0.316339 0 255 0 
-0.197291 -0.292906 0.0218205 12 0 0 
-0.834636 -0.26755 -0.243423 170 0 0 
0.387256 -0.0699808 0.343428 255 0 0 
0.309112 -0.0476329 -0.288706 10 0 0 
0.905522 0.506099 0.0343847 0 255 0 
-1.0404 -0.528914 0.39634 0 255 0 
-0.839069 -0.442591 0.316793 0 251 0 
0.948164 0.614834 0.0618338 65 0 0 
-0.97116 -0.306504 -0.200418 206 0 0 
0.742374 0.590854 0.205412 255 0 0 
0.546525 -0.277036 -0.374246 0 255 0 
0.318194 0.519739 -0.192958 0 255 0 
0.677434 0.29958 -0.107533 64 0 0 
0.216077 0.187086 0.375894 0 233 0 
0.663547 0.271062 0.187421 255 0 0 
0.288332 -0.0598288 -0.287506 0 57 0 
0.208294 0.548615 0.00672431 0 255 0 
0.36012 -0.185012 0.184615 110 0 0 
-1.02814 -0.474127 0.341608 26 0 0 
-0.538788 -0.270465 0.122577 255 0 0 
0.172757 0.283931 -0.262278 173 0 0 
0.562362 -0.155952 -0.319362 0 255 0 
-0.940549 -0.493339 0.330502 255 0 0 
-1.01269 -0.401949 0.293393 0 15 0 
-0.608599 0.11295 0.14224 0 90 0 
0.933446 0.547832 0.0180513 0 255 0 
0.445749 -0.124514 0.178122 255 0 0 
0.224776 -0.327936 0.415207 84 0 0 
-0.0545825 0.181328 -0.286139 196 0 0 
-0.0849043 0.100923 -0.321175 0 181 0 
-0.546904 -0.280494 -0.0602698 191 0 0 
0.31858 0.0392294 -0.290292 0 102 0 
-0.111092 0.169526 -0.309648 0 255 0 
0.564912 0.412232 -0.247813 0 222 0 
0.33145 -0.280636 0.462953 255 0 0 
-0.543148 -0.299037 -0.00823906 0 150 0 
0.250935 -0.33373 -0.497926 233 0 0 
0.713262 0.269853 0.0563561 0 94 0 
0.8371 0.578448 0.197733 0 87 0 
0.944165 0.594727 0.0755137 0 41 0 
0.0494188 0.442352 0.0751315 0 255 0 
0.359384 -0.272985 0.464438 255 0 0 
-1.04994 -0.455596 -0.320607 0 182 0 
0.84907 0.545478 -0.114294 0 255 0 
0.862102 0.515161 0.0325313 255 0 0 
0.687672 0.291013 -0.0853753 37 0 0 
0.135179 0.439279 0.0297066 255 0 0 
0.823071 0.51292 0.133666 117 0 0 
0.385466 -0.330232 0.413261 255 0 0 
0.744977 0.46772 0.0616869 255 0 0 
0.229989 -0.446809 0.582114 129 0 0 
0.335333 0.495742 0.29219 0 105 0 
0.404609 -0.163037 -0.170208 255 0 0 
-0.362285 0.11575 -0.269578 0 20 0 
-1.02139 -0.344002 -0.240728 0 255 0 
0.581491 0.585634 -0.179175 0 56 0 
0.498805 0.523586 -0.201736 231 0 0 
0.772726 0.56025 -0.0964707 255 0 0 
0.71677 0.666894 0.199386 234 0 0 
0.210104 -0.455787 0.572034 85 0 0 
0.436375 -0.311238 0.404193 255 0 0 
0.253267 0.533815 -0.119928 0 44 0 
-0.192521 0.160965 -0.279 0 236 0 
-1.00531 -0.383022 0.277632 0 50 0 
-0.44803 0.0854525 -0.256296 0 8 0 
0.460207 -0.295721 -0.49766 12 0 0 
0.64265 0.281455 0.228034 255 0 0 
0.163243 -0.385729 -0.381541 0 173 0 
-0.318 0.243391 0.0338553 0 30 0 
0.298885 -0.396989 -0.421783 255 0 0 
-0.83235 -0.0391527 0.0667667 29 0 0 
0.219145 0.542669 -0.0417398 0 180 0 
0.784598 0.581081 -0.121986 0 12 0 
-0.61189 0.13091 0.0541758 0 252 0 
-0.114855 -0.0539015 0.323854 0 255 0 
0.298367 0.511833 -0.156796 255 0 0 
0.336263 -0.193284 0.188822 143 0 0 
-0.639033 0.0905228 -0.0727 74 0 0 
0.414724 -0.137456 0.00667583 15 0 0 
-0.589329 0.124846 0.13221 0 58 0 
-0.921251 -0.512421 0.414586 0 221 0 
0.137369 -0.483387 0.507576 0 255 0 
0.334739 -0.256704 -0.431674 162 0 0 
0.609389 0.482299 0.246043 221 0 0 
-0.963078 -0.4925 -0.385427 255 0 0 
-0.721021 0.0379512 0.0640655 169 0 0 
0.320273 -0.401382 -0.597695 7 0 0 
0.237019 0.338089 -0.259796 0 51 0 
0.281696 0.4734 0.259243 255 0 0 
-1.02804 -0.362221 -0.25568 0 255 0 
0.417641 0.441516 0.333187 0 176 0 
-0.025488 -0.25936 -0.0825322 11 0 0 
0.117706 -0.456633 -0.520559 0 255 0 
0.793247 0.767091 -0.00949113 0 255 0 
0.222679 -0.298006 -0.310641 0 255 0 
0.794436 0.756843 0.0533844 157 0 0 
0.476557 -0.345903 0.534785 0 255 0 
0.901109 0.511873 0.145101 0 255 0 
0.29889 -0.317549 0.527285 255 0 0 
0.515353 -0.304989 0.475064 0 255 0 
0.280776 -0.302001 0.447819 255 0 0 
-0.762776 -0.322222 -0.219459 0 181 0 
0.477532 0.42305 0.317099 255 0 0 
0.304207 -0.429764 0.615242 0 72 0 
0.665046 0.617531 -0.150282 0 111 0 
-0.223607 0.282677 0.0243493 0 248 0 
-0.555673 0.148349 0.0542782 7 0 0 
-0.142788 0.261004 0.215848 71 0 0 
-0.174213 0.25628 -0.0985833 255 0 0 
-0.0744214 -0.301041 0.0523961 0 255 0 
0.442747 -0.253694 0.458467 255 0 0 
0.386763 -0.36935 0.445275 255 0 0 
0.842014 0.537904 0.159635 62 0 0 
0.230375 0.557885 0.143412 0 63 0 
0.968654 0.66203 0.0262216 0 255 0 
0.429328 -0.326924 -0.542129 0 85 0 
0.522852 -0.075526 0.012773 0 25 0 
-0.101398 0.146347 -0.319662 0 255 0 
-0.631833 -0.305537 -0.00268068 0 132 0 
0.225713 -0.317427 0.36824 0 255 0 
0.308558 -0.382179 -0.405334 255 0 0 
0.71251 0.636411 -0.122792 130 0 0 
-1.00053 -0.306842 -0.182272 0 255 0 
0.74383 0.699629 0.178987 193 0 0 
0.706667 0.272756 0.143913 0 255 0 
0.441021 -0.242643 -0.446863 215 0 0 
-1.01024 -0.373429 0.340595 0 125 0 
-0.995528 -0.43836 -0.272658 160 0 0 
-0.784104 -0.31439 -0.0155594 157 0 0 
0.22229 0.501996 0.216349 0 52 0 
-0.57488 -0.303508 -0.00736812 0 211 0 
0.945042 0.595549 0.0433906 50 0 0 
0.863861 0.658977 0.188387 0 44 0 
0.340517 -0.234862 -0.400333 181 0 0 
0.153839 -0.265578 -0.00203749 0 87 0 
-0.0900801 -0.0817829 0.285616 151 0 0 
0.559658 -0.088533 -0.263586 0 255 0 
0.464318 -0.356633 0.553088 0 255 0 
-0.0632593 0.0216118 -0.299709 0 0 0 
0.325571 -0.361559 -0.385847 255 0 0 
0.236625 -0.238968 0.0024913 0 110 0 
-0.833544 -0.318952 -0.0152005 165 0 0 
-0.967278 -0.509139 0.389885 255 0 0 
0.297657 -0.209786 0.225942 135 0 0 
-0.870818 -0.505992 0.369177 0 255 0 
0.394077 -0.149675 0.00624537 10 0 0 
0.23188 -0.437475 -0.570634 255 0 0 
0.451535 -0.142444 -0.169189 255 0 0 
-0.847177 -0.457499 0.333899 0 229 0 
0.769737 0.725362 -0.0531566 150 0 0 
-0.0696233 0.00791401 0.328401 180 0 0 
0.49825 -0.284561 -0.353707 134 0 0 
