ply
format ascii 1.0
element vertex 320
property float x
property float y
property float z
property float nx
property float ny
property float nz
end_header
0 0.464985 1.51776 -0.00775293 -0.983642 0.179969 
-0.273381 0.469053 1.51776 -0.0260274 -0.991143 0.130226 
-0.536256 0.48092 1.51776 -0.066109 -0.997781 -0.00785769 
-0.778522 0.487916 1.51776 0.0661238 -0.978087 -0.197417 
-0.990871 0.448474 1.51776 0.247087 -0.883743 -0.397426 
-1.16514 0.378351 1.51776 0.434543 -0.701011 -0.56547 
-1.29463 0.253511 1.51776 0.597075 -0.423652 -0.68119 
-1.37438 0.105675 1.51776 0.607992 -0.254968 -0.751889 
-1.4013 0 1.51776 0.626017 0.00323089 -0.779803 
-1.37438 -0.105675 1.51776 0.610355 0.242081 -0.754231 
-1.29463 -0.253985 1.51776 0.560064 0.46167 -0.687887 
-1.16514 -0.361288 1.51776 0.444106 0.689159 -0.572564 
-0.990871 -0.445067 1.51776 0.245105 0.881098 -0.404463 
-0.778522 -0.47072 1.52125 0.0682061 0.975582 -0.208778 
-0.536256 -0.481088 1.51776 -0.0454803 0.998965 -0.000641066 
-0.273381 -0.451319 1.51776 -0.0895017 0.983453 0.157508 
0 -0.445464 1.51776 0.00184012 0.976679 0.214695 
0.273381 -0.448526 1.51776 0.0524158 0.984981 0.164514 
0.536256 -0.472339 1.51776 0.0911492 0.995742 0.0137902 
0.778522 -0.484547 1.51776 -9.33168e-06 0.98295 -0.183872 
0.990871 -0.463909 1.51776 -0.218605 0.897067 -0.384035 
1.16514 -0.387603 1.51776 -0.461656 0.692769 -0.554025 
1.3302 -0.207289 1.51776 -0.624179 0.332742 -0.706883 
1.37438 -0.105675 1.51776 -0.618031 0.238061 -0.749243 
1.4013 0 1.51776 -0.627549 0.00598871 -0.778554 
1.37438 0.105675 1.51776 -0.605755 -0.257593 -0.7528 
1.29463 0.247235 1.51776 -0.577904 -0.445017 -0.684096 
1.16514 0.365129 1.51776 -0.446153 -0.691992 -0.567534 
0.990871 0.443233 1.51776 -0.259085 -0.880113 -0.397839 
0.778522 0.480852 1.51776 -0.0837545 -0.976759 -0.197301 
0.536256 0.485033 1.51776 0.0431121 -0.999037 -0.0081243 
0.273381 0.468212 1.51776 0.0478323 -0.990187 0.131306 
-1.34796 0.50491 0.893158 -1.60283e-05 -0.999052 0.0435283 
-1.44809 0.495208 0.893158 0.191566 -0.979105 -0.0682286 
-1.54438 0.466476 0.893158 0.372097 -0.913241 -0.165933 
-1.63312 0.419818 0.893158 0.53228 -0.809837 -0.246662 
-1.7109 0.357025 0.893158 0.666858 -0.677907 -0.309423 
-1.77473 0.280513 0.893158 0.773349 -0.525298 -0.354956 
-1.82217 0.193221 0.893158 0.850545 -0.358143 -0.385107 
-1.85137 0.0985031 0.893158 0.897482 -0.181475 -0.401987 
-1.86124 0 0.893158 0.913323 -1.8496e-07 -0.407237 
-1.85137 -0.0985031 0.893158 0.897688 0.181516 -0.401507 
-1.82217 -0.193221 0.893158 0.850853 0.358272 -0.384306 
-1.77473 -0.280513 0.893158 0.773595 0.525465 -0.354171 
-1.7109 -0.357025 0.893158 0.666913 0.677963 -0.309182 
-1.63312 -0.419818 0.893158 0.53214 0.809626 -0.247654 
-1.54438 -0.466476 0.893158 0.371908 0.912782 -0.16886 
-1.44809 -0.495208 0.893158 0.191491 0.978737 -0.0735184 
-1.34796 -0.50491 0.893158 -1.76538e-05 0.999351 0.036027 
-1.24782 -0.495208 0.893158 -0.189689 0.969401 0.155819 
-1.15154 -0.466476 0.893158 -0.362205 0.888943 0.280336 
-1.0628 -0.419818 0.893158 -0.502747 0.764911 0.402687 
-0.985017 -0.357025 0.893158 -0.601022 0.611028 0.515187 
-0.921184 -0.280513 0.893158 -0.655291 0.445166 0.610263 
-0.873752 -0.193221 0.893158 -0.674275 0.283972 0.681699 
-0.844544 -0.0985031 0.893158 -0.674228 0.136365 0.725824 
-0.834681 0 0.893158 -0.671064 2.7993e-06 0.7414 
-0.844544 0.0985031 0.893158 -0.671706 -0.135853 0.728255 
-0.873752 0.193221 0.893158 -0.670157 -0.282238 0.686463 
-0.921184 0.280513 0.893158 -0.650903 -0.442185 0.617088 
-0.985017 0.357025 0.893158 -0.59746 -0.607411 0.523539 
-1.0628 0.419818 0.893158 -0.500487 -0.761478 0.411903 
-1.15154 0.466476 0.893158 -0.361146 -0.886335 0.289798 
-1.24782 0.495208 0.893158 -0.189412 -0.967973 0.164778 
1.656 0.501057 0.00279748 -7.66942e-06 -0.999993 0.00384804 
1.57485 0.491429 0.00279748 0.23296 -0.972476 0.00446888 
1.49681 0.462916 0.00279748 0.446398 -0.89482 0.00507232 
1.42489 0.416614 0.00279748 0.626955 -0.779035 0.00561909 
1.36186 0.354301 0.00279748 0.769383 -0.638759 0.006071 
1.31012 0.278372 0.00279748 0.87445 -0.485073 0.00640165 
1.27168 0.191746 0.00279748 0.945632 -0.32517 0.00660673 
1.24801 0.0977514 0.00279748 0.986617 -0.162917 0.00670409 
1.24002 0 0.00279748 0.999977 -6.135e-07 0.00671915 
1.24801 -0.0977514 0.00279748 0.986617 0.162916 0.00666441 
1.27168 -0.191746 0.00279748 0.945633 0.32517 0.0065301 
1.31012 -0.278372 0.00279748 0.874451 0.485073 0.00629418 
1.36186 -0.354301 0.00279748 0.769385 0.638758 0.00594229 
1.42489 -0.416614 0.00279748 0.626957 0.779034 0.00548092 
1.49681 -0.462916 0.00279748 0.4464 0.89482 0.00493626 
1.57485 -0.491429 0.00279748 0.23296 0.972477 0.00434431 
1.656 -0.501057 0.00279748 -1.04438e-05 0.999993 0.00374106 
1.73716 -0.491429 0.00279748 -0.232983 0.972476 0.0031573 
1.81519 -0.462916 0.00279748 -0.446422 0.894819 0.00261703 
1.88711 -0.416614 0.00279748 -0.626975 0.779037 0.0021376 
1.95014 -0.354301 0.00279748 -0.769397 0.638768 0.00173103 
2.00188 -0.278372 0.00279748 -0.874462 0.485092 0.0014058 
2.04032 -0.191746 0.00279748 -0.945647 0.325194 0.00116846 
2.06399 -0.0977514 0.00279748 -0.986637 0.162933 0.00102426 
2.07198 0 0.00279748 -1 1.57344e-06 0.000977083 
2.06399 0.0977514 0.00279748 -0.986637 -0.16293 0.00102881 
2.04032 0.191746 0.00279748 -0.945648 -0.325191 0.00117904 
2.00188 0.278372 0.00279748 -0.874463 -0.48509 0.00142514 
1.95014 0.354301 0.00279748 -0.769398 -0.638767 0.00176255 
1.88711 0.416614 0.00279748 -0.626974 -0.779037 0.00218484 
1.81519 0.462916 0.00279748 -0.446419 -0.89482 0.00268301 
1.73716 0.491429 0.00279748 -0.232979 -0.972476 0.00324384 
-1.64609 0.501057 0.00279748 5.85993e-06 -1 0.000425941 
-1.72724 0.491429 0.00279748 0.232974 -0.972482 -0.00135828 
-1.80527 0.462916 0.00279748 0.44642 -0.894819 -0.00296424 
-1.87719 0.416614 0.00279748 0.626968 -0.779033 -0.00435631 
-1.94023 0.354301 0.00279748 0.769383 -0.638764 -0.00551567 
-1.99196 0.278372 0.00279748 0.874445 -0.485083 -0.00643252 
-2.0304 0.191746 0.00279748 0.945627 -0.325177 -0.0071008 
-2.05407 0.0977514 0.00279748 0.986609 -0.16293 -0.00751585 
-2.06207 0 0.00279748 0.999971 -2.64414e-07 -0.00767439 
-2.05407 -0.0977514 0.00279748 0.986609 0.162929 -0.00757503 
-2.0304 -0.191746 0.00279748 0.945626 0.325176 -0.00721895 
-1.99196 -0.278372 0.00279748 0.874444 0.485082 -0.00660919 
-1.94023 -0.354301 0.00279748 0.769382 0.638763 -0.00575013 
-1.87719 -0.416614 0.00279748 0.626966 0.779033 -0.00464735 
-1.80527 -0.462916 0.00279748 0.446418 0.894818 -0.00330999 
-1.72724 -0.491429 0.00279748 0.232971 0.972482 -0.00175573 
-1.64609 -0.501057 0.00279748 3.68489e-06 1 -1.83498e-05 
-1.56493 -0.491429 0.00279748 -0.232969 0.972482 0.00184612 
-1.4869 -0.462916 0.00279748 -0.446408 0.894822 0.00375687 
-1.41498 -0.416614 0.00279748 -0.626954 0.779036 0.00561159 
-1.35194 -0.354301 0.00279748 -0.76938 0.63875 0.00729714 
-1.30021 -0.278372 0.00279748 -0.874439 0.485057 0.00870864 
-1.26177 -0.191746 0.00279748 -0.945608 0.325162 0.00977122 
-1.2381 -0.0977514 0.00279748 -0.986586 0.16291 0.0104492 
-1.2301 0 0.00279748 -0.999942 -6.58449e-07 0.0107334 
-1.2381 0.0977514 0.00279748 -0.986584 -0.162911 0.0106171 
-1.26177 0.191746 0.00279748 -0.945605 -0.325162 0.010085 
-1.30021 0.278372 0.00279748 -0.874436 -0.485055 0.00913095 
-1.35194 0.354301 0.00279748 -0.769377 -0.638748 0.00778482 
-1.41498 0.416614 0.00279748 -0.626952 -0.779034 0.00612511 
-1.4869 0.462916 0.00279748 -0.446406 -0.89482 0.00426563 
-1.56493 0.491429 0.00279748 -0.232967 -0.972482 0.00232924 
1.35414 0.50491 0.893158 1.72999e-05 -0.999469 0.0325697 
1.254 0.495208 0.893158 0.189733 -0.969615 0.154428 
1.15771 0.466476 0.893158 0.362124 -0.888743 0.281075 
1.06897 0.419818 0.893158 0.502052 -0.76386 0.405539 
0.991194 0.357025 0.893158 0.599084 -0.609066 0.519747 
0.927361 0.280513 0.893158 0.651894 -0.442862 0.615554 
0.879929 0.193221 0.893158 0.670119 -0.282221 0.686507 
0.850721 0.0985031 0.893158 0.670722 -0.135651 0.729199 
0.840858 0 0.893158 0.669377 6.94136e-06 0.742923 
0.850721 -0.0985031 0.893158 0.671828 0.135886 0.728136 
0.879929 -0.193221 0.893158 0.670884 0.282546 0.685625 
0.927361 -0.280513 0.893158 0.650915 0.442186 0.617074 
0.991194 -0.357025 0.893158 0.59646 0.606377 0.525874 
1.06897 -0.419818 0.893158 0.499214 0.759523 0.417025 
1.15771 -0.466476 0.893158 0.360358 0.884406 0.296596 
1.254 -0.495208 0.893158 0.189192 0.966872 0.171359 
1.35414 -0.50491 0.893158 1.27564e-05 0.998831 0.0483382 
1.45427 -0.495208 0.893158 -0.191594 0.979255 -0.0659606 
1.55056 -0.466476 0.893158 -0.372067 0.913177 -0.166357 
1.6393 -0.419818 0.893158 -0.531874 0.809208 -0.249584 
1.71708 -0.357025 0.893158 -0.66569 0.676724 -0.314486 
1.78091 -0.280513 0.893158 -0.771193 0.523834 -0.361745 
1.82834 -0.193221 0.893158 -0.847398 0.356811 -0.393196 
1.85755 -0.0985031 0.893158 -0.893556 0.180683 -0.410988 
1.86742 0 0.893158 -0.908993 4.23737e-07 -0.416812 
1.85755 0.0985031 0.893158 -0.893386 -0.180648 -0.411373 
1.82834 0.193221 0.893158 -0.846997 -0.356641 -0.394212 
1.78091 0.280513 0.893158 -0.770509 -0.523369 -0.363868 
1.71708 0.357025 0.893158 -0.664779 -0.675798 -0.31838 
1.6393 0.419818 0.893158 -0.530952 -0.807809 -0.255997 
1.55056 0.466476 0.893158 -0.371438 -0.911637 -0.175931 
1.45427 0.495208 0.893158 -0.19141 -0.978332 -0.0789187 
-1.35958 0.50491 -0.894263 -1.54836e-05 -0.998937 -0.0460924 
-1.45972 0.495208 -0.894263 0.191612 -0.979335 0.064713 
-1.55601 0.466476 -0.894263 0.372386 -0.91395 0.161321 
-1.64474 0.419818 -0.894263 0.533066 -0.811032 0.240975 
-1.72253 0.357025 -0.894263 0.668344 -0.679418 0.302832 
-1.78636 0.280513 -0.894263 0.775597 -0.526825 0.347714 
-1.83379 0.193221 -0.894263 0.853447 -0.359364 0.377473 
-1.863 0.0985031 -0.894263 0.900802 -0.182146 0.394181 
-1.87286 0 -0.894263 0.916763 -1.66134e-07 0.399432 
-1.863 -0.0985031 -0.894263 0.900937 0.182173 0.39386 
-1.83379 -0.193221 -0.894263 0.853628 0.35944 0.37699 
-1.78636 -0.280513 -0.894263 0.775692 0.526889 0.347403 
-1.72253 -0.357025 -0.894263 0.668259 0.679331 0.303214 
-1.64474 -0.419818 -0.894263 0.532825 0.810666 0.24273 
-1.55601 -0.466476 -0.894263 0.372145 0.913363 0.165155 
-1.45972 -0.495208 -0.894263 0.191525 0.978909 0.0711001 
-1.35958 -0.50491 -0.894263 -1.71112e-05 0.999308 -0.0372002 
-1.25945 -0.495208 -0.894263 -0.189688 0.969394 -0.155867 
-1.16316 -0.466476 -0.894263 -0.362304 0.889182 -0.279448 
-1.07442 -0.419818 -0.894263 -0.503122 0.76548 -0.401134 
-0.996641 -0.357025 -0.894263 -0.601811 0.61183 -0.513312 
-0.932808 -0.280513 -0.894263 -0.656475 0.44597 -0.608401 
-0.885376 -0.193221 -0.894263 -0.675667 0.284559 -0.680074 
-0.856168 -0.0985031 -0.894263 -0.67558 0.136639 -0.724515 
-0.846305 0 -0.894263 -0.672151 2.62101e-06 -0.740414 
-0.856168 0.0985031 -0.894263 -0.672381 -0.135989 -0.727606 
-0.885376 0.193221 -0.894263 -0.670397 -0.282338 -0.686187 
-0.932808 0.280513 -0.894263 -0.650819 -0.442127 -0.617219 
-0.996641 0.357025 -0.894263 -0.597226 -0.607174 -0.52408 
-1.07442 0.419818 -0.894263 -0.500254 -0.761123 -0.41284 
-1.16316 0.466476 -0.894263 -0.360991 -0.885958 -0.291142 
-1.25945 0.495208 -0.894263 -0.189352 -0.967668 -0.166628 
1.35573 0.50491 -0.894263 1.59817e-05 -0.999082 -0.0428342 
1.25559 0.495208 -0.894263 0.18945 -0.96816 -0.163631 
1.15931 0.466476 -0.894263 0.361246 -0.886583 -0.288916 
1.07057 0.419818 -0.894263 0.500499 -0.7615 -0.411847 
0.992788 0.357025 -0.894263 0.597024 -0.606972 -0.524545 
0.928955 0.280513 -0.894263 0.649619 -0.441315 -0.61906 
0.881523 0.193221 -0.894263 0.667876 -0.281277 -0.689076 
0.852314 0.0985031 -0.894263 0.668609 -0.135224 -0.731216 
0.842452 0 -0.894263 0.667353 6.89236e-06 -0.744742 
0.852314 -0.0985031 -0.894263 0.669792 0.135474 -0.730086 
0.881523 -0.193221 -0.894263 0.668787 0.281664 -0.688033 
0.928955 -0.280513 -0.894263 0.648831 0.440769 -0.620275 
0.992788 -0.357025 -0.894263 0.594579 0.604466 -0.530186 
1.07057 -0.419818 -0.894263 0.497771 0.757331 -0.422698 
1.15931 -0.466476 -0.894263 0.35951 0.882318 -0.303755 
1.25559 -0.495208 -0.894263 0.188899 0.965367 -0.179956 
1.35573 -0.50491 -0.894263 1.16018e-05 0.998308 -0.0581476 
1.45587 -0.495208 -0.894263 -0.191721 0.979892 0.0552701 
1.55215 -0.466476 -0.894263 -0.372759 0.914866 0.155146 
1.64089 -0.419818 -0.894263 -0.533445 0.811608 0.238178 
1.71867 -0.357025 -0.894263 -0.668277 0.679353 0.303126 
1.78251 -0.280513 -0.894263 -0.774722 0.526222 0.350565 
1.82994 -0.193221 -0.894263 -0.851643 0.358608 0.382235 
1.85915 -0.0985031 -0.894263 -0.898249 0.181629 0.4002 
1.86901 0 -0.894263 -0.913831 3.9643e-07 0.406095 
1.85915 0.0985031 -0.894263 -0.898075 -0.181593 0.400606 
1.82994 0.193221 -0.894263 -0.851243 -0.358439 0.383285 
1.78251 0.280513 -0.894263 -0.774052 -0.525767 0.352721 
1.71867 0.357025 -0.894263 -0.6674 -0.678463 0.307026 
1.64089 0.419818 -0.894263 -0.532574 -0.810287 0.244539 
1.55215 0.466476 -0.894263 -0.372181 -0.913454 0.16457 
1.45587 0.495208 -0.894263 -0.191567 -0.979125 0.0679386 
3.78944e-10 0.3225 1.93855 -3.22845e-05 -0.683503 -0.729947 
-0.144134 0.316303 1.93855 0.0581083 -0.668884 -0.741092 
-0.282729 0.297951 1.93855 0.113333 -0.626651 -0.771015 
-0.410459 0.268149 1.93855 0.16298 -0.558974 -0.81301 
-0.522415 0.228042 1.93855 0.205986 -0.472028 -0.857181 
-0.614295 0.179171 1.93855 0.244061 -0.373641 -0.894889 
-0.682568 0.123415 1.93855 0.279896 -0.265636 -0.922549 
-0.72461 0.0629166 1.93855 0.311734 -0.141766 -0.939534 
-0.738806 0 1.93855 0.326932 1.79013e-05 -0.945048 
-0.72461 -0.0629166 1.93855 0.314859 0.143187 -0.938276 
-0.682568 -0.123415 1.93855 0.284384 0.269905 -0.919933 
-0.614295 -0.179171 1.93855 0.247975 0.379632 -0.891285 
-0.522415 -0.228042 1.93855 0.208552 0.47766 -0.853433 
-0.410459 -0.268149 1.93855 0.164966 0.565893 -0.807807 
-0.282729 -0.297951 1.93855 0.11547 0.639453 -0.76011 
-0.144134 -0.316303 1.93855 0.0597519 0.68708 -0.724121 
3.78944e-10 -0.3225 1.93855 3.98708e-05 0.702922 -0.711267 
0.144134 -0.316303 1.93855 -0.0598281 0.688009 -0.723231 
0.282729 -0.297951 1.93855 -0.116096 0.642297 -0.757612 
0.410459 -0.268149 1.93855 -0.165686 0.568345 -0.805935 
0.522415 -0.228042 1.93855 -0.207363 0.475117 -0.85514 
0.614295 -0.179171 1.93855 -0.242958 0.371985 -0.895879 
0.682568 -0.123415 1.93855 -0.275952 0.261916 -0.924798 
0.72461 -0.0629166 1.93855 -0.306005 0.13915 -0.941806 
0.738806 0 1.93855 -0.321133 -4.50914e-05 -0.947034 
0.72461 0.0629166 1.93855 -0.309692 -0.140821 -0.940351 
0.682568 0.123415 1.93855 -0.279717 -0.265456 -0.922655 
0.614295 0.179171 1.93855 -0.243982 -0.373515 -0.894963 
0.522415 0.228042 1.93855 -0.205408 -0.470576 -0.858117 
0.410459 0.268149 1.93855 -0.162315 -0.556708 -0.814696 
0.282729 0.297951 1.93855 -0.113081 -0.62573 -0.7718 
0.144134 0.316303 1.93855 -0.0581591 -0.669333 -0.740682 
0 0.464985 -1.52929 -0.00773874 -0.988223 -0.152827 
-0.273381 0.469053 -1.52929 -0.0261119 -0.994238 -0.103968 
-0.536256 0.48092 -1.52929 -0.0659461 -0.997313 0.0319045 
-0.778522 0.487916 -1.52929 0.0657307 -0.974104 0.216336 
-0.990871 0.448474 -1.52929 0.245503 -0.877726 0.411492 
-1.16514 0.378351 -1.52929 0.430441 -0.694575 0.576442 
-1.29463 0.253511 -1.52929 0.589553 -0.418308 0.690975 
-1.37438 0.105675 -1.52929 0.598404 -0.250933 0.760885 
-1.4013 0 -1.52929 0.615382 0.00323359 0.788223 
-1.37438 -0.105675 -1.52929 0.601082 0.238187 0.762868 
-1.29463 -0.253985 -1.52929 0.553338 0.456828 0.696509 
-1.16514 -0.361288 -1.52929 0.441966 0.68322 0.581271 
-0.990871 -0.445067 -1.52929 0.239128 0.878693 0.413179 
-0.778522 -0.47072 -1.5258 0.0609125 0.976471 0.206869 
-0.536256 -0.481088 -1.52929 -0.0403105 0.999014 0.0186154 
-0.273381 -0.451319 -1.52929 -0.0909777 0.986761 -0.134261 
0 -0.445464 -1.52929 0.00217764 0.981769 -0.190067 
0.273381 -0.448526 -1.52929 0.0524313 0.989076 -0.137768 
0.536256 -0.472339 -1.52929 0.0911829 0.995745 0.0133016 
0.778522 -0.484547 -1.52929 -3.27612e-05 0.978289 0.207245 
0.990871 -0.463909 -1.52929 -0.216844 0.890044 0.400999 
1.16514 -0.387603 -1.52929 -0.457489 0.686392 0.565305 
1.3302 -0.207289 -1.52929 -0.618186 0.329613 0.713583 
1.37438 -0.105675 -1.52929 -0.61207 0.235755 0.754845 
1.4013 0 -1.52929 -0.621607 0.00592975 0.783306 
1.37438 0.105675 -1.52929 -0.599977 -0.255137 0.758243 
1.29463 0.247235 -1.52929 -0.572429 -0.440824 0.691375 
1.16514 0.365129 -1.52929 -0.442032 -0.685593 0.578421 
0.990871 0.443233 -1.52929 -0.256972 -0.872957 0.414621 
0.778522 0.480852 -1.52929 -0.0833377 -0.971768 0.220732 
0.536256 0.485033 -1.52929 0.0431248 -0.998429 0.0357763 
0.273381 0.468212 -1.52929 0.0478718 -0.99354 -0.10289 
3.78944e-10 0.3225 -1.93371 -3.59412e-05 -0.684108 0.729381 
-0.144134 0.316303 -1.93371 0.0580994 -0.668696 0.741263 
-0.282729 0.297951 -1.93371 0.112994 -0.624814 0.772554 
-0.410459 0.268149 -1.93371 0.161778 -0.554847 0.816072 
-0.522415 0.228042 -1.93371 0.203199 -0.465642 0.861329 
-0.614295 0.179171 -1.93371 0.239099 -0.366044 0.899357 
-0.682568 0.123415 -1.93371 0.272483 -0.258597 0.926758 
-0.72461 0.0629166 -1.93371 0.302051 -0.137369 0.943342 
-0.738806 0 -1.93371 0.316107 1.35148e-05 0.948724 
-0.72461 -0.0629166 -1.93371 0.304808 0.138623 0.942272 
-0.682568 -0.123415 -1.93371 0.276483 0.262409 0.924499 
-0.614295 -0.179171 -1.93371 0.24252 0.371283 0.896288 
-0.522415 -0.228042 -1.93371 0.205286 0.470126 0.858393 
-0.410459 -0.268149 -1.93371 0.16343 0.56065 0.811765 
-0.282729 -0.297951 -1.93371 0.115053 0.637362 0.761927 
-0.144134 -0.316303 -1.93371 0.0598034 0.687373 0.723839 
3.78944e-10 -0.3225 -1.93371 4.48778e-05 0.704165 0.710036 
0.144134 -0.316303 -1.93371 -0.0599472 0.689146 0.722139 
0.282729 -0.297951 -1.93371 -0.116065 0.64221 0.757691 
0.410459 -0.268149 -1.93371 -0.165004 0.566018 0.807711 
0.522415 -0.228042 -1.93371 -0.205324 0.470432 0.858217 
0.614295 -0.179171 -1.93371 -0.23893 0.36582 0.899493 
0.682568 -0.123415 -1.93371 -0.269573 0.255863 0.928367 
0.72461 -0.0629166 -1.93371 -0.297441 0.135267 0.945109 
0.738806 0 -1.93371 -0.311624 -4.47611e-05 0.950206 
0.72461 0.0629166 -1.93371 -0.301175 -0.136958 0.943682 
0.682568 0.123415 -1.93371 -0.273363 -0.259421 0.926269 
0.614295 0.179171 -1.93371 -0.23988 -0.367234 0.898664 
0.522415 0.228042 -1.93371 -0.203194 -0.465494 0.86141 
0.410459 0.268149 -1.93371 -0.161437 -0.553692 0.816923 
0.282729 0.297951 -1.93371 -0.112904 -0.624839 0.772547 
0.144134 0.316303 -1.93371 -0.0582056 -0.669752 0.7403 
